<?xml version="1.0" standalone="no"?>
<!DOCTYPE svg PUBLIC "-//W3C//DTD SVG 1.1//EN" "http://www.w3.org/Graphics/SVG/1.1/DTD/svg11.dtd" >
<svg xmlns="http://www.w3.org/2000/svg" xmlns:xlink="http://www.w3.org/1999/xlink" version="1.1">
<metadata></metadata>
<defs>
<font id="sfu_futuraheavy" horiz-adv-x="1183" >
<font-face units-per-em="2048" ascent="1638" descent="-410" />
<missing-glyph horiz-adv-x="591" />
<glyph horiz-adv-x="591" />
<glyph unicode="&#xd;" horiz-adv-x="591" />
<glyph unicode=" "  horiz-adv-x="591" />
<glyph unicode="&#x09;" horiz-adv-x="591" />
<glyph unicode="&#xa0;" horiz-adv-x="591" />
<glyph unicode="!" horiz-adv-x="665" d="M150 143q0 76 53 128.5t129 52.5t129 -52.5t53 -128.5t-53 -130t-129 -54t-129 54.5t-53 129.5zM186 444v1100h291v-1100h-291z" />
<glyph unicode="&#x22;" horiz-adv-x="999" d="M180 1544h246l-37 -672h-172zM573 1544h246l-37 -672h-172z" />
<glyph unicode="#" d="M29 354v232h231l49 254h-196v231h239l80 416h217l-80 -416h207l80 416h215l-80 -416h164v-231h-201l-49 -254h193v-232h-242l-68 -354h-217l68 354h-207l-67 -354h-218l68 354h-186zM477 586h209l53 254h-213z" />
<glyph unicode="$" d="M111 293l182 176q111 -219 287 -219q88 0 143 59.5t55 147.5q0 115 -151 192q-270 139 -279 148q-152 113 -151 313q0 172 92 289t260 147v191h149v-193q203 -25 326 -176l-137 -194q-96 125 -228 124q-70 0 -122 -46t-52 -115q0 -80 93 -140q12 -8 200 -100 q147 -72 215 -162q78 -100 78 -254q0 -182 -96 -311q-100 -135 -277 -170v-205h-149v195q-160 18 -260.5 89t-177.5 214z" />
<glyph unicode="%" horiz-adv-x="1581" d="M10 1219q0 160 103.5 263t263.5 103t263 -103.5t103 -262.5q0 -158 -104 -261.5t-262 -103.5t-262.5 103.5t-104.5 261.5zM213 1219q0 -76 45 -137.5t119 -61.5t119 61.5t45 137.5t-45 138t-119 62t-119 -62.5t-45 -137.5zM303 8l830 1589l139 -69l-828 -1591zM836 324 q0 160 103 263t263 103t263.5 -103.5t103.5 -262.5q0 -158 -104.5 -261.5t-262.5 -103.5t-262 103.5t-104 261.5zM1038 324q0 -76 45 -137.5t119 -61.5t119 61.5t45 137.5t-45 138t-119 62t-119 -62.5t-45 -137.5z" />
<glyph unicode="&#x26;" horiz-adv-x="1437" d="M68 410q0 248 223 401l92 63q-125 174 -125 328q0 172 110.5 277.5t282.5 105.5q174 0 285 -104.5t111 -276.5q0 -207 -254 -373l215 -276l155 199l191 -179l-166 -223l266 -352h-367l-124 156q-225 -197 -443 -197q-199 0 -325.5 127t-126.5 324zM371 436 q0 -78 54 -142.5t130 -64.5q92 0 229 133l-239 322q-174 -131 -174 -248zM543 1227q0 -64 37 -115l73 -104l52 43q86 72 86 168q0 61 -29 102q-33 49 -92 49t-93 -41t-34 -102z" />
<glyph unicode="'" horiz-adv-x="606" d="M180 1544h246l-37 -672h-172z" />
<glyph unicode="(" horiz-adv-x="555" d="M152 676q-1 608 206 1028l177 -119q-168 -381 -168 -921q0 -553 168 -920l-177 -121q-207 408 -206 1053z" />
<glyph unicode=")" horiz-adv-x="555" d="M20 -256q168 367 168 920q0 540 -168 921l177 119q207 -420 206 -1028q0 -645 -206 -1053z" />
<glyph unicode="*" horiz-adv-x="854" d="M111 1307l71 137l164 -107l-6 207h176l-4 -207l158 107l73 -137l-165 -103l165 -102l-73 -137l-158 106l4 -203h-176l6 203l-160 -106l-73 137l161 102z" />
<glyph unicode="+" d="M68 403v242h403v404h242v-404h403v-242h-403v-403h-242v403h-403z" />
<glyph unicode="," horiz-adv-x="591" d="M53 -303l223 622l263 -28l-295 -617z" />
<glyph unicode="-" horiz-adv-x="675" d="M88 539v235h500v-235h-500z" />
<glyph unicode="." horiz-adv-x="591" d="M115 143q0 76 53 128.5t129 52.5t129 -52.5t53 -128.5t-53 -130t-129 -54t-129 54.5t-53 129.5z" />
<glyph unicode="/" horiz-adv-x="1103" d="M76 -260l753 1997l199 -72l-754 -1997z" />
<glyph unicode="0" d="M39 770q0 307 121 533q151 282 432 282t432 -282q121 -225 121 -533q0 -301 -123 -528q-152 -283 -430 -283q-279 0 -430 283q-123 227 -123 528zM334 774q0 -180 49 -334q70 -219 209 -219t209 219q49 156 49 334t-49 334q-68 215 -209 215q-139 0 -209 -215 q-49 -152 -49 -334z" />
<glyph unicode="1" d="M297 1282v262h504v-1544h-301v1282h-203z" />
<glyph unicode="2" d="M57 0l394 496q160 201 208 274q127 188 127 303q0 94 -51 168q-57 82 -147 82q-94 0 -148 -88q-49 -78 -43 -176h-319q16 233 143 375q135 152 365 151q217 0 359 -141t142 -357q0 -154 -81 -305q-57 -106 -187 -256l-227 -264h506v-262h-1041z" />
<glyph unicode="3" d="M63 446h304q4 -96 65.5 -160.5t155.5 -64.5q96 0 153 78q53 72 54 170q0 100 -58 172q-63 82 -159 74l-56 -4v215h33q197 0 197 213q0 84 -47.5 140t-129.5 56q-76 0 -122 -61q-41 -53 -45 -133h-287q20 205 144 324.5t329 119.5q203 0 323.5 -116.5t120.5 -319.5 q0 -223 -147 -322q98 -43 151 -157q47 -100 48 -219q0 -225 -143.5 -358.5t-371.5 -133.5q-215 0 -357 136t-155 351z" />
<glyph unicode="4" d="M6 272v136l688 1165h275v-1059h164v-242h-164v-272h-283v272h-680zM356 514h330v614h-4z" />
<glyph unicode="5" d="M66 164l90 258q139 -201 348 -201q125 0 203 92q74 86 73 213q0 129 -86 218.5t-215 89.5q-141 0 -248 -101h-47l166 811h672v-262h-459l-53 -235l78 4q227 12 366 -152q131 -154 131 -385q0 -250 -154.5 -402.5t-406.5 -152.5q-279 0 -458 205z" />
<glyph unicode="6" d="M43 483q0 236 188 516l410 609l221 -160l-317 -449l4 -4q49 20 121 21q207 0 336 -156q123 -145 122 -356q0 -244 -150.5 -394.5t-393.5 -150.5q-233 0 -387 145.5t-154 378.5zM336 492q0 -113 65 -197q70 -90 181 -90q109 0 178 92q66 84 65 195q0 113 -65 196 q-70 92 -178 92q-109 0 -177.5 -89t-68.5 -199z" />
<glyph unicode="7" d="M88 1282v262h1104l-846 -1585l-248 141l637 1182h-647z" />
<glyph unicode="8" d="M92 412q0 299 250 393q-94 47 -148.5 140t-54.5 200q0 197 127 318.5t326 121.5t325.5 -122t126.5 -318q0 -106 -54 -199.5t-148 -140.5q250 -94 250 -393q0 -203 -152 -330q-143 -123 -348 -123t-348 123q-152 127 -152 330zM395 444q0 -90 51 -159q55 -76 146 -76 q102 0 160 98q37 63 36 137q0 92 -53 165t-143 73t-143.5 -72.5t-53.5 -165.5zM414 1145q0 -84 47 -148q51 -70 131 -69q80 0 131 69q47 63 47 148q0 84 -47 145q-51 70 -131 70t-131 -70q-47 -61 -47 -145z" />
<glyph unicode="9" d="M53 1038q0 244 151.5 395.5t393.5 151.5q236 0 388.5 -146.5t152.5 -379.5q0 -236 -189 -516l-409 -609l-222 162l318 449l-4 4q-55 -23 -121 -23q-207 0 -336 156q-123 145 -123 356zM356 1051q0 -113 66 -197q70 -92 178 -92q111 0 180 92q66 84 66 197t-66 196 q-69 92 -180 92q-109 0 -178 -92q-66 -84 -66 -196z" />
<glyph unicode=":" horiz-adv-x="591" d="M115 143q0 76 53 128.5t129 52.5t129 -52.5t53 -128.5t-53 -130t-129 -54t-129 54.5t-53 129.5zM115 881q0 76 53 128t129 52t129 -52.5t53 -127.5q0 -76 -53 -130.5t-129 -54.5t-129 54.5t-53 130.5z" />
<glyph unicode=";" horiz-adv-x="591" d="M33 -303l223 622l262 -28l-295 -617zM197 881q0 76 53 128t129 52t129 -52.5t53 -127.5q0 -76 -53 -130.5t-129 -54.5t-129 54.5t-53 130.5z" />
<glyph unicode="&#x3c;" d="M68 401v246l1048 373v-258l-665 -236v-4l665 -235v-258z" />
<glyph unicode="=" d="M68 162v241h1048v-241h-1048zM68 645v242h1048v-242h-1048z" />
<glyph unicode="&#x3e;" d="M68 29v258l665 235v4l-665 236v258l1048 -373v-246z" />
<glyph unicode="?" horiz-adv-x="997" d="M61 1143q-8 188 119 315t316 127q190 0 315 -125t125 -315q0 -156 -90 -272.5t-240 -149.5l-16 -197h-287v408q33 -8 74 -8q109 0 185.5 61.5t76.5 167.5q0 70 -35 121q-39 59 -106 59q-66 0 -102 -50t-36 -118v-24h-299zM268 143q0 76 53.5 128.5t129.5 52.5t129 -52.5 t53 -128.5t-53.5 -130t-128.5 -54q-76 0 -129.5 54.5t-53.5 129.5z" />
<glyph unicode="@" horiz-adv-x="1996" d="M252 772q0 344 220 578.5t562 234.5q281 0 482 -180q229 -205 229 -475q0 -223 -107 -408q-127 -219 -335 -211q-90 4 -111 127q-127 -127 -279 -127q-147 0 -247 121q-96 113 -97 262q0 195 111 336q119 156 307 156q162 -1 273 -148l28 129h146l-103 -532 q-16 -86 -16 -113q0 -63 45 -63q94 0 158 157q51 129 51 240q0 252 -145.5 402.5t-395.5 150.5q-266 0 -436 -188q-164 -180 -164 -449q0 -279 184.5 -458t462.5 -179q248 0 369 88l153 -123q-131 -70 -229 -100q-135 -41 -321 -41q-346 0 -570.5 232.5t-224.5 580.5z M745 709q0 -94 48.5 -158t140.5 -64q241 1 274 275q2 16 2 47q0 201 -211 201q-117 0 -188 -95q-66 -86 -66 -206z" />
<glyph unicode="A" horiz-adv-x="1384" d="M-18 0l602 1585h233l586 -1585h-322l-118 326h-537l-127 -326h-317zM512 571h367l-193 562h-4z" />
<glyph unicode="B" horiz-adv-x="1132" d="M111 0v1544h374q463 0 463 -420q0 -213 -135 -299q129 -23 201 -141q63 -104 63 -246q0 -217 -141 -332q-131 -106 -352 -106h-473zM412 242h63q147 0 211 34q90 49 90 187q0 135 -100 180q-63 29 -215 29h-49v-430zM412 901h37q117 0 168 44t51 159q0 199 -217 199h-39 v-402z" />
<glyph unicode="C" horiz-adv-x="1230" d="M37 760q0 344 207 579q215 246 555 246q180 0 344 -90v-360q-134 163 -338 163h-2q-211 0 -338 -165q-117 -150 -117 -367q0 -209 121 -358q129 -162 332 -162q199 0 342 164v-359q-195 -92 -350 -92q-326 0 -545 240q-211 231 -211 561z" />
<glyph unicode="D" horiz-adv-x="1323" d="M111 0v1544h430q338 0 541.5 -217t203.5 -557q0 -332 -209 -551t-538 -219h-428zM412 262h49q514 0 514 510t-514 510h-49v-1020z" />
<glyph unicode="E" horiz-adv-x="999" d="M111 0v1544h798v-262h-497v-340h479v-262h-479v-418h497v-262h-798z" />
<glyph unicode="F" horiz-adv-x="948" d="M111 0v1544h766v-262h-465v-340h436v-262h-436v-680h-301z" />
<glyph unicode="G" horiz-adv-x="1513" d="M240 1341q211 244 551 244q199 0 360.5 -96t249.5 -272l-266 -144q-47 111 -141.5 178.5t-211.5 67.5q-207 0 -327 -180q-106 -156 -107 -373q0 -217 107 -369q121 -172 329 -172q143 0 246 103.5t107 246.5h-328v246h666v-39q0 -352 -172 -575q-188 -248 -531 -248 q-332 0 -539 242q-196 226 -196 562q0 347 203 578z" />
<glyph unicode="H" horiz-adv-x="1380" d="M111 0v1544h301v-608h557v608h301v-1544h-301v690h-557v-690h-301z" />
<glyph unicode="I" horiz-adv-x="520" d="M111 0v1544h301v-1544h-301z" />
<glyph unicode="J" horiz-adv-x="796" d="M-45 104l192 222q12 -37 47 -69t70 -32q104 0 123 152q6 51 6 198v969h301v-1020q0 -135 -12 -202q-18 -102 -78 -189q-119 -174 -346 -174q-166 0 -303 145z" />
<glyph unicode="K" horiz-adv-x="1269" d="M111 0v1544h301v-651h4l477 651h371l-586 -713l618 -831h-387l-493 694h-4v-694h-301z" />
<glyph unicode="L" horiz-adv-x="823" d="M111 0v1544h301v-1282h426v-262h-727z" />
<glyph unicode="M" horiz-adv-x="1712" d="M23 0l260 1585h213l381 -1018l364 1018h217l232 -1585h-304l-122 958h-4l-351 -978h-104l-338 978h-4l-137 -958h-303z" />
<glyph unicode="N" horiz-adv-x="1554" d="M111 0v1585h217l813 -1079h4v1038h301v-1575h-217l-813 1080h-4v-1049h-301z" />
<glyph unicode="O" horiz-adv-x="1601" d="M37 774q0 338 214 574.5t550 236.5t553 -239q211 -233 211 -572q0 -344 -209 -575q-215 -240 -555 -240t-555 240q-209 231 -209 575zM348 786q0 -193 129 -356q137 -174 324 -174q186 0 323 174q129 164 129 356q0 201 -125 347q-130 155 -327 155t-328 -155 q-125 -145 -125 -347z" />
<glyph unicode="P" horiz-adv-x="1081" d="M111 0v1544h409q535 0 535 -479q0 -487 -494 -487h-149v-578h-301zM412 827h61q145 0 205 45q70 53 70 195q0 137 -78 188q-61 39 -205 39h-53v-467z" />
<glyph unicode="Q" horiz-adv-x="1601" d="M37 774q0 338 214 574.5t550 236.5t553 -239q211 -233 211 -572q0 -324 -183 -559l211 -250l-303 -31l-106 129q-156 -104 -383 -104q-340 0 -555 240q-209 231 -209 575zM348 756q0 -213 119 -355q124 -151 331 -151h3q84 0 162 51l-254 293l311 24l137 -155 q96 119 96 319q0 201 -125 353q-130 163 -325 163h-2q-209 0 -336 -172q-117 -156 -117 -370z" />
<glyph unicode="R" horiz-adv-x="1142" d="M111 0v1544h407q516 0 516 -465q0 -158 -80 -274q-85 -129 -235 -154l436 -651h-364l-375 623h-4v-623h-301zM412 834h39q282 0 282 235q0 133 -80 186q-63 43 -200 43h-41v-464z" />
<glyph unicode="S" horiz-adv-x="1077" d="M47 260l195 191q33 -96 104 -158q78 -68 174 -68q92 0 148 68q51 61 51 156q0 104 -88 167q-37 27 -180 84q-168 68 -248 154q-96 104 -97 268q0 197 127 330t324 133q109 0 227 -47q127 -49 195 -125l-141 -209q-94 127 -232 127q-78 0 -133 -49t-55 -125 q0 -100 160 -174q246 -113 292 -149q160 -125 160 -347q0 -238 -133 -381q-139 -147 -375 -147q-295 0 -475 301z" />
<glyph unicode="T" horiz-adv-x="923" d="M0 1282v262h924v-262h-312v-1282h-301v1282h-311z" />
<glyph unicode="U" horiz-adv-x="1351" d="M102 621v923h301v-864q0 -199 41 -301q63 -158 232 -158q168 0 231 158q41 102 41 301v864h301v-923q0 -305 -131 -474q-145 -188 -442 -188t-443 188q-131 169 -131 474z" />
<glyph unicode="V" horiz-adv-x="1308" d="M-29 1544h324l371 -1040h4l344 1040h323l-600 -1585h-176z" />
<glyph unicode="W" horiz-adv-x="2000" d="M-29 1544h316l311 -1052h4l307 1073h178l320 -1073h4l303 1052h316l-523 -1575h-221l-307 1010h-4l-291 -1010h-221z" />
<glyph unicode="X" horiz-adv-x="1275" d="M-16 0l493 817l-416 727h357l246 -479l225 479h356l-428 -727l475 -817h-350l-311 565l-295 -565h-352z" />
<glyph unicode="Y" horiz-adv-x="1202" d="M-33 1544h350l271 -536l295 536h352l-487 -835v-709h-302v709z" />
<glyph unicode="Z" horiz-adv-x="1177" d="M10 0l680 1282h-575v262h1052l-678 -1282h641v-262h-1120z" />
<glyph unicode="[" horiz-adv-x="589" d="M92 -186v1917h406v-187h-189v-1544h189v-186h-406z" />
<glyph unicode="\" horiz-adv-x="1103" d="M61 1737h230l753 -1737h-229z" />
<glyph unicode="]" horiz-adv-x="589" d="M92 0h189v1544h-189v187h406v-1917h-406v186z" />
<glyph unicode="^" d="M68 674l395 870h254l399 -870h-264l-260 579l-260 -579h-264z" />
<glyph unicode="_" horiz-adv-x="1024" d="M0 -231h1024v-154h-1024v154z" />
<glyph unicode="`" horiz-adv-x="778" d="M162 1458l209 127l245 -344l-145 -90z" />
<glyph unicode="a" horiz-adv-x="1157" d="M31 508q0 213 121 364q131 166 337 166q172 0 281 -127v95h283v-1006h-283v92h-4q-96 -125 -272 -125q-215 0 -344 168q-119 152 -119 373zM322 504q0 -111 63 -193q68 -90 174 -90t176 90q63 82 64 193q0 113 -64 192q-68 88 -176 88q-106 0 -174 -90q-63 -82 -63 -190z " />
<glyph unicode="b" horiz-adv-x="1157" d="M102 0v1737h287v-824q104 125 279 125q207 0 338 -166q120 -151 120 -361q0 -222 -120 -376q-131 -168 -344 -168q-180 0 -269 127h-4v-94h-287zM360 504q0 -111 64 -193q68 -90 174 -90t174 90q63 82 64 193q0 109 -64 190q-68 90 -174 90t-174 -90q-63 -82 -64 -190z " />
<glyph unicode="c" horiz-adv-x="862" d="M31 500q0 229 146.5 383.5t375.5 154.5q131 0 233 -63v-277q-98 98 -211 99q-117 0 -188 -95q-65 -83 -65 -200q0 -125 72.5 -209t191.5 -84q115 0 200 96v-276q-111 -61 -247 -62q-223 0 -365.5 153.5t-142.5 379.5z" />
<glyph unicode="d" horiz-adv-x="1157" d="M31 508q0 213 121 364q131 166 337 166q176 0 275 -125h4v824h287v-1737h-287v94h-4q-92 -127 -270 -127q-215 0 -344 168q-119 152 -119 373zM322 504q0 -111 63 -193q68 -90 174 -90t174 90q63 82 64 193q0 109 -64 190q-68 90 -174 90t-174 -90q-63 -82 -63 -190z" />
<glyph unicode="e" horiz-adv-x="1026" d="M31 494q0 242 121 387q128 157 363 157h3q238 0 363 -159q115 -145 114 -387v-35h-661q0 -111 43 -183q53 -88 155 -88q125 0 193 138l264 -43q-51 -150 -174 -232t-283 -82q-229 0 -365 147.5t-136 379.5zM342 635h383q-12 82 -59 139q-53 63 -131 64q-164 0 -193 -203z " />
<glyph unicode="f" horiz-adv-x="620" d="M16 764v242h97v294q0 203 86 324q98 137 293 137q74 0 137 -32v-256q-68 34 -114 34h-3q-82 0 -104 -92q-8 -35 -9 -155v-254h230v-242h-230v-764h-286v764h-97z" />
<glyph unicode="g" horiz-adv-x="1150" d="M152 870q131 168 346 168q166 0 260 -129h4v97h287v-945q0 -598 -488 -598q-199 0 -342 109q-156 117 -166 309h303q23 -176 199 -176q135 0 180 109q27 66 27 221v65h-4q-100 -133 -275 -133q-209 0 -336 164q-116 149 -116 361q0 225 121 378zM322 502q0 -109 63 -191 q68 -90 174 -90t174 90q63 82 64 191q0 111 -64 192q-68 90 -174 90t-174 -90q-63 -82 -63 -192z" />
<glyph unicode="h" horiz-adv-x="1105" d="M102 0v1737h287v-815h4q83 116 259 116h3q348 0 349 -424v-614h-287v532q0 135 -17 185q-31 92 -139 92q-111 0 -149 -111q-23 -63 -23 -200v-498h-287z" />
<glyph unicode="i" horiz-adv-x="518" d="M90 1427q0 70 50 120t120 50t120 -50t50 -120q0 -72 -49 -121t-121 -49q-70 0 -120 50.5t-50 119.5zM117 0v1006h286v-1006h-286z" />
<glyph unicode="j" horiz-adv-x="518" d="M90 1427q0 70 50 120t120 50t120 -50t50 -120q0 -72 -49 -121t-121 -49q-70 0 -120 50.5t-50 119.5zM117 -537v1543h286v-1543h-286z" />
<glyph unicode="k" horiz-adv-x="1077" d="M102 0v1737h287v-1100h4l301 369h373l-424 -443l457 -563h-377l-330 428h-4v-428h-287z" />
<glyph unicode="l" horiz-adv-x="489" d="M102 0v1737h287v-1737h-287z" />
<glyph unicode="m" horiz-adv-x="1642" d="M102 0v1006h287v-91h4q86 123 246 123q193 0 289 -157q97 157 291 157h2q319 0 319 -411v-627h-287v528q0 127 -14 179q-29 102 -121 102q-100 0 -135 -119q-18 -63 -18 -196v-494h-287v510q0 137 -12 186q-29 113 -125 113q-104 0 -135 -117q-16 -61 -17 -198v-494h-287 z" />
<glyph unicode="n" horiz-adv-x="1105" d="M102 0v1006h287v-93h4q82 125 262 125q348 0 349 -424v-614h-287v532q0 135 -17 185q-31 92 -139 92q-111 0 -149 -111q-23 -63 -23 -200v-498h-287z" />
<glyph unicode="o" horiz-adv-x="1122" d="M33 502q0 238 145 387t383 149t383.5 -149.5t145.5 -386.5q0 -240 -145.5 -387.5t-383.5 -147.5t-383 147.5t-145 387.5zM324 502q0 -109 63 -191q68 -90 174 -90t174 90q63 82 64 191q0 113 -62 192q-67 90 -176 90t-176 -90q-61 -80 -61 -192z" />
<glyph unicode="p" horiz-adv-x="1157" d="M102 -537v1543h287v-93q104 125 279 125q207 0 338 -166q120 -151 120 -361q0 -222 -120 -376q-131 -168 -344 -168q-180 0 -269 127h-4v-631h-287zM360 504q0 -111 64 -193q68 -90 174 -90t174 90q63 82 64 193q0 109 -64 190q-68 90 -174 90t-174 -90q-63 -82 -64 -190 z" />
<glyph unicode="q" horiz-adv-x="1157" d="M31 508q0 213 121 364q131 166 337 166q176 0 275 -125h4v93h287v-1543h-287v631h-4q-92 -127 -270 -127q-215 0 -344 168q-119 152 -119 373zM322 504q0 -111 63 -193q68 -90 174 -90t174 90q63 82 64 193q0 109 -64 190q-68 90 -174 90t-174 -90q-63 -82 -63 -190z" />
<glyph unicode="r" horiz-adv-x="751" d="M102 0v1006h287v-105h4q90 137 250 137q55 0 119 -24l-35 -266q-50 36 -115 36h-4q-133 0 -184 -106q-35 -74 -35 -225v-453h-287z" />
<glyph unicode="s" horiz-adv-x="839" d="M41 135l131 170q104 -117 213 -117q49 0 82 30t33 79q0 68 -105 113q-168 74 -192 90q-104 74 -105 213q0 141 89 233t231 92q204 0 323 -104l-123 -166q-74 70 -151 70q-37 0 -65.5 -25t-28.5 -61q0 -45 84 -88q31 -12 123 -52q206 -88 206 -286q0 -164 -116 -265 q-109 -94 -275 -94q-215 0 -354 168z" />
<glyph unicode="t" horiz-adv-x="561" d="M39 764v242h98v340h287v-340h176v-242h-176v-764h-287v764h-98z" />
<glyph unicode="u" horiz-adv-x="1095" d="M96 414v592h287v-545q0 -252 164 -252t164 252v545h286v-592q0 -446 -450 -447q-451 0 -451 447z" />
<glyph unicode="v" horiz-adv-x="999" d="M-37 1006h316l235 -568l207 568h313l-463 -1026h-147z" />
<glyph unicode="w" horiz-adv-x="1603" d="M-37 1006h313l209 -580l246 612h137l248 -620l213 588h311l-466 -1026h-146l-215 612l-240 -612h-147z" />
<glyph unicode="x" horiz-adv-x="1124" d="M-37 0l430 547l-346 459h348l187 -261l159 261h353l-357 -459l424 -547h-352l-258 350l-232 -350h-356z" />
<glyph unicode="y" horiz-adv-x="1064" d="M-37 1006h326l239 -572l258 572h320l-731 -1543h-316l332 691z" />
<glyph unicode="z" horiz-adv-x="985" d="M-2 0l514 764h-434v242h907l-510 -764h477v-242h-954z" />
<glyph unicode="{" horiz-adv-x="796" d="M139 614v150q154 68 154 309v373q0 82 45 168q53 102 129 102h188v-186h-82q-63 0 -63 -127v-363q0 -244 -156 -352q49 -29 88 -92q68 -106 68 -258v-363q0 -127 63 -127h82v-186h-188q-76 0 -129 102q-45 86 -45 168v373q0 241 -154 309z" />
<glyph unicode="|" horiz-adv-x="1101" d="M430 0v1737h242v-1737h-242z" />
<glyph unicode="}" horiz-adv-x="796" d="M141 -152h82q63 0 64 127v363q0 152 67 258q39 63 88 92q-156 109 -155 352v363q0 127 -64 127h-82v186h189q76 0 129 -102q45 -86 45 -168v-373q-1 -241 153 -309v-150q-154 -68 -153 -309v-373q0 -82 -45 -168q-53 -102 -129 -102h-189v186z" />
<glyph unicode="~" d="M68 487q109 164 131 189q92 109 182 108q76 0 224.5 -100t197.5 -100q53 -1 110 159l203 -184q-74 -129 -125 -188q-90 -104 -186 -105q-55 0 -119 31q-43 20 -100 59q-162 109 -201 109q-49 0 -115 -158z" />
<glyph horiz-adv-x="1019" d="M-84 535l43 96h115q6 51 24 149h-135l43 99h121q84 229 221 374q170 180 383 181q193 -1 338 -138l-47 -319l-98 12q0 322 -193 322q-211 0 -330 -432h353l-43 -99h-336q-12 -49 -33 -149h301l-43 -96h-274q-12 -84 -13 -152q0 -115 43 -186q53 -88 160 -88 q119 0 207 139q49 78 104 244l113 -21l-111 -385q-158 -109 -325 -109q-227 0 -340 173q-96 145 -96 385h-152z" />
<glyph unicode="&#xa1;" horiz-adv-x="665" d="M150 872q0 76 53 128.5t129 52.5t129 -52.5t53 -128.5t-53 -130t-129 -54t-129 54.5t-53 129.5zM186 -541v1100h291v-1100h-291z" />
<glyph unicode="&#xa2;" d="M215 776q0 209 113 354q117 154 319 181v172h150v-178q115 -20 170 -52v-288q-92 102 -207 102q-117 0 -189 -92q-66 -84 -65 -205q0 -117 70.5 -201t185.5 -84q131 0 201 103h4v-289q-78 -41 -170 -51v-191h-150v187q-199 16 -319 178q-113 150 -113 354z" />
<glyph unicode="&#xa3;" d="M20 39q94 291 299 299q23 61 23 121q0 88 -45 172h-268v135h190q-84 168 -84 313q0 223 146.5 364.5t371.5 141.5q463 0 488 -528l-301 -35l4 70q6 90 -51.5 165.5t-147.5 75.5q-100 0 -160 -84q-53 -74 -53 -178q0 -113 86 -285l10 -20h279v-135h-229q12 -70 8 -160 q-2 -53 -8 -156l137 -55q82 -33 129 -33q78 0 112 121l213 -45q-80 -319 -315 -319q-82 0 -236.5 59t-236.5 59q-104 0 -137 -102z" />
<glyph unicode="&#xa4;" d="M25 227l122 113q-78 117 -77 274q0 158 77 275l-122 112l151 152l127 -117q113 90 289 90t289 -90l127 117l151 -152l-123 -112q78 -117 78 -275t-78 -274l123 -113l-151 -151l-127 117q-113 -90 -289 -91q-176 0 -289 91l-127 -117zM266 614q0 -137 93.5 -226t232.5 -89 t232.5 89t93.5 226q0 143 -91.5 229.5t-234.5 86.5t-234.5 -86t-91.5 -230z" />
<glyph unicode="&#xa5;" d="M-43 1544h350l283 -536l284 536h351l-357 -624h275v-136h-359l-43 -75v-74h402v-135h-402v-500h-301v500h-401v135h401v74l-49 75h-352v136h274z" />
<glyph unicode="&#xa6;" horiz-adv-x="1101" d="M430 0v694h242v-694h-242zM430 1042v695h242v-695h-242z" />
<glyph unicode="&#xa7;" horiz-adv-x="1181" d="M82 817q0 186 151 334q-68 100 -67 229q0 172 121 279q115 102 288 102q174 0 285 -92q119 -98 127 -268h-256q-8 66 -50 107.5t-106 41.5q-57 0 -91.5 -46t-34.5 -105q0 -70 53 -119q31 -29 114 -76l220 -123q135 -76 188 -135q76 -84 76 -213q0 -195 -144 -327 q82 -96 82 -252q0 -195 -133 -312q-125 -113 -321 -112q-217 0 -351 127q-139 131 -129 346h283q-2 -94 51 -164q57 -78 150 -78q74 0 120 53.5t46 128.5q0 70 -56 121q-33 31 -116 76l-273 147q-115 61 -166 129q-61 82 -61 201zM338 879q0 -68 45 -111q18 -17 100 -68 l285 -174q76 63 76 160q0 61 -41 105q-18 18 -94 65l-289 178q-82 -61 -82 -155z" />
<glyph unicode="&#xa8;" horiz-adv-x="819" d="M31 1397q0 68 48 116t116 48t115.5 -48.5t47.5 -115.5q0 -68 -48 -116t-115 -48q-68 0 -116 48t-48 116zM463 1397q0 68 48 116t116 48t116 -48.5t48 -115.5q0 -68 -48.5 -116t-115.5 -48q-68 0 -116 48t-48 116z" />
<glyph unicode="&#xa9;" horiz-adv-x="1638" d="M12 772q0 346 231.5 579.5t575.5 233.5t575.5 -233.5t231.5 -579.5t-231.5 -579.5t-575.5 -233.5t-575.5 233.5t-231.5 579.5zM188 772q0 -272 179.5 -454.5t451.5 -182.5t451.5 182.5t179.5 454.5t-179.5 454.5t-451.5 182.5t-451.5 -182.5t-179.5 -454.5zM362 778 q0 205 125 346q129 150 332 150q160 0 271.5 -89t142.5 -245h-180q-16 76 -88 119q-63 39 -146 39q-125 0 -205 -101q-76 -92 -75 -219q0 -125 77 -219q82 -100 203 -100q82 0 146 39q72 43 88 118h180q-31 -156 -142.5 -244.5t-271.5 -88.5q-203 0 -332 149 q-125 141 -125 346z" />
<glyph unicode="&#xaa;" horiz-adv-x="694" d="M16 680v151h664v-151h-664zM16 1266q0 133 84 226t215 93q113 0 183 -76v56h182v-602h-182v55h-4q-59 -76 -177 -76q-135 0 -219 96q-82 90 -82 228zM205 1264q0 -68 44.5 -119t110.5 -51q68 0 112 51t44 119q0 70 -44 120t-112 50t-111.5 -50.5t-43.5 -119.5z" />
<glyph unicode="&#xab;" horiz-adv-x="1052" d="M37 655l325 498l177 -115l-254 -383l256 -372l-179 -119zM446 655l326 498l176 -115l-254 -383l256 -372l-178 -119z" />
<glyph unicode="&#xac;" d="M68 645v242h1048v-596h-242v354h-806z" />
<glyph unicode="&#xad;" horiz-adv-x="692" d="M16 356l68 250h504l-68 -250h-504z" />
<glyph unicode="&#xae;" horiz-adv-x="1638" d="M12 772q0 346 231.5 579.5t575.5 233.5t575.5 -233.5t231.5 -579.5t-231.5 -579.5t-575.5 -233.5t-575.5 233.5t-231.5 579.5zM188 772q0 -272 179.5 -454.5t451.5 -182.5t451.5 182.5t179.5 454.5t-179.5 454.5t-451.5 182.5t-451.5 -182.5t-179.5 -454.5zM481 354v844 h410q164 0 235 -45q92 -59 93 -213q-1 -234 -230 -250l205 -336h-193l-196 336h-148v-336h-176zM657 842h238q152 0 152 112q0 92 -195 93h-195v-205z" />
<glyph unicode="&#xaf;" horiz-adv-x="819" d="M18 1364v180h783v-180h-783z" />
<glyph unicode="&#xb0;" horiz-adv-x="819" d="M102 1278q0 127 90.5 217t217.5 90t217 -90t90 -217t-90 -217t-217 -90t-217.5 90t-90.5 217zM242 1278q2 -72 50 -120t120 -48q70 0 118 49t48 119t-50 119t-120 49t-119 -49t-47 -119z" />
<glyph unicode="&#xb1;" d="M68 0v242h1048v-242h-1048zM68 696v242h403v352h242v-352h403v-242h-403v-352h-242v352h-403z" />
<glyph unicode="&#xb2;" horiz-adv-x="708" d="M16 618l256 297q217 252 217 347q0 152 -129 151q-61 0 -94 -48t-28 -112h-207q10 145 97 230.5t232 85.5q135 0 230.5 -82t95.5 -215q0 -152 -174 -338l-147 -158h327v-158h-676z" />
<glyph unicode="&#xb3;" horiz-adv-x="708" d="M23 903h196q4 -59 44 -97t99 -38t97.5 43t38.5 104q0 66 -39 109t-103 39l-37 -2v129h23q127 0 127 129q0 51 -31.5 84t-83.5 33q-47 0 -76.5 -34t-31.5 -83h-187q12 127 95.5 196.5t212.5 69.5q127 0 207.5 -67.5t80.5 -192.5q0 -133 -96 -195q129 -51 129 -225 q0 -141 -98 -221q-90 -74 -236 -74q-133 0 -228 81t-103 212z" />
<glyph unicode="&#xb4;" horiz-adv-x="778" d="M162 1241l246 344l208 -127l-309 -307z" />
<glyph unicode="&#xb5;" horiz-adv-x="1095" d="M96 -537v1543h287v-545q0 -252 164 -252t164 252v545h286v-592q0 -446 -450 -447q-72 0 -164 62v-566h-287z" />
<glyph unicode="&#xb6;" horiz-adv-x="1181" d="M43 1018q-14 199 111 358q133 168 329 168h660v-192h-125v-1665h-213v1665h-127v-1665h-213v893q-190 0 -303 127q-104 117 -119 311z" />
<glyph unicode="&#xb7;" horiz-adv-x="591" d="M115 526q0 76 53 128.5t129 52.5t129 -52.5t53 -128.5t-53 -130t-129 -54t-129 54.5t-53 129.5z" />
<glyph unicode="&#xb8;" horiz-adv-x="778" d="M195 -344l200 303l189 -96l-238 -285z" />
<glyph unicode="&#xb9;" horiz-adv-x="708" d="M190 1389v155h328v-926h-196v771h-132z" />
<glyph unicode="&#xba;" horiz-adv-x="694" d="M4 1264q0 145 98.5 233t245.5 88t245.5 -88t98.5 -233q0 -147 -97 -234.5t-247 -87.5t-244 86q-100 88 -100 236zM16 680v151h664v-151h-664zM195 1266q0 -68 44 -120t109 -52q66 0 110 52t44 120q0 70 -43 119t-111 49t-110.5 -49.5t-42.5 -118.5z" />
<glyph unicode="&#xbb;" horiz-adv-x="1052" d="M102 283l256 372l-254 383l177 115l325 -498l-325 -491zM512 283l256 372l-254 383l176 115l326 -498l-326 -491z" />
<glyph unicode="&#xbc;" horiz-adv-x="1775" d="M82 1389v155h328v-926h-197v771h-131zM365 8l829 1589l139 -69l-827 -1591zM963 164v80l446 700h178v-635h107v-145h-107v-164h-184v164h-440zM1188 309h215v369h-4z" />
<glyph unicode="&#xbd;" horiz-adv-x="1775" d="M82 1389v155h328v-926h-197v771h-131zM270 8l830 1589l139 -69l-827 -1591zM1018 0l256 297q217 252 217 346q0 152 -129 152q-61 0 -94 -48.5t-29 -111.5h-207q10 145 97.5 230t232.5 85q135 0 230.5 -82t95.5 -215q0 -152 -175 -338l-147 -157h328v-158h-676z" />
<glyph unicode="&#xbe;" horiz-adv-x="1775" d="M82 903h197q4 -59 43.5 -97t99.5 -38q59 0 97 43t38 104q0 66 -39 109t-102 39l-37 -2v129h22q127 0 127 129q0 51 -31.5 84t-82.5 33q-47 0 -77 -34t-32 -83h-186q12 127 95 196.5t212 69.5q127 0 208 -67.5t81 -192.5q0 -133 -97 -195q129 -51 130 -225 q0 -141 -99 -221q-90 -74 -235 -74q-133 0 -228.5 81t-103.5 212zM471 8l829 1589l140 -69l-828 -1591zM963 164v80l446 700h178v-635h107v-145h-107v-164h-184v164h-440zM1188 309h215v369h-4z" />
<glyph unicode="&#xbf;" horiz-adv-x="997" d="M61 -100q0 156 90.5 272.5t239.5 149.5l17 196h286v-407q-33 8 -73 8q-109 0 -183 -60q-80 -63 -80 -170q0 -70 35 -120q39 -59 107 -60q63 0 102 53q35 47 35 115v25h299q8 -188 -119 -315.5t-315 -127.5q-190 0 -315.5 125t-125.5 316zM365 872q0 76 53 128.5t129 52.5 t129 -52.5t53 -128.5t-53 -130t-129 -54t-129 54.5t-53 129.5z" />
<glyph unicode="&#xc0;" horiz-adv-x="1384" d="M-18 0l602 1585h233l586 -1585h-322l-118 326h-537l-127 -326h-317zM369 1978l47 66q18 27 53 27q39 0 61 -29l2 -2l166 -197v-123l-231 187q-29 0 -59.5 22.5t-38.5 48.5zM512 571h367l-193 562h-4z" />
<glyph unicode="&#xc1;" horiz-adv-x="1384" d="M-18 0l602 1585h233l586 -1585h-322l-118 326h-537l-127 -326h-317zM512 571h367l-193 562h-4zM698 1720v123l168 199q25 29 62 29q35 0 53 -27l47 -66q-8 -27 -39 -49t-59 -22z" />
<glyph unicode="&#xc2;" horiz-adv-x="1384" d="M-18 0l602 1585h233l586 -1585h-322l-118 326h-537l-127 -326h-317zM385 1714l313 223l316 -223l-105 -76l-211 121l-211 -121zM512 571h367l-193 562h-4z" />
<glyph unicode="&#xc3;" horiz-adv-x="1384" d="M-18 0l602 1585h233l586 -1585h-322l-118 326h-537l-127 -326h-317zM317 1737q2 4 11 12l145 127q78 68 139 66q53 -2 101 -37q55 -33 90 -31q35 -2 104 29q61 27 99 53q10 -10 44.5 -13.5t34.5 -9.5q-2 -4 -12 -12q-111 -90 -145 -115q-104 -74 -160 -71q-27 2 -85 36.5 t-89 32.5q-35 2 -100.5 -27.5t-96.5 -56.5q-10 6 -49 9q-31 2 -31 8zM512 571h367l-193 562h-4z" />
<glyph unicode="&#xc4;" horiz-adv-x="1384" d="M-18 0l602 1585h233l586 -1585h-322l-118 326h-537l-127 -326h-317zM314 1936q0 68 48 116t116 48t115.5 -48.5t47.5 -115.5q0 -68 -48 -116t-115 -48q-68 0 -116 48t-48 116zM512 571h367l-193 562h-4zM746 1936q0 68 48 116t116 48t116 -48.5t48 -115.5 q0 -68 -48.5 -116t-115.5 -48q-68 0 -116 48t-48 116z" />
<glyph unicode="&#xc5;" horiz-adv-x="1384" d="M-18 0l602 1585h233l586 -1585h-322l-118 326h-537l-127 -326h-317zM487 1919q0 84 60.5 144.5t144.5 60.5t144.5 -60.5t60.5 -144.5q0 -86 -59.5 -146t-145.5 -60t-145.5 60t-59.5 146zM512 571h367l-193 562h-4zM608 1919q0 -35 24.5 -60.5t59.5 -25.5t59.5 26t24.5 60 q0 35 -24.5 59.5t-59.5 24.5t-59.5 -24.5t-24.5 -59.5z" />
<glyph unicode="&#xc6;" horiz-adv-x="1886" d="M-18 0l600 1544h761l95 -262h-512l125 -342h503l95 -262h-504l153 -416h512l93 -262h-826l-121 326h-534l-121 -326h-319zM510 571h364l-190 525h-4z" />
<glyph unicode="&#xc7;" horiz-adv-x="1230" d="M37 760q0 344 207 579q215 246 555 246q180 0 344 -90v-360q-135 164 -340 163q-211 0 -338 -165q-117 -150 -117 -367q0 -209 121 -358q129 -162 332 -162q199 0 342 164v-359q-195 -92 -350 -92q-326 0 -545 240q-211 231 -211 561zM422 -344l200 303l189 -96 l-238 -285z" />
<glyph unicode="&#xc8;" horiz-adv-x="999" d="M111 0v1544h798v-262h-497v-340h479v-262h-479v-418h497v-262h-798zM178 1978l47 66q18 27 54 27q39 0 61 -29l2 -2l166 -197v-123l-232 187q-29 0 -59.5 22.5t-38.5 48.5z" />
<glyph unicode="&#xc9;" horiz-adv-x="999" d="M111 0v1544h798v-262h-497v-340h479v-262h-479v-418h497v-262h-798zM508 1720v123l168 199q25 29 61 29q35 0 54 -27l47 -66q-8 -27 -39 -49t-60 -22z" />
<glyph unicode="&#xca;" horiz-adv-x="999" d="M111 0v1544h798v-262h-497v-340h479v-262h-479v-418h497v-262h-798zM195 1714l313 223l315 -223l-104 -76l-211 121l-211 -121z" />
<glyph unicode="&#xcb;" horiz-adv-x="999" d="M111 0v1544h798v-262h-497v-340h479v-262h-479v-418h497v-262h-798zM121 1936q0 68 48 116t116 48t115.5 -48.5t47.5 -115.5q0 -68 -48 -116t-115 -48q-68 0 -116 48t-48 116zM553 1936q0 68 48 116t116 48t116 -48.5t48 -115.5q0 -68 -48.5 -116t-115.5 -48 q-68 0 -116 48t-48 116z" />
<glyph unicode="&#xcc;" horiz-adv-x="520" d="M-68 1948l48 65q18 27 53 27q39 0 61 -29l2 -2l166 -197v-122l-231 186q-29 0 -59.5 22.5t-39.5 49.5zM111 0v1544h301v-1544h-301z" />
<glyph unicode="&#xcd;" horiz-adv-x="520" d="M111 0v1544h301v-1544h-301zM262 1690v122l168 199q25 29 62 29q35 0 53 -27l47 -65q-8 -27 -39 -49.5t-59 -22.5z" />
<glyph unicode="&#xce;" horiz-adv-x="520" d="M-89 1809l349 315l348 -315l-123 -135l-225 213l-226 -213zM111 0v1544h301v-1544h-301z" />
<glyph unicode="&#xcf;" horiz-adv-x="520" d="M-119 1936q0 68 48 116t116 48t115.5 -48.5t47.5 -115.5q0 -68 -48 -116t-115 -48q-68 0 -116 48t-48 116zM111 0v1544h301v-1544h-301zM313 1936q0 68 48 116t116 48t116 -48.5t48 -115.5q0 -68 -48.5 -116t-115.5 -48q-68 0 -116 48t-48 116z" />
<glyph unicode="&#xd0;" horiz-adv-x="1323" d="M-37 690v246h148v608h430q338 0 541.5 -217t203.5 -557q0 -332 -209 -551t-538 -219h-428v690h-148zM412 262h49q514 0 514 510t-514 510h-49v-346h231v-246h-231v-428z" />
<glyph unicode="&#xd1;" horiz-adv-x="1554" d="M111 0v1585h217l813 -1079h4v1038h301v-1575h-217l-813 1080h-4v-1049h-301zM389 1776q8 104 64 186q63 98 160 99q49 0 150.5 -44t140.5 -44q55 0 96 86h170q-51 -289 -248 -289q-43 0 -140.5 45t-136.5 45q-63 0 -88 -84h-168z" />
<glyph unicode="&#xd2;" horiz-adv-x="1601" d="M37 774q0 340 209 572q217 240 555 239q338 0 555 -239q209 -231 209 -572q0 -344 -207 -575q-215 -240 -557 -240t-557 240q-207 231 -207 575zM348 786q0 -195 127 -356q137 -174 326 -174q188 0 325 174q127 162 127 356q0 201 -125 347q-130 155 -327 155t-328 -155 q-125 -145 -125 -347zM471 1980l47 66q18 27 53 27q39 0 62 -29l2 -2l166 -197v-123l-232 187q-29 0 -59.5 22.5t-38.5 48.5z" />
<glyph unicode="&#xd3;" horiz-adv-x="1601" d="M37 774q0 340 209 572q217 240 555 239q338 0 555 -239q209 -231 209 -572q0 -344 -207 -575q-215 -240 -557 -240t-557 240q-207 231 -207 575zM348 786q0 -195 127 -356q137 -174 326 -174q188 0 325 174q127 162 127 356q0 201 -125 347q-130 155 -327 155t-328 -155 q-125 -145 -125 -347zM801 1720v123l168 199q25 29 61 29q35 0 53 -27l47 -66q-8 -27 -38.5 -49t-59.5 -22z" />
<glyph unicode="&#xd4;" horiz-adv-x="1601" d="M37 774q0 340 209 572q217 240 555 239q338 0 555 -239q209 -231 209 -572q0 -344 -207 -575q-215 -240 -557 -240t-557 240q-207 231 -207 575zM348 786q0 -195 127 -356q137 -174 326 -174q188 0 325 174q127 162 127 356q0 201 -125 347q-130 155 -327 155t-328 -155 q-125 -145 -125 -347zM487 1714l314 223l315 -223l-104 -76l-211 121l-211 -121z" />
<glyph unicode="&#xd5;" horiz-adv-x="1601" d="M37 774q0 340 209 572q217 240 555 239q338 0 555 -239q209 -231 209 -572q0 -344 -207 -575q-215 -240 -557 -240t-557 240q-207 231 -207 575zM348 786q0 -195 127 -356q137 -174 326 -174q188 0 325 174q127 162 127 356q0 201 -125 347q-130 155 -327 155t-328 -155 q-125 -145 -125 -347zM420 1737q2 4 10 12l145 127q78 68 140 66q53 -2 100 -37q55 -33 90 -31q35 -2 105 29q61 27 98 53q10 -10 45 -13.5t35 -9.5q-2 -4 -12 -12q-111 -90 -146 -115q-104 -74 -160 -71q-27 2 -85 36.5t-89 32.5q-35 2 -100.5 -27.5t-95.5 -56.5 q-10 6 -49 9q-31 2 -31 8z" />
<glyph unicode="&#xd6;" horiz-adv-x="1601" d="M37 774q0 338 214 574.5t550 236.5t553 -239q211 -233 211 -572q0 -344 -209 -575q-215 -240 -555 -240t-555 240q-209 231 -209 575zM348 786q0 -193 129 -356q137 -174 324 -174q186 0 323 174q129 164 129 356q0 201 -125 347q-130 155 -327 155t-328 -155 q-125 -145 -125 -347zM422 1936q0 68 48 116t116 48t115.5 -48.5t47.5 -115.5q0 -68 -48 -116t-115 -48q-68 0 -116 48t-48 116zM854 1936q0 68 48 116t116 48t116 -48.5t48 -115.5q0 -68 -48.5 -116t-115.5 -48q-68 0 -116 48t-48 116z" />
<glyph unicode="&#xd7;" d="M68 172l354 352l-354 353l172 172l354 -355l350 355l172 -172l-352 -353l352 -352l-172 -172l-352 354l-352 -354z" />
<glyph unicode="&#xd8;" horiz-adv-x="1601" d="M-2 61l182 195q-143 199 -143 518q0 340 209 572q219 242 555 239q291 -2 473 -174l182 199l141 -131l-182 -203q150 -231 150 -502q0 -344 -209 -575q-215 -240 -555 -240q-274 0 -482 166l-182 -197zM348 786q1 -181 64 -292l643 696q-104 98 -254 98q-197 0 -328 -155 q-125 -145 -125 -347zM535 342q104 -86 266 -86q186 0 323 174q129 164 129 356q1 121 -75 256z" />
<glyph unicode="&#xd9;" horiz-adv-x="1351" d="M102 621v923h301v-864q0 -199 41 -301q63 -158 232 -158q168 0 231 158q41 102 41 301v864h301v-923q0 -305 -131 -474q-145 -188 -442 -188t-443 188q-131 169 -131 474zM346 1896l47 66q18 27 53 27q39 0 62 -29l2 -2l166 -197v-123l-232 187q-29 0 -59.5 22.5 t-38.5 48.5z" />
<glyph unicode="&#xda;" horiz-adv-x="1351" d="M102 621v923h301v-864q0 -199 41 -301q63 -158 232 -158q168 0 231 158q41 102 41 301v864h301v-923q0 -305 -131 -474q-145 -188 -442 -188t-443 188q-131 169 -131 474zM676 1638v123l168 199q25 29 61 29q35 0 53 -27l48 -66q-8 -27 -39 -49t-60 -22z" />
<glyph unicode="&#xdb;" horiz-adv-x="1351" d="M102 621v923h301v-864q0 -199 41 -301q63 -158 232 -158q168 0 231 158q41 102 41 301v864h301v-923q0 -305 -131 -474q-145 -188 -442 -188t-443 188q-131 169 -131 474zM327 1809l349 315l348 -315l-123 -135l-225 213l-226 -213z" />
<glyph unicode="&#xdc;" horiz-adv-x="1351" d="M102 621v923h301v-864q0 -199 41 -301q63 -158 232 -158q168 0 231 158q41 102 41 301v864h301v-923q0 -305 -131 -474q-145 -188 -442 -188t-443 188q-131 169 -131 474zM297 1936q0 68 48 116t116 48t115.5 -48.5t47.5 -115.5q0 -68 -48 -116t-115 -48q-68 0 -116 48 t-48 116zM729 1936q0 68 48 116t116 48t116 -48.5t48 -115.5q0 -68 -48.5 -116t-115.5 -48q-68 0 -116 48t-48 116z" />
<glyph unicode="&#xdd;" horiz-adv-x="1202" d="M-33 1544h350l271 -536l295 536h352l-487 -835v-709h-302v709zM590 1618v123l168 198q25 29 61 29q35 0 53 -26l48 -66q-8 -27 -39 -49.5t-60 -22.5z" />
<glyph unicode="&#xde;" horiz-adv-x="1081" d="M111 0v1544h301v-246h108q535 0 535 -479q0 -487 -494 -487h-149v-332h-301zM412 582h61q145 0 205 45q70 53 70 194q0 137 -78 189q-61 39 -205 39h-53v-467z" />
<glyph unicode="&#xdf;" horiz-adv-x="1148" d="M102 0v1237q0 524 455 524q201 0 326 -122.5t125 -323.5q0 -209 -156 -332q133 -57 203 -188q63 -119 63 -275q0 -254 -153.5 -403.5t-407.5 -149.5h-41v250q135 -4 218 88t83 227t-83 221.5t-218 88.5v241q102 -2 159.5 61.5t57.5 166.5q0 84 -48 142t-130 58 q-123 0 -154 -149q-12 -59 -12 -244v-1118h-287z" />
<glyph unicode="&#xe0;" horiz-adv-x="1157" d="M31 508q0 213 121 364q131 166 337 166q172 0 281 -127v95h283v-1006h-283v92h-4q-96 -125 -272 -125q-215 0 -344 168q-119 152 -119 373zM233 1452l46 61q20 27 51 27q35 0 57 -27l2 -2l158 -188v-117l-219 178q-27 0 -56.5 21.5t-38.5 46.5zM322 504q0 -111 63 -193 q68 -90 174 -90t176 90q63 82 64 193q0 111 -65.5 195.5t-174.5 84.5q-106 0 -174 -90q-63 -82 -63 -190z" />
<glyph unicode="&#xe1;" horiz-adv-x="1157" d="M31 508q0 213 121 364q131 166 337 166q172 0 281 -127v95h283v-1006h-283v92h-4q-96 -125 -272 -125q-215 0 -344 168q-119 152 -119 373zM322 504q0 -111 63 -193q68 -90 174 -90t176 90q63 82 64 193q0 111 -65.5 195.5t-174.5 84.5q-106 0 -174 -90q-63 -82 -63 -190 zM549 1204v117l160 190q23 27 57 27q31 0 51 -27l45 -61q-8 -25 -37.5 -46.5t-56.5 -21.5z" />
<glyph unicode="&#xe2;" horiz-adv-x="1157" d="M31 508q0 213 121 364q131 166 337 166q172 0 281 -127v95h283v-1006h-283v92h-4q-96 -125 -272 -125q-215 0 -344 168q-119 152 -119 373zM252 1180l297 213l299 -213l-98 -72l-201 115l-201 -115zM322 504q0 -111 63 -193q68 -90 174 -90t176 90q63 82 64 193 q0 111 -65.5 195.5t-174.5 84.5q-106 0 -174 -90q-63 -82 -63 -190z" />
<glyph unicode="&#xe3;" horiz-adv-x="1157" d="M31 508q0 213 121 364q131 166 337 166q172 0 281 -127v95h283v-1006h-283v92h-4q-96 -125 -272 -125q-215 0 -344 168q-119 152 -119 373zM186 1223q2 4 11 12q63 55 127 113q92 72 143 69q25 -2 90.5 -33.5t89.5 -29.5q35 -2 101 26q57 25 92 52q39 -8 75 -21 q0 -6 -10 -12l-147 -117q-80 -63 -144 -61q-33 0 -82 34q-37 33 -81 31q-35 2 -97.5 -25.5t-91.5 -54.5q-33 14 -59 13q-16 -2 -17 4zM322 504q0 -111 63 -193q68 -90 174 -90t176 90q63 82 64 193q0 111 -65.5 195.5t-174.5 84.5q-106 0 -174 -90q-63 -82 -63 -190z" />
<glyph unicode="&#xe4;" horiz-adv-x="1157" d="M31 508q0 213 121 364q131 166 337 166q172 0 281 -127v95h283v-1006h-283v92h-4q-96 -125 -272 -125q-215 0 -344 168q-119 152 -119 373zM201 1397q0 68 48 116t116 48t115.5 -48.5t47.5 -115.5q0 -68 -48 -116t-115 -48q-68 0 -116 48t-48 116zM322 504 q0 -111 63 -193q68 -90 174 -90t176 90q63 82 64 193q0 113 -64 192q-68 88 -176 88q-106 0 -174 -90q-63 -82 -63 -190zM633 1397q0 68 48 116t116 48t116 -48.5t48 -115.5q0 -68 -48.5 -116t-115.5 -48q-68 0 -116 48t-48 116z" />
<glyph unicode="&#xe5;" horiz-adv-x="1157" d="M31 508q0 213 121 364q131 166 337 166q172 0 281 -127v95h283v-1006h-283v92h-4q-96 -125 -272 -125q-215 0 -344 168q-119 152 -119 373zM322 504q0 -111 63 -193q68 -90 174 -90t176 90q63 82 64 193q0 113 -64 192q-68 88 -176 88q-106 0 -174 -90q-63 -82 -63 -190z M374 1380q0 84 60.5 144.5t144.5 60.5t144.5 -60.5t60.5 -144.5q0 -86 -59.5 -146t-145.5 -60t-145.5 60t-59.5 146zM495 1380q0 -35 24.5 -60.5t59.5 -25.5t59.5 26t24.5 60q0 35 -24.5 59.5t-59.5 24.5t-59.5 -24.5t-24.5 -59.5z" />
<glyph unicode="&#xe6;" horiz-adv-x="1622" d="M23 297q0 158 116 248q104 82 267 82q131 0 233 -56v33q0 215 -231 215q-123 0 -246 -45v223q164 41 280 41q240 0 330 -153q121 154 342 153q238 0 363 -159q115 -145 114 -387v-35h-661q0 -111 43 -183q53 -88 155 -88q125 0 193 138l264 -43q-51 -150 -174 -232 t-283 -82q-250 0 -358 166q-129 -166 -358 -166q-168 0 -273 80q-117 88 -116 250zM297 307q0 -68 53 -104q47 -33 117 -33q63 0 116.5 39t53.5 100q0 66 -62 103q-50 32 -120 32q-66 0 -109 -34q-49 -39 -49 -103zM934 635h383q-12 82 -60 139q-53 63 -131 64 q-163 0 -192 -203z" />
<glyph unicode="&#xe7;" horiz-adv-x="862" d="M31 500q0 229 146.5 383.5t375.5 154.5q131 0 233 -63v-277q-98 98 -211 99q-117 0 -188 -95q-66 -84 -65 -204q0 -121 72.5 -205t191.5 -84q115 0 200 96v-276q-111 -61 -247 -62q-223 0 -365.5 153.5t-142.5 379.5zM238 -344l200 303l189 -96l-238 -285z" />
<glyph unicode="&#xe8;" horiz-adv-x="1026" d="M31 494q0 242 121 387q129 158 366 157q238 0 363 -159q115 -143 114 -387v-35h-661q0 -111 43 -183q53 -88 155 -88q125 0 193 138l264 -43q-51 -150 -174 -232t-283 -82q-229 0 -365 147.5t-136 379.5zM203 1452l45 61q20 27 51 27q35 0 57 -27l2 -2l158 -188v-117 l-219 178q-27 0 -56.5 21.5t-37.5 46.5zM342 635h383q-12 84 -59 139q-53 63 -131 64q-164 0 -193 -203z" />
<glyph unicode="&#xe9;" horiz-adv-x="1026" d="M31 494q0 242 121 387q129 158 366 157q238 0 363 -159q115 -143 114 -387v-35h-661q0 -111 43 -183q53 -88 155 -88q125 0 193 138l264 -43q-51 -150 -174 -232t-283 -82q-229 0 -365 147.5t-136 379.5zM342 635h383q-12 84 -59 139q-53 63 -131 64q-164 0 -193 -203z M518 1204v117l160 190q23 27 57 27q31 0 51 -27l45 -61q-8 -25 -37.5 -46.5t-56.5 -21.5z" />
<glyph unicode="&#xea;" horiz-adv-x="1026" d="M31 494q0 242 121 387q129 158 366 157q238 0 363 -159q115 -143 114 -387v-35h-661q0 -111 43 -183q53 -88 155 -88q125 0 193 138l264 -43q-51 -150 -174 -232t-283 -82q-229 0 -365 147.5t-136 379.5zM221 1178l297 213l299 -213l-98 -72l-201 115l-201 -115zM342 635 h383q-12 84 -59 139q-53 63 -131 64q-164 0 -193 -203z" />
<glyph unicode="&#xeb;" horiz-adv-x="1026" d="M31 494q0 242 121 387q129 158 366 157q238 0 363 -159q115 -145 114 -387v-35h-661q0 -111 43 -183q53 -88 155 -88q125 0 193 138l264 -43q-51 -150 -174 -232t-283 -82q-229 0 -365 147.5t-136 379.5zM135 1397q0 68 48 116t116 48t115.5 -48.5t47.5 -115.5 q0 -68 -48 -116t-115 -48q-68 0 -116 48t-48 116zM342 635h383q-12 82 -59 139q-53 63 -131 64q-164 0 -193 -203zM567 1397q0 68 48 116t116 48t116 -48.5t48 -115.5q0 -68 -48.5 -116t-115.5 -48q-68 0 -116 48t-48 116z" />
<glyph unicode="&#xec;" horiz-adv-x="518" d="M-51 1430l45 61q20 27 51 27t57 -27l2 -2l158 -189v-116l-219 178q-27 0 -56.5 21.5t-37.5 46.5zM117 0v1006h286v-1006h-286z" />
<glyph unicode="&#xed;" horiz-adv-x="518" d="M117 0v1006h286v-1006h-286zM262 1184v116l160 191q23 27 57 27q31 0 51 -27l45 -61q-8 -25 -37.5 -46.5t-56.5 -21.5z" />
<glyph unicode="&#xee;" horiz-adv-x="518" d="M-89 1270l349 315l348 -315l-123 -135l-225 213l-226 -213zM117 0v1006h286v-1006h-286z" />
<glyph unicode="&#xef;" horiz-adv-x="518" d="M-119 1397q0 68 48 116t116 48t115.5 -48.5t47.5 -115.5q0 -68 -48 -116t-115 -48q-68 0 -116 48t-48 116zM117 0v1006h286v-1006h-286zM313 1397q0 68 48 116t116 48t116 -48.5t48 -115.5q0 -68 -48.5 -116t-115.5 -48q-68 0 -116 48t-48 116z" />
<glyph unicode="&#xf0;" horiz-adv-x="1122" d="M33 502q0 238 145.5 387t382.5 149q18 0 19 19q0 47 -97 168l-49 61l-229 -170l-135 139l237 177q-72 76 -160 161l193 144q72 -72 158 -164l219 164l135 -140l-227 -167q465 -541 465 -928q0 -240 -145.5 -387.5t-383.5 -147.5t-383 147.5t-145 387.5zM324 502 q0 -109 63 -191q68 -90 174 -90t174 90q63 82 64 191q0 113 -62 192q-67 90 -176 90t-176 -90q-61 -80 -61 -192z" />
<glyph unicode="&#xf1;" horiz-adv-x="1105" d="M102 0v1006h287v-93h4q82 125 262 125q348 0 349 -424v-614h-287v532q0 135 -17 185q-31 92 -139 92q-111 0 -149 -111q-23 -63 -23 -200v-498h-287zM163 1237q8 104 64 186q63 98 160 99q49 0 150.5 -44t140.5 -44q55 0 96 86h170q-51 -289 -248 -289q-43 0 -140.5 45 t-136.5 45q-63 0 -88 -84h-168z" />
<glyph unicode="&#xf2;" horiz-adv-x="1122" d="M33 502q0 240 145 388t383 148t383.5 -148.5t145.5 -387.5q0 -240 -144.5 -387.5t-384.5 -147.5t-384 147.5t-144 387.5zM246 1452l45 61q20 27 51 27t57 -27l2 -2l158 -188v-117l-219 178q-27 0 -56.5 21.5t-37.5 46.5zM324 502q0 -109 63 -191q68 -90 174 -90t174 90 q63 82 64 191q0 113 -62 192q-67 90 -176 90t-176 -90q-61 -80 -61 -192z" />
<glyph unicode="&#xf3;" horiz-adv-x="1122" d="M33 502q0 240 145 388t383 148t383.5 -148.5t145.5 -387.5q0 -240 -144.5 -387.5t-384.5 -147.5t-384 147.5t-144 387.5zM324 502q0 -109 63 -191q68 -90 174 -90t174 90q63 82 64 191q0 113 -62 192q-67 90 -176 90t-176 -90q-61 -80 -61 -192zM561 1204v117l160 190 q23 27 57 27q31 0 51 -27l45 -61q-8 -25 -37.5 -46.5t-56.5 -21.5z" />
<glyph unicode="&#xf4;" horiz-adv-x="1122" d="M33 502q0 240 145 388t383 148t383.5 -148.5t145.5 -387.5q0 -240 -144.5 -387.5t-384.5 -147.5t-384 147.5t-144 387.5zM264 1178l297 213l299 -213l-98 -72l-201 115l-201 -115zM324 502q0 -109 63 -191q68 -90 174 -90t174 90q63 82 64 191q0 113 -62 192 q-67 90 -176 90t-176 -90q-61 -80 -61 -192z" />
<glyph unicode="&#xf5;" horiz-adv-x="1122" d="M33 502q0 240 145 388t383 148t383.5 -148.5t145.5 -387.5q0 -240 -144.5 -387.5t-384.5 -147.5t-384 147.5t-144 387.5zM199 1223q2 4 10 12q63 55 127 113q92 72 143 69q25 -2 90.5 -33.5t89.5 -29.5q35 -2 101 26q57 25 92 52q39 -8 76 -21q0 -6 -10 -12l-148 -117 q-80 -63 -143 -61q-33 0 -82 34q-37 33 -82 31q-35 2 -97.5 -25.5t-91.5 -54.5q-33 14 -59 13q-16 -2 -16 4zM324 502q0 -109 63 -191q68 -90 174 -90t174 90q63 82 64 191q0 113 -62 192q-67 90 -176 90t-176 -90q-61 -80 -61 -192z" />
<glyph unicode="&#xf6;" horiz-adv-x="1122" d="M33 502q0 238 145 387t383 149t383.5 -149.5t145.5 -386.5q0 -240 -145.5 -387.5t-383.5 -147.5t-383 147.5t-145 387.5zM183 1397q0 68 48 116t116 48t115.5 -48.5t47.5 -115.5q0 -68 -48 -116t-115 -48q-68 0 -116 48t-48 116zM324 502q0 -109 63 -191q68 -90 174 -90 t174 90q63 82 64 191q0 113 -62 192q-67 90 -176 90t-176 -90q-61 -80 -61 -192zM615 1397q0 68 48 116t116 48t116 -48.5t48 -115.5q0 -68 -48.5 -116t-115.5 -48q-68 0 -116 48t-48 116z" />
<glyph unicode="&#xf7;" d="M68 403v242h1048v-242h-1048zM422 129q0 70 50 120t120 50t120 -50t50 -120q0 -72 -49 -121t-121 -49q-70 0 -120 50t-50 120zM422 920q0 70 50 120t120 50t120 -50.5t50 -119.5q0 -72 -49 -121t-121 -49q-70 0 -120 50t-50 120z" />
<glyph unicode="&#xf8;" horiz-adv-x="1155" d="M-6 20l137 146q-88 143 -88 336q0 238 145.5 387t382.5 149q225 0 347 -104l143 151l98 -92l-139 -151q80 -135 80 -340q0 -240 -145.5 -387.5t-383.5 -147.5q-205 0 -340 111l-141 -150zM334 502q-1 -60 28 -123l345 358q-49 47 -136 47q-109 0 -176 -90 q-61 -80 -61 -192zM444 272q57 -51 127 -51q106 0 174 90q63 82 64 191q0 74 -25 125z" />
<glyph unicode="&#xf9;" horiz-adv-x="1095" d="M96 414v592h287v-545q0 -252 164 -252t164 252v545h286v-592q0 -446 -450 -447q-451 0 -451 447zM233 1380l46 62q20 27 51 26q31 0 57 -26l2 -2l158 -189v-116l-219 178q-27 0 -56.5 21.5t-38.5 45.5z" />
<glyph unicode="&#xfa;" horiz-adv-x="1095" d="M96 414v592h287v-545q0 -252 164 -252t164 252v545h286v-592q0 -446 -450 -447q-451 0 -451 447zM549 1135v116l160 191q23 27 57 26q31 0 51 -26l45 -62q-8 -25 -37.5 -46t-56.5 -21z" />
<glyph unicode="&#xfb;" horiz-adv-x="1095" d="M96 414v592h287v-545q0 -252 164 -252t164 252v545h286v-592q0 -446 -450 -447q-451 0 -451 447zM200 1270l349 315l348 -315l-123 -135l-225 213l-226 -213z" />
<glyph unicode="&#xfc;" horiz-adv-x="1095" d="M96 414v592h287v-545q0 -252 164 -252t164 252v545h286v-592q0 -446 -450 -447q-451 0 -451 447zM170 1397q0 68 48 116t116 48t115.5 -48.5t47.5 -115.5q0 -68 -48 -116t-115 -48q-68 0 -116 48t-48 116zM602 1397q0 68 48 116t116 48t116 -48.5t48 -115.5 q0 -68 -48.5 -116t-115.5 -48q-68 0 -116 48t-48 116z" />
<glyph unicode="&#xfd;" horiz-adv-x="1064" d="M-37 1006h326l239 -572l258 572h320l-731 -1543h-316l332 691zM539 1106v117l159 190q23 27 58 27q31 0 51 -27l45 -61q-8 -25 -38 -46.5t-56 -21.5z" />
<glyph unicode="&#xfe;" horiz-adv-x="1157" d="M102 -537v2274h287v-824q104 125 279 125q207 0 338 -166q121 -152 120 -364q0 -219 -120 -373q-131 -168 -344 -168q-180 0 -269 127h-4v-631h-287zM360 504q0 -111 64 -193q68 -90 174 -90t174 90q63 82 64 193q0 109 -64 190q-68 90 -174 90t-174 -90 q-63 -82 -64 -190z" />
<glyph unicode="&#xff;" horiz-adv-x="1064" d="M-37 1006h326l239 -572l258 572h320l-731 -1543h-316l332 691zM154 1397q0 68 48 116t116 48t115.5 -48.5t47.5 -115.5q0 -68 -48 -116t-115 -48q-68 0 -116 48t-48 116zM586 1397q0 68 48 116t116 48t116 -48.5t48 -115.5q0 -68 -48.5 -116t-115.5 -48q-68 0 -116 48 t-48 116z" />
<glyph unicode="&#x102;" horiz-adv-x="1384" d="M-18 0l602 1585h233l586 -1585h-322l-118 326h-537l-127 -326h-317zM387 1886l139 -10q25 -106 172 -107q59 0 107 25q57 29 69 82l140 10q-23 -215 -320 -215q-284 0 -307 215zM512 571h367l-193 562h-4z" />
<glyph unicode="&#x103;" horiz-adv-x="1157" d="M31 508q0 213 121 364q131 166 337 166q172 0 281 -127v95h283v-1006h-283v92h-4q-96 -125 -272 -125q-215 0 -344 168q-119 152 -119 373zM250 1358l133 -8q10 -49 63 -78q45 -25 101 -25q55 0 105 26.5t61 76.5l133 8q-23 -203 -303 -203q-270 0 -293 203zM322 504 q0 -111 63 -193q68 -90 174 -90t176 90q63 82 64 193q0 111 -65.5 195.5t-174.5 84.5q-106 0 -174 -90q-63 -82 -63 -190z" />
<glyph unicode="&#x106;" horiz-adv-x="1456" d="M37 760q0 344 207 579q215 246 555 246q180 0 344 -90v-360q-135 164 -340 163q-211 0 -338 -165q-117 -150 -117 -367q0 -209 121 -358q129 -162 332 -162q199 0 342 164v-359q-195 -92 -350 -92q-326 0 -545 240q-211 231 -211 561zM524 1763l246 344l208 -127 l-309 -307z" />
<glyph unicode="&#x107;" horiz-adv-x="903" d="M31 500q0 229 146.5 383.5t375.5 154.5q131 0 233 -63v-277q-98 98 -211 99q-117 0 -188 -95q-66 -84 -65 -204q0 -121 72.5 -205t191.5 -84q115 0 200 96v-276q-111 -61 -247 -62q-223 0 -365.5 153.5t-142.5 379.5zM117 1241l246 344l208 -127l-309 -307z" />
<glyph unicode="&#x10c;" horiz-adv-x="1456" d="M37 760q0 344 207 579q215 246 555 246q180 0 344 -90v-360q-135 164 -340 163q-211 0 -338 -165q-117 -150 -117 -367q0 -209 121 -358q129 -162 332 -162q199 0 342 164v-359q-195 -92 -350 -92q-326 0 -545 240q-211 231 -211 561zM405 1974l123 133l242 -213l243 213 l123 -133l-366 -317z" />
<glyph unicode="&#x10d;" horiz-adv-x="903" d="M-2 1452l123 133l242 -213l243 213l123 -133l-366 -317zM31 500q0 229 146.5 383.5t375.5 154.5q131 0 233 -63v-277q-98 98 -211 99q-117 0 -188 -95q-66 -84 -65 -204q0 -121 72.5 -205t191.5 -84q115 0 200 96v-276q-111 -61 -247 -62q-223 0 -365.5 153.5 t-142.5 379.5z" />
<glyph unicode="&#x110;" horiz-adv-x="1323" d="M-37 690v246h148v608h430q340 0 542.5 -216t202.5 -558q0 -334 -207 -549q-209 -221 -540 -221h-428v690h-148zM412 262h49q514 0 514 510t-514 510h-49v-346h231v-246h-231v-428z" />
<glyph unicode="&#x111;" horiz-adv-x="1157" d="M31 508q0 213 121 364q131 166 337 166q176 0 275 -125h4v203h-274v242h274v379h287v-379h98v-242h-98v-1116h-287v94h-4q-92 -127 -270 -127q-215 0 -344 168q-119 152 -119 373zM322 504q0 -111 63 -193q68 -90 174 -90t174 90q63 82 64 193q0 109 -64 190 q-68 90 -174 90t-174 -90q-63 -82 -63 -190z" />
<glyph unicode="&#x11e;" horiz-adv-x="1570" d="M37 766q0 344 203 575q211 244 551 244q199 0 360.5 -96t249.5 -272l-266 -144q-47 111 -141.5 178.5t-211.5 67.5q-207 0 -327 -180q-106 -156 -107 -373q0 -217 107 -369q121 -172 329 -172q143 0 246 103.5t107 246.5h-328v246h666v-39q0 -352 -172 -575 q-188 -248 -531 -248q-332 0 -539 242q-197 227 -196 565zM456 2066h201q33 -145 154 -145t153 145h201q-14 -145 -111.5 -232t-242.5 -87t-243 87t-112 232z" />
<glyph unicode="&#x11f;" horiz-adv-x="1007" d="M31 496q0 221 121 374q131 168 346 168q166 0 260 -129h4v97h287v-945q0 -598 -488 -598q-199 0 -342 109q-156 117 -166 309h303q23 -176 199 -176q135 0 180 109q27 66 27 221v65h-4q-100 -133 -275 -133q-209 0 -336 164q-117 150 -116 365zM47 1544h201 q33 -145 154 -145t153 145h201q-14 -145 -111.5 -232t-242.5 -87t-243 87t-112 232zM322 502q0 -109 63 -191q68 -90 174 -90t174 90q63 82 64 191q0 111 -64 192q-68 90 -174 90t-174 -90q-63 -82 -63 -192z" />
<glyph unicode="&#x128;" horiz-adv-x="520" d="M-119 1706q2 4 10 12l146 127q78 68 139 66q53 -2 100 -37q55 -33 91 -31q35 -2 104 29q61 27 98 53q10 -10 45 -13t35 -9q-2 -5 -12 -13q-111 -90 -145 -114q-104 -74 -160 -72q-27 2 -85.5 37t-88.5 33q-35 2 -100.5 -28t-96.5 -56q-10 6 -49 8q-31 2 -31 8zM111 0 v1544h301v-1544h-301z" />
<glyph unicode="&#x129;" horiz-adv-x="518" d="M-100 1200q2 4 10 12q63 55 127 113q92 72 143 70q25 -2 90.5 -34t89.5 -30q35 -2 101 27q57 25 92 51q39 -8 76 -20q-1 -7 -11 -13l-147 -116q-80 -63 -143 -62q-33 0 -82 35q-37 33 -82 31q-35 2 -97.5 -26t-91.5 -54q-33 14 -59 12q-16 -2 -16 4zM117 0v1006h286 v-1006h-286z" />
<glyph unicode="&#x130;" horiz-adv-x="878" d="M111 0v1544h301v-1544h-301zM280 1919q0 68 48 116t116 48t116 -48.5t48 -115.5q0 -68 -48 -116t-116 -48t-116 48t-48 116z" />
<glyph unicode="&#x131;" horiz-adv-x="518" d="M117 0v1006h286v-1006h-286z" />
<glyph unicode="&#x141;" horiz-adv-x="894" d="M29 504v280l149 111v649h301v-471l215 170v-285l-215 -161v-535h432v-262h-733v625z" />
<glyph unicode="&#x142;" horiz-adv-x="579" d="M-2 655v267l152 114v701h286v-545l152 125v-266l-152 -121v-930h-286v778z" />
<glyph unicode="&#x152;" horiz-adv-x="2127" d="M37 768q0 326 205 565q215 252 536 252q299 0 469 -215h4v174h787v-262h-488v-342h465v-262h-465v-416h488v-262h-787v174q-186 -215 -473 -215q-317 0 -534 250q-207 238 -207 559zM324 768q0 -205 120 -352q127 -160 328 -160t330 160q123 147 123 352t-123 356 q-131 164 -330 164q-201 0 -330 -162q-119 -152 -118 -358z" />
<glyph unicode="&#x153;" horiz-adv-x="1787" d="M29 502q0 238 145 387t383 149q219 0 367 -168q121 168 358 168q238 0 363 -159q115 -145 114 -387v-35h-661q0 -111 43 -183q53 -88 155 -88q125 0 193 138l264 -43q-51 -150 -174 -232t-283 -82q-254 0 -372 174q-129 -174 -367 -174t-383 147.5t-145 387.5zM319 502 q0 -109 64 -191q68 -90 174 -90t174 90q63 82 64 191q0 113 -62 192q-67 90 -176 90t-176 -90q-61 -80 -62 -192zM1096 635h383q-12 82 -60 139q-53 63 -131 64q-163 0 -192 -203z" />
<glyph unicode="&#x15e;" horiz-adv-x="1343" d="M47 260l195 191q33 -96 104 -158q78 -68 174 -68q92 0 148 68q51 61 51 156q0 104 -88 167q-37 27 -180 84q-168 68 -248 154q-96 104 -97 268q0 197 127 330t324 133q109 0 227 -47q127 -49 195 -125l-141 -209q-94 127 -232 127q-78 0 -133 -49t-55 -125 q0 -100 160 -174q246 -113 292 -149q160 -125 160 -347q0 -238 -133 -381q-139 -147 -375 -147q-295 0 -475 301zM275 -344l200 303l189 -96l-238 -285z" />
<glyph unicode="&#x15f;" horiz-adv-x="784" d="M41 135l131 170q104 -117 213 -117q49 0 82 30t33 79q0 68 -105 113q-168 74 -192 90q-104 74 -105 213q0 141 89 233t231 92q204 0 323 -104l-123 -166q-74 70 -151 70q-37 0 -65.5 -25t-28.5 -61q0 -45 84 -88q31 -12 123 -52q207 -88 206 -288q0 -162 -116 -263 q-109 -94 -275 -94q-215 0 -354 168zM76 -344l200 303l189 -96l-238 -285z" />
<glyph unicode="&#x160;" horiz-adv-x="1077" d="M47 260l195 191q33 -96 104 -158q78 -68 174 -68q92 0 148 68q51 61 51 156q0 104 -88 167q-37 27 -180 84q-168 68 -248 154q-96 104 -97 268q0 197 127 330t324 133q109 0 227 -47q127 -49 195 -125l-141 -209q-94 127 -232 127q-78 0 -133 -49t-55 -125 q0 -100 160 -174q246 -113 292 -149q160 -125 160 -347q0 -238 -133 -381q-139 -147 -375 -147q-295 0 -475 301zM172 1991l123 133l242 -213l243 213l123 -133l-366 -317z" />
<glyph unicode="&#x161;" horiz-adv-x="839" d="M41 135l131 170q104 -117 213 -117q49 0 82 30t33 79q0 68 -105 113q-168 74 -192 90q-104 74 -105 213q0 141 89 233t231 92q204 0 323 -104l-123 -166q-74 70 -151 70q-37 0 -65.5 -25t-28.5 -61q0 -45 84 -88q31 -12 123 -52q207 -88 206 -288q0 -162 -116 -263 q-109 -94 -275 -94q-215 0 -354 168zM53 1452l123 133l242 -213l243 213l123 -133l-366 -317z" />
<glyph unicode="&#x168;" horiz-adv-x="1351" d="M102 621v923h301v-864q0 -199 41 -301q63 -158 232 -158q168 0 231 158q41 102 41 301v864h301v-923q0 -305 -131 -474q-145 -188 -442 -188t-443 188q-131 169 -131 474zM293 1675q2 4 10 13l146 127q78 68 139 65q53 -2 100 -37q55 -33 90 -31q35 -2 105 29 q61 27 98 53q10 -10 45 -13t35 -9q-2 -4 -12 -12q-111 -90 -146 -115q-104 -74 -160 -72q-27 2 -85 37t-89 33q-35 2 -100.5 -27.5t-95.5 -56.5q-10 6 -49 8q-31 2 -31 8z" />
<glyph unicode="&#x169;" horiz-adv-x="1095" d="M96 414v592h287v-545q0 -252 164 -252t164 252v545h286v-592q0 -446 -450 -447q-451 0 -451 447zM186 1171q2 4 11 13q63 55 127 112q92 72 143 70q25 -2 90.5 -34t89.5 -29q35 -2 101 26q57 25 92 51q39 -8 75 -20q0 -6 -10 -12l-147 -117q-80 -63 -144 -62 q-33 0 -82 35q-37 33 -81 31q-35 2 -97.5 -25.5t-91.5 -54.5q-33 14 -59 12q-16 -2 -17 4z" />
<glyph unicode="&#x178;" horiz-adv-x="1202" d="M-33 1544h350l271 -536l295 536h352l-487 -835v-709h-302v709zM224 1936q0 68 48 116t116 48t115.5 -48.5t47.5 -115.5q0 -68 -48 -116t-115 -48q-68 0 -116 48t-48 116zM656 1936q0 68 48 116t116 48t116 -48.5t48 -115.5q0 -68 -48.5 -116t-115.5 -48q-68 0 -116 48 t-48 116z" />
<glyph unicode="&#x17d;" horiz-adv-x="1177" d="M10 0l680 1282h-575v262h1052l-678 -1282h641v-262h-1120zM223 1991l123 133l242 -213l243 213l123 -133l-366 -317z" />
<glyph unicode="&#x17e;" horiz-adv-x="985" d="M-2 0l514 764h-434v242h907l-510 -764h477v-242h-954zM127 1452l123 133l242 -213l243 213l123 -133l-366 -317z" />
<glyph unicode="&#x192;" d="M-8 -332l41 258l67 -4q139 -8 201 101q39 72 78 309l88 553h-123l21 147h127l38 236q72 434 416 434q102 0 180 -43l-41 -248q-59 35 -120 35q-78 0 -117 -88q-20 -45 -39 -156l-29 -170h219l-20 -147h-221l-96 -596q-53 -324 -144 -457q-131 -193 -412 -172z" />
<glyph unicode="&#x1a0;" horiz-adv-x="1601" d="M37 774q0 340 209 572q217 240 555 239q172 0 317 -69l131 8h51q18 18 31 28q4 10 4 21q0 31 -39 57q-45 31 -47 41q-8 31 45 39q47 8 76 -2q94 -33 94 -115q0 -55 -51 -100q-43 -39 -102 -53l-51 -13q147 -115 226 -287.5t79 -365.5q0 -344 -207 -575 q-215 -240 -557 -240t-557 240q-207 231 -207 575zM348 786q0 -195 127 -356q137 -174 326 -174q188 0 325 174q127 162 127 356q0 201 -125 347q-130 155 -327 155t-328 -155q-125 -145 -125 -347z" />
<glyph unicode="&#x1a1;" horiz-adv-x="1122" d="M33 502q0 240 145.5 388t382.5 148q133 0 250 -55l96 4q20 12 33 17q12 16 12 30q0 18 -18 33q-25 25 -21 45q2 20 29 21q45 0 72 -27q45 -35 45 -96q0 -49 -40 -77t-93 -30q164 -147 164 -401q0 -240 -144.5 -387.5t-384.5 -147.5t-384 147.5t-144 387.5zM324 502 q0 -109 63 -191q68 -90 174 -90t174 90q63 82 64 191q0 113 -62 192q-67 90 -176 90t-176 -90q-61 -80 -61 -192z" />
<glyph unicode="&#x1af;" horiz-adv-x="1351" d="M102 621q0 -305 131 -474q145 -188 443 -188q297 0 442 188q131 168 131 474v819q154 43 154 153q0 82 -94 115q-29 10 -76 2q-53 -8 -45 -39q8 -29 47 -43t39 -55q0 -10 -4 -21q-12 -10 -31 -28l-51 10l-240 10v-864q0 -199 -41 -301q-63 -158 -231 -158t-232 158 q-41 102 -41 301v864h-301v-923z" />
<glyph unicode="&#x1b0;" horiz-adv-x="1095" d="M96 414v592h287v-545q0 -252 164 -252t164 252v545l293 -21q20 10 32 14q12 16 13 33q0 18 -21 35q-25 25 -20 45q2 20 28 21q45 0 72 -27q45 -35 45 -96q0 -55 -53 -84q-44 -25 -103 -23v-489q0 -446 -450 -447q-451 0 -451 447z" />
<glyph unicode="&#x2c6;" horiz-adv-x="819" d="M61 1270l349 315l348 -315l-123 -135l-225 213l-226 -213z" />
<glyph unicode="&#x2c7;" horiz-adv-x="819" d="M43 1452l123 133l242 -213l243 213l123 -133l-366 -317z" />
<glyph unicode="&#x2d8;" horiz-adv-x="819" d="M55 1544h201q33 -145 154 -145t153 145h201q-14 -145 -111.5 -232t-242.5 -87t-243 87t-112 232z" />
<glyph unicode="&#x2d9;" horiz-adv-x="778" d="M225 1397q0 68 48 116t116 48t116 -48.5t48 -115.5q0 -68 -48 -116t-116 -48t-116 48t-48 116z" />
<glyph unicode="&#x2da;" horiz-adv-x="778" d="M184 1380q0 84 60.5 144.5t144.5 60.5t144.5 -60.5t60.5 -144.5q0 -86 -59.5 -146t-145.5 -60t-145.5 60t-59.5 146zM305 1380q0 -35 24.5 -60.5t59.5 -25.5t59.5 26t24.5 60q0 35 -24.5 59.5t-59.5 24.5t-59.5 -24.5t-24.5 -59.5z" />
<glyph unicode="&#x2db;" horiz-adv-x="778" d="M203 -285q-1 144 151 244h144v-4q-111 -72 -111 -164q0 -39 25.5 -66.5t64.5 -27.5q49 0 98 33l-28 -154q-53 -37 -141 -37q-82 0 -142.5 48t-60.5 128z" />
<glyph unicode="&#x2dc;" horiz-adv-x="819" d="M20 1237q8 104 64 186q63 98 160 99q49 0 150.5 -44t140.5 -44q55 0 96 86h170q-51 -289 -248 -289q-43 0 -140.5 45t-136.5 45q-63 0 -88 -84h-168z" />
<glyph unicode="&#x2dd;" horiz-adv-x="860" d="M10 1241l246 344l209 -127l-309 -307zM397 1241l246 344l209 -127l-309 -307z" />
<glyph unicode="&#x1ea0;" horiz-adv-x="1384" d="M-18 0l602 1585h233l586 -1585h-322l-118 326h-537l-127 -326h-317zM512 571h367l-193 562h-4zM563 -201q0 57 40 96t97 39t97.5 -38.5t40.5 -96.5q0 -57 -40 -98t-98 -41q-57 0 -97 41t-40 98z" />
<glyph unicode="&#x1ea1;" horiz-adv-x="1157" d="M31 508q0 213 121 364q131 166 337 166q172 0 281 -127v95h283v-1006h-283v92h-4q-96 -125 -272 -125q-215 0 -344 168q-119 152 -119 373zM322 504q0 -111 63 -193q68 -90 174 -90t176 90q63 82 64 193q0 111 -65.5 195.5t-174.5 84.5q-106 0 -174 -90q-63 -82 -63 -190 zM418 -233q0 53 39 91t92 38t92 -38t39 -91t-39 -93.5t-92 -40.5t-92 40t-39 94z" />
<glyph unicode="&#x1ea2;" horiz-adv-x="1384" d="M-18 0l602 1585h233l586 -1585h-322l-118 326h-537l-127 -326h-317zM512 571h367l-193 562h-4zM549 1956q-6 72 51 137.5t129 65.5q74 0 124 -50.5t50 -123.5q0 -57 -41 -107.5t-98 -65.5l-6 -83l-60 -29l-55 37l57 114q10 0 -30 41q45 0 86 26t41 69q0 25 -26 42t-52 17 q-25 0 -46.5 -23.5t-21.5 -48.5z" />
<glyph unicode="&#x1ea3;" horiz-adv-x="1157" d="M31 508q0 213 121 364q131 166 337 166q172 0 281 -127v95h283v-1006h-283v92h-4q-96 -125 -272 -125q-215 0 -344 168q-119 152 -119 373zM322 504q0 -111 63 -193q68 -90 174 -90t176 90q63 82 64 193q0 111 -65.5 195.5t-174.5 84.5q-106 0 -174 -90q-63 -82 -63 -190 zM399 1440q-6 72 51.5 137t129.5 65q74 0 124 -50t50 -124q0 -57 -41 -107t-99 -65l-6 -84l-59 -28l-55 37l57 114q10 0 -31 41q45 0 86 25.5t41 68.5q0 25 -25.5 42.5t-52.5 17.5q-25 0 -46 -23.5t-21 -48.5z" />
<glyph unicode="&#x1ea4;" horiz-adv-x="1384" d="M-18 0l602 1585h233l586 -1585h-322l-118 326h-537l-127 -326h-317zM385 1714l313 223l316 -223l-105 -76l-211 121l-211 -121zM512 571h367l-193 562h-4zM995 1782v123l168 198q25 29 62 29q35 0 53 -27l47 -65q-8 -27 -39 -49.5t-59 -22.5z" />
<glyph unicode="&#x1ea5;" horiz-adv-x="1157" d="M31 508q0 213 121 364q131 166 337 166q172 0 281 -127v95h283v-1006h-283v92h-4q-96 -125 -272 -125q-215 0 -344 168q-119 152 -119 373zM252 1178l297 213l299 -213l-98 -72l-201 115l-201 -115zM322 504q0 -111 63 -193q68 -90 174 -90t176 90q63 82 64 193 q0 111 -65.5 195.5t-174.5 84.5q-106 0 -174 -90q-63 -82 -63 -190zM791 1282v117l159 190q23 27 58 27q31 0 51 -27l45 -61q-8 -25 -38 -46.5t-56 -21.5z" />
<glyph unicode="&#x1ea6;" horiz-adv-x="1384" d="M-18 0l602 1585h233l586 -1585h-322l-118 326h-537l-127 -326h-317zM76 2038l47 65q18 27 53 27q39 0 62 -29l2 -2l166 -196v-123l-232 186q-29 0 -59.5 22.5t-38.5 49.5zM385 1714l313 223l316 -223l-105 -76l-211 121l-211 -121zM512 571h367l-193 562h-4z" />
<glyph unicode="&#x1ea7;" horiz-adv-x="1157" d="M-2 1528l45 61q20 27 51 27t58 -27l2 -2l157 -188v-117l-219 178q-27 0 -56.5 21.5t-37.5 46.5zM31 508q0 213 121 364q131 166 337 166q172 0 281 -127v95h283v-1006h-283v92h-4q-96 -125 -272 -125q-215 0 -344 168q-119 152 -119 373zM252 1180l297 213l299 -213 l-98 -72l-201 115l-201 -115zM322 504q0 -111 63 -193q68 -90 174 -90t176 90q63 82 64 193q0 111 -65.5 195.5t-174.5 84.5q-106 0 -174 -90q-63 -82 -63 -190z" />
<glyph unicode="&#x1ea8;" horiz-adv-x="1384" d="M-18 0l602 1585h233l586 -1585h-322l-118 326h-537l-127 -326h-317zM385 1714l313 223l316 -223l-105 -76l-211 121l-211 -121zM512 571h367l-193 562h-4zM922 2015q-6 72 51 137.5t129 65.5q74 0 124 -50t50 -124q0 -57 -41 -107.5t-98 -64.5l-7 -84l-59 -29l-55 37 l57 115q10 0 -31 41q45 0 86 25.5t41 68.5q0 25 -25.5 42t-51.5 17q-25 0 -46.5 -23.5t-21.5 -47.5z" />
<glyph unicode="&#x1ea9;" horiz-adv-x="1157" d="M31 508q0 213 121 364q131 166 337 166q172 0 281 -127v95h283v-1006h-283v92h-4q-96 -125 -272 -125q-215 0 -344 168q-119 152 -119 373zM252 1180l297 213l299 -213l-98 -72l-201 115l-201 -115zM322 504q0 -111 63 -193q68 -90 174 -90t176 90q63 82 64 193 q0 111 -65.5 195.5t-174.5 84.5q-106 0 -174 -90q-63 -82 -63 -190zM731 1522q-6 72 51.5 137t128.5 65q74 0 124 -50t50 -124q0 -57 -40.5 -107t-98.5 -65l-6 -84l-59 -28l-56 37l58 114q10 0 -31 41q45 0 86 25.5t41 68.5q0 25 -25.5 42.5t-52.5 17.5q-25 0 -46 -23.5 t-21 -48.5z" />
<glyph unicode="&#x1eaa;" horiz-adv-x="1384" d="M-18 0l602 1585h233l586 -1585h-322l-118 326h-537l-127 -326h-317zM317 1997q2 4 11 12l145 127q78 68 139 66q53 -2 101 -37q55 -33 90 -31q35 -2 104 29q61 27 99 53q10 -10 44.5 -13t34.5 -10q-2 -4 -12 -12q-111 -90 -145 -115q-104 -74 -160 -71q-27 2 -85 36.5 t-89 32.5q-35 2 -100.5 -27.5t-96.5 -56.5q-10 6 -49 9q-31 2 -31 8zM385 1714l313 223l316 -223l-105 -76l-211 121l-211 -121zM512 571h367l-193 562h-4z" />
<glyph unicode="&#x1eab;" horiz-adv-x="1157" d="M31 508q0 213 121 364q131 166 337 166q172 0 281 -127v95h283v-1006h-283v92h-4q-96 -125 -272 -125q-215 0 -344 168q-119 152 -119 373zM184 1446q2 4 11 12q63 55 127 113q92 72 143 69q25 -2 90.5 -33.5t89.5 -29.5q35 -2 100 27q57 25 93 51q39 -8 75 -21 q0 -6 -10 -12l-147 -117q-80 -63 -144 -61q-33 0 -82 35q-37 33 -81 30q-35 2 -97.5 -25.5t-91.5 -53.5q-33 14 -59 12q-16 -2 -17 4zM250 1178l297 213l299 -213l-98 -72l-201 115l-201 -115zM322 504q0 -111 63 -193q68 -90 174 -90t176 90q63 82 64 193 q0 111 -65.5 195.5t-174.5 84.5q-106 0 -174 -90q-63 -82 -63 -190z" />
<glyph unicode="&#x1eac;" horiz-adv-x="1384" d="M-18 0l602 1585h233l586 -1585h-322l-118 326h-537l-127 -326h-317zM385 1714l313 223l316 -223l-105 -76l-211 121l-211 -121zM512 571h367l-193 562h-4zM563 -201q0 57 40 96t97 39t97.5 -38.5t40.5 -96.5q0 -57 -40 -98t-98 -41q-57 0 -97 41t-40 98z" />
<glyph unicode="&#x1ead;" horiz-adv-x="1157" d="M31 508q0 213 121 364q131 166 337 166q172 0 281 -127v95h283v-1006h-283v92h-4q-96 -125 -272 -125q-215 0 -344 168q-119 152 -119 373zM252 1180l297 213l299 -213l-98 -72l-201 115l-201 -115zM322 504q0 -111 63 -193q68 -90 174 -90t176 90q63 82 64 193 q0 111 -65.5 195.5t-174.5 84.5q-106 0 -174 -90q-63 -82 -63 -190zM418 -233q0 53 39 91t92 38t92 -38t39 -91t-39 -93.5t-92 -40.5t-92 40t-39 94z" />
<glyph unicode="&#x1eae;" horiz-adv-x="1384" d="M-18 0l602 1585h233l586 -1585h-322l-118 326h-537l-127 -326h-317zM387 1886l139 -10q25 -106 172 -107q59 0 107 25q57 29 69 82l140 10q-23 -215 -320 -215q-284 0 -307 215zM512 571h367l-193 562h-4zM698 1886v123l168 199q25 29 62 28q35 0 53 -26l47 -66 q-8 -27 -39 -49t-59 -22z" />
<glyph unicode="&#x1eaf;" horiz-adv-x="1157" d="M31 508q0 213 121 364q131 166 337 166q172 0 281 -127v95h283v-1006h-283v92h-4q-96 -125 -272 -125q-215 0 -344 168q-119 152 -119 373zM250 1358l133 -8q10 -49 63 -78q45 -25 101 -25q55 0 105 26.5t61 76.5l133 8q-23 -203 -303 -203q-270 0 -293 203zM322 504 q0 -111 63 -193q68 -90 174 -90t176 90q63 82 64 193q0 111 -65.5 195.5t-174.5 84.5q-106 0 -174 -90q-63 -82 -63 -190zM547 1358v117l160 188q18 29 57 29q31 0 51 -27l45 -61q-8 -25 -37.5 -46.5t-56.5 -21.5z" />
<glyph unicode="&#x1eb0;" horiz-adv-x="1384" d="M-18 0l602 1585h233l586 -1585h-322l-118 326h-537l-127 -326h-317zM369 2146l47 66q18 27 53 26q39 0 61 -28l2 -2l166 -197v-123l-231 187q-29 0 -59.5 22.5t-38.5 48.5zM387 1886l139 -10q25 -106 172 -107q59 0 107 25q57 29 69 82l140 10q-23 -215 -320 -215 q-284 0 -307 215zM512 571h367l-193 562h-4z" />
<glyph unicode="&#x1eb1;" horiz-adv-x="1157" d="M31 508q0 213 121 364q131 166 337 166q172 0 281 -127v95h283v-1006h-283v92h-4q-96 -125 -272 -125q-215 0 -344 168q-119 152 -119 373zM236 1606l45 61q20 27 51 27q39 0 57 -29l2 -2l158 -186v-117l-219 178q-27 0 -56.5 21.5t-37.5 46.5zM254 1358l133 -8 q20 -102 162 -103q55 0 105.5 26.5t62.5 76.5l133 8q-23 -203 -305 -203q-268 0 -291 203zM322 504q0 -111 63 -193q68 -90 174 -90t176 90q63 82 64 193q0 111 -65.5 195.5t-174.5 84.5q-106 0 -174 -90q-63 -82 -63 -190z" />
<glyph unicode="&#x1eb2;" horiz-adv-x="1384" d="M-18 0l602 1585h233l586 -1585h-322l-118 326h-537l-127 -326h-317zM387 1886l139 -10q25 -106 172 -107q59 0 107 25q57 29 69 82l140 10q-23 -215 -320 -215q-284 0 -307 215zM512 571h367l-193 562h-4zM549 2142q-6 72 51 137.5t129 65.5q74 0 124 -50t50 -124 q0 -57 -41 -107.5t-98 -64.5l-6 -84l-60 -29l-55 37l57 115q10 0 -30 41q45 0 86 25.5t41 68.5q0 25 -26 42t-52 17q-25 0 -46.5 -23.5t-21.5 -47.5z" />
<glyph unicode="&#x1eb3;" horiz-adv-x="1157" d="M31 508q0 213 121 364q131 166 337 166q172 0 281 -127v95h283v-1006h-283v92h-4q-96 -125 -272 -125q-215 0 -344 168q-119 152 -119 373zM254 1358l131 -10q27 -100 164 -101q55 0 105.5 25.5t62.5 75.5l133 10q-23 -205 -305 -205q-273 0 -291 205zM322 504 q0 -111 63 -193q68 -90 174 -90t176 90q63 82 64 193q0 111 -65.5 195.5t-174.5 84.5q-106 0 -174 -90q-63 -82 -63 -190zM408 1602q-6 68 48 130t122 62q70 0 117.5 -48t47.5 -118q0 -55 -38.5 -102t-92.5 -62l-6 -80l-57 -26l-51 35l53 108q10 0 -29 39q43 0 82 24.5 t39 65.5q0 55 -74 56q-25 0 -45 -22t-20 -46z" />
<glyph unicode="&#x1eb4;" horiz-adv-x="1384" d="M-18 0l602 1585h233l586 -1585h-322l-118 326h-537l-127 -326h-317zM387 1886l139 -10q25 -106 172 -107q59 0 107 25q57 29 69 82l140 10q-23 -215 -320 -215q-284 0 -307 215zM512 571h367l-193 562h-4zM649 1956q2 4 10 12l146 127q78 68 139 66q53 -2 100 -37 q55 -33 91 -31q35 -2 104 29q61 27 98 53q10 -10 45 -13t35 -10q-2 -4 -12 -12q-111 -90 -145 -115q-104 -74 -160 -71q-27 2 -85.5 36.5t-88.5 32.5q-35 2 -100.5 -27.5t-96.5 -56.5q-10 6 -49 9q-31 2 -31 8z" />
<glyph unicode="&#x1eb5;" horiz-adv-x="1157" d="M31 508q0 213 121 364q131 166 337 166q172 0 281 -127v95h283v-1006h-283v92h-4q-96 -125 -272 -125q-215 0 -344 168q-119 152 -119 373zM254 1358l131 -10q27 -100 164 -101q55 0 105.5 25.5t62.5 75.5l131 10q-18 -205 -303 -205q-273 0 -291 205zM322 504 q0 -111 63 -193q68 -90 174 -90t176 90q63 82 64 193q0 111 -65.5 195.5t-174.5 84.5q-106 0 -174 -90q-63 -82 -63 -190zM504 1425q2 6 8 11q207 184 270 182q51 -2 97 -35q53 -31 84 -29q35 -2 100 27q57 25 92 51q29 -23 57 -22q8 0 19 2q0 -5 -10 -13l-148 -116 q-80 -63 -143 -62q-31 0 -82 35q-39 35 -84 33q-31 2 -94.5 -26.5t-91.5 -53.5q-2 2 -38 6t-36 10z" />
<glyph unicode="&#x1eb6;" horiz-adv-x="1384" d="M-18 0l602 1585h233l586 -1585h-322l-118 326h-537l-127 -326h-317zM385 1714l313 223l316 -223l-105 -76l-211 121l-211 -121zM512 571h367l-193 562h-4zM563 -201q0 57 40 96t97 39t97.5 -38.5t40.5 -96.5q0 -57 -40 -98t-98 -41q-57 0 -97 41t-40 98z" />
<glyph unicode="&#x1eb7;" horiz-adv-x="1157" d="M31 508q0 213 121 364q131 166 337 166q172 0 281 -127v95h283v-1006h-283v92h-4q-96 -125 -272 -125q-215 0 -344 168q-119 152 -119 373zM250 1358l133 -8q10 -49 63 -78q45 -25 101 -25q55 0 105 26.5t61 76.5l133 8q-23 -203 -303 -203q-270 0 -293 203zM322 504 q0 -111 63 -193q68 -90 174 -90t176 90q63 82 64 193q0 111 -65.5 195.5t-174.5 84.5q-106 0 -174 -90q-63 -82 -63 -190zM418 -233q0 53 39 91t92 38t92 -38t39 -91t-39 -93.5t-92 -40.5t-92 40t-39 94z" />
<glyph unicode="&#x1eb8;" horiz-adv-x="999" d="M111 0v1544h798v-262h-497v-340h479v-262h-479v-418h497v-262h-798zM373 -242q0 57 40 96.5t97 39.5t97 -39t40 -97q0 -57 -40 -98t-97 -41t-97 41t-40 98z" />
<glyph unicode="&#x1eb9;" horiz-adv-x="1026" d="M31 494q0 242 121 387q129 158 366 157q238 0 363 -159q115 -143 114 -387v-35h-661q0 -111 43 -183q53 -88 155 -88q125 0 193 138l264 -43q-51 -150 -174 -232t-283 -82q-229 0 -365 147.5t-136 379.5zM342 635h383q-12 84 -59 139q-53 63 -131 64q-164 0 -193 -203z M387 -274q0 53 39 91t92 38t92 -38t39 -91t-39 -93.5t-92 -40.5t-92 40t-39 94z" />
<glyph unicode="&#x1eba;" horiz-adv-x="999" d="M111 0v1544h798v-262h-497v-340h479v-262h-479v-418h497v-262h-798zM358 1956q-6 72 51.5 137.5t129.5 65.5q74 0 124 -50.5t50 -123.5q0 -57 -41 -107.5t-99 -65.5l-6 -83l-59 -29l-55 37l57 114q10 0 -31 41q45 0 86 26t41 69q0 25 -25.5 42t-52.5 17q-25 0 -46 -23.5 t-21 -48.5z" />
<glyph unicode="&#x1ebb;" horiz-adv-x="1026" d="M31 494q0 242 121 387q129 158 366 157q238 0 363 -159q115 -143 114 -387v-35h-661q0 -111 43 -183q53 -88 155 -88q125 0 193 138l264 -43q-51 -150 -174 -232t-283 -82q-229 0 -365 147.5t-136 379.5zM342 635h383q-12 84 -59 139q-53 63 -131 64q-164 0 -193 -203z M369 1440q-6 72 51 137t129 65q74 0 124 -50t50 -124q0 -57 -41 -107t-98 -65l-6 -84l-60 -28l-55 37l57 114q10 0 -31 41q45 0 86 25.5t41 68.5q0 25 -25.5 42.5t-51.5 17.5q-25 0 -46.5 -23.5t-21.5 -48.5z" />
<glyph unicode="&#x1ebc;" horiz-adv-x="999" d="M111 0v1544h798v-262h-497v-340h479v-262h-479v-418h497v-262h-798zM127 1737q2 4 10 12l146 127q78 68 139 66q53 -2 100 -37q55 -33 90 -31q35 -2 105 29q61 27 98 53q10 -10 45 -13.5t35 -9.5q-2 -4 -12 -12q-111 -90 -146 -115q-104 -74 -159 -71q-27 2 -85.5 36.5 t-89.5 32.5q-35 2 -100 -27.5t-96 -56.5q-10 6 -49 9q-31 2 -31 8z" />
<glyph unicode="&#x1ebd;" horiz-adv-x="1026" d="M31 494q0 242 121 387q129 158 366 157q238 0 363 -159q115 -143 114 -387v-35h-661q0 -111 43 -183q53 -88 155 -88q125 0 193 138l264 -43q-51 -150 -174 -232t-283 -82q-229 0 -365 147.5t-136 379.5zM156 1223q2 4 10 12q63 55 127 113q92 72 143 69 q25 -2 90.5 -33.5t89.5 -29.5q35 -2 101 26q57 25 92 52q39 -8 76 -21q-1 -6 -11 -12l-147 -117q-80 -63 -143 -61q-33 0 -82 34q-37 33 -82 31q-35 2 -97.5 -25.5t-91.5 -54.5q-33 14 -59 13q-16 -2 -16 4zM342 635h383q-12 84 -59 139q-53 63 -131 64q-164 0 -193 -203z " />
<glyph unicode="&#x1ebe;" horiz-adv-x="999" d="M111 0v1544h798v-262h-497v-340h479v-262h-479v-418h497v-262h-798zM195 1714l313 223l315 -223l-104 -76l-211 121l-211 -121zM805 1782v123l168 198q25 29 61 29q35 0 53 -27l48 -65q-8 -27 -39 -49.5t-60 -22.5z" />
<glyph unicode="&#x1ebf;" horiz-adv-x="1026" d="M31 494q0 242 121 387q129 158 366 157q238 0 363 -159q115 -143 114 -387v-35h-661q0 -111 43 -183q53 -88 155 -88q125 0 193 138l264 -43q-51 -150 -174 -232t-283 -82q-229 0 -365 147.5t-136 379.5zM221 1178l297 213l299 -213l-98 -72l-201 115l-201 -115zM342 635 h383q-12 84 -59 139q-53 63 -131 64q-164 0 -193 -203zM760 1282v117l160 190q23 27 57 27q31 0 51 -27l45 -61q-8 -25 -37.5 -46.5t-56.5 -21.5z" />
<glyph unicode="&#x1ec0;" horiz-adv-x="999" d="M-115 2038l47 65q18 27 54 27q39 0 61 -29l2 -2l166 -196v-123l-231 186q-29 0 -59.5 22.5t-39.5 49.5zM111 0v1544h798v-262h-497v-340h479v-262h-479v-418h497v-262h-798zM195 1714l313 223l315 -223l-104 -76l-211 121l-211 -121z" />
<glyph unicode="&#x1ec1;" horiz-adv-x="1026" d="M-33 1526l45 61q20 27 51 27t58 -27l2 -2l158 -188v-117l-220 178q-27 0 -56.5 21.5t-37.5 46.5zM31 494q0 242 121 387q129 158 366 157q238 0 363 -159q115 -143 114 -387v-35h-661q0 -111 43 -183q53 -88 155 -88q125 0 193 138l264 -43q-51 -150 -174 -232t-283 -82 q-229 0 -365 147.5t-136 379.5zM221 1178l297 213l299 -213l-98 -72l-201 115l-201 -115zM342 635h383q-12 84 -59 139q-53 63 -131 64q-164 0 -193 -203z" />
<glyph unicode="&#x1ec2;" horiz-adv-x="999" d="M111 0v1544h798v-262h-497v-340h479v-262h-479v-418h497v-262h-798zM195 1714l313 223l315 -223l-104 -76l-211 121l-211 -121zM731 2015q-6 72 51.5 137.5t128.5 65.5q74 0 124 -50t50 -124q0 -57 -40.5 -107.5t-98.5 -64.5l-6 -84l-59 -29l-56 37l58 115q10 0 -31 41 q45 0 86 25.5t41 68.5q0 25 -25.5 42t-52.5 17q-25 0 -46 -23.5t-21 -47.5z" />
<glyph unicode="&#x1ec3;" horiz-adv-x="1026" d="M31 494q0 242 121 387q129 158 366 157q238 0 363 -159q115 -143 114 -387v-35h-661q0 -111 43 -183q53 -88 155 -88q125 0 193 138l264 -43q-51 -150 -174 -232t-283 -82q-229 0 -365 147.5t-136 379.5zM221 1180l297 213l299 -213l-98 -72l-201 115l-201 -115zM342 635 h383q-12 84 -59 139q-53 63 -131 64q-164 0 -193 -203zM700 1522q-6 72 51.5 137t129.5 65q74 0 124 -50t50 -124q0 -57 -41 -107t-99 -65l-6 -84l-59 -28l-55 37l57 114q10 0 -31 41q45 0 86 25.5t41 68.5q0 25 -25.5 42.5t-52.5 17.5q-25 0 -46 -23.5t-21 -48.5z" />
<glyph unicode="&#x1ec4;" horiz-adv-x="999" d="M111 0v1544h798v-262h-497v-340h479v-262h-479v-418h497v-262h-798zM125 1997q2 4 10 12l146 127q78 68 139 66q53 -2 100 -37q55 -33 90 -31q35 -2 105 29q61 27 98 53q10 -10 45 -13t35 -10q-2 -4 -12 -12q-111 -90 -146 -115q-104 -74 -160 -71q-27 2 -85 36.5 t-89 32.5q-35 2 -100 -27.5t-96 -56.5q-10 6 -49 9q-31 2 -31 8zM193 1714l313 223l315 -223l-104 -76l-211 121l-211 -121z" />
<glyph unicode="&#x1ec5;" horiz-adv-x="1026" d="M31 494q0 242 121 387q129 158 366 157q238 0 363 -159q115 -143 114 -387v-35h-661q0 -111 43 -183q53 -88 155 -88q125 0 193 138l264 -43q-51 -150 -174 -232t-283 -82q-229 0 -365 147.5t-136 379.5zM154 1446q2 4 10 12q63 55 127 113q92 72 143 69 q25 -2 90.5 -33.5t89.5 -29.5q35 -2 101 27q57 25 92 51q39 -8 76 -21q-1 -6 -11 -12l-147 -117q-80 -63 -143 -61q-33 0 -82 35q-37 33 -82 30q-35 2 -97.5 -25.5t-91.5 -53.5q-33 14 -59 12q-16 -2 -16 4zM219 1178l297 213l299 -213l-98 -72l-201 115l-201 -115zM342 635 h383q-12 84 -59 139q-53 63 -131 64q-164 0 -193 -203z" />
<glyph unicode="&#x1ec6;" horiz-adv-x="999" d="M111 0v1544h798v-262h-497v-340h479v-262h-479v-418h497v-262h-798zM195 1714l313 223l315 -223l-104 -76l-211 121l-211 -121zM373 -242q0 57 40 96.5t97 39.5t97 -39t40 -97q0 -57 -40 -98t-97 -41t-97 41t-40 98z" />
<glyph unicode="&#x1ec7;" horiz-adv-x="1026" d="M31 494q0 242 121 387q129 158 366 157q238 0 363 -159q115 -143 114 -387v-35h-661q0 -111 43 -183q53 -88 155 -88q125 0 193 138l264 -43q-51 -150 -174 -232t-283 -82q-229 0 -365 147.5t-136 379.5zM221 1178l297 213l299 -213l-98 -72l-201 115l-201 -115zM342 635 h383q-12 84 -59 139q-53 63 -131 64q-164 0 -193 -203zM387 -274q0 53 39 91t92 38t92 -38t39 -91t-39 -93.5t-92 -40.5t-92 40t-39 94z" />
<glyph unicode="&#x1ec8;" horiz-adv-x="520" d="M111 0v1544h301v-1544h-301zM113 1925q-6 72 51 137.5t129 65.5q74 0 124 -50t50 -124q0 -57 -41 -107.5t-98 -64.5l-6 -84l-60 -29l-55 37l57 115q10 0 -31 41q45 0 86 25.5t41 68.5q0 25 -25.5 42t-51.5 17q-25 0 -46.5 -23.5t-21.5 -47.5z" />
<glyph unicode="&#x1ec9;" horiz-adv-x="518" d="M113 1419q-6 72 51 137.5t129 65.5q74 0 124 -50t50 -124q0 -57 -41 -107.5t-98 -64.5l-6 -84l-60 -29l-55 37l57 115q10 0 -31 41q45 0 86 25.5t41 68.5q0 25 -25.5 42t-51.5 17q-25 0 -46.5 -23.5t-21.5 -47.5zM117 0v1006h286v-1006h-286z" />
<glyph unicode="&#x1eca;" horiz-adv-x="520" d="M111 0v1544h301v-1544h-301zM125 -242q0 57 40 96.5t97 39.5t97 -39t40 -97q0 -57 -40 -98t-97 -41t-97 41t-40 98z" />
<glyph unicode="&#x1ecb;" horiz-adv-x="518" d="M117 0v1006h286v-1006h-286zM131 -236q0 53 39 91.5t92 38.5t92 -38t39 -92q0 -53 -39 -93t-92 -40t-92 40t-39 93zM131 1317q0 53 39 91t92 38t92 -38t39 -91t-39 -93t-92 -40t-92 40t-39 93z" />
<glyph unicode="&#x1ecc;" horiz-adv-x="1601" d="M37 774q0 340 209 572q217 240 555 239q338 0 555 -239q209 -231 209 -572q0 -344 -207 -575q-215 -240 -557 -240t-557 240q-207 231 -207 575zM348 786q0 -195 127 -356q137 -174 326 -174q188 0 325 174q127 162 127 356q0 201 -125 347q-130 155 -327 155t-328 -155 q-125 -145 -125 -347zM664 -283q0 57 40 96.5t97 39.5t97 -39t40 -97q0 -57 -40 -98t-97 -41t-97 41t-40 98z" />
<glyph unicode="&#x1ecd;" horiz-adv-x="1122" d="M33 502q0 240 145 388t383 148t383.5 -148.5t145.5 -387.5q0 -240 -144.5 -387.5t-384.5 -147.5t-384 147.5t-144 387.5zM324 502q0 -109 63 -191q68 -90 174 -90t174 90q63 82 64 191q0 113 -62 192q-67 90 -176 90t-176 -90q-61 -80 -61 -192zM428 -274q0 53 39 91 t92 38t92 -38t39 -91t-39 -93.5t-92 -40.5t-92 40t-39 94z" />
<glyph unicode="&#x1ece;" horiz-adv-x="1601" d="M37 774q0 340 209 572q217 240 555 239q338 0 555 -239q209 -231 209 -572q0 -344 -207 -575q-215 -240 -557 -240t-557 240q-207 231 -207 575zM348 786q0 -195 127 -356q137 -174 326 -174q188 0 325 174q127 162 127 356q0 201 -125 347q-130 155 -327 155t-328 -155 q-125 -145 -125 -347zM651 1956q-6 72 51.5 137.5t128.5 65.5q74 0 124.5 -50.5t50.5 -123.5q0 -57 -41 -107.5t-99 -65.5l-6 -83l-59 -29l-56 37l58 114q10 0 -31 41q45 0 86 26t41 69q0 25 -25.5 42t-52.5 17q-25 0 -46 -23.5t-21 -48.5z" />
<glyph unicode="&#x1ecf;" horiz-adv-x="1122" d="M33 502q0 240 145 388t383 148t383.5 -148.5t145.5 -387.5q0 -240 -144.5 -387.5t-384.5 -147.5t-384 147.5t-144 387.5zM324 502q0 -109 63 -191q68 -90 174 -90t174 90q63 82 64 191q0 113 -62 192q-67 90 -176 90t-176 -90q-61 -80 -61 -192zM412 1440q-6 72 51 137 t129 65q74 0 124 -50t50 -124q0 -57 -41 -107t-98 -65l-6 -84l-60 -28l-55 37l57 114q10 0 -31 41q45 0 86 25.5t41 68.5q0 25 -25.5 42.5t-51.5 17.5q-25 0 -46.5 -23.5t-21.5 -48.5z" />
<glyph unicode="&#x1ed0;" horiz-adv-x="1601" d="M37 774q0 340 209 572q217 240 555 239q338 0 555 -239q209 -231 209 -572q0 -344 -207 -575q-215 -240 -557 -240t-557 240q-207 231 -207 575zM348 786q0 -195 127 -356q137 -174 326 -174q188 0 325 174q127 162 127 356q0 201 -125 347q-130 155 -327 155t-328 -155 q-125 -145 -125 -347zM487 1714l314 223l315 -223l-104 -76l-211 121l-211 -121zM1098 1782v123l168 198q25 29 61 29q35 0 53 -27l47 -65q-8 -27 -38.5 -49.5t-59.5 -22.5z" />
<glyph unicode="&#x1ed1;" horiz-adv-x="1122" d="M33 502q0 240 145 388t383 148t383.5 -148.5t145.5 -387.5q0 -240 -144.5 -387.5t-384.5 -147.5t-384 147.5t-144 387.5zM264 1178l297 213l299 -213l-98 -72l-201 115l-201 -115zM324 502q0 -109 63 -191q68 -90 174 -90t174 90q63 82 64 191q0 113 -62 192 q-67 90 -176 90t-176 -90q-61 -80 -61 -192zM803 1282v117l160 190q23 27 57 27q31 0 51 -27l45 -61q-8 -25 -37.5 -46.5t-56.5 -21.5z" />
<glyph unicode="&#x1ed2;" horiz-adv-x="1601" d="M37 774q0 340 209 572q217 240 555 239q338 0 555 -239q209 -231 209 -572q0 -344 -207 -575q-215 -240 -557 -240t-557 240q-207 231 -207 575zM178 2038l47 65q18 27 54 27q39 0 61 -29l2 -2l166 -196v-123l-232 186q-29 0 -59.5 22.5t-38.5 49.5zM348 786 q0 -195 127 -356q137 -174 326 -174q188 0 325 174q127 162 127 356q0 201 -125 347q-130 155 -327 155t-328 -155q-125 -145 -125 -347zM487 1714l314 223l315 -223l-104 -76l-211 121l-211 -121z" />
<glyph unicode="&#x1ed3;" horiz-adv-x="1122" d="M10 1526l45 61q20 27 51 27t58 -27l2 -2l158 -188v-117l-220 178q-27 0 -56.5 21.5t-37.5 46.5zM33 502q0 240 145 388t383 148t383.5 -148.5t145.5 -387.5q0 -240 -144.5 -387.5t-384.5 -147.5t-384 147.5t-144 387.5zM264 1178l297 213l299 -213l-98 -72l-201 115 l-201 -115zM324 502q0 -109 63 -191q68 -90 174 -90t174 90q63 82 64 191q0 113 -62 192q-67 90 -176 90t-176 -90q-61 -80 -61 -192z" />
<glyph unicode="&#x1ed4;" horiz-adv-x="1601" d="M37 774q0 340 209 572q217 240 555 239q338 0 555 -239q209 -231 209 -572q0 -344 -207 -575q-215 -240 -557 -240t-557 240q-207 231 -207 575zM348 786q0 -195 127 -356q137 -174 326 -174q188 0 325 174q127 162 127 356q0 201 -125 347q-130 155 -327 155t-328 -155 q-125 -145 -125 -347zM487 1714l314 223l315 -223l-104 -76l-211 121l-211 -121zM1024 2015q-6 72 51.5 137.5t128.5 65.5q74 0 124 -50t50 -124q0 -57 -41 -107.5t-98 -64.5l-6 -84l-59 -29l-56 37l58 115q10 0 -31 41q45 0 86 25.5t41 68.5q0 25 -25.5 42t-52.5 17 q-25 0 -46.5 -23.5t-21.5 -47.5z" />
<glyph unicode="&#x1ed5;" horiz-adv-x="1122" d="M33 502q0 240 145 388t383 148t383.5 -148.5t145.5 -387.5q0 -240 -144.5 -387.5t-384.5 -147.5t-384 147.5t-144 387.5zM264 1180l297 213l299 -213l-98 -72l-201 115l-201 -115zM324 502q0 -109 63 -191q68 -90 174 -90t174 90q63 82 64 191q0 113 -62 192 q-67 90 -176 90t-176 -90q-61 -80 -61 -192zM743 1522q-6 72 51.5 137t129.5 65q74 0 124 -50t50 -124q0 -57 -41 -107t-99 -65l-6 -84l-59 -28l-55 37l57 114q10 0 -31 41q45 0 86 25.5t41 68.5q0 25 -25.5 42.5t-52.5 17.5q-25 0 -46 -23.5t-21 -48.5z" />
<glyph unicode="&#x1ed6;" horiz-adv-x="1601" d="M37 774q0 340 209 572q217 240 555 239q338 0 555 -239q209 -231 209 -572q0 -344 -207 -575q-215 -240 -557 -240t-557 240q-207 231 -207 575zM348 786q0 -195 127 -356q137 -174 326 -174q188 0 325 174q127 162 127 356q0 201 -125 347q-130 155 -327 155t-328 -155 q-125 -145 -125 -347zM420 1997q2 4 10 12l145 127q78 68 140 66q53 -2 100 -37q55 -33 90 -31q35 -2 105 29q61 27 98 53q10 -10 45 -13t35 -10q-2 -4 -12 -12q-111 -90 -146 -115q-104 -74 -160 -71q-27 2 -85 36.5t-89 32.5q-35 2 -100.5 -27.5t-95.5 -56.5q-10 6 -49 9 q-31 2 -31 8zM487 1714l314 223l315 -223l-104 -76l-211 121l-211 -121z" />
<glyph unicode="&#x1ed7;" horiz-adv-x="1122" d="M33 502q0 240 145 388t383 148t383.5 -148.5t145.5 -387.5q0 -240 -144.5 -387.5t-384.5 -147.5t-384 147.5t-144 387.5zM197 1446q2 4 10 12q63 55 127 113q92 72 143 69q25 -2 90.5 -33.5t89.5 -29.5q35 -2 101 27q57 25 92 51q39 -8 76 -21q-1 -6 -11 -12l-147 -117 q-80 -63 -143 -61q-33 0 -82 35q-37 33 -82 30q-35 2 -97.5 -25.5t-91.5 -53.5q-33 14 -59 12q-16 -2 -16 4zM262 1178l297 213l299 -213l-98 -72l-201 115l-201 -115zM324 502q0 -109 63 -191q68 -90 174 -90t174 90q63 82 64 191q0 113 -62 192q-67 90 -176 90t-176 -90 q-61 -80 -61 -192z" />
<glyph unicode="&#x1ed8;" horiz-adv-x="1601" d="M37 774q0 340 209 572q217 240 555 239q338 0 555 -239q209 -231 209 -572q0 -344 -207 -575q-215 -240 -557 -240t-557 240q-207 231 -207 575zM348 786q0 -195 127 -356q137 -174 326 -174q188 0 325 174q127 162 127 356q0 201 -125 347q-130 155 -327 155t-328 -155 q-125 -145 -125 -347zM487 1714l314 223l315 -223l-104 -76l-211 121l-211 -121zM664 -283q0 57 40 96.5t97 39.5t97 -39t40 -97q0 -57 -40 -98t-97 -41t-97 41t-40 98z" />
<glyph unicode="&#x1ed9;" horiz-adv-x="1122" d="M33 502q0 240 145 388t383 148t383.5 -148.5t145.5 -387.5q0 -240 -144.5 -387.5t-384.5 -147.5t-384 147.5t-144 387.5zM264 1178l297 213l299 -213l-98 -72l-201 115l-201 -115zM324 502q0 -109 63 -191q68 -90 174 -90t174 90q63 82 64 191q0 113 -62 192 q-67 90 -176 90t-176 -90q-61 -80 -61 -192zM428 -274q0 53 39 91t92 38t92 -38t39 -91t-39 -93.5t-92 -40.5t-92 40t-39 94z" />
<glyph unicode="&#x1eda;" horiz-adv-x="1601" d="M37 774q0 340 209 572q217 240 555 239q172 0 317 -69l131 8h51q18 18 31 28q4 10 4 21q0 31 -39 57q-45 31 -47 41q-8 31 45 39q47 8 76 -2q94 -33 94 -115q0 -55 -51 -100q-43 -39 -102 -53l-51 -13q147 -115 226 -287.5t79 -365.5q0 -344 -207 -575 q-215 -240 -557 -240t-557 240q-207 231 -207 575zM348 786q0 -195 127 -356q137 -174 326 -174q188 0 325 174q127 162 127 356q0 201 -125 347q-130 155 -327 155t-328 -155q-125 -145 -125 -347zM801 1720v123l168 199q25 29 61 29q35 0 53 -27l47 -66q-8 -27 -38.5 -49 t-59.5 -22z" />
<glyph unicode="&#x1edb;" horiz-adv-x="1122" d="M33 502q0 240 145.5 388t382.5 148q133 0 248 -55l78 4q20 12 33 17q12 16 12 30q0 18 -19 33q-25 25 -20 45q2 20 29 21q45 0 71 -27q45 -35 45 -96q1 -91 -114 -105l2 -2q164 -147 164 -401q0 -240 -144.5 -387.5t-384.5 -147.5t-384 147.5t-144 387.5zM324 502 q0 -109 63 -191q68 -90 174 -90t174 90q63 82 64 191q0 113 -62 192q-67 90 -176 90t-176 -90q-61 -80 -61 -192zM561 1204v117l160 190q23 27 57 27q31 0 51 -27l45 -61q-8 -25 -37.5 -46.5t-56.5 -21.5z" />
<glyph unicode="&#x1edc;" horiz-adv-x="1601" d="M37 774q0 340 209 572q217 240 555 239q172 0 317 -69l131 8h51q18 18 31 28q4 10 4 21q0 31 -39 57q-45 31 -47 41q-8 31 45 39q47 8 76 -2q94 -33 94 -115q0 -55 -51 -100q-43 -39 -102 -53l-51 -13q147 -115 226 -287.5t79 -365.5q0 -344 -207 -575 q-215 -240 -557 -240t-557 240q-207 231 -207 575zM348 786q0 -195 127 -356q137 -174 326 -174q188 0 325 174q127 162 127 356q0 201 -125 347q-130 155 -327 155t-328 -155q-125 -145 -125 -347zM471 1980l47 66q18 27 53 27q39 0 62 -29l2 -2l166 -197v-123l-232 187 q-29 0 -59.5 22.5t-38.5 48.5z" />
<glyph unicode="&#x1edd;" horiz-adv-x="1122" d="M33 502q0 240 145.5 388t382.5 148q133 0 250 -55l96 4q20 12 33 17q12 16 12 30q0 18 -18 33q-25 25 -21 45q2 20 29 21q45 0 72 -27q45 -35 45 -96q0 -49 -40 -77t-93 -30q164 -147 164 -401q0 -240 -144.5 -387.5t-384.5 -147.5t-384 147.5t-144 387.5zM246 1452 l45 61q20 27 51 27t57 -27l2 -2l158 -188v-117l-219 178q-27 0 -56.5 21.5t-37.5 46.5zM324 502q0 -109 63 -191q68 -90 174 -90t174 90q63 82 64 191q0 113 -62 192q-67 90 -176 90t-176 -90q-61 -80 -61 -192z" />
<glyph unicode="&#x1ede;" horiz-adv-x="1601" d="M37 774q0 340 209 572q217 240 555 239q172 0 317 -69l131 8h51q18 18 31 28q4 10 4 21q0 31 -39 57q-45 31 -47 41q-8 31 45 39q47 8 76 -2q94 -33 94 -115q0 -55 -51 -100q-43 -39 -102 -53l-51 -13q147 -115 226 -287.5t79 -365.5q0 -344 -207 -575 q-215 -240 -557 -240t-557 240q-207 231 -207 575zM348 786q0 -195 127 -356q137 -174 326 -174q188 0 325 174q127 162 127 356q0 201 -125 347q-130 155 -327 155t-328 -155q-125 -145 -125 -347zM651 1956q-6 72 51.5 137.5t128.5 65.5q74 0 124.5 -50.5t50.5 -123.5 q0 -57 -41 -107.5t-99 -65.5l-6 -83l-59 -29l-56 37l58 114q10 0 -31 41q45 0 86 26t41 69q0 25 -25.5 42t-52.5 17q-25 0 -46 -23.5t-21 -48.5z" />
<glyph unicode="&#x1edf;" horiz-adv-x="1122" d="M33 502q0 240 145.5 388t382.5 148q133 0 250 -55l96 4q20 12 33 17q12 16 12 30q0 18 -18 33q-25 25 -21 45q2 20 29 21q45 0 72 -27q45 -35 45 -96q0 -49 -40 -77t-93 -30q164 -147 164 -401q0 -240 -144.5 -387.5t-384.5 -147.5t-384 147.5t-144 387.5zM324 502 q0 -109 63 -191q68 -90 174 -90t174 90q63 82 64 191q0 113 -62 192q-67 90 -176 90t-176 -90q-61 -80 -61 -192zM412 1440q-6 72 51 137t129 65q74 0 124 -50t50 -124q0 -57 -41 -107t-98 -65l-6 -84l-60 -28l-55 37l57 114q10 0 -31 41q45 0 86 25.5t41 68.5 q0 25 -25.5 42.5t-51.5 17.5q-25 0 -46.5 -23.5t-21.5 -48.5z" />
<glyph unicode="&#x1ee0;" horiz-adv-x="1601" d="M37 774q0 340 209 572q217 240 555 239q172 0 317 -69l131 8h51q18 18 31 28q4 10 4 21q0 31 -39 57q-45 31 -47 41q-8 31 45 39q47 8 76 -2q94 -33 94 -115q0 -55 -51 -100q-43 -39 -102 -53l-51 -13q147 -115 226 -287.5t79 -365.5q0 -344 -207 -575 q-215 -240 -557 -240t-557 240q-207 231 -207 575zM348 786q0 -195 127 -356q137 -174 326 -174q188 0 325 174q127 162 127 356q0 201 -125 347q-130 155 -327 155t-328 -155q-125 -145 -125 -347zM420 1737q2 4 10 12l145 127q78 68 140 66q53 -2 100 -37q55 -33 90 -31 q35 -2 105 29q61 27 98 53q10 -10 45 -13.5t35 -9.5q-2 -4 -12 -12q-111 -90 -146 -115q-104 -74 -160 -71q-27 2 -85 36.5t-89 32.5q-35 2 -100.5 -27.5t-95.5 -56.5q-10 6 -49 9q-31 2 -31 8z" />
<glyph unicode="&#x1ee1;" horiz-adv-x="1122" d="M33 502q0 240 145.5 388t382.5 148q133 0 250 -55l96 4q20 12 33 17q12 16 12 30q0 18 -18 33q-25 25 -21 45q2 20 29 21q45 0 72 -27q45 -35 45 -96q0 -49 -40 -77t-93 -30q164 -147 164 -401q0 -240 -144.5 -387.5t-384.5 -147.5t-384 147.5t-144 387.5zM199 1223 q2 4 10 12q63 55 127 113q92 72 143 69q25 -2 90.5 -33.5t89.5 -29.5q35 -2 101 26q57 25 92 52q39 -8 76 -21q0 -6 -10 -12l-148 -117q-80 -63 -143 -61q-33 0 -82 34q-37 33 -82 31q-35 2 -97.5 -25.5t-91.5 -54.5q-33 14 -59 13q-16 -2 -16 4zM324 502q0 -109 63 -191 q68 -90 174 -90t174 90q63 82 64 191q0 113 -62 192q-67 90 -176 90t-176 -90q-61 -80 -61 -192z" />
<glyph unicode="&#x1ee2;" horiz-adv-x="1601" d="M37 774q0 340 209 572q217 240 555 239q172 0 317 -69l131 8h51q18 18 31 28q4 10 4 21q0 31 -39 57q-45 31 -47 41q-8 31 45 39q47 8 76 -2q94 -33 94 -115q0 -55 -51 -100q-43 -39 -102 -53l-51 -13q147 -115 226 -287.5t79 -365.5q0 -344 -207 -575 q-215 -240 -557 -240t-557 240q-207 231 -207 575zM348 786q0 -195 127 -356q137 -174 326 -174q188 0 325 174q127 162 127 356q0 201 -125 347q-130 155 -327 155t-328 -155q-125 -145 -125 -347zM664 -283q0 57 40 96.5t97 39.5t97 -39t40 -97q0 -57 -40 -98t-97 -41 t-97 41t-40 98z" />
<glyph unicode="&#x1ee3;" horiz-adv-x="1122" d="M33 502q0 240 145.5 388t382.5 148q133 0 250 -55l96 4q20 12 33 17q12 16 12 30q0 18 -18 33q-25 25 -21 45q2 20 29 21q45 0 72 -27q45 -35 45 -96q0 -49 -40 -77t-93 -30q164 -147 164 -401q0 -240 -144.5 -387.5t-384.5 -147.5t-384 147.5t-144 387.5zM324 502 q0 -109 63 -191q68 -90 174 -90t174 90q63 82 64 191q0 113 -62 192q-67 90 -176 90t-176 -90q-61 -80 -61 -192zM428 -274q0 53 39 91t92 38t92 -38t39 -91t-39 -93.5t-92 -40.5t-92 40t-39 94z" />
<glyph unicode="&#x1ee4;" horiz-adv-x="1351" d="M102 621v923h301v-864q0 -199 41 -301q63 -158 232 -158q168 0 231 158q41 102 41 301v864h301v-923q0 -305 -131 -474q-145 -188 -442 -188t-443 188q-131 169 -131 474zM539 -283q0 57 40 96.5t97 39.5t97 -39t40 -97q0 -57 -40 -98t-97 -41t-97 41t-40 98z" />
<glyph unicode="&#x1ee5;" horiz-adv-x="1095" d="M96 414v592h287v-545q0 -252 164 -252t164 252v545h286v-592q0 -446 -450 -447q-451 0 -451 447zM416 -274q0 53 39 91t92 38t92 -38t39 -91t-39 -93.5t-92 -40.5t-92 40t-39 94z" />
<glyph unicode="&#x1ee6;" horiz-adv-x="1351" d="M102 621v923h301v-864q0 -199 41 -301q63 -158 232 -158q168 0 231 158q41 102 41 301v864h301v-923q0 -305 -131 -474q-145 -188 -442 -188t-443 188q-131 169 -131 474zM526 1874q-6 72 51.5 137.5t129.5 65.5q74 0 124 -50.5t50 -123.5q0 -57 -41 -107.5t-99 -64.5 l-6 -84l-59 -29l-55 37l57 114q10 0 -31 41q45 0 86 26t41 69q0 25 -25.5 42t-52.5 17q-25 0 -46 -23.5t-21 -48.5z" />
<glyph unicode="&#x1ee7;" horiz-adv-x="1095" d="M96 414v592h287v-545q0 -252 164 -252t164 252v545h286v-592q0 -446 -450 -447q-451 0 -451 447zM399 1370q-6 72 51.5 137.5t129.5 65.5q74 0 124 -50t50 -124q0 -57 -41 -107.5t-99 -64.5l-6 -84l-59 -29l-55 37l57 115q10 0 -31 41q45 0 86 25.5t41 68.5 q0 25 -25.5 42t-52.5 17q-25 0 -46 -23.5t-21 -47.5z" />
<glyph unicode="&#x1ee8;" horiz-adv-x="1351" d="M102 621q0 -305 131 -474q145 -188 443 -188q297 0 442 188q131 168 131 474v819q154 43 154 153q0 82 -94 115q-29 10 -76 2q-53 -8 -45 -39q8 -29 47 -43t39 -55q0 -10 -4 -21q-12 -10 -31 -28l-51 10l-240 10v-864q0 -199 -41 -301q-63 -158 -231 -158t-232 158 q-41 102 -41 301v864h-301v-923zM676 1638v123l168 199q25 29 61 29q35 0 53 -27l48 -66q-8 -27 -39 -49t-60 -22z" />
<glyph unicode="&#x1ee9;" horiz-adv-x="1095" d="M96 414v592h287v-545q0 -252 164 -252t164 252v545l293 -21q20 10 32 14q12 16 13 33q0 18 -21 35q-25 25 -20 45q2 20 28 21q45 0 72 -27q45 -35 45 -96q0 -55 -53 -84q-44 -25 -103 -23v-489q0 -446 -450 -447q-451 0 -451 447zM549 1133v116l160 191q23 27 57 26 q31 0 51 -26l45 -62q-8 -25 -37.5 -46t-56.5 -21z" />
<glyph unicode="&#x1eea;" horiz-adv-x="1351" d="M102 621v923h301v-864q0 -199 41 -301q63 -158 232 -158q168 0 231 158q41 102 41 301v864l240 -10l51 -10q18 18 31 28q4 10 4 21q0 41 -39 55t-47 43q-8 31 45 39q47 8 76 -2q94 -33 94 -115q0 -111 -154 -153v-819q0 -305 -131 -474q-145 -188 -442 -188t-443 188 q-131 168 -131 474zM346 1896l47 66q18 27 53 27q39 0 62 -29l2 -2l166 -197v-123l-232 187q-29 0 -59.5 22.5t-38.5 48.5z" />
<glyph unicode="&#x1eeb;" horiz-adv-x="1095" d="M96 414v592h287v-545q0 -252 164 -252t164 252v545l293 -21q20 10 32 14q12 16 13 33q0 18 -21 35q-25 25 -20 45q2 20 28 21q45 0 72 -27q45 -35 45 -96q0 -55 -53 -84q-44 -25 -103 -23v-489q0 -446 -450 -447q-451 0 -451 447zM233 1380l46 62q20 27 51 26 q31 0 57 -26l2 -2l158 -189v-116l-219 178q-27 0 -56.5 21.5t-38.5 45.5z" />
<glyph unicode="&#x1eec;" horiz-adv-x="1351" d="M102 621q0 -305 131 -474q145 -188 443 -188q297 0 442 188q131 168 131 474v819q154 43 154 153q0 82 -94 115q-29 10 -76 2q-53 -8 -45 -39q8 -29 47 -43t39 -55q0 -10 -4 -21q-12 -10 -31 -28l-51 10l-240 10v-864q0 -199 -41 -301q-63 -158 -231 -158t-232 158 q-41 102 -41 301v864h-301v-923zM526 1874q-6 72 51.5 137.5t129.5 65.5q74 0 124 -50.5t50 -123.5q0 -57 -41 -107.5t-99 -64.5l-6 -84l-59 -29l-55 37l57 114q10 0 -31 41q45 0 86 26t41 69q0 25 -25.5 42t-52.5 17q-25 0 -46 -23.5t-21 -48.5z" />
<glyph unicode="&#x1eed;" horiz-adv-x="1095" d="M96 414v592h287v-545q0 -252 164 -252t164 252v545l293 -21q20 10 32 14q12 16 13 33q0 18 -21 35q-25 25 -20 45q2 20 28 21q45 0 72 -27q45 -35 45 -96q0 -55 -53 -84q-44 -25 -103 -23v-489q0 -446 -450 -447q-451 0 -451 447zM399 1370q-6 72 51.5 137.5t129.5 65.5 q74 0 124 -50t50 -124q0 -57 -41 -107.5t-99 -64.5l-6 -84l-59 -29l-55 37l57 115q10 0 -31 41q45 0 86 25.5t41 68.5q0 25 -25.5 42t-52.5 17q-25 0 -46 -23.5t-21 -47.5z" />
<glyph unicode="&#x1eee;" horiz-adv-x="1351" d="M102 621q0 -305 131 -474q145 -188 443 -188q297 0 442 188q131 168 131 474v819q154 43 154 153q0 82 -94 115q-29 10 -76 2q-53 -8 -45 -39q8 -29 47 -43t39 -55q0 -10 -4 -21q-12 -10 -31 -28l-51 10l-240 10v-864q0 -199 -41 -301q-63 -158 -231 -158t-232 158 q-41 102 -41 301v864h-301v-923zM293 1675q2 4 10 13l146 127q78 68 139 65q53 -2 100 -37q55 -33 90 -31q35 -2 105 29q61 27 98 53q10 -10 45 -13t35 -9q-2 -4 -12 -12q-111 -90 -146 -115q-104 -74 -160 -72q-27 2 -85 37t-89 33q-35 2 -100.5 -27.5t-95.5 -56.5 q-10 6 -49 8q-31 2 -31 8z" />
<glyph unicode="&#x1eef;" horiz-adv-x="1095" d="M96 414v592h287v-545q0 -252 164 -252t164 252v545l293 -21q20 10 32 14q12 16 13 33q0 18 -21 35q-25 25 -20 45q2 20 28 21q45 0 72 -27q45 -35 45 -96q0 -55 -53 -84q-44 -25 -103 -23v-489q0 -446 -450 -447q-451 0 -451 447zM186 1171q2 4 11 13q63 55 127 112 q92 72 143 70q25 -2 90.5 -34t89.5 -29q35 -2 101 26q57 25 92 51q39 -8 75 -20q0 -6 -10 -12l-147 -117q-80 -63 -144 -62q-33 0 -82 35q-37 33 -81 31q-35 2 -97.5 -25.5t-91.5 -54.5q-33 14 -59 12q-16 -2 -17 4z" />
<glyph unicode="&#x1ef0;" horiz-adv-x="1351" d="M102 621q0 -305 131 -474q145 -188 443 -188q297 0 442 188q131 168 131 474v819q154 43 154 153q0 82 -94 115q-29 10 -76 2q-53 -8 -45 -39q8 -29 47 -43t39 -55q0 -10 -4 -21q-12 -10 -31 -28l-51 10l-240 10v-864q0 -199 -41 -301q-63 -158 -231 -158t-232 158 q-41 102 -41 301v864h-301v-923zM539 -283q0 57 40 96.5t97 39.5t97 -39t40 -97q0 -57 -40 -98t-97 -41t-97 41t-40 98z" />
<glyph unicode="&#x1ef1;" horiz-adv-x="1095" d="M96 414v592h287v-545q0 -252 164 -252t164 252v545l293 -21q20 10 32 14q12 16 13 33q0 18 -21 35q-25 25 -20 45q2 20 28 21q45 0 72 -27q45 -35 45 -96q0 -55 -53 -84q-44 -25 -103 -23v-489q0 -446 -450 -447q-451 0 -451 447zM416 -274q0 53 39 91t92 38t92 -38 t39 -91t-39 -93.5t-92 -40.5t-92 40t-39 94z" />
<glyph unicode="&#x1ef2;" horiz-adv-x="1202" d="M-33 1544h350l271 -536l295 536h352l-487 -835v-709h-302v709zM260 1876l47 66q18 27 53 26q39 0 62 -29l2 -2l166 -196v-123l-232 186q-29 0 -59.5 22.5t-38.5 49.5z" />
<glyph unicode="&#x1ef3;" horiz-adv-x="1064" d="M-37 1006h326l239 -572l258 572h320l-731 -1543h-316l332 691zM223 1352l45 61q20 27 51 27t58 -27l2 -2l158 -188v-117l-220 178q-27 0 -56.5 21.5t-37.5 46.5z" />
<glyph unicode="&#x1ef4;" horiz-adv-x="1202" d="M-33 1544h350l271 -536l295 536h352l-487 -835v-709h-302v709zM455 -242q0 57 40 96.5t97 39.5t97 -39t40 -97q0 -57 -40 -98t-97 -41t-97 41t-40 98z" />
<glyph unicode="&#x1ef5;" horiz-adv-x="1064" d="M-37 1006h326l239 -572l258 572h320l-731 -1543h-316l332 691zM641 -236q0 53 39 91.5t92 38.5t92 -38t39 -92q0 -53 -39 -93t-92 -40t-92 40t-39 93z" />
<glyph unicode="&#x1ef6;" horiz-adv-x="1202" d="M-33 1544h350l271 -536l295 536h352l-487 -835v-709h-302v709zM440 1853q-6 72 51.5 137.5t129.5 65.5q74 0 124 -50t50 -124q0 -57 -41 -107.5t-99 -64.5l-6 -84l-59 -29l-55 37l57 115q10 0 -31 41q45 0 86 25.5t41 68.5q0 25 -25.5 42.5t-52.5 17.5q-25 0 -46 -24 t-21 -48z" />
<glyph unicode="&#x1ef7;" horiz-adv-x="1064" d="M-37 1006h326l239 -572l258 572h320l-731 -1543h-316l332 691zM389 1339q-6 72 51.5 137.5t128.5 65.5q74 0 124 -50t50 -124q0 -57 -40.5 -107.5t-98.5 -64.5l-6 -84l-59 -29l-56 37l58 115q10 0 -31 41q45 0 86 25.5t41 68.5q0 25 -25.5 42.5t-52.5 17.5q-25 0 -46 -24 t-21 -48z" />
<glyph unicode="&#x1ef8;" horiz-adv-x="1202" d="M-33 1544h350l271 -536l295 536h352l-487 -835v-709h-302v709zM209 1655q2 4 10 12l146 127q78 68 139 66q53 -2 100 -37q55 -33 90 -31q35 -2 105 29q61 27 98 53q10 -10 45 -13t35 -10q-2 -4 -12 -12q-111 -90 -146 -115q-104 -74 -160 -71q-27 2 -85 36.5t-89 32.5 q-35 2 -100.5 -27.5t-95.5 -56.5q-10 6 -49 9q-31 2 -31 8z" />
<glyph unicode="&#x1ef9;" horiz-adv-x="1064" d="M-37 1006h326l239 -572l258 572h320l-731 -1543h-316l332 691zM174 1151q2 4 10 12q63 55 127 113q92 72 144 70q25 -2 90 -34t90 -30q35 -2 100 27q57 25 92 51q39 -8 76 -21q0 -6 -10 -12l-148 -117q-80 -63 -143 -61q-33 0 -82 35q-37 33 -82 30q-35 2 -97 -25.5 t-91 -53.5q-33 14 -60 12q-16 -2 -16 4z" />
<glyph unicode="&#x2000;" horiz-adv-x="1223" />
<glyph unicode="&#x2001;" horiz-adv-x="2447" />
<glyph unicode="&#x2002;" horiz-adv-x="1223" />
<glyph unicode="&#x2003;" horiz-adv-x="2447" />
<glyph unicode="&#x2004;" horiz-adv-x="815" />
<glyph unicode="&#x2005;" horiz-adv-x="611" />
<glyph unicode="&#x2006;" horiz-adv-x="407" />
<glyph unicode="&#x2007;" horiz-adv-x="407" />
<glyph unicode="&#x2008;" horiz-adv-x="305" />
<glyph unicode="&#x2009;" horiz-adv-x="489" />
<glyph unicode="&#x200a;" horiz-adv-x="135" />
<glyph unicode="&#x2010;" horiz-adv-x="675" d="M88 539v235h500v-235h-500z" />
<glyph unicode="&#x2011;" horiz-adv-x="675" d="M88 539v235h500v-235h-500z" />
<glyph unicode="&#x2012;" horiz-adv-x="675" d="M88 539v235h500v-235h-500z" />
<glyph unicode="&#x2013;" horiz-adv-x="1024" d="M0 539v235h1024v-235h-1024z" />
<glyph unicode="&#x2014;" horiz-adv-x="2048" d="M0 539v235h2048v-235h-2048z" />
<glyph unicode="&#x2018;" horiz-adv-x="606" d="M61 969l295 616l191 -22l-221 -623z" />
<glyph unicode="&#x2019;" horiz-adv-x="606" d="M61 963l224 622l262 -31l-295 -614z" />
<glyph unicode="&#x201a;" horiz-adv-x="606" d="M61 -303l224 622l262 -28l-295 -617z" />
<glyph unicode="&#x201c;" horiz-adv-x="999" d="M61 969l295 616l191 -22l-221 -623zM453 969l295 616l190 -22l-221 -623z" />
<glyph unicode="&#x201d;" horiz-adv-x="999" d="M61 963l224 622l262 -31l-295 -614zM453 963l223 622l262 -31l-295 -614z" />
<glyph unicode="&#x201e;" horiz-adv-x="999" d="M61 -303l224 622l262 -28l-295 -617zM453 -303l223 622l262 -28l-295 -617z" />
<glyph unicode="&#x2020;" horiz-adv-x="1181" d="M125 1008v237h332v492h268v-492h332v-237h-332v-1207h-268v1207h-332z" />
<glyph unicode="&#x2021;" horiz-adv-x="1181" d="M125 557v238h332v272h-332v238h332v432h268v-432h332v-238h-332v-272h332v-238h-332v-754h-268v754h-332z" />
<glyph unicode="&#x2022;" horiz-adv-x="1181" d="M205 772q0 166 110.5 276.5t274.5 110.5t275.5 -111.5t111.5 -275.5t-111.5 -274.5t-275.5 -110.5q-162 0 -273.5 111.5t-111.5 273.5z" />
<glyph unicode="&#x2026;" horiz-adv-x="2048" d="M160 150q0 76 53 128t129 52t129 -52.5t53 -127.5q0 -76 -53 -130.5t-129 -54.5t-129 54.5t-53 130.5zM842 143q0 76 53 128.5t129 52.5t129 -52.5t53 -128.5t-53 -130t-129 -54t-129 54.5t-53 129.5zM1524 143q0 76 53 128.5t129 52.5t129 -52.5t53 -128.5t-53 -130 t-129 -54t-129 54.5t-53 129.5z" />
<glyph unicode="&#x202f;" horiz-adv-x="489" />
<glyph unicode="&#x2030;" horiz-adv-x="2457" d="M47 1219q0 160 103.5 263t263.5 103t263 -103.5t103 -262.5q0 -158 -104.5 -261.5t-261.5 -103.5q-158 0 -262.5 103.5t-104.5 261.5zM250 1219q0 -76 45 -137.5t119 -61.5t119 61.5t45 137.5t-45 138t-119 62t-119 -62.5t-45 -137.5zM338 8l829 1589l140 -69l-828 -1591 zM870 324q0 160 103.5 263t263.5 103t263.5 -103.5t103.5 -262.5q0 -158 -104.5 -261.5t-262.5 -103.5t-262.5 103.5t-104.5 261.5zM1073 324q0 -76 45 -137.5t119 -61.5t119 61.5t45 137.5t-45 138t-119 62t-119 -62.5t-45 -137.5zM1679 324q0 160 103.5 263t263.5 103 t263.5 -103.5t103.5 -262.5q0 -158 -104.5 -261.5t-262.5 -103.5t-262.5 103.5t-104.5 261.5zM1882 324q0 -76 45 -137.5t119 -61.5t119 61.5t45 137.5t-45 138t-119 62t-119 -62.5t-45 -137.5z" />
<glyph unicode="&#x2039;" horiz-adv-x="643" d="M37 655l325 498l177 -115l-254 -383l256 -372l-179 -119z" />
<glyph unicode="&#x203a;" horiz-adv-x="643" d="M102 283l256 372l-254 383l177 115l325 -498l-325 -491z" />
<glyph unicode="&#x2044;" horiz-adv-x="366" d="M-303 8l829 1589l140 -69l-828 -1591z" />
<glyph unicode="&#x205f;" horiz-adv-x="611" />
<glyph unicode="&#x20a3;" horiz-adv-x="2119" d="M111 0v1544h766v-262h-465v-340h436v-262h-436v-680h-301zM1437 0v1006h287v-105h4q90 137 250 137q55 0 119 -24l-35 -266q-51 37 -119 36q-133 0 -184 -106q-35 -74 -35 -225v-453h-287z" />
<glyph unicode="&#x20ab;" horiz-adv-x="804" d="M6 629q0 166 111 313q121 160 280 160q70 0 125 -49l41 153h-205l21 74h205l4 33q0 63 -99 65l15 68q139 4 262 29l31 6q12 0 12 -19q-2 -4 -6 -24l-39 -158h133l-20 -74h-134l-141 -573q-10 -41 -10 -55q0 -31 24 -31q12 0 101 86l41 -37q-143 -176 -240 -176 q-88 0 -108 127q-109 -127 -217 -127q-186 0 -187 209zM18 213v115h453v-115h-453zM190 662q0 -104 80 -105q84 0 152 145q57 123 57 220q0 104 -76 104q-98 0 -172 -180q-41 -100 -41 -184z" />
<glyph unicode="&#x2122;" horiz-adv-x="2048" d="M86 1391v153h696v-153h-260v-709h-176v709h-260zM940 682v862h305l201 -563h4l209 563h303v-862h-176v686h-4l-250 -686h-170l-242 686h-4v-686h-176z" />
<glyph unicode="&#x2212;" d="M68 403v242h1048v-242h-1048z" />
<glyph unicode="&#x2219;" horiz-adv-x="509" d="M78 713q0 70 47 117t117 47t118 -47.5t48 -116.5q0 -70 -48.5 -118t-117.5 -48q-70 0 -117 48t-47 118z" />
<glyph unicode="&#x255f;" horiz-adv-x="1470" d="M-18 0l602 1585h233l586 -1585h-322l-118 326h-537l-127 -326h-317zM512 571h367l-193 562h-4z" />
<glyph unicode="&#x2560;" horiz-adv-x="1394" d="M111 0v1544h798v-262h-497v-340h479v-262h-479v-418h497v-262h-798z" />
<glyph unicode="&#x2561;" horiz-adv-x="878" d="M111 0v1544h301v-1544h-301z" />
<glyph unicode="&#x2562;" horiz-adv-x="1583" d="M37 774q0 338 214 574.5t550 236.5t553 -239q211 -233 211 -572q0 -344 -209 -575q-215 -240 -555 -240t-555 240q-209 231 -209 575zM348 786q0 -193 129 -356q137 -174 324 -174q186 0 323 174q129 164 129 356q0 201 -125 347q-130 155 -327 155t-328 -155 q-125 -145 -125 -347z" />
<glyph unicode="&#x2563;" horiz-adv-x="1660" d="M102 621v923h301v-864q0 -199 41 -301q63 -158 232 -158q168 0 231 158q41 102 41 301v864h301v-923q0 -305 -131 -474q-145 -188 -442 -188t-443 188q-131 169 -131 474z" />
<glyph unicode="&#x2564;" horiz-adv-x="1431" d="M-33 1544h350l271 -536l295 536h352l-487 -835v-709h-302v709z" />
<glyph unicode="&#x2565;" horiz-adv-x="1107" d="M31 508q0 213 121 364q131 166 337 166q172 0 281 -127v95h283v-1006h-283v92h-4q-96 -125 -272 -125q-215 0 -344 168q-119 152 -119 373zM322 504q0 -111 63 -193q68 -90 174 -90t176 90q63 82 64 193q0 113 -64 192q-68 88 -176 88q-106 0 -174 -90q-63 -82 -63 -190z " />
<glyph unicode="&#x2566;" horiz-adv-x="882" d="M31 494q0 242 121 387q129 158 366 157q238 0 363 -159q115 -145 114 -387v-35h-661q0 -111 43 -183q53 -88 155 -88q125 0 193 138l264 -43q-51 -150 -174 -232t-283 -82q-229 0 -365 147.5t-136 379.5zM342 635h383q-12 82 -59 139q-53 63 -131 64q-164 0 -193 -203z " />
<glyph unicode="&#x2567;" horiz-adv-x="643" d="M90 1427q0 70 50 120t120 50t120 -50t50 -120q0 -72 -49 -121t-121 -49q-70 0 -120 50.5t-50 119.5zM117 0v1006h286v-1006h-286z" />
<glyph unicode="&#x2568;" horiz-adv-x="643" d="M117 0v1006h286v-1006h-286z" />
<glyph unicode="&#x2569;" horiz-adv-x="1019" d="M33 502q0 238 145 387t383 149t383.5 -149.5t145.5 -386.5q0 -240 -145.5 -387.5t-383.5 -147.5t-383 147.5t-145 387.5zM324 502q0 -109 63 -191q68 -90 174 -90t174 90q63 82 64 191q0 113 -62 192q-67 90 -176 90t-176 -90q-61 -80 -61 -192z" />
<glyph unicode="&#x256a;" horiz-adv-x="1140" d="M96 414v592h287v-545q0 -252 164 -252t164 252v545h286v-592q0 -446 -450 -447q-451 0 -451 447z" />
<glyph unicode="&#x256b;" horiz-adv-x="1017" d="M-37 1006h326l239 -572l258 572h320l-731 -1543h-316l332 691z" />
<glyph unicode="&#x25cb;" horiz-adv-x="1470" d="M528 1745l349 315l348 -315l-123 -135l-225 213l-226 -213zM576 2101l246 344l208 -127l-309 -307z" />
<glyph unicode="&#x25cf;" horiz-adv-x="1470" d="M528 1745l349 315l348 -315l-123 -135l-225 213l-226 -213zM799 2320l209 127l245 -344l-145 -90z" />
<glyph unicode="&#x25d8;" horiz-adv-x="1470" d="M528 1745l349 315l348 -315l-123 -135l-225 213l-226 -213zM1257 1849q18 53 23 131q2 23 16 27q4 0 16 2q137 23 138 110q0 72 -58 72q-10 0 -28.5 -2t-28.5 -2q-43 0 -43 37q0 57 65 57q96 0 157 -51t52 -145q-12 -121 -178 -166q-51 -14 -63 -70h-68z" />
<glyph unicode="&#x25d9;" horiz-adv-x="1470" d="M528 1745l349 315l348 -315l-123 -135l-225 213l-226 -213zM583 2097q8 104 64 186q63 98 160 99q49 0 150.5 -44t140.5 -44q55 0 96 86h170q-51 -289 -248 -289q-43 0 -140.5 45t-136.5 45q-63 0 -88 -84h-168z" />
<glyph unicode="&#x25fc;" horiz-adv-x="1003" d="M0 0v1004h1004v-1004h-1004z" />
<glyph unicode="&#xf001;" horiz-adv-x="1114" d="M16 764v242h97v294q0 203 86 324q98 137 293 137q74 0 137 -32v-256q-70 35 -117 34q-82 0 -104 -92q-8 -35 -9 -155v-254h230v-242h-230v-764h-286v764h-97zM684 1427q0 70 50 120t120 50t120 -50t50 -120q0 -72 -49 -121t-121 -49q-70 0 -120 50.5t-50 119.5zM711 0 v1006h286v-1006h-286z" />
<glyph unicode="&#xf002;" horiz-adv-x="1112" d="M16 764v242h97v294q0 203 86 324q98 137 293 137q74 0 137 -32v-256q-70 35 -117 34q-82 0 -104 -92q-8 -35 -9 -155v-254h230v-242h-230v-764h-286v764h-97zM723 0v1737h287v-1737h-287z" />
<glyph horiz-adv-x="591" />
<glyph horiz-adv-x="591" />
<glyph horiz-adv-x="591" />
<glyph horiz-adv-x="591" />
<glyph horiz-adv-x="591" />
<glyph horiz-adv-x="569" />
<glyph horiz-adv-x="569" />
<glyph horiz-adv-x="509" />
<glyph horiz-adv-x="509" />
<glyph horiz-adv-x="1024" d="M518 1069q18 53 23 131q2 23 16 27q4 0 16 2q137 23 138 110q0 72 -58 72q-10 0 -28.5 -2t-28.5 -2q-43 0 -43 37q0 57 65 57q96 0 157 -51t52 -145q-12 -121 -178 -166q-51 -14 -63 -70h-68z" />
<glyph horiz-adv-x="1107" d="M112 1270l349 315l348 -315l-123 -135l-225 213l-226 -213zM158 1628l246 344l208 -127l-309 -307z" />
<glyph horiz-adv-x="1107" d="M112 1270l349 315l348 -315l-123 -135l-225 213l-226 -213zM383 1845l209 127l245 -344l-145 -90z" />
<glyph horiz-adv-x="1107" d="M112 1270l349 315l348 -315l-123 -135l-225 213l-226 -213zM842 1374q18 53 23 131q2 23 16 27q4 0 16 2q137 23 138 110q0 72 -58 72q-10 0 -28.5 -2t-28.5 -2q-43 0 -43 37q0 57 65 57q96 0 157 -51t52 -145q-12 -121 -178 -166q-51 -14 -63 -70h-68z" />
<glyph horiz-adv-x="1107" d="M112 1270l349 315l348 -315l-123 -135l-225 213l-226 -213zM167 1622q8 104 64 186q63 98 160 99q49 0 150.5 -44t140.5 -44q55 0 96 86h170q-51 -289 -248 -289q-43 0 -140.5 45t-136.5 45q-63 0 -88 -84h-168z" />
<glyph horiz-adv-x="1107" d="M116 1542h201q33 -145 154 -145t153 145h201q-14 -145 -111.5 -232t-242.5 -87t-243 87t-112 232zM320 1628l246 344l208 -127l-309 -307z" />
<glyph horiz-adv-x="1107" d="M116 1542h201q33 -145 154 -145t153 145h201q-14 -145 -111.5 -232t-242.5 -87t-243 87t-112 232zM275 1845l209 127l245 -344l-145 -90z" />
<glyph horiz-adv-x="1107" d="M116 1542h201q33 -145 154 -145t153 145h201q-14 -145 -111.5 -232t-242.5 -87t-243 87t-112 232zM627 1374q18 53 23 131q2 23 16 27q4 0 16 2q137 23 138 110q0 72 -58 72q-10 0 -28.5 -2t-28.5 -2q-43 0 -43 37q0 57 65 57q96 0 157 -51t52 -145q-12 -121 -178 -166 q-51 -14 -63 -70h-68z" />
<glyph horiz-adv-x="1107" d="M116 1542h201q33 -145 154 -145t153 145h201q-14 -145 -111.5 -232t-242.5 -87t-243 87t-112 232zM167 1622q8 104 64 186q63 98 160 99q49 0 150.5 -44t140.5 -44q55 0 96 86h170q-51 -289 -248 -289q-43 0 -140.5 45t-136.5 45q-63 0 -88 -84h-168z" />
<glyph horiz-adv-x="509" />
</font>
</defs>
</svg>
