<?xml version="1.0" standalone="no"?>
<!DOCTYPE svg PUBLIC "-//W3C//DTD SVG 1.1//EN" "http://www.w3.org/Graphics/SVG/1.1/DTD/svg11.dtd" >
<svg xmlns="http://www.w3.org/2000/svg" xmlns:xlink="http://www.w3.org/1999/xlink" version="1.1">
<metadata></metadata>
<defs>
<font id="iciel_ciaobellaregular" horiz-adv-x="544" >
<font-face units-per-em="2048" ascent="1403" descent="-645" />
<missing-glyph horiz-adv-x="450" />
<glyph unicode="&#x2d;&#x2d;" horiz-adv-x="1024" d="M145 545l41 -4l37 2l43 -2l84 4l123 -4l39 4l240 -4h106q45 0 68 2q16 0 16 -19q0 -11 -11.5 -22.5t-27.5 -12.5l-43 -2l-207 5l-39 -5l-43 5h-125h-84l-77 -5l-168 2q-15 0 -15 11q0 13 13.5 29t29.5 16z" />
<glyph unicode="&#x2d;&#x2d;&#x2d;&#x2d;" horiz-adv-x="1536" d="M657 543h95h110h49h15q25 0 59 -4l39 4l240 -4h106q45 0 68 2q16 0 16 -19q0 -11 -11.5 -22.5t-27.5 -12.5l-43 2l-289 5l-178 -5l-45 -2h-63h-176l-259 5l-77 -5l-168 2q-15 0 -15 11q0 13 13.5 29t29.5 16l41 -4l37 2l127 -2h123l39 2h145z" />
<glyph unicode="&#x2e;&#x2e;&#x2e;" horiz-adv-x="921" d="M88 127q24 -5 31.5 -12.5t13.5 -36.5q0 -30 -19 -49t-34.5 -24t-24.5 -5q-20 0 -37.5 13.5t-17.5 31.5q0 28 25 55t63 27zM352 0q-24 5 -31.5 12.5t-13.5 36.5q0 30 19 49t34.5 24t24.5 5q20 0 37.5 -13.5t17.5 -31.5q0 -28 -25 -55t-63 -27zM688 127q60 0 60 -39 q0 -33 -19 -55t-35 -27.5t-24 -5.5q-28 0 -42 12.5t-14 32.5q0 30 18.5 56t55.5 26z" />
<glyph unicode="&#xfb00;" horiz-adv-x="954" d="M440 -170q11 56 29.5 160t30.5 164q4 24 10.5 51t7.5 33q6 14 6 45v4q-19 -34 -65 -90q-42 -53 -103 -91l-6 -4q17 -74 17 -170q0 -128 -21 -211q-18 -83 -22 -94q-1 -2 -11.5 -34t-15.5 -42l-12 -26l-13 -25q-2 -10 -10 -20q-12 -25 -24 -41q-17 -22 -43 -37 q-23 -22 -63.5 -26t-74.5 8q-44 25 -53 34q-19 25 -30 42.5t-23 58.5t-12 90q0 39 10 121q2 40 14 100q11 56 29.5 160t30.5 164q4 24 10.5 51t7.5 33q6 14 6 45l8 26q3 12 6.5 30.5t6.5 29.5q1 11 6 38.5t6 38.5l4 33l2 15q2 16 6 24q5 14 8 19q0 20 13 59q-2 28 10 76 q3 12 12 62t15 67q4 12 18 65q10 37 20 58q0 20 13 43q3 7 5 17t5 17q16 27 18 41q3 6 13 30t16 34q11 27 39 88q20 23 39 66q1 2 5.5 10t8 14.5t9 14t10.5 10.5q24 33 39 45q13 8 30 20t29 17q4 3 10 4.5t12.5 2t8.5 1.5q42 11 75 0q31 -13 37 -21q14 -14 23 -41 q9 -33 6 -67q0 -17 -16 -105q-11 -50 -51 -146t-44 -106q-8 -23 -53 -120q-7 -14 -20 -39.5t-21 -40.5q-13 -23 -36.5 -65t-37.5 -66q-15 -29 -73 -105q-17 -24 -35 -45q-4 -4 -14.5 -20t-14.5 -19l-4 -28q-12 -46 -22 -76l-11 -49l-18 -72l-10 -51l-15 -58l-6 -53 q-3 -16 -12 -66.5t-12 -66.5q-5 -21 -5.5 -29t-5.5 -28q-5 -18 -10 -66q-6 -35 -6 -106q0 -46 4 -71.5t11 -39.5t8 -20q2 -6 12.5 -16.5t21.5 -14.5q28 -12 52 -2q4 2 14.5 6.5t13.5 7.5q2 2 12 9t11 10q23 30 41 69q20 40 39 137q20 115 20 191q0 108 -24 182 q-14 -6 -35 -6q-75 0 -68 72q5 54 41 61q13 1 27.5 -3.5t19.5 -12.5q26 -33 31 -58l6 -24q44 23 68 47q1 1 14.5 17t17.5 22q29 33 37 51q6 9 27 37.5t29 42.5l4 6q0 5 4 25q1 12 6 39t6 38l4 33l2 15q2 16 6 24q4 11 9 19q0 23 12 59q-2 28 10 76q3 12 12 62t15 67 q4 12 18 65q9 33 21 58q0 22 12 43q3 7 5 17t5 17q17 29 19 41q3 6 12.5 30t15.5 34q12 27 39 88q20 23 39 66q1 2 5.5 10t8 14.5t9 14t10.5 10.5q24 33 39 45q13 8 30 20t29 17q4 3 10 4.5t12.5 2t8.5 1.5q43 11 76 0q29 -13 36 -21q14 -14 23 -41q9 -33 6 -67 q0 -17 -16 -105q-8 -37 -24 -79.5t-37.5 -93t-32.5 -79.5q-5 -13 -54 -120q-7 -14 -20 -39.5t-21 -40.5q-14 -23 -36.5 -65t-36.5 -66q-11 -21 -21 -35.5t-28 -37.5t-25 -32q-17 -24 -35 -45q-4 -4 -14.5 -20t-14.5 -19q-1 -5 -2 -11.5t-1.5 -10t-0.5 -6.5q-12 -46 -22 -76 l-10 -49l-19 -72l-10 -51l-14 -58l-7 -53q-3 -16 -12 -67t-12 -66q-5 -21 -5 -29.5t-5 -27.5q-6 -24 -11 -66q-6 -35 -6 -106q0 -46 4 -71.5t11 -39.5t8 -20q2 -5 13 -16t22 -15q28 -12 51 -2q4 2 14.5 6.5t13.5 7.5q2 2 12 9t11 10q23 30 41 69q20 40 39 137q20 115 20 191 q0 108 -24 182q-14 -6 -35 -6q-75 0 -68 72q5 54 41 61q13 1 27.5 -3.5t19.5 -12.5q26 -33 31 -58l6 -24q44 23 68 47q2 2 15.5 17.5t17.5 21.5q27 31 36 51q6 9 27 37.5t29 42.5l26 43l11 -12q-59 -104 -115 -172q-43 -55 -102 -91l-7 -4q17 -74 17 -170q0 -128 -21 -211 q-18 -83 -22 -94q-1 -2 -11.5 -34t-15.5 -42l-12 -26l-12 -25q-2 -8 -11 -20q-12 -25 -24 -41q-17 -22 -43 -37q-23 -22 -63 -26t-74 8q-47 27 -54 34q-19 25 -30 42.5t-23 58.5t-12 90q0 39 10 121q2 40 14 100zM717 475q-1 -6 -4 -17.5t-4 -21.5l24 35q10 15 32.5 43 t35.5 49q6 11 21.5 34t23.5 38q14 20 34 60.5t29 56.5q26 42 33 59q6 15 30 67.5t34 84.5q69 176 77 239q14 78 7 105q-3 24 -27 24q-16 0 -37 -12q-7 -4 -15 -11.5t-19 -19.5t-15 -16q-38 -55 -57 -90q-4 -9 -30.5 -63.5t-37.5 -84.5q-20 -53 -21 -55q-16 -36 -18 -66 q-2 -6 -7 -22t-9 -25q-10 -23 -13 -45q-2 -11 -10.5 -41t-11.5 -47l-4 -43q-1 -6 -6.5 -28t-8.5 -35q-1 -11 -5 -31.5t-5 -32.5q0 -6 -8 -37t-8 -51zM240 475q-1 -6 -4.5 -17.5t-4.5 -21.5l25 35q10 15 32.5 43t35.5 49q6 11 21.5 34t23.5 38q14 20 34 60.5t29 56.5 q26 42 33 59q5 15 29 67.5t34 84.5q2 5 15.5 38.5t20 51t17 47.5t16.5 55t9 47q14 75 6 105q-3 24 -26 24q-16 0 -37 -12q-7 -4 -15 -11.5t-19 -19.5t-15 -16q-43 -61 -58 -90q-3 -6 -29.5 -62t-37.5 -86q-20 -53 -21 -55q-16 -36 -18 -66q-2 -6 -7.5 -22t-9.5 -25 q-8 -20 -12 -45q-2 -11 -10.5 -41t-11.5 -47l-4 -43q-2 -6 -7 -28t-8 -35q-1 -11 -5 -32t-5 -32q0 -6 -8 -37t-8 -51zM768 106q16 0 25 3v4q-15 40 -31 53q-8 8 -23 8q-22 -3 -22 -33q0 -35 51 -35zM291 106q15 0 24 3v4q-15 41 -30 53q-8 8 -23 8q-22 -3 -22 -33 q0 -35 51 -35z" />
<glyph unicode="&#xfb01;" horiz-adv-x="831" d="M481 209l-4 10l-18 -22q-42 -53 -103 -91l-6 -4q17 -74 17 -170q0 -128 -21 -211q-18 -83 -22 -94q-1 -2 -11.5 -34t-15.5 -42l-12 -26l-13 -25q-2 -10 -10 -20q-12 -25 -24 -41q-17 -22 -43 -37q-23 -22 -63.5 -26t-74.5 8q-44 25 -53 34q-19 25 -30 42.5t-23 58.5 t-12 90q0 39 10 121q2 40 14 100q11 56 29.5 160t30.5 164q4 24 10.5 51t7.5 33q6 14 6 45l8 26q3 12 6.5 30.5t6.5 29.5q1 11 6 38.5t6 38.5l4 33l2 15q2 16 6 24q5 14 8 19q0 20 13 59q-2 28 10 76q3 12 12 62t15 67q4 12 18 65q10 37 20 58q0 20 13 43q3 7 5 17t5 17 q16 27 18 41q3 6 13 30t16 34q11 27 39 88q20 23 39 66q1 2 5.5 10t8 14.5t9 14t10.5 10.5q24 33 39 45q13 8 30 20t29 17q4 3 10 4.5t12.5 2t8.5 1.5q42 11 75 0q31 -13 37 -21q14 -14 23 -41q9 -33 6 -67q0 -17 -16 -105q-11 -50 -51 -146t-44 -106q-8 -23 -53 -120 q-7 -14 -20 -39.5t-21 -40.5q-13 -23 -36.5 -65t-37.5 -66q-15 -29 -73 -105q-17 -24 -35 -45q-4 -4 -14.5 -20t-14.5 -19l-4 -28q-12 -46 -22 -76l-11 -49l-18 -72l-10 -51l-15 -58l-6 -53q-3 -16 -12 -66.5t-12 -66.5q-5 -21 -5.5 -29t-5.5 -28q-5 -18 -10 -66 q-6 -35 -6 -106q0 -46 4 -71.5t11 -39.5t8 -20q2 -6 12.5 -16.5t21.5 -14.5q28 -12 52 -2q4 2 14.5 6.5t13.5 7.5q2 2 12 9t11 10q23 30 41 69q20 40 39 137q20 115 20 191q0 108 -24 182q-14 -6 -35 -6q-75 0 -68 72q5 54 41 61q13 1 27.5 -3.5t19.5 -12.5q26 -33 31 -58 l6 -24q44 23 68 47q1 1 14.5 17t17.5 22q2 2 16 20t19 27q0 16 2 20l4 45q3 8 4.5 25t4.5 25q4 33 10 47q12 56 26 104q17 47 31 109l12 37q0 6 7 10q6 6 14 6q7 -3 20 -2t17 -2l57 -4q4 -3 12.5 -2t12.5 -2q8 0 4 -11v-14l-31 -92q-5 -21 -18 -57q-2 -7 -8 -25.5t-7 -28.5 q-9 -21 -12 -41l-4 -30q-2 -8 -6.5 -29.5t-9.5 -36.5q0 -14 -3 -35q-8 -25 -4 -63q0 -7 -2 -17.5t-2 -17.5q0 -8 1 -20t1 -15q1 -9 4.5 -23t4.5 -20q7 -19 14.5 -27t23.5 -8q24 0 37 13q17 10 41 37q5 5 15.5 18t15.5 18q7 7 17.5 22.5t17.5 22.5q9 12 12 21q29 37 35 51 q35 55 45 74l20 33q14 14 14 1q0 -3 -1 -5q-90 -148 -97 -158q-3 -5 -20 -31t-24.5 -37.5t-22.5 -30t-29 -30.5q-15 -16 -21.5 -23t-17.5 -15t-26 -17q-22 -12 -45 -17q-10 -1 -16 -2.5t-9 -1.5h-18q-14 2 -43 18q-19 19 -31 43q-5 9 -6.5 17.5t-5.5 15.5q-3 5 -4.5 17.5 t-4.5 19.5q0 22 -6 37q-4 5 -1.5 19.5t1.5 19.5zM240 475q-1 -6 -4.5 -17.5t-4.5 -21.5l25 35q10 15 32.5 43t35.5 49q6 11 21.5 34t23.5 38q14 20 34 60.5t29 56.5q26 42 33 59q5 15 29 67.5t34 84.5q2 5 15.5 38.5t20 51t17 47.5t16.5 55t9 47q14 75 6 105q-3 24 -26 24 q-16 0 -37 -12q-7 -4 -15 -11.5t-19 -19.5t-15 -16q-43 -61 -58 -90q-3 -6 -29.5 -62t-37.5 -86q-20 -53 -21 -55q-16 -36 -18 -66q-2 -6 -7.5 -22t-9.5 -25q-8 -20 -12 -45q-2 -11 -10.5 -41t-11.5 -47l-4 -43q-2 -6 -7 -28t-8 -35q-1 -11 -5 -32t-5 -32q0 -6 -8 -37 t-8 -51zM743 938q16 0 30.5 -7t14.5 -24q0 -48 -47 -86q-14 -14 -43 -4q-12 3 -24 12q-6 14 -6 33q0 33 20 47l21 19q13 10 34 10zM291 106q15 0 24 3v4q-15 41 -30 53q-8 8 -23 8q-22 -3 -22 -33q0 -35 51 -35z" />
<glyph unicode="&#xfb02;" horiz-adv-x="923" d="M719 0q-9 -4 -43 -4q-15 0 -35 4q-29 11 -49 27q-43 29 -62 75q-14 32 -26 107l-6 39q-24 -36 -39 -51q-42 -53 -103 -91l-6 -4q17 -74 17 -170q0 -128 -21 -211q-18 -83 -22 -94q-1 -2 -11.5 -34t-15.5 -42l-12 -26l-13 -25q-2 -10 -10 -20q-12 -25 -24 -41 q-17 -22 -43 -37q-23 -22 -63.5 -26t-74.5 8q-44 25 -53 34q-19 25 -30 42.5t-23 58.5t-12 90q0 39 10 121q2 40 14 100q11 56 29.5 160t30.5 164q4 24 10.5 51t7.5 33q6 14 6 45l8 26q3 12 6.5 30.5t6.5 29.5q1 11 6 38.5t6 38.5l4 33l2 15q2 16 6 24q5 14 8 19q0 20 13 59 q-2 28 10 76q3 12 12 62t15 67q4 12 18 65q10 37 20 58q0 20 13 43q3 7 5 17t5 17q16 27 18 41q3 6 13 30t16 34q11 27 39 88q20 23 39 66q1 2 5.5 10t8 14.5t9 14t10.5 10.5q24 33 39 45q13 8 30 20t29 17q4 3 10 4.5t12.5 2t8.5 1.5q42 11 75 0q31 -13 37 -21 q14 -14 23 -41q9 -33 6 -67q0 -17 -16 -105q-11 -50 -51 -146t-44 -106q-8 -23 -53 -120q-7 -14 -20 -39.5t-21 -40.5q-13 -23 -36.5 -65t-37.5 -66q-15 -29 -73 -105q-17 -24 -35 -45q-4 -4 -14.5 -20t-14.5 -19l-4 -28q-12 -46 -22 -76l-11 -49l-18 -72l-10 -51l-15 -58 l-6 -53q-3 -16 -12 -66.5t-12 -66.5q-5 -21 -5.5 -29t-5.5 -28q-5 -18 -10 -66q-6 -35 -6 -106q0 -46 4 -71.5t11 -39.5t8 -20q2 -6 12.5 -16.5t21.5 -14.5q28 -12 52 -2q4 2 14.5 6.5t13.5 7.5q2 2 12 9t11 10q23 30 41 69q20 40 39 137q20 115 20 191q0 108 -24 182 q-14 -6 -35 -6q-75 0 -68 72q5 54 41 61q13 1 27.5 -3.5t19.5 -12.5q26 -33 31 -58l6 -24q44 23 68 47q1 1 14.5 17t17.5 22q29 33 37 51l15 21v53q-2 16 -2 51v4q0 17 2 34.5t6 42.5t6 40q4 30 10 43q0 19 10 49q0 18 15 76q2 7 9 37.5t13.5 54t12.5 37.5q4 12 18 65 q7 29 22 58q3 26 13 43q4 10 18 34q15 24 17 41q6 9 13.5 33.5t10.5 30.5q7 11 13.5 25t15 34t12.5 29q4 4 33 57q2 3 9 17.5t13.5 25.5t12.5 15q4 6 10.5 15t8.5 12t8 8t14 10q12 7 30 19t31 18q3 2 31 8q13 5 36.5 5t37.5 -5q29 -12 34 -21q17 -17 25 -41q6 -30 6 -67 q-2 -31 -20 -105q-11 -49 -51.5 -140.5t-47.5 -111.5q-1 -4 -55 -120q-29 -56 -43 -80q-70 -122 -76 -131q-12 -21 -23 -36.5t-27.5 -36.5t-25.5 -32q-21 -30 -34 -45q-4 -4 -15.5 -23t-15.5 -22l-2 -22q-1 -12 -1 -33.5t-1 -30.5q-7 -50 -4 -123q4 -43 12 -67q1 -1 8 -23 q15 -35 45 -47q12 -4 29 -4t37 10l39 31q13 12 39 41q27 35 51 69q26 43 41 62q2 3 8.5 13t9.5 13q10 23 21 37l14 23q4 10 13 24l10 13q7 9 9 -4q1 -3 1 -4q-6 -13 -19 -31q-4 -7 -10 -20.5t-10 -20.5l-70 -111q-54 -85 -78 -102q-50 -50 -77 -64q-11 -6 -33 -16zM643 473 q-1 -7 -1 -22t-1 -23l25 35q9 12 35 45t40 55q6 11 23 34.5t24 37.5q13 19 33.5 58.5t32.5 58.5q24 40 31 59q49 91 63 139q7 18 31 75t39.5 101t19.5 78q14 83 9 103q-3 24 -25 24q-10 0 -45 -20q-29 -21 -45 -39q-26 -26 -60 -90q-9 -17 -32.5 -71t-38.5 -77 q-13 -21 -25 -55q-24 -55 -26 -64q-2 -4 -6 -14.5t-7.5 -19t-7.5 -15.5q-8 -20 -12 -45q-11 -36 -25 -88l-10 -35q-5 -9 -20 -71q-8 -31 -11 -64q0 -3 -4 -30.5t-4 -59.5zM240 475q-1 -6 -4.5 -17.5t-4.5 -21.5l25 35q10 15 32.5 43t35.5 49q6 11 21.5 34t23.5 38 q14 20 34 60.5t29 56.5q26 42 33 59q5 15 29 67.5t34 84.5q2 5 15.5 38.5t20 51t17 47.5t16.5 55t9 47q14 75 6 105q-3 24 -26 24q-16 0 -37 -12q-7 -4 -15 -11.5t-19 -19.5t-15 -16q-43 -61 -58 -90q-3 -6 -29.5 -62t-37.5 -86q-20 -53 -21 -55q-16 -36 -18 -66 q-2 -6 -7.5 -22t-9.5 -25q-8 -20 -12 -45q-2 -11 -10.5 -41t-11.5 -47l-4 -43q-2 -6 -7 -28t-8 -35q-1 -11 -5 -32t-5 -32q0 -6 -8 -37t-8 -51zM291 106q15 0 24 3v4q-15 41 -30 53q-8 8 -23 8q-22 -3 -22 -33q0 -35 51 -35z" />
<glyph unicode="tt" horiz-adv-x="804" d="M625 51q33 0 80 47q10 10 18.5 20.5t17.5 23.5t15 20l43 59l16 27q27 43 33 57q6 9 18.5 27.5t20.5 32.5l4 8q5 4 7.5 2t2.5 -8l-2 -9q-2 -4 -20 -36q-1 1 -15 -22t-42 -67t-54 -81q-25 -42 -57 -70l-29 -27l-25 -18q-50 -37 -114 -37q-33 0 -59.5 21.5t-34.5 48.5 q-1 4 -5.5 18.5t-7.5 29.5t-6 40q-4 18 -4 53v43q-3 -5 -22 -42t-35 -60q-12 -21 -19.5 -32t-26.5 -32t-47 -43l-24 -18q-14 -12 -57 -27q-30 -10 -62 -10q-27 3 -47 20q-26 22 -33 39q-12 27 -14 57l-6 52q-4 46 -4 57l4 49l4 43q1 8 6.5 71.5t11.5 100.5q5 41 8 49 q13 73 29 134l10 40q-2 0 -10.5 1.5t-17.5 1.5q-28 4 -37 4h-35q-10 0 -14 -2q-8 0 -8 14q3 12 10 12q4 -2 12 -2q3 0 9 -1t9 -1q39 0 54 -4q10 -1 17 -1t12 0.5t6 0.5q10 39 16 57q2 9 8.5 30.5t9.5 35.5q3 13 12.5 37.5t12.5 34.5q20 67 37 100q3 5 7 15.5t7 15.5 q7 29 19 45q6 6 16 6q48 -9 84 -12q33 -8 35 -15q6 -15 -2 -28q-5 -17 -25 -62l-27 -72q-5 -11 -24 -71q-1 -4 -13.5 -38.5t-17.5 -53.5q-3 -7 -7 -20t-7 -21q16 -4 26 -4h35q4 0 22.5 -1.5t22.5 -1.5l33 -4l21 -2q1 0 34.5 -1t49.5 -5q4 12 13.5 45t14.5 47q3 11 6.5 20.5 t6.5 22.5q6 22 16 54q3 9 6.5 25t7.5 29t10 25q3 5 7.5 15.5t7.5 15.5q7 31 18 45q6 10 17 6q26 -9 84 -18q5 -1 13 -1t13 -1t8 -4q8 -5 -2 -31q-7 -20 -19.5 -57t-19.5 -56q-7 -14 -15.5 -44.5t-16.5 -47.5q0 -5 -8.5 -27t-8.5 -24q-4 -30 -14 -53q8 -6 29 -6l41 -2 q2 0 12 -1t18 -1.5t19 0.5l33 2q10 0 10 -9q-3 -18 -13 -18q-8 0 -14 2q-4 1 -16 2t-17 2q-23 2 -51 2q-8 0 -27.5 2.5t-31.5 3.5q-8 -26 -21 -77q-11 -39 -28 -158q-2 -16 -9 -59.5t-10 -69.5q-1 -15 -3.5 -44.5t-2.5 -56.5q0 -51 12 -98q5 -20 17 -30.5t39 -10.5zM219 41 q23 0 37.5 8.5t40.5 34.5q29 26 57 74q2 4 12.5 18.5t14.5 22.5q6 6 14 22l13 27q21 42 26 74q0 17 4 45q2 37 15 112q5 41 8 49q17 94 22 113q0 1 1 11t5 16q-2 2 -6 2q-12 0 -18 2q-8 0 -21.5 1t-15.5 1q-16 2 -30.5 3t-21 1t-12.5 1t-12 3q-12 1 -29 1t-22 1 q-8 0 -26 2.5t-31 3.5q-6 -16 -31 -112q-23 -119 -29 -158q-7 -39 -10 -78q-6 -22 -8 -51q-1 -10 -4 -30t-3.5 -30.5t1.5 -33.5q0 -7 1 -18.5t1 -18.5q0 -8 1 -19t1 -16q4 -30 10 -43q5 -20 14.5 -30.5t30.5 -10.5z" />
<glyph unicode=" "  horiz-adv-x="450" />
<glyph unicode="&#x09;" horiz-adv-x="450" />
<glyph unicode="&#xa0;" horiz-adv-x="450" />
<glyph unicode="!" horiz-adv-x="491" d="M158 209q3 19 11.5 94t14.5 109q9 104 50.5 303t50.5 254q2 13 7 39t8 45.5t3 33.5v9q0 6 3 16t3 12q0 25 12.5 85.5t32.5 60.5q1 0 3 -1t3 -1q3 0 10.5 3t10.5 3q15 0 37 -13.5t22 -35.5q0 -13 -7 -36.5t-15 -35.5q-2 -10 -8 -43t-11.5 -54t-13.5 -40q-18 -51 -76 -273 q-15 -62 -40 -167t-33 -140q-58 -248 -70 -248q-3 0 -3.5 4t-1.5 9.5t-3 7.5zM160 113q24 -5 31.5 -13t13.5 -37q0 -30 -19 -49t-34.5 -23.5t-24.5 -4.5q-20 0 -37.5 13.5t-17.5 31.5q0 28 25 55t63 27z" />
<glyph unicode="&#x22;" horiz-adv-x="393" d="M238 1192q-1 -3 -15 -36.5t-26.5 -58.5t-26.5 -44q-5 -5 -18.5 -28.5t-26 -43.5t-16.5 -20q-7 0 -7 8q26 62 37 125q27 123 39 145q14 22 35 23q16 0 26.5 -10t10.5 -21t-12 -39zM360 1171q-2 -5 -15 -37t-25.5 -57.5t-26.5 -44.5q-5 -5 -18.5 -28.5t-26.5 -43.5t-17 -20 q-6 0 -6 8q26 62 37 125q27 123 39 145q14 22 35 23q16 0 26.5 -10t10.5 -21q0 -9 -13 -39z" />
<glyph unicode="#" horiz-adv-x="798" d="M455 1266l-6 -37l-37 -139q-21 -71 -31 -129l57 2l105 -2q31 150 82 292l8 13l8 16q4 4 8 4q1 0 2 -1t2 -1v2q6 -6 6 -12q0 -4 -3 -13.5t-3 -13.5l-39 -137q-6 -19 -18 -67.5t-21 -75.5q-2 -2 -2 -6h41h80q31 0 49 2q17 0 17 -15q0 -7 -10.5 -14.5t-22.5 -9.5l-31 -2 l-131 2q-10 -33 -20 -82l-19 -62v2l-10 -51l74 4l125 -2q14 0 14 -10q0 -11 -11 -20t-24 -9l-30 2l-27 -2l-33 2l-98 -2q-4 -12 -4 -14l-27 -102l-22 -113l-31 -105q-3 -12 -16 -12q-4 0 -5.5 3t-2.5 10t-3 12l6 37l37 139v-2l33 147q-4 0 -10.5 1t-9.5 1l-29 -2l-111 2 q-2 -4 -2 -14l-14 -55q-5 -19 -14.5 -56.5t-14.5 -56.5q-5 -15 -15 -41.5t-17 -48.5t-11 -41l-12 -27q-6 -6 -12 -6t-6 10v11l24 88q0 3 2 6t2 6q4 24 39 147v-2l12 50q0 2 4.5 13.5t4.5 16.5h-37q-8 0 -35.5 -1t-42.5 -1h-51q-17 0 -17 15q0 21 33 24l33 -2h127l31 125 q3 12 8 34.5t8 35.5l-70 -4l-125 2q-14 0 -14 10t11.5 19.5t23.5 9.5l31 -2l28 2h33h61l27 -2l21 65v-2q3 13 7 37.5t7 36.5l14 71l27 93l8 16q3 12 14 12q5 -6 7.5 -14t5.5 -10zM379 731h100l19 62q3 12 12 39.5t12 44.5l10 49h-51h-108l-11 -43l-18 -62q-22 -66 -22 -90 q5 0 13 -1t13 -1z" />
<glyph unicode="$" horiz-adv-x="563" d="M506 1151q56 15 59 66q0 14 -2 20q0 20 -16 33l-15 10l-12 6q-3 0 -9 2t-9 2q-6 -2 -19 -2q-2 -1 -9.5 -3.5t-11.5 -4t-11.5 -5.5t-12.5 -8.5t-10.5 -12.5t-9.5 -17q0 -1 -1 -8t-5 -17q-9 -36 -11 -47q0 -7 -1 -13t-1 -15v-31l9 -27q0 -12 20 -39l16 -36l19 -37 q18 -32 29 -60q10 -38 10 -57v-23q0 -7 1 -16t1 -16q0 -37 -12 -58l-9 -16q-12 -28 -26 -39l-15 -16q-1 -1 -19.5 -17.5t-41.5 -30.5q-1 0 -12.5 -6.5t-27 -12.5t-30.5 -7l-16 -6q-1 0 -9.5 -3.5t-13.5 -4.5l-16 -50q-1 -1 -2 -4.5t-2 -5.5q-3 -5 -6 -22l-13 -33 q-4 -8 -5 -21t-1 -14q-2 -6 -2 -14q0 -5 -5 -6.5t-11 2.5q-10 3 -10 10l12 31q1 5 16 49q3 18 6 28q3 9 3 13l12 32q-2 0 -6 -0.5t-6 0.5h-17q-35 0 -72 13q-5 2 -7.5 4t-3.5 3.5t-3.5 3.5t-5.5 5q-13 13 -20 34t-3 38q1 6 5 14.5t4 9.5q30 68 116 68q39 0 39 -18 q-7 -11 -10 -11q-26 11 -39 11q-32 0 -56.5 -15.5t-35.5 -40.5q-4 -16 -4 -22q-3 -25 8 -43l12 -17l13 -10l8 -3q9 -3 19.5 -5t25.5 -2q42 0 67 14l19 10q39 26 61 62l17 45q4 12 4 20q0 5 1 16l1 11q3 51 -8 76q0 4 -3.5 12t-5.5 8l-10 23q-1 2 -2 4.5t-1.5 3.5t-0.5 2 l-10 23q-3 5 -6 16t-6 16q-7 12 -19 49q-11 11 -14 33q-8 40 -8 41v23q0 8 5.5 28t6.5 31l14 41q19 33 47 51q11 8 41 25q8 3 19.5 9t19.5 7l8 4q6 2 15 2l12 2l9 1.5t5 0.5l7 7l26 75q1 2 3.5 11t4.5 16.5t2 11.5l13 39q0 11 10 8q16 -3 16 -14q-6 -6 -8 -12q-3 -4 -6 -15 t-6 -16q-7 -12 -18 -46.5t-11 -39.5q0 -3 -3.5 -12.5t-4.5 -12.5q3 0 6 -1t6 -1q18 -3 25 -8q30 -17 33 -55v-21q-6 -53 -72 -75q-11 -4 -29 4q-2 2 -4 2l-10 8q-6 7 -5.5 20.5t7.5 20.5q0 1 4 3.5t6 2.5q10 3 10 -4q3 -3 -6 -12q-9 -3 -6 -13q0 -7 10 -14q18 -6 19 -6z" />
<glyph unicode="%" horiz-adv-x="901" d="M774 1061l-86 -127q-31 -46 -74.5 -111.5t-67.5 -101t-34 -49.5l-86 -127l-57 -78q-51 -84 -99 -143q-87 -132 -96 -144q-10 -13 -37 -51.5t-45 -60t-26 -21.5l-9 8q0 11 17 25q30 53 110 163t113 167l22 32q0 1 15 24.5t35.5 53.5t31.5 45l84 123q7 12 20.5 32.5 t20.5 31.5l58 73q4 12 12 17l18 28q13 26 48.5 74.5t48.5 69.5q15 20 38 64t39 63l58 73q7 21 18 21q2 0 6 -2.5t4 -3.5t-1 -4t-1 -6v-2v-5v-2l-14 -28q-50 -69 -84 -121zM707 547q2 0 5 0.5l9 1.5l12 2q12 0 19 -1t21 -8.5t22 -22t15 -45t7 -73.5q0 -101 -65 -231l-7 -12 q-42 -70 -92 -99q-18 -13 -47 -20q-36 0 -67 22l-15 15q-39 35 -41 112l-2 7q0 110 47 184v-2q0 11 13 24l14 19l-2 -2q0 1 2 4t2 4l14 18h-2q35 45 62 64v-2l16 16q13 13 35 19l10 2h-2q12 4 17 4zM338 1233q2 0 5.5 0.5t10 1.5t11.5 2q12 0 19 -1t21 -8.5t22 -22t15 -45 t7 -73.5q0 -105 -62 -221l-6 -12q-41 -68 -92 -98q-20 -14 -47 -21q-45 0 -80 25q-28 25 -35.5 49.5t-9.5 81.5q0 1 -0.5 12t0 18.5t1.5 22t4 27t7.5 28.5t12.5 33t18 33q6 13 22 36.5t19 28.5q33 42 78 78q14 14 34 19l9 2q12 4 16 4zM727 532l-12 -2h2q-34 -15 -55 -55 q-19 -19 -46.5 -82t-27.5 -80q0 -21 -19.5 -80t-19.5 -92v-12l4 -10q2 -23 13 -41.5t30 -18.5q3 0 7 1t7 1l15 2q31 13 57 43q44 44 80 127v-2q0 4 9 28.5t18.5 65t9.5 83.5q0 63 -17 95t-43 32q-9 0 -12 -3zM256 758l12 2h-2q27 15 66 57q23 25 46 73t30 71q22 99 22 178 l-4 22q-2 23 -13 41.5t-30 18.5q-3 0 -7 -1t-7 -1l-15 -2q-31 -13 -57 -43q-10 -10 -59 -123v2q0 -4 -10 -35t-20.5 -78t-10.5 -90q0 -62 10 -78t37 -16q10 0 12 2z" />
<glyph unicode="&#x26;" horiz-adv-x="1228" d="M389 815l-14 10q-6 7 -23.5 24.5t-25.5 27.5l-9 6q-34 34 -45 59q-12 21 -14 27q-4 16 -4 18q-1 7 -1 24t-1 25q-4 9 0 37q14 71 55 107q5 5 12.5 13.5t14 15t12.5 10.5q8 7 24.5 16t24.5 16q29 18 58 23q1 0 3 1t3 1q13 -3 30 4q15 6 35 6q57 5 80 0h21q40 -3 80 -20 l40 -21q27 -12 52 -53q0 -2 4 -6q11 -31 14 -56v-24q-3 -19 -8 -35q-1 -1 -6 -11t-10 -17t-11 -11q-25 -19 -37 -24q-18 -8 -41 -4q-2 1 -7 2t-11 3t-12 5l-8 8q-8 8 -17 20q-6 14 -6 23q0 30 29 59q18 18 28 9q9 -12 2 -15q-12 -6 -20 -14q-17 -17 -21 -43q5 -21 7 -23 q11 -11 20 -14q15 -7 45 -4q46 19 60 55q4 7 8 35v14q2 27 -23 68q-6 15 -31 29q-6 6 -22 10l-18 3q-18 4 -21 -1h-55q-12 -1 -23 -4t-25 -9t-22 -8q-4 -3 -9 -5t-12 -4.5t-12 -4.5q-9 -3 -25.5 -16.5t-21.5 -16.5q-12 -7 -33 -35l-32 -47v-2q-20 -33 -23 -65v-10 q-8 -10 -4 -29q0 -2 2 -4q-4 -2 -2 -13.5t2.5 -14t4.5 -14t5 -13.5l7 -35q4 -11 12 -19l24 -35l7 -4q21 13 71 17q4 0 12.5 1t12.5 1l45 -4q12 -1 47 -19q10 -10 10 -14q6 -12 2 -26.5t-14 -18.5q-5 -3 -11 -8t-11 -7.5t-11 -1.5q-55 -4 -92 13l-55 20q-7 7 -17 0l-20 -10 q-11 -11 -29 -18q-3 -3 -9 -6.5t-9 -6.5q-27 -15 -88 -61q-7 -5 -56 -49q-4 -5 -18 -27q-10 -11 -18 -24t-18 -34t-13 -28l-23 -72q-1 -3 -3.5 -10t-2.5 -10q0 -1 -6 -94v-41q0 -30 10 -68q2 -11 12 -35q29 -52 50 -73l39 -43q9 -6 45 -27l24 -6l27 -8l30 -7q4 -3 8.5 -3.5 t10 0.5t6.5 1q13 0 24 -1.5t15.5 -2t13.5 0.5t23 5q38 10 47 15q3 2 41 24l18 11q8 4 14.5 9t15 14t13.5 13q17 17 33 46q6 15 19 36q2 3 16 41l8 19q0 10 4 22q0 1 -1 4.5t-1 4.5q6 43 2 108l-16 -8l-25 -14q-11 -3 -28 -13q-21 -4 -27 -2l-27 2q-11 0 -20 6l-14 7 q-14 11 -19 20q-4 3 -4 8.5v7.5v17q0 16 8 24q3 8 15 17q8 8 20 12q13 8 27 8q14 2 32 2q32 -3 45 -8q19 -6 25 -10q8 -3 17.5 -11.5t15.5 -11.5q0 -4 4 -4l24 17q15 14 35 24.5t49.5 21.5t44.5 19q10 10 31 10q26 11 41 11q23 6 76 2l68 -17q36 -14 53 -24l22 -23l13 -10 q26 -34 28 -49q2 -5 6 -27q4 -46 -8 -72q-10 -23 -20 -34t-31 -23q-31 -14 -55 -14q-28 0 -49 6q-27 12 -35 18q-23 20 -23 45q0 15 4 19q3 6 13 6q8 -3 8 -14l-4 -2q-6 -23 10 -39q20 -20 35 -15q18 0 33 11q10 6 14 12t6 17t4 18l8 28q1 6 1 12t-0.5 11.5t-0.5 7.5 q-2 16 -8 31l-10 35q-6 15 -21 30q-25 21 -43 28.5t-49 6.5q-25 5 -38 4t-38 -14q-22 0 -38 -12l-11 -2q0 -2 -8 -4q-9 -4 -21 -8.5t-18.5 -7t-16.5 -8t-22 -13.5q-10 -13 -16 -13l-29 -20q21 -18 39 -55q4 -9 8 -31q4 -44 2 -60q0 -33 -8 -47v-2q-3 -14 -8 -25.5t-14 -27 t-13 -22.5q-23 -31 -32 -41q-23 -23 -66 -50q-4 -3 -29 -18l-41 -18q-44 -19 -61 -23l-55 -4q-6 -3 -14 -3t-17 1.5t-14 1.5l-2 -1q-3 -1 -7 -1q-28 0 -59 8q-26 0 -47 8l-47 11q-8 0 -10 2q-17 10 -72 28q-26 9 -55 41l-4 4q-10 6 -26.5 23t-23.5 22q-6 6 -15 19t-11 16 q-18 27 -21 53q0 5 -2 7q-14 20 -14 45q0 9 -12 55q-8 25 2 55v15q0 39 6 57q2 15 14 43q1 4 3 11t3 11q2 16 23 50l4 12q19 34 41 51l8 8q13 24 37 41q4 4 29 19l43 22l34 21q32 17 70 30l43 17q5 3 39 8zM598 371h2q18 -2 45 10q8 8 17.5 13t11.5 7l12 9q-1 2 -6 12.5 t-10 15.5l-6 6q-3 3 -10 5.5t-11 5.5q-24 6 -29 6q-24 3 -39 -6q-13 -5 -16 -19q-4 -8 -4 -20q-3 -10 6 -23q1 -3 3 -5t5.5 -4.5t5.5 -4.5q11 -6 23 -8zM471 801q0 -2 2 -4q20 -17 57 -27h13q29 -11 65 -2q14 0 17 14q10 14 0 17q-11 19 -33 22q-13 1 -37 -0.5t-33 -1.5 q-16 -2 -39 -10q-6 -2 -12 -8z" />
<glyph unicode="'" horiz-adv-x="270" d="M238 1192q-1 -3 -15 -36.5t-26.5 -58.5t-26.5 -44q-5 -5 -18.5 -28.5t-26 -43.5t-16.5 -20q-7 0 -7 8q26 62 37 125q27 123 39 145q14 22 35 23q16 0 26.5 -10t10.5 -21t-12 -39z" />
<glyph unicode="(" horiz-adv-x="512" d="M651 1362l-8 -8l-27 -8q-52 -15 -108 -86q-15 -18 -35.5 -45t-21.5 -29q-10 -12 -21 -31q-92 -145 -131 -276q-10 -26 -27.5 -65.5t-23 -56t-12.5 -50.5t-11 -80l-8 -76q-6 -35 -6 -72l-2 -131l-4 -47q0 -2 -1.5 -6t-1.5 -7.5t3 -6.5q-9 -43 -2 -62l2 -8q-7 -43 2 -86 q3 -10 7.5 -34t6.5 -32q17 -96 82 -215t135 -180q44 -27 51 -37l11 -8v-4q0 -1 -2 -3t-2 -3q-19 0 -47 12l-74 43q-20 17 -31 33l-55 53q-17 7 -37 41q-84 97 -135 236q0 8 -15 59t-16 55q-2 2 -2 4l-12 68l-2 82q-13 100 -7 219l9 45q0 2 2 4q2 19 2.5 37t2.5 34.5t9 45.5 l47 145q7 25 31 71t31 71q5 27 47.5 70.5t52.5 64.5q28 52 76 100l20 19l6 8l15 14q59 71 151 109l43 16q4 3 9.5 3.5t11.5 -0.5t8 -1q14 0 14 -8z" />
<glyph unicode=")" horiz-adv-x="512" d="M-139 -381l8 8l27 8q52 15 108 86q53 71 55 74l21 31q92 145 131 276q12 33 32.5 80t28.5 80t13 92l8 76q6 35 6 72l2 131l4 47q0 2 1.5 6t1.5 7.5t-3 6.5q9 42 2 62l-2 8q7 43 -2 86q-3 10 -7.5 34t-6.5 32q-17 96 -82 215t-135 180q-46 29 -52 37l-8 8v4q0 1 2 3t2 3 q17 0 45 -12l74 -43q20 -17 31 -33l55 -53q17 -7 37 -41q84 -97 135 -236q0 -8 15 -59t16 -55q2 -2 2 -4l12 -68l2 -82q12 -94 6 -219l-8 -45q0 -2 -2 -4q-4 -22 -4.5 -52t-9.5 -65l-47 -145q-7 -24 -31 -71t-31 -71q-5 -27 -47.5 -70.5t-52.5 -64.5q-28 -52 -76 -100 l-20 -19l-6 -8l-15 -14q-60 -73 -149 -109l-43 -16q-4 -3 -9.5 -3.5t-11.5 0.5t-8 1q-14 0 -14 8z" />
<glyph unicode="*" horiz-adv-x="512" d="M305 1018h-2q-3 -7 -5 -20.5t-5 -20.5q-2 -9 -5.5 -27t-6.5 -26q-11 -25 -13 -41q-10 -23 -18 -29q-17 -10 -29 -10q-24 0 -24 28q0 17 4 29q2 4 9 13.5t11 17.5q1 1 9 12t14 17q11 9 26 30q17 17 25 33q-17 -10 -37 -16q-12 -3 -33 -15q-7 -1 -20.5 -5t-20.5 -5 q-9 -4 -43 -4q-45 -3 -45 22q-1 8 4 14.5t8.5 8t14.5 6.5q24 9 37 6q15 3 41 0q7 -3 22 -2t25 -2q32 -4 49 -2q-28 28 -35 33q-5 3 -9.5 7t-8 7t-8.5 9t-9 10q-19 11 -32 30q-12 15 -15 37q4 27 31 27q17 0 25 -8t18 -25q4 -4 6.5 -10t5 -14t4.5 -13q4 -6 10 -22t7 -19 q3 -8 18 -43q11 19 17 51q2 12 10 37q9 35 18 50q8 19 17 28q17 10 28 10q25 0 25 -30q0 -14 -6 -29q-7 -11 -21 -29q-18 -22 -26 -28q-5 -4 -8.5 -8.5t-8.5 -12.5t-8 -12q-21 -21 -29 -31q7 1 19.5 4t19.5 4q5 2 18.5 9t22.5 10q7 3 19 6t20 6q20 9 39 6q25 0 37 -6t12 -22 q0 -25 -33 -25q-8 -4 -21.5 -6t-14.5 -2q-23 0 -37 2l-18 1q-17 1 -31 5q-7 -1 -25 0t-27 0q6 -4 12.5 -10.5t13 -14t9.5 -10.5q21 -13 37 -33q20 -13 31 -30q9 -22 12 -35q-1 -3 -2.5 -8t-3 -7t-4 -5t-6.5 -4t-11 -1l-24 6q-12 9 -21 27q-3 6 -7.5 18.5t-6.5 18.5 q-3 6 -7.5 18.5t-6.5 18.5q-12 19 -23 45z" />
<glyph unicode="+" horiz-adv-x="819" d="M659 465h-8h-82q-4 0 -10.5 1t-9.5 1h-125v-215v-19q-1 -2 -3 -5.5t-3 -5t-3 -3.5t-5 -3t-7 -1q-14 3 -14 21l4 83v130v18h-213h-18q-19 3 -19 20t21 17l115 -2l94 -2h20v88q0 88 2 135v8q1 11 8 15.5t14.5 0t8.5 -15.5v-8v-37q0 -6 -1 -68t-1 -65v-53h90q90 0 137 -2h8 q11 -1 15.5 -8.5t0 -15.5t-15.5 -9z" />
<glyph unicode="," horiz-adv-x="307" d="M16 45q0 15 2 24.5t2 10.5q0 23 17 35q19 14 37 14q8 0 10 -2q61 -13 61 -76q0 -38 -26 -96q-26 -51 -70 -86q-1 0 -27.5 -18.5t-37.5 -18.5q-2 0 -2 8v2q0 6 8 13t19 13t14 9q55 41 73 76q11 22 15 55v8q-7 -2 -13.5 -4t-10 -3l-7 -2t-6.5 -1q-19 0 -38 11.5t-20 27.5z " />
<glyph unicode="-" horiz-adv-x="460" d="M115 514h41l39 -4h81h80l54 -8q0 -9 -21 -39q-5 -8 -10.5 -17t-8 -12.5t-6.5 -7.5t-8.5 -5t-11.5 -1l-82 4h-82h-82l-47 6q0 12 23.5 48t40.5 36z" />
<glyph unicode="." horiz-adv-x="307" d="M88 127q24 -5 31.5 -12.5t13.5 -36.5q0 -30 -19 -49t-34.5 -24t-24.5 -5q-20 0 -37.5 13.5t-17.5 31.5q0 28 25 55t63 27z" />
<glyph unicode="/" horiz-adv-x="512" d="M508 1335q-2 -16 -10 -47q-8 -32 -27 -93t-27 -93q-12 -33 -30 -99t-29 -98q-10 -39 -43.5 -157t-44.5 -144q-3 -11 -9 -36.5t-11 -44.5t-11 -36q-7 -29 -37 -104q-10 -34 -30.5 -108t-32.5 -113l-94 -301q-4 -7 -8 -17.5t-7 -15.5t-4.5 -6t-3.5 2q-4 -4 -4 0q-9 3 -6 16 q1 6 4 16.5t4 12.5q4 16 13.5 43t13.5 43l57 184q14 41 36.5 117t31.5 104l53 166q20 77 22 88q5 17 41 139t41 138l37 125l27 96q12 51 26 96q7 20 16.5 60.5t16.5 60.5q4 15 10 23q3 10 11 10h6q4 -1 5 -3.5t0.5 -7.5t0.5 -8q0 -1 -1.5 -2.5t-2.5 -3t0 -2.5z" />
<glyph unicode="0" horiz-adv-x="911" d="M598 1255q5 1 26.5 4.5t30.5 4.5q4 0 13 1t15.5 0.5t12.5 -3.5q11 -1 19.5 -3t15.5 -4.5t11.5 -4.5t10 -5.5t7.5 -5t7.5 -6.5t6.5 -6q35 -28 57.5 -82t32.5 -162q0 -7 0.5 -15t1.5 -21t2 -25q10 -100 -32 -281q-17 -68 -95 -244l-4 -16q-30 -49 -35 -64l-16 -30 q-3 -4 -13 -21.5t-15 -25.5t-16 -24t-19.5 -26.5t-20.5 -23.5t-24 -23q-58 -61 -89.5 -86t-78.5 -41q-20 -8 -40.5 -12t-25.5 -6q-41 -1 -79.5 13t-56 26t-46.5 35l-10 10q-46 43 -60 86l-6 14q-18 38 -26.5 74t-14.5 102l-2 15q-2 40 10 133l6 18q0 23 11 49q1 5 7.5 29 t8.5 31t7.5 29t9 31.5t9.5 28.5t11 30.5t12 27.5t14 29.5t15 26.5l10 16q8 23 51 84l11 22q2 2 62.5 77t115.5 120q6 4 27.5 21t47.5 34t54 27l20 8q10 5 35 10zM641 1237l-23 -8q-88 -49 -153 -158q-24 -30 -67.5 -135t-61.5 -139q-9 -19 -27 -68.5t-18 -52.5 q-4 -35 -30 -117t-47 -175t-17 -173l10 -27q5 -68 35.5 -114.5t93.5 -42.5q8 1 43 6l20 2q94 48 144 108q13 12 25.5 27t19.5 20q115 166 160 283l10 19q38 99 51 172q47 162 31 325q-13 131 -56.5 194t-107.5 58q-26 0 -35 -4z" />
<glyph unicode="1" horiz-adv-x="491" d="M535 1264q4 4 10 4q8 0 8 -8q0 -7 -2 -9l-6 -16q-3 -7 -10.5 -20.5t-10.5 -20.5l-8 -18q-27 -48 -51 -125q-4 -18 -14.5 -43t-12.5 -29l-6 -12q0 -7 -9.5 -34t-23 -65t-20.5 -61l-8 -19q-22 -81 -25 -92q-2 -9 -11.5 -35.5t-17.5 -62.5q-5 -21 -16 -58t-17.5 -64 t-9.5 -50q-17 -74 -30 -115q-1 -12 -3.5 -29t-2.5 -24q-33 -174 -37 -217q-2 -7 -2.5 -23t-4.5 -22t-16 -6h-22h-52l-24 -2l-43 2q-2 -2 -12 -2q-15 0 -15 8q0 34 8 55q0 4 6.5 32t15.5 66t13 58l8 20q9 56 39 158l2 8q3 11 11.5 41t11.5 47q4 21 20 57t21 54l4 16 q35 81 37 90q17 53 29 72q7 11 15.5 41.5t16.5 44.5l8 16q10 19 27.5 59t30.5 62l4 8q3 5 8 16.5t8 16.5q14 28 28.5 51.5t18.5 34.5q-1 0 -14 -12.5t-26 -23.5t-36 -25t-46 -23q-1 -1 -19 -13l-33 -22t-34.5 -22.5t-34.5 -19.5t-21 -7q-10 0 -10 15q0 10 41 28 q110 62 180 115q16 12 42.5 33.5t48 38t42.5 28.5q7 9 25 25z" />
<glyph unicode="2" horiz-adv-x="800" d="M113 901q0 7 2 20t2 23q0 44 26 98.5t56 94.5l12 12q6 5 17 13t18 13t15 13t13 16q7 3 43 25.5t75.5 36.5t88.5 14q28 -4 37 -4q3 0 7 1t7 1q50 0 76 -16l17 -7q38 -14 73 -55q22 -27 35 -52.5t17 -42.5t10 -50.5t12 -57.5v-4q0 -3 0.5 -9.5t0.5 -13t-1 -14.5 q-2 -38 -24 -125q-5 -18 -14 -38t-14 -29.5t-20.5 -35.5t-17.5 -30q-8 -12 -53 -69l-15 -11q-15 -20 -28 -30q-4 -3 -15.5 -17.5t-19.5 -19.5q-9 -9 -29 -25t-24 -20q-12 -12 -30 -25.5t-40 -27.5t-29 -19q-12 -9 -18 -18t-12 -13q-66 -39 -148 -100l-14 -12q-2 -2 -12 -8.5 t-15 -12.5q-119 -85 -119 -108q0 -2 2 -2l17 10q5 1 20.5 3.5t29.5 4t26 0.5q72 -4 153 -47q22 -9 54.5 -24t51.5 -23.5t51 -16.5t69 -10q56 -5 73 17q12 11 21 22t13.5 18t8 12.5t6 8t5.5 2.5q1 -1 3 -2t3 -2q-3 -9 -14.5 -30t-12.5 -23q-36 -52 -70 -82l-6 -4 q-24 -24 -58 -38.5t-56 -12.5q-17 0 -23 2h-10q-53 3 -173 40.5t-163 47.5h-23q-5 0 -21 3t-34 3l-6 -1h-8t-7 -1t-7.5 -2t-7.5 -3.5t-8.5 -5t-8 -6.5t-9 -9t-8.5 -12t-10 -15q-6 0 -6 8l9 23q9 23 18 40t20 29q1 1 9 13t16.5 24.5t23 30t27.5 30.5q4 3 10 6.5t9 5.5t7 6 t7 9l8 6q45 47 168 141l10 11q16 16 55 43q9 7 39 38.5t62 65.5t39 41l12 12q11 11 27 39q25 22 69 119q27 45 35 86q3 21 16.5 62.5t14.5 66.5v49v17q0 4 -4 20q1 3 -0.5 5t-1.5 5q0 51 -21 99l-6 16q-1 2 -9 13t-12.5 17t-14 16.5t-19 17t-21.5 13.5t-26.5 10t-30.5 3 q-3 0 -11 -1t-12 -1q-15 0 -33 -2.5t-53.5 -15.5t-67 -35t-68 -67t-62.5 -105l-2 -10q-1 -8 -9 -33t-8 -45q-6 -31 -2 -56q10 -64 34 -87t64 -23q23 0 74 22t70 54l10 14q7 12 27 24q6 7 11 20t9.5 30.5t5.5 21.5q9 29 15 74q0 11 -4 27q-6 12 -19 22q-3 -1 -9.5 0.5 t-8.5 1.5q-10 0 -15 -8q-3 -11 2 -16q4 -7 -2 -13q-6 -3 -12 0q-6 6 -6 13q-5 11 3.5 24t21.5 14q11 2 34 -4q12 -9 16 -13t9 -12t8 -20q9 -25 12 -94q-1 -20 -15 -55.5t-32 -65.5l-6 -8q-5 -5 -15.5 -17t-17 -18t-19.5 -15t-28 -15q-7 -10 -37.5 -20.5t-44.5 -8.5 q-101 0 -139 76q-18 27 -18 57v49z" />
<glyph unicode="3" horiz-adv-x="808" d="M125 895q0 17 4 45l4 18q22 88 86 170l10 13q59 59 116 89t130 30t129 -33l12 -6q37 -26 54 -43l6 -7q63 -71 63 -172q0 -31 -8 -66t-8 -61q-24 -54 -25 -57l-8 -16q-12 -24 -27 -45.5t-32.5 -42t-24.5 -31.5l-10 -12q-13 -14 -44.5 -40.5t-45.5 -39.5q92 -56 125 -114.5 t33 -154.5l-2 -18q-2 -9 -4 -27t-5.5 -30.5t-9.5 -26.5l-2 -8q-19 -41 -45 -70q-2 -2 -21 -29.5t-42 -49t-60 -40.5l-8 -6q-49 -25 -111 -41l-14 -4q-45 -10 -80 -10q-87 0 -129 12l-16 4q-78 24 -123 80q-3 3 -12 22t-15.5 36.5t-3.5 17.5v-2q-2 6 -2 23q0 40 20.5 68 t59.5 28h18l15 -4q41 -18 41 -66q0 -25 -8.5 -42.5t-22 -25.5t-25.5 -11t-24 -3q-33 0 -43 10q25 -78 108 -104l17 -6q16 -6 41 -6q34 0 69 6q1 0 11.5 2t14 2.5t14.5 3.5t17.5 6.5t18.5 9.5t22 14t23 18.5t26.5 25t28.5 31.5l29 22q14 22 43 86q3 7 8 11.5t8 11.5l5 24 q24 67 24 129q0 2 0.5 30.5t0 43t-4.5 37.5t-12 37q-3 7 -13.5 16t-13.5 16q-107 -69 -186 -69q-94 0 -94 61q0 29 39.5 50.5t93.5 21.5q28 0 66 -7t48 -7q11 0 13 2l10 10q14 12 33.5 41t29.5 53q34 72 56 172q1 4 5.5 13.5t4.5 23.5v29q0 3 1 8t1 8v6v19q0 51 -4.5 75 t-20.5 52l-6 16q-32 49 -73 61l-27 13q-3 0 -5 1t-5 1q-42 0 -76 -10l-19 -7q-32 -11 -63 -36l-16 -11q-5 -5 -16.5 -15t-16.5 -15q-15 -15 -27 -31t-22.5 -36.5t-15.5 -32t-15.5 -38t-13.5 -32.5l-2 -7q-7 -32 -7 -47q0 -39 9 -65l4 -19q19 -47 69 -57l4 -2h11 q85 0 131.5 73.5t46.5 184.5v35q0 4 6 4q39 0 39 -90q0 -1 -6 -31l-6 -20q-13 -39 -35 -74l-25 -33q-71 -81 -131 -76q-137 0 -137 156zM260 528h-4q29 0 66 13l14 6q21 9 49.5 28.5t44.5 26.5q-14 7 -48.5 14t-66.5 7q-25 0 -49 -7q-49 -16 -49 -55q0 -33 43 -33z" />
<glyph unicode="4" horiz-adv-x="880" d="M831 1274h3h4.5t3 -1.5t2.5 -3.5t-0.5 -6.5t-1.5 -11.5q-9 -23 -37 -116l-6 -15q-7 -17 -29 -108q-4 -12 -8 -35t-8 -35q-14 -37 -37 -137l-2 -10q-1 -10 -3.5 -20.5t-7 -23t-6.5 -20.5l-6 -16q-8 -19 -18 -76t-17 -84l-2 -16q-3 -14 -9.5 -51.5t-13.5 -67.5t-14 -43h29 l70 4l94 -4h6q8 0 8 -6q0 -13 -6 -19h-35l-90 4l-47 -4l-35 2q0 -21 -10 -59q0 -29 -10.5 -79t-22.5 -83q0 -20 -7 -62t-11 -42v-6q0 -14 -4.5 -24t-14.5 -9q-3 0 -19.5 3t-29.5 3h-10q-16 0 -18 2q-18 0 -38 2.5l-28 3.5q-4 -1 -8.5 -2t-6.5 -1.5t-3 -0.5q-15 0 -15 18v9 l17 71l12 35l10 55l23 84l18 78l-41 2h-63h-94h-64l-65 -2q-33 4 -101 4q-7 0 -22.5 -1t-22.5 -1q-8 -2 -26 -2q-9 3 -9 10q0 3 2 5l13 10q17 28 69 80l2 2q3 3 92 98q10 12 48 49.5t55 59.5q65 74 115 118q61 56 92 95q7 5 15.5 13t20.5 20.5t22 23.5t27 29.5t27 29.5 q6 6 78 72t125 119q22 27 56 53.5t44 36.5zM692 1104q-34 -34 -43 -41l-16 -14q-16 -22 -41 -41l-31 -31q-13 -13 -16 -19q-23 -23 -41 -36l-19 -19q-14 -14 -24 -20q-8 -18 -39 -39q-7 -11 -43 -47l-6 -6q-28 -32 -35 -39l-31 -31q-4 -4 -12.5 -12t-13.5 -13q-5 -9 -37 -41 l-13 -10q-23 -23 -36 -41q-3 -3 -8.5 -9t-8.5 -9q-3 -4 -9 -10.5t-9 -10.5q-6 -5 -21 -23.5t-28 -27.5q-28 -28 -33 -35l-2 -2q-15 -19 -41 -49q-7 -4 -15.5 -14.5t-15.5 -14.5q-3 -4 -10 -11t-10 -11h32h56h28l60 -2l51 2l14 2l45 -2l41 -2l47 -2l70 4q16 0 18 16l7 15 q2 19 14 51q3 8 7 25.5t7 25.5q0 2 3 11.5t3 15.5q2 6 6 16.5t7 20.5l6 20l6 16q13 40 18 58l7 16q0 8 4.5 22t5.5 21q4 8 11 25.5t11 25.5q5 19 17 51q1 4 4 12.5t4 12.5l6 16q4 9 21 58q1 4 5 12t5 12q3 5 5 14.5t5 14.5q3 10 12 26.5t11 22.5q3 7 7.5 24.5t10.5 26.5 q3 4 5 11.5t5 11.5z" />
<glyph unicode="5" horiz-adv-x="808" d="M606 1092q-9 0 -24.5 -1t-24.5 -1q-3 0 -6 1t-6 1q-1 0 -5 1t-8 1t-12 -1t-12 -1q-19 0 -33 -2q-7 0 -23 1t-26 1q-8 2 -33 2q-3 0 -7 -1t-7 -1q-18 -2 -41 -2q-21 0 -26 -8q-2 -2 -3 -5l-4 -18q-13 -20 -22.5 -53t-12.5 -41q-5 -12 -11 -29.5t-11 -28.5q-13 -27 -17 -49 l-6 -12q-43 -99 -43 -117q0 -2 2 -2l13 16q9 18 44 47.5t58 38.5l14 9q14 6 51 15t50 9q4 0 11 -1t11 -1h27q14 0 33.5 -5t21.5 -5l8 -2q14 0 26 -5t31 -18t21 -14q13 -8 38 -35t34 -55l2 -8q11 -14 19 -70.5t8 -91.5q0 -79 -15 -129q-24 -73 -33 -90q-20 -36 -41 -88 q-41 -79 -100 -140q-8 -8 -31 -26t-28 -23q-62 -62 -107 -71q-9 -7 -20 -11.5t-24.5 -8t-22.5 -5l-27 -4.5t-27 -4q-97 -8 -145 14q-10 3 -23 9.5t-34.5 21t-39 43t-24.5 65.5q-4 9 -4 41q0 42 2 60q20 94 86 94q30 0 47.5 -18t21 -32t3.5 -24q0 -28 -19.5 -55t-54.5 -27 q-43 0 -61 29q-2 -2 -2 -8v-2v6q0 -7 1 -20.5t1 -20.5v-10q7 -36 21 -60.5t36 -36t38 -16.5t42.5 -8.5t34.5 -5.5q3 0 49 4q7 1 14.5 3t18 7t17 8.5t23.5 13.5t25 15q69 41 127 145l4 7q6 9 41 71q25 44 35 88q9 25 16.5 65t14.5 56q10 31 10 100q0 204 -88 242l-21 8 q-1 0 -18.5 3t-28.5 3q-85 0 -162 -77q-10 -10 -27.5 -32.5t-31 -38t-18.5 -15.5q-11 0 -11 20q0 6 10 33t24 64.5t20 58.5q8 23 15.5 39t8.5 20q3 5 6.5 20t6.5 21q32 88 55 158q5 9 16 44.5t23.5 61t27.5 25.5q16 0 24 -1t24 -1q4 0 19.5 -2t18.5 -2q39 -10 74 -8 q14 1 39.5 -1t38.5 -2q22 0 61 4.5t45 4.5q10 4 21.5 7t18.5 4.5t10 4.5q17 9 14 31q-2 17 -10 28q-3 0 -9 4t-8 5q-9 3 -16 -2q-7 -7 -4 -17q3 -7 -6 -10q-8 -4 -11 4q-2 2 -2.5 6t0.5 6q0 13 11.5 23t23.5 6q14 -2 33 -16q13 -21 14.5 -27.5t-0.5 -36.5q-6 -18 -16.5 -44 t-11.5 -30q-11 -16 -19 -24q-38 -45 -76 -47h-6q-14 -6 -47 -6z" />
<glyph unicode="6" horiz-adv-x="962" d="M66 324v16q-3 9 -3 27q0 28 -2 51v10q1 8 10 57.5t13 81.5l4 11q3 31 24.5 88.5t26.5 78.5q8 17 20 47.5t23 55t25 47.5l6 8q8 13 22.5 39t27 46.5t26.5 37.5q19 34 85 95t75 71l12 10q65 46 145 72l21 4q40 12 98 12q44 0 88 -22.5t66 -61.5l2 -8q4 -8 14 -59 q0 -19 -21 -47.5t-47 -28.5q-33 0 -57 12l-8 10q-31 19 -31 76q7 33 30.5 48.5t47.5 15.5t37 -8q-33 51 -121 51q-35 0 -68 -13l-18 -8q-3 -2 -15 -7.5t-18 -10.5l-10 -6l-35 -35l-8 -10q-38 -38 -78 -97q-12 -17 -35.5 -63t-44.5 -76q-5 -12 -14.5 -42t-19 -53.5 t-21.5 -41.5q-7 -26 -14.5 -48t-19 -53t-21.5 -63q23 62 100 127q3 2 21.5 16t29.5 19t40.5 11.5t68.5 6.5q32 0 88 -18q1 -1 21.5 -13t35.5 -22t34.5 -30t29.5 -40q0 -1 4.5 -9t9 -17t11 -22.5t12 -29t11 -33t9 -37.5t4.5 -40v-39v-22l-4 -17q-2 -36 -15 -88.5t-34 -87.5 l-4 -8q-2 -5 -8 -18.5t-9 -20.5t-9 -17.5t-12 -19t-13 -16.5q-52 -71 -108.5 -108.5t-127.5 -61.5l-18 -4q-19 -5 -45 -5q-30 0 -54 3l-12 2q-64 12 -96 32l-2 2q-51 33 -84.5 69.5t-52 79.5t-26.5 75.5t-15 83.5zM508 791h-14l-7 -3q-30 -3 -53 -16l-10 -4q-44 -26 -90 -92 q-2 -3 -27 -62q-6 -19 -6 -46v-27q0 -11 4 -27q4 -7 6 -10t7 -6t6 -4h18q9 0 14 8q4 10 -2 16q-3 7 2 12q6 3 13 0q6 -6 6 -12q5 -11 -3.5 -24.5t-21.5 -14.5q-26 -4 -35 0q-11 9 -15.5 13t-9 12t-7.5 20q-3 6 -4 35t-5 41q-35 -97 -43 -172q-5 -16 -12.5 -80.5t-7.5 -116.5 q6 -21 6 -43v-10q4 -83 48.5 -130.5t107.5 -47.5q19 0 37 6l14 4q36 23 54.5 41.5t35 43t31.5 40.5l27 46q63 121 67 216l-2 11q11 49 14 100q2 18 2 59q-1 5 -3.5 23t-2.5 26v9q-2 9 -6.5 29t-7.5 30l-8 12q-7 39 -52 74l-18 10q-26 11 -47 11z" />
<glyph unicode="7" horiz-adv-x="696" d="M307 1280h12q18 0 32 -2t21 -4t20 -7t20 -7q31 -10 90 -48l12 -6q6 -3 21 -11.5t22 -12t20 -9.5t22 -8.5t21 -5t23 -2.5h37q5 0 61 8q20 4 31.5 7.5t33.5 16t50 34.5q6 4 10 -0.5t2 -10.5q-10 -10 -57 -52.5t-70 -69.5q-12 -12 -36.5 -42t-38.5 -44q-2 -3 -30.5 -41 t-54 -76.5t-46.5 -77.5q-13 -24 -37.5 -65t-44 -77t-35.5 -73q-8 -21 -19 -54.5t-20 -56.5t-19 -45q-14 -28 -27 -78.5t-24 -70.5q-14 -38 -23.5 -92.5t-15.5 -69.5q-1 -5 -4.5 -43t-11.5 -53v-17q0 -11 -4 -13.5t-21 -2.5l-12 2q-4 0 -11 -1t-11 -1q-14 0 -32.5 0.5t-32 1 t-15.5 0.5h6q12 0 18 2q-23 -2 -49 -2q-27 0 -27 18q0 3 1.5 6.5t1.5 6.5q2 6 5.5 27t9 41.5t13.5 37.5q1 34 27.5 103.5t34.5 97.5q10 19 24 51.5t40.5 85t74.5 141.5l2 7q17 21 59 84l9 14q6 6 11.5 14t11.5 17t9 14q12 19 47 55.5t43 52.5q74 95 140 144q8 12 27 27 t28 26q11 11 35 30.5t41.5 33.5t17.5 16q0 3 -6.5 0t-19 -11t-15.5 -10q-85 -47 -180 -47q-15 0 -33.5 3.5t-23.5 3.5h-9q-5 3 -19 5t-21 5l-11 2q-80 28 -98 35l-16 6q-31 24 -76 24q-22 0 -47 -2l-8 -2q-32 -3 -56 -24l-4 -2q-18 -11 -35 -39q-15 -15 -37 -58q-8 0 -8 7 q1 3 10 24l11 14q2 5 30 50q1 1 2.5 3t2.5 3t4 5t6 7q8 15 39 51l10 10q56 49 84 56l14 4q4 1 15.5 3.5t19.5 2.5h6z" />
<glyph unicode="8" horiz-adv-x="798" d="M229 891v33q4 20 4 24q0 3 -1 5t-1 5q17 83 48.5 135t76.5 97l6 6l11 11t13.5 12t18 13.5t23 13t29 12.5t34.5 10t41 8h5q6 0 20 2t27 2q3 0 51 -6q62 -12 96.5 -42t61.5 -81l8 -18q10 -20 14 -56q2 -31 2 -65q0 -26 -8.5 -52.5t-23.5 -57t-19 -40.5q-4 -12 -20 -28 t-21 -27q-5 -10 -44.5 -43t-57.5 -33q-5 0 -9 4q1 1 13.5 9t22.5 16t14 14l12 10t11 12t8.5 11.5t8.5 13.5t7 12t7.5 14l6.5 13l6 12q15 44 21 66q8 33 8 76q0 3 1 17.5t1 17.5q-1 9 -14 67v4q-5 18 -27 58l-10 14q-19 34 -62 51q-42 19 -61 19q-82 0 -135 -35 q-2 -2 -10.5 -9t-20.5 -17.5t-23 -22.5q-19 -25 -20 -27q-51 -74 -51 -141q0 -88 14 -119l6 -19q11 -33 36 -83t50 -82l45 34q9 8 27.5 27.5t23.5 24.5q23 16 45 81q1 5 6 19.5t7.5 28t3.5 32.5q3 34 -8 66q-6 17 -17 33q-3 1 -7 5t-7 5q-9 3 -16 -2q-8 -8 -5 -17 q3 -7 -6 -10q-7 -4 -10 4q-2 2 -2.5 6.5t0.5 6.5q0 11 11 19.5t24 8.5q12 0 31 -14q13 -8 22 -29l4 -8q3 -7 10 -59q0 -18 -12 -80q-13 -55 -45 -92l-10 -15l-55 -53q-37 -33 -45 -37q3 -4 11 -16.5t17 -26.5t15 -28q28 -33 61 -97q13 -24 29 -69l6 -15q8 -21 12 -41t6 -39 t4 -28v-8q0 -4 1 -15t1 -18q0 -17 -3 -32.5t-8 -32.5t-7 -27l-4 -11q-4 -14 -10 -25t-15 -23t-14 -21q-9 -14 -22 -27t-22 -20.5t-27.5 -21t-24.5 -17.5q-22 -15 -77 -35.5t-91 -20.5q-43 0 -64 7q-30 3 -65.5 16.5t-71.5 39t-60 70t-24 99.5q0 4 1 9.5t1 8.5q-4 28 -4 41 q0 18 6 33q4 14 8.5 33.5t7.5 31t9.5 27.5t15.5 31l10 16q24 41 52 69t98 79q6 1 19.5 10.5t35 24t41.5 24.5q-5 7 -29 49l-2 13q-9 16 -28 73l-4 13q-11 64 -11 96zM463 244q-4 28 -4 59q0 19 -5 40.5t-9 33t-16.5 39.5t-16.5 37q-24 56 -52 86q-8 19 -25.5 46.5 t-23.5 41.5l-28 -19q-18 -10 -36 -25.5t-43 -40t-38 -36.5l-37 -60l-33 -53q-21 -40 -26 -71q0 -1 -13 -105q0 -32 15 -72q0 -38 30.5 -72.5t71.5 -58.5q10 -2 22.5 -6t22 -6t19.5 -2q3 1 9.5 -0.5t10.5 -1.5q53 0 121 45l10 12q26 22 42 56.5t21.5 62t10.5 70.5z" />
<glyph unicode="9" horiz-adv-x="942" d="M408 481q39 0 57 13q26 15 33 26q28 32 34 60q10 45 11 53q0 7 -8 31q-6 12 -19 22q-3 -1 -9.5 0.5t-8.5 1.5q-10 0 -15 -8q-3 -10 2 -16q4 -7 -2 -13q-6 -3 -12 0q-6 6 -6 13q-5 11 3 24t21 14q12 2 35 -4q12 -9 16 -13t9 -12t8 -20q8 -22 -4 -80q-7 -38 -29 -63l-6 -8 l-2 -2q-40 -53 -143 -56q-34 -2 -80 15q-13 4 -34 15.5t-49 34.5t-40 48q-45 90 -51 186q-1 10 3 22t5 19l4 17q0 38 9 91t28 87l4 8q27 64 62 112.5t74.5 80t73 50t75.5 34.5l18 4q30 6 45 6h53l13 -2q54 -3 96 -29l2 -2q55 -33 92 -73.5t55 -88t25 -87.5t10 -93 q2 -16 2 -51q1 -20 -8 -71t-10 -79l-6 -10q-1 -32 -23 -93t-26 -79q-32 -91 -66 -151l-6 -9q-13 -27 -76 -127q-18 -33 -73.5 -81t-73.5 -70l-13 -10q-13 -11 -27 -20.5t-33 -18.5l-28.5 -13.5t-35 -15t-31.5 -12.5l-19 -4q-34 -14 -110 -17q-42 -5 -85.5 14.5t-66.5 55.5 l-2 8q-12 24 -14 57q0 19 19 47.5t44 28.5q32 3 66 -18q18 -11 23 -26.5t1 -47.5t-25 -46.5t-44 -14.5q-30 0 -37 4q33 -43 121 -39q43 0 78 14l18 10q2 1 14.5 7.5t18.5 11.5l8 8l37 35l6 10q39 39 78 100q7 11 32 50.5t48 72.5q6 14 27.5 65t31 75t27 73t32.5 101 q3 11 6.5 25.5t6.5 19.5q3 19 11.5 40t10.5 29q2 12 2.5 30t4.5 40.5t14 58.5v11q9 43 6 100q-1 9 -2 29t-2 30q-2 55 -21 117l-6 10q-9 37 -53 72l-19 10q-13 8 -47 8h-14l-6 -2q-33 -6 -53 -20l-11 -4q-44 -28 -92 -101l-6 -12q-5 -10 -28 -51.5t-31 -58.5t-20 -50.5 t-17 -64.5q-7 -18 -16 -84.5t-5 -114.5l4 -51q16 -81 53 -119.5t79 -38.5z" />
<glyph unicode=":" horiz-adv-x="307" d="M88 127q24 -5 31.5 -12.5t13.5 -36.5q0 -30 -19 -49t-34.5 -24t-24.5 -5q-20 0 -37.5 13.5t-17.5 31.5q0 28 25 55t63 27zM211 659q24 -5 31.5 -12.5t13.5 -36.5q0 -30 -19 -49t-34.5 -24t-24.5 -5q-20 0 -37.5 14t-17.5 32q0 28 25 54.5t63 26.5z" />
<glyph unicode=";" horiz-adv-x="307" d="M211 659q24 -5 31.5 -12.5t13.5 -36.5q0 -30 -19 -49t-34.5 -24t-24.5 -5q-20 0 -37.5 14t-17.5 32q0 28 25 54.5t63 26.5zM-4 45q0 15 2 24.5t2 10.5q0 24 16 35q19 14 37 14q8 0 10 -2q62 -13 62 -76q0 -36 -27 -96q-27 -52 -69 -86q-1 0 -28 -18.5t-38 -18.5 q-2 0 -2 8v2q0 6 8 13t19 13t14 9q56 42 74 76q10 19 14 55v8q-7 -2 -13.5 -4t-10 -3l-7 -2t-6.5 -1q-19 0 -37.5 11.5t-19.5 27.5z" />
<glyph unicode="&#x3c;" horiz-adv-x="819" d="M260 467q11 -12 47 -35l62 -37q28 -20 80 -56.5t79 -55.5q5 -3 23 -18t31 -21q2 0 6 -4q10 -3 2 -15q-9 -12 -17 -6q-28 19 -38 23q-5 4 -22.5 19.5t-27.5 21.5q-29 20 -82 55t-65 43q-16 11 -49 31.5t-49 31.5q-28 15 -7 39q1 1 4 5t5 6q85 67 106 81q17 10 34.5 22.5 t37 27.5t31.5 24q14 9 39.5 28t33.5 25q16 12 17 13q12 9 30 18q5 4 11 2t8 -8q4 -7 -8 -16q-9 -7 -29 -21.5t-29 -21.5q-119 -86 -131 -95q-21 -15 -62 -47.5t-63 -48.5l-2 -3q-2 -3 -6 -7z" />
<glyph unicode="=" horiz-adv-x="819" d="M158 555q-6 6 -7.5 16t7.5 19q299 0 514 -10q16 -16 2 -33q-66 0 -258.5 4t-257.5 4zM143 393q-6 6 -7.5 15.5t7.5 17.5q64 0 256.5 -4t257.5 -4q18 -14 2 -35q-65 0 -258 5t-258 5z" />
<glyph unicode="&#x3e;" horiz-adv-x="819" d="M557 467q-1 3 -8 10q-16 12 -57.5 45.5t-65.5 50.5q-15 11 -60.5 44t-72.5 51q-9 7 -28.5 21.5t-28.5 21.5q-10 10 -7 16q3 16 19 6l31 -18q12 -12 14 -13q55 -39 76 -53q82 -63 100 -74q53 -34 106 -81q7 -4 11 -11q18 -24 -6 -39q-17 -11 -51 -31.5t-50 -31.5 q-23 -16 -72 -48.5t-73 -49.5q-9 -7 -25.5 -20.5t-25.5 -20.5q-3 -2 -16 -10t-21 -13q-8 -6 -17 6q-4 5 -3.5 9t5.5 6q4 4 7 4q10 4 18.5 10.5t19 15.5t15.5 13q19 13 51.5 35.5t58 41t48.5 35.5q25 13 61 37q36 23 47 35z" />
<glyph unicode="?" horiz-adv-x="768" d="M451 1266l-2 -2h16q91 0 162 -47q41 -27 84 -89q1 -2 10 -15.5t14 -23t12.5 -27.5t11 -41t3.5 -50q0 -5 -1 -14.5t-1 -14.5q0 -14 2 -18q-19 -126 -60 -179q-5 -20 -43.5 -59t-99.5 -78q-1 0 -28.5 -17t-61.5 -28q-11 -8 -56 -34.5t-96 -67.5q-14 -10 -38 -46.5 t-50 -58.5q-40 -83 -49 -95q-17 -22 -22 -7q7 35 15.5 58.5t23 53.5t22.5 50q35 54 56 80.5t49 48.5q22 17 47 43t43 41q6 11 25 28.5t32 24.5q12 10 24.5 24.5t34.5 41.5t43 51l5 8q5 8 8.5 14t10.5 17.5t12 22t11.5 25t11 29.5t9 31t6.5 33.5t2 34.5q0 43 -12 82.5 t-36 73.5t-67 54.5t-100 20.5q-16 0 -88 -14q-6 -4 -45 -21q-4 -4 -4 -8q-3 -3 -13 -14.5t-16 -16.5q-34 -38 -39 -59q-2 -4 -6.5 -17t-7.5 -18q0 -8 -2 -10q-7 -27 -8 -37q-1 -3 -2.5 -9.5t-2.5 -11t-1 -8.5q-4 -15 -4 -65q0 -8 2.5 -18t3.5 -15q11 -20 43 -20q1 0 4.5 2.5 t4.5 3t4 2.5t4 3.5t2 4t0.5 5t-1.5 5.5q-3 15 -18 15q-9 -4 -11 -2q-6 -3 -6 2l2 6q18 6 27 4q18 -15 25 -35q0 -2 -1 -4t-0.5 -3.5t3.5 -4.5q0 -22 -15 -37q-12 -12 -18 -12q-21 -18 -47 -9q-47 12 -66 37q-3 4 -6.5 14t-7.5 17q-17 46 -10 86q0 11 12 39q15 44 16 47 q17 28 17 29l20 24l29 41q12 12 39 32t85.5 45.5t110.5 25.5h9zM106 -14l3 -2q-29 6 -35 13q-8 9 -13 38q0 19 8 34t19 22.5t22 13t19 7.5t8 3q41 -14 51 -28q7 -8 9 -19q0 -38 -29.5 -59t-61.5 -23z" />
<glyph unicode="@" horiz-adv-x="1290" d="M721 256q2 5 6.5 17t7.5 18l4 24q3 8 9.5 23.5t9.5 28.5q3 8 8.5 23.5t9.5 23.5q2 5 5 13.5t5 13.5t5 8q13 30 16 34q1 4 14 4q10 -3 33.5 -8.5t30.5 -7.5q1 0 8 -1.5t11.5 -3.5t4.5 -5q6 -15 -2 -23q-13 -37 -20 -53l-17 -41q-9 -12 -12 -31l-8 -20q-4 -10 -7 -17 t-5 -13.5t-4 -12.5l-17 -51q-10 -40 -10 -56v-32q0 -14 6 -23q10 -13 31.5 -16t38.5 2l26 6q17 4 68 35q28 20 45 37q34 27 39 36l4 5q26 26 33 47q37 79 47 122q18 81 18 209q0 76 -10 115q-17 62 -53 101.5t-103 86.5q-101 33 -151 33q-76 0 -117 -8l-98 -25 q-99 -25 -178.5 -78t-165.5 -141q-32 -32 -49 -61q-37 -46 -58 -85t-39 -97q-13 -38 -24 -127q0 -84 12 -121q2 -5 11.5 -53t23.5 -76q5 -9 24.5 -59.5t42.5 -73.5q60 -60 129 -115q29 -20 102 -38.5t120 -18.5q128 0 194 20q15 7 40.5 18.5t43.5 20.5t35 21 q29 15 75.5 51.5t55.5 42.5q5 5 12.5 14.5t15 17t17.5 13.5q4 1 7 -2t1 -8q-50 -70 -166 -144q-37 -24 -72.5 -40.5t-54 -23t-65 -20.5t-66.5 -20q-11 -2 -25 -5.5t-24 -5.5t-20 -2q-125 0 -228 29q-20 5 -41 21q-5 2 -24.5 10.5t-29.5 13t-23 13t-19 16.5q-11 12 -31 33 t-32 34t-28 33t-30 41q-39 63 -59.5 154.5t-20.5 183.5q0 1 1.5 31t1.5 74q0 49 32 131q10 25 22.5 47.5t28.5 48.5t19 31q99 156 280 242.5t377 86.5q115 0 166 -26q8 -4 26 -11.5t32 -15.5t26 -18q10 -8 27.5 -20.5t27 -20.5t22.5 -21t24 -28q45 -57 51 -84q2 -12 9 -42 t11 -53.5t4 -42.5q0 -94 -12 -161q-17 -91 -25 -103q-20 -58 -40 -93t-64 -73v2l-8 -8q-3 -2 -36.5 -20t-51.5 -29q-33 -19 -82 -35q-40 -16 -113 -16q-39 0 -64 31t-18 90q-4 -4 -18 -23t-21 -27q-12 -13 -26.5 -23.5t-24.5 -16.5t-39 -21q-30 -10 -51 -10 q-39 0 -69.5 28.5t-45.5 69.5q-14 54 -14 105q0 50 4 65q2 40 14 84q0 4 4 13.5t5 13.5q5 10 11.5 27.5t11 27.5t13 23t19.5 24q47 64 72 84q51 41 94.5 60t109.5 20q101 3 148 -53q20 -36 20 -76q0 -1 -1 -15t-5 -22q-2 -2 -10 -2q-14 5 -12 12q0 3 5.5 18t4.5 29 q-2 55 -70 84q-38 9 -82 -2q-69 -40 -108 -90q-68 -82 -88 -149l-13 -45q-18 -70 -18 -146q0 -52 12 -82q19 -43 64 -43q23 0 36.5 8t30.5 31q31 40 48 70q11 24 16 51z" />
<glyph unicode="A" horiz-adv-x="927" d="M1010 371q3 4 6.5 5t5.5 -1.5t2 -7.5q-7 -9 -10 -19q-2 -2 -2 -6q-47 -82 -107 -166q-49 -66 -65 -82q-47 -47 -66 -59q-7 -4 -19.5 -12.5t-19.5 -12.5q-45 -19 -78 2q-17 9 -36 35q-24 35 -35 66q-2 2 -4 8l-7 24q-4 16 -4 23q-1 8 -6 53q-4 -4 -6 -10 q-7 -8 -17.5 -25.5t-17.5 -25.5q-5 -7 -16 -19.5t-16 -19.5q-45 -45 -109 -84q-24 -16 -80 -29q-42 -9 -76 4q-8 3 -23 5.5t-22 5.5q-17 6 -69 28q-3 1 -5 3t-5 6t-5 6q-4 3 -10 9t-10 9q-20 15 -25 20q-21 24 -33 58q-1 5 -4.5 12.5t-3.5 9.5q-13 21 -20 56q-3 12 -6 33 t-6 32q-1 7 -2.5 21.5t-2.5 21.5q-4 36 -4 51v45q0 5 4 33q4 18 2 21q0 30 9 65q3 10 6 27.5t6 27.5q3 12 6 21q3 11 8 31t10 35.5t11 29.5q16 49 33 74q4 8 8 20q8 29 30 66q3 4 6.5 12t6.5 11q-1 1 -2 3t-2 3q-20 15 -39 34q-29 29 -41 70q-6 14 -2 35q1 8 3 16t3 11 q3 8 8 24.5t8 24.5q0 1 19 32q25 36 61 56q7 5 25 8q20 3 43 -10q10 -4 13.5 -15.5t-1.5 -21.5q-7 -20 -18 -37q-3 -6 -25 -23q-4 4 -2 9q1 1 4 3t4 3q4 3 19 28v5l1 4q1 4 1 8q6 15 -11 22q-31 13 -49 4q-28 -16 -45 -38q-26 -33 -41 -74q-3 -9 -5 -26.5t-5 -26.5 q0 -13 2 -17q2 -5 4.5 -15.5t6 -18t9.5 -13.5q1 -2 17 -18q11 -15 22 -23q2 -2 4.5 -4t7 -5l7.5 -5q1 2 9.5 12t12.5 16q5 7 16.5 20.5t16.5 20.5l6 7q14 15 19 22q1 1 3.5 4.5t4.5 5.5q7 7 21.5 23.5t21.5 23.5q18 18 39 27q7 5 20.5 14.5t20.5 14.5q16 12 67 41 q39 22 43 24q38 19 50 23q4 3 14.5 5t15.5 5q3 1 6.5 4t6.5 4q8 3 23.5 8.5t23.5 8.5q65 16 77 20q25 6 66 10h68q4 0 34 -6q50 -12 68 -28q27 -27 27 -58q2 -30 -19 -94q-14 -28 -33 -47q-3 -3 -9 -7t-9 -7q-55 -40 -78 -50q-17 -10 -41 -20q-29 -20 -65 -31 q-56 -24 -74 -31q-2 0 -13.5 -4.5t-19.5 -5.5q-21 -11 -43 -16q-18 -3 -49 -12.5t-41 -12.5q-5 -1 -16.5 -3t-16.5 -3q-36 -8 -92 -8q-8 0 -24 1t-25 1q-2 2 -12 -2q-1 -2 -11 -21.5t-14 -33.5q-2 -5 -6.5 -21t-9.5 -24q-4 -9 -11 -26t-10 -24q-1 -4 -3 -11t-3 -11l-6 -19 q-3 -7 -5 -18t-5 -18q-13 -39 -15 -62q-3 -16 -5 -47t-5 -47q0 -8 1 -25.5t1 -25.5q0 -41 -2 -64q0 -31 2 -47q3 -9 8 -51q0 -21 2 -27q4 -35 9 -47q1 -3 3 -5t3 -5q15 -35 18 -43q1 -1 3 -4t3 -4q9 -12 26.5 -30t25.5 -28q22 -22 67 -22q17 0 33 4q41 12 61 25q1 0 2 1t2 1 q6 8 31 22q7 7 22.5 18.5t22.5 18.5q17 17 45 53q4 10 10 19.5t14 21t13 19.5q4 16 4 20q0 7 1 23t1 24q-2 32 10 86v4q-2 17 9 43q4 21 9 42.5t11.5 47t9.5 39.5q12 28 13 35q7 20 8 27q9 31 14 43q1 5 4 14.5t4 14.5q3 8 7.5 23.5t7.5 23.5q3 3 6 12q6 28 8 31 q3 13 12 34.5t11 28.5q13 26 32 37q34 20 72 29h2q12 6 51 6q11 -4 11 -10q7 -10 0 -23q-3 -7 -14.5 -31t-16.5 -37q-5 -9 -14.5 -28.5t-14.5 -28.5q-3 -10 -14.5 -32t-14.5 -35q-2 -17 -10 -35q-2 -6 -8.5 -26.5t-9.5 -29.5q-5 -20 -15.5 -56.5t-15.5 -55.5q-3 -9 -6 -27 t-6 -26q-3 -13 -27 -89q0 -3 -1 -7t-1 -7q-3 -13 -8.5 -36.5t-7.5 -33.5q0 -12 -2 -18q0 -5 -4 -33q0 -3 -2 -8t-2 -8q-5 -40 -5 -49q-3 -32 0 -60q2 -19 11 -39q3 -11 12 -20q10 -10 22 -10q20 0 39 8q24 7 37 20q12 12 34.5 32.5t33.5 31.5q7 10 23 29t24 32q25 38 51 79 t38 61t13 20q0 6 15 27zM281 918q-2 -3 -11.5 -21t-15.5 -27q4 -2 14 -2q6 -2 31 -2q38 -2 92 8q24 4 84 19q26 7 64 20q25 5 61 23q1 1 4 2t4 2q13 3 34 11.5t28 11.5q5 2 14.5 8.5t17.5 7.5q8 3 17.5 7.5t20.5 10.5t16 9q4 3 12 5t12 5q9 7 28 19.5t28 19.5q7 4 28 20 q35 44 41 107q4 37 -10 53q-7 10 -21 20q-21 15 -47 15q-37 0 -61 -8q-3 -1 -11.5 -4.5t-13.5 -4.5q-18 -8 -51 -17t-39 -11q-15 -6 -39 -18t-32 -15q-6 -3 -20.5 -11.5t-22.5 -11.5q-64 -43 -76 -51q-20 -15 -21 -16l-8 -8l-24 -19q-3 -3 -21.5 -20.5t-26.5 -26.5 q-8 -8 -30 -39q-14 -13 -21 -26q0 -3 -2 -5q-4 -7 -13 -20t-13 -20z" />
<glyph unicode="B" horiz-adv-x="983" d="M-143 25q-31 -3 -68 10q-33 12 -22 45q11 26 43 14q4 -4 4 -10q-4 -4 -11 -4h-8q-8 2 -13 -3.5t-1 -15.5q3 -10 10 -12q3 0 17 -3t22 -3h20q31 -2 62 25q4 4 20 24q7 12 19.5 29t19.5 29q19 35 31 71q2 7 7.5 24.5t8.5 26.5q18 53 19 58q0 2 2 4q0 14 2.5 26t9.5 30t8 22 t2.5 9t3.5 10t3 7q9 24 12 47q2 4 20 52q7 28 17 57q22 64 24 68q8 18 11 34q2 17 14 49q3 7 9 24t9 24q4 12 12.5 33t12.5 32q4 23 10 33q3 7 7 17.5t7 17.5t7.5 20.5t7.5 20.5q6 12 18 39.5t19 40.5q7 9 16 26.5t16 26.5q5 7 19 30q12 18 37 35q35 15 65 23q59 14 99 12 q18 0 24 -2q12 -3 6 -16q-4 -12 -12 -17q-10 -6 -33 -24q-11 -6 -20.5 -14.5t-22 -22t-16.5 -17.5q-1 0 -43 -49q-24 -33 -53 -92q-24 -36 -54 -110q-7 -16 -17 -42t-17 -42q-1 -3 -2.5 -9.5t-2.5 -9.5q-4 -31 -8 -39q-4 -20 -6 -26q-8 -24 -16 -52q-3 -16 -10.5 -43.5 t-10.5 -42.5q-12 -32 -14 -51q-11 -44 -33 -92q-5 -11 -13.5 -31.5t-12.5 -29.5q0 -1 -1.5 -3.5t-1.5 -3.5l-12 -28q-8 -30 -22 -62q-3 -8 -17 -26q-8 -12 -43 -70q-9 -18 -24 -27q-1 0 -2 -1t-2 -1q-20 -24 -37 -32q-4 -5 -25 -21q-2 -1 -4.5 -2t-3.5 -1.5t-2 -0.5 q-6 -4 -13 -7t-17 -6t-15 -5q-17 -7 -51 -4zM473 662q-4 3 -11 5t-11 5q-14 4 -19 6q-9 0 -25 1t-24 1q-11 0 -23 -6q-19 -8 -26 -15q-14 -5 -21 -16q-13 -13 2 -27q16 -16 37 -10l37 12q5 1 11 3.5t8 3.5l24 12q6 5 19.5 12t15.5 8q1 0 6 5zM188 936h7q-5 -6 -13 -8 q-15 -12 -32 -15q-6 -6 -23 -10q-3 -1 -6 -1t-6 -1q-1 0 -2 1t-2 1q-24 -3 -37 2q-16 6 -47 10q-8 3 -17 15q-13 17 -16 22q-15 29 -2 66q9 27 37 55q13 9 18 23l4 4q7 7 19 19.5t19.5 20.5t19 18t22.5 18q18 13 41 26q3 3 11.5 8t11.5 7q5 3 45 26q3 1 8 3t8 3l49 19 q8 2 31.5 7.5t36.5 8.5q7 4 33 4q40 5 49 6h14h18h23h43q10 1 65 -4q41 -6 46 -8q14 -3 38 -10t35 -10q7 -3 20.5 -10.5t20.5 -10.5q2 -1 10 -6t13 -8q15 -6 30 -21q11 -9 43 -45q25 -35 39 -80q0 -3 1 -10.5t1 -11.5q0 -59 -4 -80q-20 -64 -43 -92q-4 -4 -20.5 -22.5 t-26.5 -26.5q-7 -8 -23.5 -22.5t-23.5 -22.5q-1 -1 -3 -2.5t-3 -2.5q-30 -15 -49 -34q-8 -6 -20.5 -16.5t-14.5 -12.5q-53 -32 -59 -37q-4 -3 -13.5 -7t-13.5 -7l-4 -4q2 0 6 -4q33 -11 64 -25q8 -4 21 -13t15 -10q48 -34 68 -49q21 -12 29 -30q3 -3 5 -6q2 -4 5 -5 q17 -15 31 -55q9 -18 12 -39q16 -53 10 -82q0 -12 2 -14v-14q-1 -5 -3 -14.5t-3 -14.5q-6 -33 -20 -59q-16 -36 -25 -54q-6 -8 -18 -27t-19 -28q-7 -7 -17.5 -20.5t-17.5 -20.5q-3 -2 -8.5 -7.5t-10.5 -9t-11 -6.5q-8 -5 -22.5 -14t-22.5 -14q-12 -9 -33 -15q-9 -3 -78 -18 q-41 -9 -84 -6q-43 0 -68 2q-29 0 -45 8q-17 7 -47 14q-18 8 -33 19q-31 23 -38 29q-47 35 -62 94v45q3 27 29 47q17 19 63 29h4q7 -3 7 -9q0 -2 -7 -6q-2 0 -4 -2q-30 -2 -61 -33q-7 -6 -12 -24q0 -31 2 -45q2 -22 20 -51q5 -5 11.5 -13t12 -13t11.5 -9q33 -29 70 -35h12 q3 0 7 -1t7 -1q4 0 11 -1t10 -1q29 0 53 8q44 5 53 10q17 3 27 13q32 14 35 16q7 4 28 20q5 5 6 5q8 3 15.5 8.5t11.5 10t10.5 12.5t9.5 12q7 11 23 31.5t23 31.5q21 29 38 82l4.5 9t4.5 11q1 3 2 5.5t2 5.5q1 7 3 20.5t3 20.5v22v4q3 14 -4 41q-1 10 -15 47q-1 1 -2 3.5 t-2 3.5q-26 42 -36 53q-3 2 -26.5 24.5t-39.5 28.5q-27 19 -45 27q-20 12 -31 12q-1 0 -7 0.5t-7 -0.5q-7 -3 -20.5 -7t-20.5 -7q-41 -15 -78 -27q-5 -1 -14.5 -2.5t-17.5 -2.5t-15 -1q-18 0 -35 10l-4 4q-15 20 -4 45q17 21 31 29q41 18 65 18q25 3 49 0q1 0 70 -6 q15 0 20 8q18 18 54 50l12 12q8 12 23.5 28.5t23.5 28.5q12 12 14 21q19 19 33 47q27 48 29 55q20 38 31 70q3 7 6 22.5t6 22.5q0 3 1 8t1 8q12 28 12 72q0 19 -6 31v2q0 10 -3.5 18t-9 15t-7.5 12q-6 8 -20 19.5t-19 16.5q-4 4 -17 7q-62 12 -96 14q-4 0 -13 1t-14 1 q-20 3 -38 0q-14 0 -86 -14q-7 -2 -26 -8t-28 -9q-36 -11 -59 -28q-1 -1 -4 -2t-4 -2q-33 -14 -62 -37q-27 -21 -51 -45q-7 -8 -19.5 -22.5t-19.5 -22.5q-15 -15 -37 -50q-3 -5 -6 -15t-6 -15q-1 -1 -3 -4.5t-3 -4.5q-10 -17 -10 -40q0 -12 0.5 -17t5.5 -11t16 -9q9 -3 12 0 q7 3 21.5 6t21.5 6z" />
<glyph unicode="C" horiz-adv-x="786" d="M883 367q-3 -5 -6.5 -12t-5.5 -11.5t-5 -7.5q-4 -8 -6 -10q-25 -43 -26 -45q-22 -42 -70 -109q-60 -84 -102 -119q-54 -43 -103 -63q-68 -25 -192 -13q-99 9 -183 62q-19 11 -41 33q-4 4 -8.5 7.5t-10 7.5t-9.5 7q-10 13 -23 23q-11 15 -37 45q-27 31 -41 94 q-3 9 -9 28.5t-9 28.5q-10 23 -23 88q-4 23 -5 47.5t-0.5 56.5t-0.5 50q-1 14 1 32t3.5 29t6.5 33.5t6 30.5l18 55q0 1 1 3t1 3q5 35 29 88q5 11 16.5 34.5t16.5 35.5q19 42 47 84q6 13 20 37q6 13 21 30.5t20 24.5q8 10 18.5 20t26 23.5t23.5 20.5q10 10 22 14q2 0 8 6 l25 19q12 9 39 24q7 3 20.5 10.5t20.5 10.5q8 4 19.5 9t19.5 8.5t16 6.5q55 18 66 21q3 0 11.5 1t12.5 1q4 3 8 4t10 1t9 1h8q13 0 37 1t35 1q33 0 51 -2q21 0 35 -2q38 -3 69 -27q16 -15 33 -28q17 -21 23 -37q14 -33 20 -66q12 -46 -18 -86q-5 -7 -21.5 -45t-29.5 -47 q-9 -13 -27.5 -29t-24.5 -22q-12 -11 -34 -32t-33 -32q-28 -28 -35 -32q-28 -22 -29 -23q-9 -7 -27.5 -11.5t-27.5 -11.5q-13 -6 -38 -10.5t-30 -5.5q-18 -7 -47 6q-28 16 -28 49q-3 28 10 52q3 8 10 17.5t10 14.5q31 44 60 66q6 6 14 4q7 -2 4 -10q-3 -5 -8 -8t-23 -25 q-12 -11 -34 -43q-22 -28 -25 -66q-3 -17 12 -32q26 -11 45 -4q6 2 25 3t27 7q4 3 11.5 6t10.5 6q10 5 27 12t28.5 13.5t22.5 17.5q20 14 63 57q26 26 31 33q7 7 22.5 19.5t25.5 23.5t16 25q29 66 36 78q15 26 11 59q-10 49 -27 78q-18 21 -45 31q-31 8 -82 8q-26 3 -63 -10 q-15 -5 -17 -5q-39 -10 -61 -20q-15 -7 -40 -22.5t-40 -22.5q-37 -21 -45 -29q-25 -15 -53 -37q-17 -13 -41 -47q-7 -11 -35 -39q-27 -30 -33 -55q-3 -4 -7 -14.5t-7 -14.5q-14 -31 -25 -49q-3 -7 -9 -16.5t-9 -16.5q-4 -4 -4 -6q-2 -8 -10 -27t-9 -32q-3 -32 -12 -66 q-9 -21 -12 -55q-7 -33 -11 -82q-2 -14 -2 -41v-18v-33q3 -12 4.5 -34t4.5 -34q3 -10 7.5 -30t6.5 -29q1 -5 3.5 -17t2.5 -14q5 -37 8 -43q1 -3 4 -12.5t4 -15.5q7 -26 27 -54q13 -21 51 -55q7 -7 23.5 -18.5t23.5 -18.5l25 -12q5 -1 27 -10q30 -13 49 -15q20 0 41 -6 q14 -4 31.5 -4t24.5 0.5t33 5t27 4.5q59 10 101.5 40t79.5 83q25 37 73 119q3 6 9 14.5t10.5 15t5.5 9.5q3 3 5 7t5 10.5t6 11.5q3 7 7 9.5t7 0t3 -9.5z" />
<glyph unicode="D" horiz-adv-x="1103" d="M518 1087h14l5 -4q6 -7 5.5 -10t-7.5 -14q-5 -6 -11 -19q-9 -21 -18 -30q-4 -12 -4 -15q-3 -4 -4 -8t-1 -8.5t-1 -7.5q-3 -11 -9.5 -29t-9.5 -29q-14 -53 -18 -65q-1 -1 -1 -3t-1 -3q-1 -2 -8 -25q-8 -13 -11 -29q-3 -3 -5 -10.5t-5 -11.5q-4 -4 -8 -16q0 -3 -4 -19 q-3 -5 -5 -16.5t-5 -18.5q-3 -5 -5.5 -16.5t-5.5 -17.5q-3 -9 -8 -27.5t-8 -26.5q-4 -10 -8 -37q-2 -2 -2 -10q-3 -4 -6.5 -15t-6.5 -16q-2 -2 -2 -18q-1 -3 -1 -6t-1 -6q-6 -29 -10 -39q-2 -4 -8 -35q-1 -3 -4 -10t-4 -10q-8 -12 -11 -27q-4 -6 -8 -25q-1 -12 -18 -61 q-1 -2 -8 -29q0 -1 -3 -8t-4 -12q-4 -18 -10 -33q0 -2 -2 -4q-6 -13 -17 -44t-20 -48q-3 -3 -5 -11t-5 -12q-7 -18 -43 -74q-21 -21 -33 -26l-4 -4q-31 -25 -78 -25h-4q-54 10 -80 25q-11 7 -17.5 16t-8.5 15.5t-6 23.5q0 20 10 33q6 11 20 12.5t25 -8.5q6 0 6 -10 q4 -8 -4 -11q-9 -3 -12 4q-3 9 -13 9q-9 -3 -12 -11q-1 -3 -2 -7t-2 -7q0 -14 10 -31q13 -16 31 -10q3 0 6 1t6.5 2.5t5.5 2.5q23 17 35 37q30 54 35 76q2 13 8 18q0 2 2 4q0 7 2 13.5t6.5 15t6.5 12.5q1 4 2 12t2 11q10 25 12 29q7 11 10 28q3 7 7.5 24.5t7.5 24.5 q3 11 10 34.5t10 35.5q1 3 2 9.5t2 9.5q0 6 4 26q2 2 2 8v6q6 8 11 31q2 12 14 45q3 12 6 33q3 7 6 19.5t6 19.5q16 53 19 72q0 4 6 28q3 10 7.5 29.5t6.5 28.5q4 15 12.5 46.5t12.5 47.5q3 8 7 24t7 23q3 9 8 25.5t8 25.5q3 4 5 12q1 4 4 11.5t4 11.5q-2 0 4 6q3 37 24 64 q4 3 9 20q6 14 22 14q37 0 55 2q4 0 13 1t12 1h47zM496 1247v2q-10 -1 -27.5 -1t-30 -1t-24.5 -4q-30 -4 -52 -12q-5 -2 -53 -23q-15 -6 -51 -28q-23 -13 -35 -31q-11 -11 -26 -23q-13 -13 -25 -22q0 -2 -2 -2q-14 -10 -27 -41q-15 -19 -26 -53q-1 -6 -4 -15l-4 -12 q-10 -28 -7 -61q0 -23 2 -37q7 -33 9 -37q0 -16 16 -29q18 -16 37 -8t24 27q1 3 2.5 7t2.5 7q4 7 10 4q7 0 4 -8q0 -29 -25 -45q-23 -16 -51 -13q-3 3 -10 3q-32 0 -76 28q-3 6 -12 12q-20 18 -37 48q-12 22 -16 55q0 3 -2.5 14t-2.5 19v34v3q3 6 9 34q3 6 7.5 18t6.5 17 q8 14 16 33q1 2 17 22q12 13 30 37q20 25 68 56q7 5 49 26q8 3 21 8t24 8.5t21 6.5q19 8 47 8q37 5 51 10h8q16 1 48.5 2t48.5 2h4q13 -3 37.5 -5t37.5 -5q12 -3 36.5 -10t37.5 -10q3 0 6 -1t6 -1q5 -3 14.5 -6.5t14.5 -6.5q5 -2 14.5 -5.5t18 -7t14.5 -7.5q7 -3 22.5 -9.5 t22.5 -9.5q3 -2 13 -9t16 -11q8 -6 20 -14l12 -10q13 -9 21 -15q4 -4 13 -12t14 -13q2 -2 4.5 -5.5t5.5 -4.5q25 -20 29 -24q3 -3 6 -5.5t6 -5.5q7 -8 19.5 -26.5t19.5 -26.5q3 -3 6 -9t6 -9q11 -11 29 -47q27 -60 35 -93q1 -4 4 -12t4 -12q2 -6 6.5 -20t6.5 -24t1 -20 q0 -5 2 -15.5t2 -14.5q2 -2 2 -9q0 -9 1 -27t1 -26q0 -4 1 -13t1 -13q0 -38 -6 -82q-5 -41 -10 -62q-3 -16 -10 -43.5t-10 -42.5q-15 -42 -50 -106q-15 -35 -32 -54q-3 -3 -7.5 -12t-7.5 -12q-4 -5 -14.5 -18t-15.5 -21q-5 -5 -5 -8q-5 -5 -13.5 -15t-12.5 -14t-11 -12.5 t-12.5 -13t-11.5 -7.5q-1 -1 -3 -4t-3 -4q-3 -3 -8 -9t-8 -9q-5 0 -5 -7l-10 -10q-8 -5 -19.5 -12t-13.5 -8q-25 -20 -26 -21q-11 -7 -27 -10l-12 -4q-10 -5 -33 -18q-17 -7 -27 -7l-30 -6q-7 -1 -19.5 -3t-19.5 -3q-5 0 -15 1t-18 1q-3 0 -8 -1t-8 -1q-58 0 -99 10 q-9 1 -36 13q-4 3 -11.5 5t-11.5 5q-29 13 -47 37q-16 13 -19 39q-4 42 9 63q14 30 29 46.5t42 23.5q7 3 33 8q16 3 33 -10q11 -7 8 -17q0 -7 -6 -10q-7 0 -10 6q-3 18 -23 15q-48 -3 -72 -37q-21 -37 -22 -39q-9 -28 0 -53q3 -19 27 -29q37 -21 79 -29q27 -3 46 2 q20 0 51 17q14 4 27.5 11t29.5 17t25 15q10 3 12 10l47 47q3 3 8 6t8 6q10 14 35 39q3 4 14.5 16.5t14.5 20.5t11.5 16.5t10.5 12.5q7 11 19.5 32t19.5 33q24 49 47 107v4l2 2q3 6 5.5 17t5.5 16q8 19 8 43q1 7 4 18.5t4 18.5q8 24 8 59q-2 3 2 18q8 17 4 60q-1 7 -2 21.5 t-2 21.5v24t-4 33q-6 21 -6 49q3 14 -4 37q-1 3 -2 8.5t-2 8.5q0 15 -8 34q-6 14 -11 29q-7 19 -8 27q-6 18 -6 22q-3 7 -6 16.5t-6 16.5t-9.5 19.5t-9.5 19.5q-1 3 -4 7t-4 7q-13 21 -33 41q-1 0 -21 17.5t-34 25.5q-7 3 -22.5 10.5t-22.5 10.5q-10 2 -30.5 6.5t-30.5 7.5 q-25 8 -54 12h-34z" />
<glyph unicode="E" horiz-adv-x="808" d="M342 745l6 -4q33 -20 78 -20h6.5h7h7t7.5 0.5t6.5 1.5t6 2.5t4.5 3.5t3 5t1 7q0 15 -14.5 24t-28.5 9q-67 0 -90 -29zM311 877q4 -57 19 -84q33 8 67 8q37 0 69 -16t32 -46q0 -41 -68 -41q-58 0 -104 31q-2 0 -4 2q-6 0 -19 -16l-12 -13q-15 -16 -29 -38l-6 -11l-10 -10 l-13 -20q-38 -55 -38 -74l-17 -51q-4 -12 -12.5 -35.5t-14 -40.5t-4.5 -23l-6 -28q-8 -36 -8 -76q0 -63 8 -86q0 -17 9 -29v-10q0 -9 8 -25t8 -20q13 -43 47 -72t70 -40t73 -11q7 0 18.5 2t18.5 2q8 2 37.5 5t56 8.5t59.5 16.5t61.5 34t47.5 55l39 59q23 53 23 92q0 5 -4 21 l-11 29l-6 10q-27 30 -47 33q-3 0 -6 1t-6 1h-16q-37 -5 -48 -9q-18 -6 -34 -18q-42 -36 -52 -54q-2 -3 0 -3q-3 -6 -10 -6q-4 0 -8 4q-4 0 -4 6q0 1 0.5 2t1.5 3.5t2 4.5l25 29q41 48 127 59q61 0 87.5 -37t26.5 -84q0 -54 -14 -78q-5 -5 -8 -16l-19 -31l-20 -30 q-5 -5 -22.5 -26.5t-32 -35.5t-23.5 -14l-14 -6q-103 -47 -215 -47q-107 0 -134 10q-7 3 -13.5 6t-10 4.5t-4.5 1.5l-29 8q-59 14 -86 39q-14 7 -22 15q-28 20 -37 45q-5 0 -8 10l-13 14q-14 18 -28 51q0 2 -6 22t-11.5 53.5t-5.5 68.5q0 79 12 112l19 50q5 7 19 33.5 t20 37.5q15 25 22 31q23 36 31 43l27 25q0 2 2 2t4 2l10 14q24 24 53 41q2 1 10.5 7t26 19.5t37.5 26.5q0 2 -2 4q-35 44 -47 127l-4 29q-4 28 -4 41q0 112 74.5 191.5t172.5 103.5l21 4q42 10 72 10q251 -22 251 -184q0 -13 -4.5 -30t-16.5 -39t-39.5 -37t-66.5 -15 q-20 0 -56.5 10.5t-53.5 34.5l-19 35q-2 2 -2 6q0 6 11 6q3 0 6 -3t6 -3q27 -68 111 -68q7 0 14 1.5t15 5t12.5 6t15.5 8.5t14 8l6 6q27 43 27 64q0 53 -43 80q-8 3 -23 12.5t-28 9.5l-33 6q-14 2 -49 2h-25l-69 -20q-10 0 -25 -12l-27 -15q-53 -31 -96 -100l-6 -12 q-35 -50 -35 -101q0 -3 1 -5t1 -5q-2 -8 -2 -27q0 -6 4 -34z" />
<glyph unicode="F" horiz-adv-x="686" d="M666 604h-7q-49 2 -122 21q-5 3 -15.5 8t-15.5 8q-2 2 -8 4q0 -5 -6 -29q-1 -3 -4.5 -9t-4.5 -9q-15 -34 -18 -70q-1 -8 -4 -19.5t-4 -14.5q-31 -107 -31 -109q-6 -21 -18 -39q-3 -5 -5.5 -14.5t-5.5 -14.5q-3 -8 -13 -28t-15 -33q-19 -43 -31 -59q-21 -40 -53 -78 q-8 -11 -19 -29q-25 -28 -55 -49q-15 -20 -41 -27q-7 -3 -20.5 -10t-20.5 -10q-2 0 -7.5 -3t-8.5 -3h-41h-13q-35 0 -59 35q-7 17 -10 36q-3 18 10 37q6 6 10 17q15 21 35 18q4 0 8 -4q2 -2 2 -6q-1 0 -3 -1t-3 -1q-13 5 -33 -15q-14 -17 -10 -59q6 -20 23 -27q19 -2 47 2 q4 2 16 13q13 8 30 28t23 25q3 3 5.5 7t5.5 7q3 4 19 29.5t24 40.5q4 4 7 9t6 12t5 10q13 16 16 26l25 56q7 15 19.5 44.5t19.5 45.5q4 10 10 33q1 3 2 8t2 8q12 28 29 100q3 12 6 21q5 21 16 55q3 11 7.5 33.5t7.5 34.5q4 10 8 36q0 3 2 5q1 11 0 13.5t-12 8.5 q-4 4 -10.5 7t-15 5t-13.5 4q-41 9 -80 9q-29 0 -47 -13q-16 -7 -21 -30q-6 -24 21 -21q1 0 2.5 0.5t5 1.5t6.5 2q7 2 15 -2q2 -2 -7 -12q-23 -14 -45 -2q-21 9 -12 43q9 31 43 43q34 9 74 6q7 -1 17.5 -3t17.5 -3q34 -3 67 -23q3 17 7.5 51.5t7.5 51.5l4 16q3 16 9 46.5 t9 47.5q1 9 3 29t3 29q0 2 4 18q8 20 6 37q0 1 1.5 4t1.5 4q3 10 6 29q3 23 14 49q3 4 4 9.5t4 8.5q2 5 19 33q2 2 2 8q-7 7 -22 23t-27.5 26.5t-26.5 16.5l-19 12q-17 7 -61 19q-3 3 -6.5 3.5t-9 -0.5t-7.5 -1q-55 0 -88 -15q-30 -10 -53 -28q-1 -1 -3 -4t-3 -4 q-37 -24 -59 -72q-16 -47 -17 -62q0 -7 -2 -21.5t-2 -21.5q0 -5 1 -16t1 -16q3 -11 10.5 -33.5t10.5 -34.5q1 -3 4 -6t4 -6q9 -22 27 -29q5 -3 13 -9t13 -9q44 -15 80 8q33 20 49 57q5 16 2 47q0 14 -18 17q-30 0 -39 -13h-2q-2 -2 -10 -2q-3 3 0 13q15 15 20 16q12 5 35 2 q33 -3 33 -37q7 -35 -27 -86q-24 -27 -45 -35q-23 -10 -43 -10h-68q-10 0 -12 2q-40 14 -57 31q-4 7 -19 14q-3 4 -15 18t-17 23q-1 1 -4 6.5t-3 10.5q-26 50 -26 90q0 29 10 71q2 2 2 17q3 4 5 11.5t5 10.5q20 36 35 51q4 8 10 11q10 7 27.5 22t30.5 23q6 3 45 18q8 0 20 4 q56 12 109 6q49 -4 80 -16q30 -6 57 -27q27 -12 72 -61q0 -1 3 -3t7 -5q3 6 6 6q26 32 61 49q14 3 19 -2q0 -1 -1 -3t-1 -3q-17 -17 -23 -39q-3 -8 -6 -25t-6 -24q-3 -9 4 -12q0 -5 4 -5q3 -3 14 -11.5t17 -16.5q6 -4 12 -9.5t14.5 -14.5t12.5 -13q6 0 18 -12 q7 -5 19.5 -14.5t19.5 -14.5q3 -3 10.5 -5t10.5 -5q4 -2 43 -19q30 -18 61 -18h10q37 -2 84 22q40 21 52 74q5 20 4 25q0 26 -25 26q-23 0 -35.5 -15t-7.5 -36q-4 -4 -12 4q-5 10 -2.5 25t12.5 22q32 17 49 15q13 0 19 -6q23 -14 20 -46q-11 -47 -27 -65q-17 -23 -30 -31 q-42 -26 -72 -28q-56 -9 -102 12q-9 4 -30 15.5t-34 15.5l-18 12q-3 3 -45 33q-6 8 -18 16.5t-15 11.5q-6 8 -19.5 19.5t-15.5 13.5q-6 6 -10 8q0 -4 -1.5 -12.5t-0.5 -11.5q1 -6 -4 -62q0 -4 -1 -15t-1 -16q0 -50 -2 -75q0 -42 -2 -60q-1 -9 -3.5 -26.5t-3.5 -26.5 q-4 -41 -10 -68q-3 -14 -7 -40t-7 -41q-4 -31 -6 -35q-3 -7 6 -13q42 -24 98 -34q23 -2 66 -2z" />
<glyph unicode="G" horiz-adv-x="1042" d="M512 -219q-52 11 -80 6q-23 -2 -63 -16q-3 -1 -13 -5.5t-16 -7.5q-27 -9 -45 -18q-4 -1 -11.5 -5t-9.5 -5q-10 -3 -65 -37q-30 -24 -33 -27q-36 -31 -63 -76q-1 -1 -13.5 -21t-17.5 -34q-7 -20 -10 -59q-3 -47 34 -74q19 -19 50 -25q15 -4 55 -4q28 0 49 21q7 3 10 10 q6 4 13 9.5t11 10t11 13.5t10 12q43 46 58 76q31 39 45 63q11 14 18 31q14 19 15 23q8 25 36 79q15 27 25 60zM317 907q3 -1 7.5 -4t7.5 -4q4 -3 12.5 -7.5t11.5 -6.5q25 -14 43 -21q12 -7 33 -10q8 -3 25.5 -7t25.5 -7q34 -8 78 -11q60 0 76 5h6q7 3 55 8q5 1 13.5 4.5 t9.5 3.5q12 4 32 11t31 11q7 7 23 11q22 18 33 24q11 8 30 25.5t21 19.5q3 3 8 10.5t8 10.5q5 8 17.5 24.5t17.5 24.5q3 7 8 18.5t8 18.5q24 40 17 69q-3 12 -6 37q-5 11 -23 43q-9 15 -18 21q-4 0 -8 4q-26 26 -68 35q-24 6 -27 6q-54 0 -73 -6q-6 -2 -24.5 -6t-27.5 -9 q-66 -27 -106 -55q-8 -8 -25 -18q-23 -13 -41 -31q-12 -8 -32 -25.5t-31 -25.5q-7 -7 -19.5 -17.5t-19.5 -17.5l-5 -7.5t-5 -7t-4 -4.5q-6 -8 -25.5 -29.5t-28.5 -35.5q-24 -31 -41 -72zM309 891q-3 -3 -4 -6t-2 -4q-18 -30 -33 -64q-11 -21 -28 -49q-35 -75 -47 -150 q-1 -7 -4 -29.5t-3 -35.5q0 -7 -4 -27q-8 -21 -8 -57q-2 -14 -2 -39q2 -23 2 -59q13 -95 25 -131q2 -4 9.5 -23t10.5 -29q9 -25 35 -55q2 -3 23 -24q29 -29 47 -39q3 -1 6 -4.5t6 -4.5q5 -3 15.5 -7t15.5 -7q7 -4 15 -6t20 -4t20 -4q2 0 33 4q58 11 94 37q3 2 27.5 17.5 t39.5 23.5q7 5 37 35q1 1 4 10q6 30 31 86q12 27 33 98q24 66 33 111q5 13 9.5 36.5t6.5 30.5q8 46 33 94q10 13 26 13q6 -1 41 4q19 3 48 10h10q19 -3 28 0q2 3 5 0t6 -9t6 -9v-9q-3 -11 -10.5 -31t-10.5 -32q-15 -45 -20 -66q-3 -13 -13.5 -36t-13.5 -35q-3 -8 -10 -25.5 t-10 -25.5q-3 -15 -27 -74q-14 -41 -26 -68q-8 -22 -24 -63t-24 -62q-16 -50 -36 -94q-1 -3 -3.5 -10t-3.5 -10l-18 -43q-3 -13 -11.5 -38t-11.5 -36q-9 -12 -12 -27q-3 -7 -8 -20.5t-8 -20.5q-3 -6 -8 -19.5t-7 -17.5q-1 -3 -3 -8t-3 -8l15 -14q10 -5 24 -19l6 -6 q5 -8 16.5 -16.5t12.5 -9.5q4 -4 12.5 -13.5t12.5 -13.5q19 -21 34 -49q0 -1 1 -4t1 -4q3 -6 -2 -11q-8 -3 -10 2q-4 4 -6 8t-2 5q-3 3 -23 28q-12 12 -18 21q-4 4 -16 17.5t-17.5 19.5t-16.5 16t-22 18l-4 5q-1 1 -1.5 1t-2 1t-4.5 4q-3 -5 -8 -14.5t-8 -14.5 q-14 -23 -19 -35q-35 -62 -43 -74q-5 -12 -28 -45q-12 -16 -35 -43q-27 -34 -49 -53l-37 -37l-2 -2q-7 -3 -18.5 -10t-18.5 -10q-23 -13 -62 -23q-7 -3 -22.5 -6t-22.5 -6q-6 -3 -17 -5t-15 -5q-28 -4 -37 -4q-44 0 -62 6q-35 6 -53 33q-12 16 -14 18q-13 20 -19 43 q-11 48 8 84q11 30 23 51q4 5 17.5 23.5t21.5 27.5q4 7 22 31q4 4 12.5 11.5t12.5 11.5q42 33 59 43q24 15 37 20q10 4 34.5 15.5t42.5 17.5t36 10q26 9 55 12q26 7 60 -2q3 -1 10.5 -2t11.5 -2q7 -3 10 6q3 8 9.5 23.5t9.5 23.5q47 122 51 132q7 17 19.5 49.5t19.5 48.5 q5 11 8 29q-5 -5 -6 -5q-9 -7 -28.5 -19t-28.5 -19q-3 -3 -19 -15q-33 -14 -67 -35q-54 -22 -111 -16q-7 1 -16.5 1t-16.5 1q-20 7 -59 10q-33 7 -76 35q-25 15 -39 21q-18 12 -47 41q-11 7 -35 45q-13 17 -16 22q-1 3 -3 5t-3 5q-4 7 -11.5 19.5t-11.5 19.5q-9 21 -12 49 q-3 12 -6 30t-6 30q0 1 -3.5 21.5t-3.5 31.5v78q0 4 2 6q3 17 7.5 46t7.5 44q13 75 33 137q14 45 34 88q6 18 23 52q2 4 9.5 15t10.5 19q23 37 41 70q15 15 23 37q-12 12 -14 16q-11 15 -39 60q-11 26 -15 67q0 6 -1 20t-0.5 24t3.5 20q8 31 33 67q4 11 10 17q19 37 64 59 q31 10 53 2q29 -13 23 -45q-7 -27 -33 -53l-6 -6q-7 -4 -13 2q-3 5 0 8q1 3 2.5 4.5t3.5 2t3 1.5q18 31 22 41q16 28 -18 31q-26 3 -47 -12q-25 -19 -41 -45q-11 -19 -21 -31q-5 -10 -10.5 -31.5t-7.5 -26.5q-5 -19 -2 -47q3 -9 6 -26t6 -25q7 -28 45 -76l6 -6q4 4 12 13 t11 12q19 31 43 55q20 29 55 53q15 12 45 35.5t45 34.5q39 31 98 55q9 3 27 9.5t27 9.5q42 10 73 20q28 4 33 4q0 -1 1 -0.5t3 2.5q9 4 39 4q7 0 30 2.5t28.5 2t29.5 -2.5q46 -3 88 -28q1 -1 3.5 -2.5t6.5 -4.5t7 -5q0 -3 2 -3q26 -22 51 -77q10 -18 14 -62q0 -18 -10 -45 q-8 -33 -31 -63q-9 -16 -37 -52q-2 -7 -14 -16q-5 -5 -12 -13t-13 -14t-12 -10q-8 -8 -24 -19.5t-23 -17.5q-5 -3 -15.5 -8t-15.5 -8q-2 -2 -6 -2q-20 -4 -65 -23q-15 -7 -43 -10q-8 -1 -25.5 -2t-25.5 -2q-4 0 -12.5 -1t-12.5 -1q-1 0 -82 6q-12 3 -36 6t-36 6 q-17 5 -77 29q-4 2 -14.5 7.5t-14.5 8.5q-22 13 -27 17z" />
<glyph unicode="H" horiz-adv-x="1372" d="M834 1042q0 2 2 2q24 12 45 27q24 9 43 31q6 4 12 10t13 14t12 13q6 9 17.5 23t19.5 26t12 26q5 8 10 22t6 17q6 32 -6 60q-3 17 -16 14h-21q-20 -5 -29 -16q-3 -3 -6 -8.5t-6 -8.5q-20 -17 -29 -43q-8 -14 -21 -41t-18 -36q-14 -32 -22 -66q-3 -6 -7.5 -18.5t-6.5 -18.5 q-6 -17 -4 -29zM588 733q-59 14 -99 12q-42 -3 -57 -30q-17 -20 -14 -60q3 -23 16 -39q9 -12 25 -12q20 0 26 2q11 4 11 -6q0 -7 -9 -10q-2 -2 -8 -2q-24 -4 -41 2q-10 3 -18 14q-10 17 -17 33q-2 2 -2 10v33q0 30 23 53q0 1 31 25q2 0 4 2q58 9 116 -6q3 -1 5.5 -2t5.5 -2 h6q26 62 74 229q-7 0 -9 2q-26 0 -45 8q-7 3 -19.5 7.5t-19.5 7.5q-5 3 -16 9t-16 9q0 2 -2 2q-7 13 -25 35l-12 24q-11 17 -13 35q-7 33 5 80q3 22 12 43q3 14 14 25l35 34q34 27 76 33q12 3 28 0q24 -6 21 -37q-6 -21 -27 -30q-12 -4 -14 -4q-9 9 2 16q16 12 18 20 q0 1 1.5 4.5t1.5 4.5q0 10 -11 10q-20 0 -24 -4q-43 -6 -64 -33q-6 -8 -15.5 -17.5t-12.5 -13.5q-1 -3 -3.5 -5t-3.5 -5q-18 -37 -20 -51v-8q0 -8 1 -27t1 -31v-8q3 -6 10 -24t12 -27q6 -6 9 -6l3 -1q2 -1 3 -5q24 -30 82 -47q4 -1 21 -4t26 -3q3 5 7 17.5t7 17.5 q17 30 17 49q2 10 12 27q6 12 17 36t18 36l20 41q3 4 10.5 11t10.5 11q4 5 15 18.5t17 22.5q46 36 70 45q45 19 66 25q26 3 53 -4l2 -2q19 -23 20 -33q1 -4 3.5 -15.5t2.5 -19.5q6 -30 -22 -80q-6 -12 -14 -23t-17.5 -23.5t-15.5 -20.5q-19 -30 -60 -62q-3 -2 -19.5 -12.5 t-25.5 -18.5q-7 -3 -21.5 -10t-21.5 -10l-6 -12q-8 -21 -24 -84q-4 -12 -4 -17q-16 -37 -17 -45q-2 -6 -5.5 -15.5t-6.5 -15.5q-3 -11 -10.5 -32t-10.5 -33q-1 -3 -8 -31h15h24q16 0 48 -1t48 -1q14 -2 45 -2h103h12q0 2 2 2q0 17 12 49q5 14 15.5 41t13.5 35q3 9 13.5 26.5 t15.5 28.5t37 64q7 9 19.5 28.5t19.5 28.5q52 72 57 78q23 37 33 47q27 27 37 43q4 4 12 12.5t14 14.5t12 10q3 1 6.5 4t6.5 4q26 26 74 37q20 6 45 2q14 -3 20 -14q-7 -14 -16 -23q-8 -9 -24.5 -26.5t-24.5 -26.5q-13 -18 -56 -68q-20 -25 -24 -32q-3 -5 -9.5 -14.5 t-9.5 -14.5v-4q-8 -13 -24.5 -36t-24.5 -36q-17 -21 -33 -59q-4 -6 -16 -35q-3 -4 -12 -14.5t-13 -18.5q-1 -1 -2 -3t-2 -3q-3 -7 -8 -18.5t-8 -18.5q-3 -5 -8.5 -16.5t-8.5 -16.5q-8 -29 -20 -57v-6h8q5 0 16.5 -0.5t21 -0.5t17.5 1q43 6 64 33q14 14 14 37q0 16 -18 16 q-25 -3 -31 -29q0 -8 -2 -10q-3 -9 -8 -4q-6 3 -6 8q10 54 55 51h4q23 -10 23 -34q0 -41 -37 -62q-20 -16 -45 -22q-3 0 -8.5 -1t-8.5 -1h-57q-8 0 -10 -2q-4 -11 -17 -62q-3 -8 -5 -26t-5 -27q-6 -22 -10 -60q0 -5 -6 -55q-3 -15 -5 -46.5t-5 -47.5v-33q1 -12 2 -36t2 -36 t2 -33.5t2 -33.5v-43q1 -12 2 -36.5t2 -37.5q0 -4 4 -8q0 -10 8 -21q3 -8 14 -12q1 0 7 -3t10 -3q30 -8 45 18q5 8 9.5 23t6.5 20q2 11 13 29q3 9 12 6q4 -4 4 -10t-2 -8q-3 -8 -9.5 -23.5t-9.5 -23.5q-4 -11 -24 -39q-1 -1 -3.5 -4.5t-4.5 -5.5q-14 -14 -23 -17 q-30 -11 -43 -6q-4 2 -16.5 5.5t-18.5 8.5q-7 7 -20.5 17.5t-20.5 17.5q-15 15 -26 37q-3 3 -5 9.5t-5 9.5q-17 24 -23 47q-3 15 -10 43.5t-10 44.5q-5 13 -5 55q-1 8 -1 24.5t-1 24.5q-3 3 0 10q2 9 7 62q0 25 6 39v12l1 17q1 18 5 26q1 7 4 23t4 26q3 14 10 40t10 40 q9 20 11 37q4 18 10 33h-27q-18 0 -52 1t-50 1q-12 0 -31.5 1t-27.5 1q-17 1 -52 2t-51 2q-2 -6 -5.5 -15.5t-6.5 -17.5q-2 -6 -13.5 -35t-17.5 -47q-4 -11 -13.5 -30.5t-10.5 -22.5q-7 -19 -13.5 -33.5t-15.5 -40.5q-5 -14 -27 -65q-9 -20 -24 -64q-6 -11 -16.5 -32.5 t-18.5 -34.5q-5 -12 -15.5 -30.5t-15.5 -29.5q-9 -9 -12 -24q-4 -7 -12.5 -17.5t-12.5 -17.5l-6 -12q-5 -8 -20 -32.5t-26.5 -40.5t-25.5 -30q-3 -3 -6 -9.5t-6 -10.5q-10 -7 -30.5 -27.5t-34.5 -28.5q-31 -20 -76 -30q-3 0 -10.5 -1t-10.5 -1q-43 -3 -73 2q-21 3 -33 10 q-21 6 -39 18q-3 1 -31 13q-2 0 -4 2q-54 40 -80 75q-35 67 -39 93q-4 28 -4 34v27q-2 27 11 72q7 11 10 28q14 40 28 58q2 2 17 22q15 26 47 49q14 14 35 23q2 2 5.5 4.5t4.5 3.5q31 23 94 41q23 8 60 4q36 -3 61 -31q25 -44 18 -75q0 -10 -14 -29q-11 -11 -29 -6 q-23 6 -31 25.5t3 39.5q3 9 10 9q6 -3 6 -11q0 -4 -1 -6q-1 -1 -1 -2q-11 -22 14 -37q12 -6 19 4v11q0 35 -14 51q-7 12 -29 16q-36 0 -74 -18q-1 0 -2 -1t-2 -1q-48 -42 -51 -45q-8 -15 -29 -33q-8 -11 -20 -43q-9 -18 -27 -78q-2 -6 -2 -16q-4 -19 0 -78v-6q0 -36 4 -45 q1 -17 19 -72q17 -30 30 -39q4 -5 9.5 -9.5t9 -7t12 -7t10.5 -5.5q11 -7 25 -10q39 -10 82 6q25 10 35 21q25 22 43 49q7 12 21.5 32t21.5 31q3 4 6 11.5t6 11.5q17 32 41 86q8 12 15.5 27t11 23.5t11 31t9.5 27.5q3 7 6 20t6 20q4 20 12 33q4 6 7.5 15t6.5 20t5 16 q3 5 5 16t5 15q12 46 14 70q4 15 12.5 48t15.5 58t15 47q3 6 7 17t6 16z" />
<glyph unicode="I" horiz-adv-x="747" d="M700 1223l2 2h3q4 0 6 2q1 0 25 9t34 15q50 23 61 68q4 12 -4 20q1 4 -4.5 10.5t-11.5 8.5q-28 -6 -45 -29q-15 -30 -37 -55l-12 -19zM674 1141q-5 -13 -31 -113q-1 -8 -4.5 -34t-3.5 -42q-2 -28 -14 -100q-1 -13 -4.5 -31t-4.5 -26q1 -15 -1.5 -39t-2.5 -33 q-2 -2 -2 -12v-27q-3 -12 -5 -34.5t-5 -33.5q-1 -9 -2.5 -23.5t-2.5 -26.5t-1 -23q-1 -3 -2 -8.5t-2 -8.5q-4 -20 -4 -26q-3 -22 0 -45q-1 -2 -2.5 -6t-2.5 -7.5t-2 -7.5q-7 -18 -4 -28q0 -1 -8 -41q-12 -50 -16 -62q-1 -3 -10 -21.5t-13 -29.5q-17 -48 -30 -70 q-12 -16 -19 -32q-17 -30 -22 -35q-7 -7 -13 -15q-5 -7 -32 -34l-5 -5q-18 -11 -20 -16q0 2 -6 -4q-19 -23 -39 -31q-5 -4 -16 -8.5t-15 -7.5q-5 -2 -12 -4t-11.5 -3.5t-7.5 -4.5q-21 -7 -32 -7h-4q-10 -4 -21.5 -5t-25 -0.5t-21.5 -0.5q-54 -3 -90 13l-19 12q-14 10 -43 39 q-6 13 -20 49q-12 46 -6 74q0 29 12 53q14 39 62 45q34 0 45 -6q9 -3 12 -12q11 -7 0 -11h-12q-6 14 -23 11q-14 0 -35 -3q-11 -5 -17 -8.5t-12.5 -11t-9.5 -18.5q-11 -59 -2 -95q5 -24 9 -34q10 -23 26 -39q23 -23 47 -31q1 0 3 -1t3 -1q38 -6 70 4q31 10 70 49 q4 6 16 17.5t16 19.5q14 18 21 20l3 2q4 1 5 5q9 16 27 41q5 12 20 38q22 39 23 41q6 10 20 48q4 11 12 37.5t13 43.5q-4 4 0 7q6 15 11.5 41.5t8.5 37.5q0 15 11 33q1 10 4 27t4 22q3 19 9.5 48.5t8.5 41.5q0 1 1 19.5t5 26.5q4 19 17 79q4 28 4 31q2 44 16 96 q5 23 14.5 66.5t14.5 67.5q2 10 18.5 59t18.5 63l13 34q13 34 13 38h-35q-4 1 -14.5 1t-13.5 1q-28 4 -41 2l-37 8q-14 3 -39 6.5t-39 6.5t-29.5 6.5t-33.5 7.5l-27 6q-3 0 -10 0.5t-13 0.5t-10 -1q-6 3 -10 2l-18 -2l-19 -4q-28 0 -47 -8l-24 -6q0 -2 -7 -2l-24 -11l-13 -8 v2l-18 -16l-14 -8v2q-19 -31 -37 -49v2q-6 -8 -19 -39l-2 -8q-3 -36 15 -62q0 -6 8 -14l8 -13q6 -6 12 -8q11 -11 19 -14q6 0 8 -2q31 -16 82 -12q33 3 65 14l21 14l8 2q1 1 25 16t35 29q0 4 6 7l-2 -3q6 6 12 0q3 -14 -4 -16q-7 -5 -21.5 -18.5t-21.5 -18.5l-35 -22 q-1 0 -12 -4t-17 -4l-24 -9q-37 -9 -90 -6q-2 2 -9 2l-18 8q-1 0 -16 5q-2 2 -7 4.5t-8.5 5t-7.5 6t-6 6.5l-14 10q-4 4 -4 15l-11 12q-10 27 -10 47q-6 30 14 76l29 33l37 34q5 4 39 23q5 3 19.5 9t19.5 9q2 1 12.5 1t15.5 3q4 0 16 2.5t19 2.5h25q20 4 26 4q30 0 70 -9 q13 -3 39.5 -8t40.5 -8q7 -3 21.5 -5t21.5 -5l39 -8q6 1 13.5 1t15.5 -0.5t10 -0.5q2 -1 12.5 -1t15.5 -3q9 1 16.5 0t14.5 -1t10 3q12 -4 15 12q4 12 8 16q0 5 12 17q0 3 6.5 9t6.5 9q6 10 17 21t15 16q29 29 47 35q3 1 15 7t21 9.5t16 3.5q13 4 36 0q3 -2 10.5 -4t12.5 -5 t8 -9v-8q4 -13 2 -15q4 -12 -4 -20l-10 -15l-8 -12q-16 -21 -39 -35q-15 -15 -29 -18l-20 -8q-8 -8 -13 -8l-16 -7q-4 -4 -14 -4q-6 -6 -13 -6q-1 -1 -2 -3t-2 -3q-2 -2 -4 -2q-3 -3 -8.5 -24.5t-5.5 -26.5z" />
<glyph unicode="J" horiz-adv-x="890" d="M850 1286l2 2h2q4 0 6 2q37 21 55 37q45 33 48 76q3 14 -7 20q0 5 -7 10t-13 5q-26 -9 -41 -35q-14 -43 -25 -62l-8 -20zM705 1085q3 16 8 43t8 43v17q2 2 2 8q0 13 2 21q0 3 1 8t1 8q0 6 2 8q-5 0 -18 -2t-17 -2q-20 -4 -28 -4q-13 0 -41 -4h-37h-78q-62 4 -92 4 q-5 0 -33 -4q-3 0 -5 -1t-5 -1l-19 -6l-18 -4q-7 -3 -21.5 -8.5t-21.5 -8.5l-25 -10q0 -2 -4 -6l-22 -15l-13 -8v2l-14 -20l-12 -10v2q-17 -39 -29 -56v2q-8 -14 -12 -41v-8q3 -39 24 -57q0 -3 11 -14l10 -9q5 -5 14 -8q5 -4 21 -10q6 0 8 -2q30 -8 82 4q30 8 61 25l21 16 l6 6q3 2 12.5 10t14.5 12.5t12 13t12 17.5q0 2 4 6v-2q2 7 10 4q10 -13 0 -16q-7 -7 -18 -22.5t-18 -22.5l-29 -27q-22 -13 -29 -16l-20 -12q-34 -15 -90 -19q-2 -2 -9 -2l-18 4q-4 0 -16 4q-13 0 -33 15l-17 10q-6 6 -6 12l-12 11q-15 21 -18 45q-9 31 2 77l20 35l31 43 q16 16 35 27q4 4 10 9t13.5 10t10.5 8q9 1 29 8q6 3 12.5 5t11.5 3t7 2l24 6q24 6 27 8q15 4 70 4q62 -4 82 -4q7 0 21.5 -1t21.5 -1h43q28 4 37 4q20 4 28 4q4 1 15 1.5t17 1.5t9 4q6 2 10 24q0 15 2 17q0 2 1 4t2 5t2 5q0 3 2 8t2 8q7 26 26 53q23 29 60 50q5 3 25 8t26 8 q1 0 5 1t7 1q10 0 12 2q25 8 37 6q29 -6 35 -16q0 -4 1 -6q1 -1 1 -2q4 -12 4 -15q3 -10 0 -20l-8 -17l-6 -14q-24 -32 -33 -41q-7 -12 -24 -22l-19 -13q-3 -4 -7 -7t-5 -3l-12 -8q-5 -4 -15 -8q-6 -6 -12 -6q-1 -3 -3.5 -6.5t-2.5 -4.5q-2 -4 -2 -16v-16q0 -2 -8 -58 q-1 -5 -2 -12.5t-2 -13t-1 -9.5q-5 -16 -8 -59v-14q2 -8 -2 -33q-4 -20 -4 -27q-2 -10 -2 -28q-10 -42 -10 -76q0 -3 -1 -7t-1 -7q-10 -52 -10 -107q-1 -2 -17 -86q-4 -20 -4 -22q0 -5 -4 -17v-22q-6 -19 -10 -60q-2 -2 -2 -14q0 -3 -1 -6t-1 -4l-1 -10q-6 -51 -10 -68 l-10 -76q-3 -16 -7 -43t-7 -43l-12 -59q-1 -9 -5.5 -29t-5.5 -29q-11 -45 -22 -73q-1 -2 -17 -39q-2 -2 -2 -7q0 -2 -2 -4q0 -2 -1 -5.5t-1.5 -5.5t-1.5 -5l-1 -3l1 -1l-12 -21q-5 -19 -8 -22v2q-4 -4 -4 -8l-13 -29q-22 -49 -39 -76l-14 -20q-3 -3 -8.5 -12.5t-7.5 -12.5 q-1 -2 -4 -5t-4.5 -5.5t-2.5 -5.5q-7 -10 -17.5 -21.5t-26.5 -26.5t-19 -18q-15 -12 -35 -32q-4 -2 -14 -15q-7 -7 -15 -13t-19 -12t-17.5 -9t-20.5 -9t-18 -8l-27 -10l-25 -10l-10 -5q-13 -8 -41 -12q-10 -2 -35 -2q-7 0 -18.5 -1t-15.5 -1q-54 -3 -97 4q-26 4 -32 8 l-37 13q-4 0 -6 2q-2 0 -4 2q-13 4 -21 12l-6 6q-3 1 -8 4t-8 4q-17 17 -23 27q-20 34 -23 41v-2q-12 15 -16 45q-6 13 -10 43q-10 51 -2 92q0 25 2 31q0 1 1 4t1 4q2 32 20 76q4 5 23 43l10 18v-2q16 28 25 37l8 8q15 21 43 37q5 3 14.5 9t18 10.5t14.5 7.5l8 4l51 18 q16 4 23 4q3 0 5 1t5 1h33q24 0 47 -20q4 -4 4 -8q0 -1 1 -3t1 -3q8 -19 8 -35q3 -40 -22 -80q-10 -13 -23 -16h-8q-9 12 2 16q31 16 35 63q3 23 -6 45q-9 9 -29 21h-14q-40 0 -49 -4q-42 -11 -54 -17l-16 -6q-30 -12 -61 -39q-41 -41 -50 -57l-26 -53v2l-23 -45 q-7 -26 -10 -70v-37q-3 -46 8 -78q1 -6 4 -14.5t4 -11.5q6 -23 9 -27v2l12 -16l25 -41l16 -12l10 -6q31 -21 80 -31q4 -4 14 -4q12 -4 19 -4q21 -4 74 -4q16 1 25.5 3t16 4.5t7.5 2.5q21 7 45 22q27 19 41 39l14 15l18 20l21 23q11 11 10 16l8 10q12 15 31 49t31 49v-2 q0 5 4 9v-2l45 90q5 9 12 22t12 22t9 15v-2q0 1 3.5 9.5t4.5 13.5q3 7 7 19t7 19l4 9q9 24 13 30q0 3 1 9.5t1 9.5q1 2 2 4.5t1.5 3.5t0.5 2l12 59q3 12 10 47l4 19l19 78l6 24l6 25q0 15 4 47q0 19 4 47q0 7 4 23q9 20 11 37v8q0 23 6 41q2 9 15 61.5t13 71.5q0 11 5 52 l4 42q3 9 6.5 49.5t5.5 46.5q7 34 8 45q3 15 8.5 45t8.5 45z" />
<glyph unicode="K" horiz-adv-x="919" d="M432 793q-8 -42 -20 -82q-7 -24 -21.5 -70.5t-21.5 -69.5q-17 -40 -19 -45q-12 -32 -14 -51q-4 -11 -12 -32.5t-11 -30.5q-4 -15 -6 -17q-1 -2 -1.5 -5.5t-1 -5.5t-1.5 -3q-1 -4 -12 -29q-11 -20 -23.5 -56.5t-15.5 -45.5q0 -2 -2 -4q-32 -62 -37 -70q-4 -7 -9.5 -19.5 t-8.5 -17.5q-3 -6 -11 -14q-14 -25 -24 -37q-32 -37 -49 -47q-8 -3 -13 -8l-18 -13q-2 -2 -8 -2q-9 -3 -25 -10.5t-20 -9.5q-17 -7 -47 -4q-11 0 -13 -2q-11 -2 -33 2q-3 0 -5 1t-5 1q-17 0 -30 10q-18 7 -31 21q-17 14 -25 24q-22 59 -26 78q-3 6 -3.5 12t0.5 14.5t1 12.5 q0 21 4 49q3 39 18 74q6 23 8 26q14 33 29 48q3 3 8.5 12.5t9.5 13.5q9 9 52 25q42 6 59 -33q1 -3 2 -10.5t2 -10.5q0 -8 -4 -12q-7 0 -10 8q-1 3 -2 7.5t-2 7.5q-5 15 -18 24t-29 2q-27 -12 -39 -20q-1 -3 -2.5 -4.5t-3.5 -2t-3 -1.5q-19 -24 -30 -56q-19 -45 -23 -65 q-10 -55 -10 -100q0 -3 4 -23q0 -1 0.5 -1.5t1 -2t0.5 -4.5q7 -31 33 -72q6 -9 16 -12q3 -1 7.5 -3t7.5 -3q12 -9 32 -6q10 1 49 18q1 0 3.5 1t3.5 1q25 25 39 43q1 3 4 6t4 6q7 9 22.5 29t22.5 29l12 16q5 12 13.5 33.5t13.5 32.5q16 22 18 34q4 12 10 21q2 7 10.5 21.5 t12.5 27.5q6 11 24 64q19 48 43 100q3 9 11 36t14 42q3 13 12 34.5t11 28.5q17 47 20 62q2 11 16 75q1 4 4.5 14.5t4.5 14.5q6 16 22 76q4 15 11.5 43t11.5 43q0 1 0.5 1.5t1 2t0.5 4.5l-25 -12q-25 -23 -80 -41q-12 -5 -35.5 -11.5t-35.5 -11.5q-16 -4 -17 -4 q-6 -3 -10.5 -3.5t-9.5 0.5t-8 1q-10 0 -46 4h-4q-7 5 -26.5 16.5t-28.5 20.5q-3 3 -6 7t-6 7q-3 9 -9.5 25t-9.5 25q-8 18 -4 55q0 21 15 55q3 6 7 20t7 19q17 27 29 39q16 16 28 23q3 3 15 6q7 3 17 9t17 9q2 2 7 2q44 3 73 -18q8 -5 11 -15q3 -3 -2 -8q-7 -4 -13 2 q-11 17 -45 21q-21 2 -45 -8q-3 -3 -10 -5.5t-10 -5.5q-5 -3 -13.5 -9t-13.5 -9q-15 -8 -31 -37q-28 -69 -26 -119q0 -1 1 -4t1 -4t1 -4t1 -4q-2 -16 12 -41q18 -34 55 -49q38 -8 84 -2q9 3 35.5 9.5t40.5 12.5q40 13 82 41q4 4 10 6q5 3 13.5 8.5t13.5 8.5q6 0 6 4 q7 21 18.5 64t18.5 63q14 44 39 92q4 9 11 24.5t11 24.5q17 34 49 74q10 10 19 22q1 1 11 9t16 12q3 1 8 4t8 4q25 9 49 -8q12 -9 12 -31q3 -30 -14 -68q-3 -8 -8 -25t-8 -24q-1 0 -4 -6q-29 -48 -39 -59q-14 -23 -42 -61.5l-36 -49.5q-12 -16 -23 -57q-10 -37 -12 -64 q-4 -20 -4 -32q-1 -10 -3.5 -20.5t-6.5 -23.5t-6 -22q-1 -4 -8.5 -26.5t-8.5 -36.5zM514 1147q-3 -7 -5 -21.5t-5 -21.5h2q1 1 3 4t3 4q36 49 59 88q29 38 37 55q18 34 27 82q2 14 2 33q0 11 -10 8q-8 -2 -13 -8q-11 -14 -12 -18q-29 -48 -33 -62q-4 -12 -11.5 -30 t-10.5 -27q-12 -20 -17 -37q-3 -7 -8 -24t-8 -25zM1198 1319q5 0 2 -8q-2 -3 -5 -7t-4.5 -6.5t-2.5 -3.5q-27 -40 -64 -61q-18 -14 -55 -14q-28 4 -35 4q-3 -4 -5 -15t-5 -16q-14 -31 -20 -57q-5 -14 -19 -39t-18 -41q-24 -36 -35 -58q-19 -19 -39 -51q-4 -5 -12 -16.5 t-14.5 -19.5t-14.5 -15q-8 -11 -33.5 -43t-38.5 -51q-33 -44 -78 -86q-20 -18 -56 -42.5t-40 -27.5q-35 -25 -37 -27q-4 0 -10 -6q3 -4 8 -11t8 -11q24 -20 31 -37q16 -26 19 -49q3 -24 2 -29q-1 -1 -0.5 -32.5t0.5 -32.5q0 -37 -2 -60q0 -3 1 -8.5t1 -9.5v-21q-2 -18 2 -47 v-8q2 -4 2 -20v-5v-53q0 -36 4 -45q0 -22 8 -35q0 -4 14 -18q4 -12 9 -17q3 -3 6 -4t6 -4q15 -17 42.5 -11.5t48.5 15.5t34 21q33 35 80 96q13 20 31 49.5t30.5 49.5t22.5 34q15 30 22 37q1 2 17 29q6 4 10.5 -1.5t-0.5 -11.5q0 -1 -7.5 -12t-7.5 -12q-16 -32 -34 -59 q-10 -15 -33 -52.5t-35 -54.5q-66 -93 -102 -123q-10 -8 -30.5 -17.5t-29.5 -15.5q-23 -10 -86 -10q-13 0 -41 12q-22 4 -35 17q-4 8 -14 17.5t-14 15.5q-12 15 -12 32q-2 7 -10 28t-9 34q-1 8 -4 20.5t-4 18.5q-3 13 -8 75q-4 22 -4 97q0 4 1 12.5t1 13.5q0 12 -4 58 q-6 25 -7 26q0 27 -2 41q-4 32 -16 56l-6 6q-3 3 -8.5 6t-8.5 6q-12 9 -22 6q-12 -4 -16 -4q-3 6 4 10q5 2 21.5 12t25.5 13q4 3 21.5 12t25.5 17q6 6 14 10q7 7 24 21t25 22q16 20 31 35q7 9 45 47q3 1 5 4t5 4q5 5 13 15t15 18t13 14q10 12 29 38.5t31 39.5q28 45 45 74 q25 41 39 59q6 10 20.5 30.5t22.5 34.5q26 51 57 87q34 39 37 43q-2 3 -7 7t-9 11.5t-7 21.5q-3 10 4 27q14 33 37 43q12 6 33 0q15 -6 21 -22q4 -12 4 -39q0 -32 -13 -62v-4l2 -2q44 -11 68 4q18 6 47 35q11 11 17 23q3 3 6 8t6 8q6 3 12 0zM1028 1341q3 14 -14 17 q-24 0 -33 -21q-18 -30 4 -59q6 6 11 13t10 15t8 13q8 3 14 22z" />
<glyph unicode="L" horiz-adv-x="983" d="M340 246l-2 2q-24 12 -51 12q-9 0 -27.5 0.5t-29 0.5t-25.5 -2t-27 -7q-10 -3 -30.5 -7.5t-30.5 -6.5q-13 -4 -76 -29q-22 -11 -47 -33q-13 -13 -33 -45l-6 -18q-4 -9 -4 -50q0 -28 8 -47q7 -16 27 -28l18 -6q32 -16 64 -13q30 4 34 6q7 3 20.5 9.5t20.5 9.5q8 4 23 16 q4 3 24 23q4 3 9.5 7t5.5 5q20 28 37 45q29 31 55 82q19 34 39 59q1 3 2 7.5t2 7.5zM641 782q6 3 6 4q32 16 70 45q6 8 19 18t18 15q7 7 20.5 18.5t20.5 18.5q3 3 7.5 7t8 7t7 7.5t5.5 9.5q10 10 29 43q2 2 5.5 4.5t4.5 5.5q7 15 20.5 43.5t20.5 44.5q26 80 27 86q8 38 0 82 q-1 8 -3.5 16t-5 12t-7.5 12.5t-7 12.5q-10 8 -20 11q-21 0 -31 -2q-4 -3 -14.5 -5.5t-16.5 -5.5q-24 -10 -34 -28q-5 -5 -5 -9q-14 -12 -32 -53q-7 -11 -9 -16q-12 -16 -14 -25q-6 -14 -13 -43t-9 -37q-16 -54 -19 -71q-2 -9 -18 -90q-1 -3 -2 -7.5t-2 -7.5q-8 -19 -11 -39 q-5 -40 -10 -57q-5 -23 -6 -27zM455 217q10 -7 33.5 -26.5t37.5 -28.5q29 -23 56 -39q15 -9 30 -21q57 -36 76 -45q62 -25 76 -28q14 -2 37 -2q7 0 20.5 1t20.5 1q27 0 59 18q18 8 29 33q6 19 -2 33q-2 2 -4.5 5.5t-3.5 4.5q0 10 2 12q3 9 12 0q2 0 6 -4q8 -20 12 -41 q0 -4 -2 -6q-7 -27 -26 -41l-8 -6t-7 -5.5t-8.5 -4.5t-8 -3.5t-8.5 -3.5t-8 -2.5t-9.5 -2t-8 -2t-9.5 -1.5l-9 -2q-28 -4 -35 -4h-12q-59 6 -117 37q-17 9 -45.5 27.5t-40.5 25.5q-5 4 -68 47q-3 0 -10 7q-8 8 -24 19t-23 17q-16 12 -21 17q-7 -8 -18 -23.5t-18 -23.5 q-34 -51 -68 -76q-19 -22 -41 -41q-5 -4 -16.5 -12.5t-16.5 -12.5q-4 -4 -20 -16q0 -1 -23 -14q-17 -11 -65 -23q-8 -3 -24 -5t-23 -5q-25 -3 -50 0q-24 0 -38 2q-3 0 -19 4q-32 17 -55 43q-15 15 -15 45q-3 38 3 68q12 45 43 73q17 17 67 45q14 4 39 13.5t39 13.5 q21 3 37 10q44 11 78 8h30q18 0 54 -4q4 0 8 -1l4 -1q12 -4 16 -8q2 6 6 10q3 7 8.5 18.5t8.5 18.5q10 22 14 29q9 22 12 35q3 7 7.5 20.5t7.5 20.5q1 2 8 22q16 70 22 105q3 16 8.5 42t8.5 42v2l8 32t8 31q1 3 2 8.5t2 8.5q-7 -3 -17 -8.5t-13 -6.5q-12 -2 -23 -8 q-8 -3 -41 -8q-31 -8 -65 -8q-49 0 -93 20q-26 6 -47 27q-20 14 -32 35q-2 2 -2 4q-7 7 -27 47q-1 3 -2 8t-2 8q-4 65 4 96q12 63 55 109q6 8 13.5 15t18.5 15.5t15 12.5q62 41 111 33q25 -3 45 -23q13 -22 4 -43q-9 -28 -43 -43q0 -2 -2 -2q-7 -4 -10 4q-4 8 4 13q3 3 8 5 t8 5t7.5 9t7.5 9q7 11 3.5 22t-14.5 19q-14 8 -45 4q-59 -8 -108 -57q-16 -16 -39 -49q-19 -44 -21 -64q-10 -41 -2 -73q0 -1 -0.5 -6.5t0.5 -6.5q0 -8 2 -12q1 -3 1 -7.5t1 -8t4 -7.5v-2q0 -1 3 -4q34 -47 59 -61q16 -13 63 -29q49 -9 97 0q41 5 53 10q24 12 57 23 q6 3 10 14q6 49 7 51q12 71 32 138q3 30 11 53q4 22 10 33q17 57 22 80q4 12 13.5 36t13.5 37l31 68q37 59 82 84q11 6 43 20q10 3 28 6q7 1 20.5 2.5t20.5 2.5q30 3 66 -19q32 -19 47 -47q7 -10 12 -49q9 -56 -10 -117q-27 -66 -29 -74q-31 -60 -39 -73q-29 -56 -77 -95 q-13 -9 -31.5 -26t-28.5 -25q-41 -36 -67 -47q-17 -13 -29 -20q-1 -1 -3 -2t-3 -2q-3 -12 -6.5 -33t-6.5 -33q-1 -5 -2 -15t-2 -14q-4 -17 -11 -50.5t-11 -49.5q-3 -11 -8.5 -31.5t-8.5 -31.5q-8 -19 -10 -31q-3 -7 -4 -19.5t-4 -17.5l-18 -43q-7 -16 -20.5 -43.5 t-20.5 -42.5q-4 -11 -23 -37q-3 -4 -7 -13.5t-7 -13.5q-1 -3 -3 -8t-3 -8z" />
<glyph unicode="M" horiz-adv-x="1669" d="M934 371l10 -9q-26 16 -29 52l-4 14q-8 38 -8 41q-1 7 -3 18.5t-3 18.5v6q-1 6 -4 28t-4 35q-6 25 -10 78v11q-8 41 -11 88q0 6 -1 20.5t-1 28.5q0 4 -1 13t-1 13q-1 7 -6 47l-2 17q-1 7 -4 24t-4 27v16q-4 36 -4 54q0 23 -4 49q0 12 -2 20q-6 44 -9 52q-5 33 -16 65 l-4 8q-14 40 -45 33q-25 -20 -27 -22q-21 -21 -37 -50l-12 -24l-18 -37q-8 -12 -15 -35q-1 -3 -20 -47q-3 -5 -5 -14.5t-5 -12.5t-11 -22q-3 -5 -5 -17.5t-5 -19.5q-3 -10 -6 -29q-12 -50 -20 -75q-6 -24 -9 -29l-2 -6l-2 -8l-2 -7q-5 -19 -6 -28q-2 -5 -6 -23 q-4 -10 -16 -61l-5 -13q-17 -67 -30 -106q-18 -46 -25 -76q-3 -7 -10 -27.5t-14 -41.5l-9 -19q-6 -11 -17 -37t-19 -39q-5 -9 -14.5 -27.5t-14.5 -27.5l-2 -6q-7 -11 -19.5 -31.5t-19.5 -32.5l-4 -6q-35 -45 -39 -49l-12 -14l-31 -31q-22 -19 -43 -31l-14 -8q-5 -3 -16.5 -6 t-16.5 -6l-15 -6q-24 -8 -59 -11h-8q-46 -3 -70 9q-24 10 -33 22q-11 11 -18 31q-8 16 -8 59l6 17q9 21 29 18q22 5 35.5 -3.5t3.5 -27.5q-2 0 -5.5 3t-11.5 6t-22 2q-10 -3 -13 -17q-4 -20 -4 -22q-2 -12 8 -33q18 -28 54 -37q6 -2 24 -2q5 0 25 4q18 6 49 37q3 3 9 10 t9 10q8 11 29 48q6 11 19 39l12 24q10 21 28 51l7 15q10 17 24 49q3 8 9 25.5t8 23.5q1 1 1 4t1 8.5t4 9.5q3 12 6 21q11 42 20 68l19 43q3 10 16 26l4 2q8 11 17 45q3 9 8 27.5t8 26.5q3 5 5 15t5 15q10 30 19 51l6 13l4 14q3 6 5 14.5t4.5 20.5t4.5 20q1 7 4 18.5t4 18.5 l5 15q1 7 4 20.5t4 20.5q3 12 5 32t5 31q1 7 3 19.5t3 19.5q3 15 7 42.5t7 43.5q2 9 5 41q0 7 -1 19.5t-1 19.5q-1 7 -2.5 18.5t-2.5 18.5q-6 28 -24 71l-2 6q-12 22 -43 41l-8 5q-27 10 -45 10q-26 3 -54 -6q-18 -4 -35 -11q-7 -3 -19 -7t-19 -7q-18 -7 -35 -18 q-2 -1 -13 -7t-16 -10l-40 -35q-3 -2 -5 -4q-17 -14 -25 -14q-8 -4 -26 -23q-34 -34 -37 -38q-3 -3 -5 -9.5t-5 -9.5q-23 -38 -37 -70l-6 -16l-13 -43q-9 -26 -12 -53q-2 -6 -2 -31q-4 -28 -4 -33v-26q0 -25 2 -39t10 -37q0 -15 11 -41q13 -26 32 -45q3 -2 14.5 -10 t18.5 -11t18.5 -7t18.5 -7l31 -6q20 -4 51 2q11 0 24 8q30 17 43 47q11 17 13 35q4 20 4 41q0 22 -8 41q-9 21 -29 31q-8 4 -35 4q-17 -4 -31 10q6 6 60 6l8 -2q23 -9 39 -37q11 -26 14 -53q0 -2 1 -12t1 -19l-2 -10v-6q-8 -32 -14 -43l-10 -16q-18 -22 -33 -31 q-28 -22 -96 -14q-21 3 -33 10q-5 2 -17 6.5t-18 7.5q-29 13 -47 31q-14 11 -16 14q-15 15 -25 41q-12 27 -14 55q-4 28 -4 35q0 18 2 49q1 7 2 18.5t2 18.5q5 33 10 49q1 4 2 12.5t2 12.5q1 6 5 16t5 13q3 10 11 28.5t10 24.5l4 10l29 58q2 7 16 24q2 2 7 8t10.5 11.5 t11.5 9.5l10 8q2 1 72 59q3 3 9 7l9 6q5 3 17 9.5t14 8.5l43 25q7 3 51 20q21 8 31 8h45q31 0 45 -2q45 -4 61 -8l17 -8q2 -1 22 -17q5 -4 29 -28q5 -6 10.5 -14t12 -17t9.5 -14q2 -4 19 -43q9 -22 12 -41q4 -32 4 -53q0 -6 1 -31.5t1 -44.5q0 -23 -2 -27h2l11 14q5 8 12 27 t8 21l8 18q9 21 21 45q7 17 14 29q3 3 5 9t5 9q22 39 47 64q2 2 5.5 4.5t8.5 6.5t9 7q15 12 33 19q16 8 47 8q34 0 55 -21l6 -6q10 -13 13.5 -20t-0.5 -7q4 -2 7 -4.5t5.5 -6t4.5 -6t4 -7t3 -6.5t2.5 -8t2 -7.5t2 -9t1.5 -8.5q0 -3 4 -51v-8q1 -11 4.5 -32t4.5 -32 q1 -8 4 -25.5t4 -25.5t3 -23.5t3 -23.5q4 -20 4 -25q4 -32 4 -49v-63q1 -7 2 -18.5t2 -18.5t2 -18.5t2 -18.5q8 -30 11 -66l2 -18q2 -16 2 -49q4 5 13 21q4 7 4.5 7t-1.5 -4q22 50 25 58q1 3 5 10t5 10q3 7 10.5 25.5t11.5 27.5l25 50q3 8 12.5 20.5t12.5 17.5q3 7 8 17.5 t8 17.5q5 16 12 27q4 7 8.5 15.5t10 17.5t8.5 14q7 10 10 20l8 11l2 4l11 22t10 21q3 3 5 9t5 9q27 35 37 39q1 2 20 29l7 8q6 6 21.5 23.5t25.5 27.5q21 21 26 25l19 12l37 25q39 22 75 30q3 0 7.5 1t7.5 1h8q31 0 37 -2q24 -5 47 -28q15 -18 18 -43q2 -8 2 -21 q-1 -6 -2 -17t-2 -16q-6 -36 -18 -71q-3 -7 -7.5 -21.5t-7.5 -21.5q-7 -11 -12 -27q-6 -8 -16 -31q-3 -4 -5 -12.5t-5 -13.5q-1 -4 -4.5 -12.5t-4.5 -12.5q-1 -3 -4 -10t-4 -10q-3 -4 -5 -14t-5 -15q-3 -9 -11 -29.5t-12 -31.5q-3 -8 -9.5 -26.5t-8.5 -23.5q-3 -7 -12 -26.5 l-15 -32.5l-4 -14l-6 -19q-1 -4 -4 -12t-4 -12l-4 -15l-6 -16q-3 -7 -5.5 -19.5t-5.5 -19.5q-3 -8 -7 -25.5t-7 -25.5l-6 -25q-3 -9 -8 -51q-1 -7 -3 -17.5t-3 -17.5t-2.5 -20.5t-2.5 -20.5q-1 -8 -6 -53q-6 -99 -6 -102v-58q0 -20 2 -34q0 -1 4 -21q6 -40 9 -49 q10 -37 36 -80q8 -12 27 -35q10 -10 35 -30q18 -14 22 -15q5 -4 11 -6q20 -17 53 16q6 6 20 29l12 18t10 12t10 4t7 -11l-4 -13q-5 -18 -18 -34q-8 -12 -41 -35q-36 -21 -37 -21q-23 -7 -25 -8q-18 -6 -39 -6q-26 4 -51 12q-7 3 -19.5 7.5t-19.5 7.5q-4 2 -22 12h-2 q-2 1 -11.5 8t-15.5 12q-22 19 -43 49l-8 17q-24 40 -33 74q-6 14 -10 45q-8 41 -8 137q-4 16 -4 41q0 7 1 18.5t1 18.5v30q0 6 0.5 14t1.5 21t2 25q0 2 12 47q1 2 4 9.5t4 12.5q3 7 6.5 19.5t6.5 19.5l2 11q5 18 12 49q4 27 10 41q3 8 8.5 30t10.5 37l4 10l12 37 q3 7 7 18.5t7 18.5q18 48 19 51t8 23q6 16 20 70l13 43q2 4 6 14.5t10 19.5l12 37q13 26 25 53q11 25 18 60q4 20 4 37q-6 24 -30 24q-23 3 -41 -6q-21 -13 -39 -33q-4 -6 -9.5 -11.5t-13.5 -13t-12 -11.5q-13 -13 -31 -29l-9 -13.5t-10.5 -16.5t-8.5 -15q-3 -5 -9.5 -16.5 t-9.5 -16.5q-15 -26 -16 -27l-4 -4q-6 -6 -8 -12q-3 -4 -7.5 -14.5t-7.5 -14.5q-2 -3 -16 -26q-4 -9 -21 -39q-10 -23 -35 -64q-3 -7 -9 -19.5t-9 -19.5l-25 -49q-3 -5 -7 -15t-7 -15q-5 -11 -12.5 -29.5t-9.5 -22.5q-1 -3 -6.5 -10.5t-8.5 -11.5q-8 -13 -18 -37l-4 -6 q-20 -45 -25 -64q-3 -7 -5 -24t-5 -27q0 -1 -1 -9t-5 -13q-1 -5 -12 -29q-17 -43 -27 -53z" />
<glyph unicode="N" horiz-adv-x="1146" d="M854 172q1 4 2 20t3 32t5 30q10 67 23 119q1 12 6 29.5t6 29.5q3 14 8 41t8 41q0 10 7 31.5t8 27.5q6 33 14 66q11 53 31 115q3 9 7 23.5t7 23.5q3 13 11 32t10 25l12 31q24 57 29 65q6 19 28 58l25 47q26 47 35 57l30 43l23 25q34 39 47 47q21 18 41 29l18 8q14 6 35 6 q21 -2 47 -12l19 -13q10 -13 18 -32q3 -4 4 -7.5t1 -9t1 -8.5q1 -17 -9.5 -33.5t-22.5 -23.5q-32 -14 -56 10q-2 0 -2 2q-8 8 -8 24q0 9 8 9q6 0 8 -2q0 -1 1 -2t1 -2h3v-3h2q0 -10 2 -12t8 -2q25 -4 33 10q11 11 8 25q0 20 -8 33l-7 6q-2 0 -2 2q-9 3 -10 4 q-56 24 -104 -12q-7 -7 -23.5 -20.5t-23.5 -20.5l-23 -23q-4 -5 -15.5 -18t-15.5 -21l-24 -35q-14 -25 -19 -36q-7 -12 -17 -36t-17 -36l-17 -33q-17 -54 -33 -84q-12 -37 -16 -51l-18 -55q-2 -7 -8 -19.5t-9 -25.5q-29 -82 -37 -136l-16 -90l-16 -82q-6 -21 -9 -45 q-3 -18 -7 -39.5t-7 -39.5l-10 -74l-15 -94q-8 -55 -30 -109l-13 -29q-9 -12 -22 -12q-1 0 -8 6t-16 13t-13 10l-25 26l-18 19l-31 37q-4 5 -9.5 16t-8.5 14l-51 84l-31 62q-3 11 -7.5 21.5t-11 23t-10.5 20.5q-2 5 -11.5 23.5t-16.5 35t-7 23.5q-3 5 -6 16.5t-6 16.5 q-8 32 -24 68l-15 30l-10 33l-35 90q-32 77 -67 164q-10 31 -21 55q-3 7 -14.5 33.5t-16.5 40.5q-2 0 -2 6q-5 13 -21 41l-20 35q-3 -24 -22 -96l-29 -92l-16 -82l-21 -70q-5 -21 -9 -47t-9 -47q-18 -56 -18 -84q-9 -31 -15.5 -53t-13.5 -45q-4 -16 -15.5 -49.5t-15.5 -51.5 q-3 -11 -14.5 -41.5t-16.5 -48.5q-14 -44 -43 -100q-38 -78 -55 -101q-10 -12 -26.5 -36t-28.5 -37q-6 -9 -45 -39q-32 -21 -70 -25q-28 -2 -45 0q-2 0 -41 17q-16 12 -18 14q-17 14 -27 45q-8 19 -8 55q4 31 12 45q12 21 29 23q4 1 9 2l7.5 1.5t3.5 0.5q23 6 35 -12 q6 -6 6 -13q2 -10 -2 -14q-9 -3 -14 4q0 2 -2 2l-6 8q-8 8 -23 2q-24 -3 -29 -28q-5 -14 -6 -26.5t3 -25t8 -21t12 -24.5l2 -2l2 -2q3 -3 10 -7t10 -7q23 -10 37 -10h31q13 0 41 12q1 1 26.5 17t39.5 32q11 11 28 45q3 7 11.5 17.5t11.5 17.5q21 27 32 59l29 58 q4 10 13.5 32.5t15.5 39.5l20 55q5 14 11.5 32.5t10.5 32.5t9 35l6 27t4 13t6 15t9 25q13 58 20 80q12 31 14 59q6 20 13 52.5t16 58.5q4 13 8 35.5t6 31.5q6 40 11 52q3 13 10 34t10 31q6 17 10 51l19 70q0 2 3 11.5t3 15.5l16 71q7 35 33 93l12 40l4 13q3 13 11 2 q1 0 2 -1t2 -1q9 -11 33 -58q1 -2 20 -29.5t27 -43.5q14 -41 39 -86l24 -64q3 -9 11.5 -24.5t11.5 -24.5q3 -7 8 -22.5t8 -22.5l16 -43l33 -78l45 -104q3 -13 11.5 -36t11.5 -32l22 -55q3 -5 5.5 -16.5t5.5 -16.5q3 -8 9 -24.5t11.5 -30t11.5 -25.5q3 -7 15 -39 q1 -4 7 -14.5t7 -18.5q4 -7 16 -44t25 -50q4 -7 9.5 -18.5t9.5 -18.5t11 -17t15 -19q3 -11 12 -19l25 -24q2 0 2 2q1 3 2 18z" />
<glyph unicode="O" horiz-adv-x="931" d="M840 932q3 8 24 67q3 9 4 29t4 29v35q6 23 -6 69q-9 49 -49 78q-26 20 -61 14q-6 -2 -17 -5t-19 -6t-15 -7q-13 0 -15 -2q-8 -4 -12 -8q-15 -9 -21 -15q-13 -8 -45 -36q-21 -9 -51 -39q-18 -18 -20 -19q-39 -27 -80 -78q-7 -8 -19.5 -25.5t-19.5 -25.5 q-11 -13 -27.5 -38.5t-27.5 -37.5q-9 -22 -23 -41q-22 -55 -33 -73q-6 -11 -8 -23l-16 -37q-2 -2 -2 -14l10 -4q49 -17 74 -19h69q62 9 123 21q3 1 15 4t20 4q12 8 20 10l46 17q25 13 71 49q5 5 19 12q23 23 30 33q4 3 12.5 13t12.5 14l16 22q5 10 4 13.5t-8 7.5 q-8 8 -12 16q-16 13 -37 10q-1 0 -4 -0.5l-9 -1.5l-12 -2q-11 -3 -22 -14q-14 -25 -12 -47q1 -3 -4 -19q-14 0 -17 10q5 36 10 46l5 12q11 14 28 24q12 4 15 7q20 9 43 2q6 -1 11.5 -3.5t11.5 -7t9 -6.5q5 -5 11 -10zM840 891q-26 -26 -31 -35q-2 -2 -6 -10l-12 -15l-52 -43 q-13 -12 -37 -30q-11 -5 -31 -15t-32 -14l-39 -14q-18 -6 -47 -12.5t-37 -8.5q-4 -2 -22 -2q-36 -8 -80 -8q-21 3 -39 0q-35 0 -56 8l-36 13q-12 -15 -15 -29q-2 -6 -7 -22.5t-9 -26.5q-1 -3 -4 -15t-4 -20q-1 -7 -4 -18.5t-4 -18.5q-14 -72 -15 -88q-8 -16 -8 -49 q-4 -12 -4 -56q0 -2 -1.5 -11.5t-0.5 -14.5q7 -41 4 -62q1 -5 2.5 -15t2.5 -18t1 -14q21 -54 23 -73q6 -41 30 -68l23 -27q3 -3 5 -7t5 -5q11 -6 72 -31h4q57 0 80 13q8 5 22.5 12t25.5 13t21 14q3 3 10.5 7t10.5 7q11 11 39 31l26 30l17 23q22 19 37 49q16 20 32 57l5 7 q12 21 34 75q4 15 15.5 47t15.5 48q1 5 5 13t5 13q6 38 21 66q3 8 6 23.5t6 23.5l16 82q1 5 5 23t4 28q4 28 10 53q5 57 0 78q-3 7 -4 20.5t-4 18.5zM141 799q-12 12 -12 18q-10 6 -25 25l-20 20l-4 4q0 1 -21 37q-21 35 -36 82q0 7 -1.5 19.5t-1.5 19.5q0 9 2.5 26t2.5 25 q0 17 16 49q3 3 6 10.5t6 10.5q3 6 19 22q12 18 30 35q4 2 9.5 5.5t9 5.5t6.5 4q4 2 18.5 7.5t20.5 8.5q5 1 11.5 2t10 1.5t5.5 0.5q12 3 28 0q13 0 15 -2q14 -5 36 -27q1 -2 4 -6.5t3 -7.5q6 -41 -9 -68q-3 -7 -12.5 -17.5t-13.5 -16.5q-21 -24 -54 -31q-14 -2 -32 -2 q-11 0 -11 8t11 8q28 0 37 4q20 6 38 27q17 13 25 33q10 37 2 55v2q-27 27 -45 27h-4q-29 8 -76 -21q-23 -14 -35 -26q-7 -6 -22 -25q-17 -17 -23 -43q-12 -9 -12 -29q0 -5 -2.5 -26t-2 -26t2.5 -26l4 -28q3 -8 10.5 -22.5t10.5 -22.5t12 -21t12 -18q2 -3 6.5 -11.5 t9.5 -13.5q18 -18 33 -39q3 -3 8.5 -5t8.5 -5l8 19q15 42 57 102q6 10 14 21t18.5 24.5t16.5 22.5q3 2 25 34q11 14 57 60q1 1 14 10.5t19 15.5l6 6q11 19 31 29q31 24 65 45q10 8 23 15.5t33 17t26 12.5q21 13 43 17q3 0 6.5 1t6.5 1q21 9 47 12q1 0 43 6q47 3 73 -10 q5 -3 15.5 -7t15.5 -7q37 -20 43 -45q17 -30 21 -39q0 -3 6 -45q1 -8 0 -25t0 -25q0 -38 -4 -49q-2 -8 -2 -26q0 -11 -2 -13q-3 -6 -8.5 -23t-11 -29t-13.5 -23q-4 -4 2 -9q6 -10 8.5 -21t4 -24.5t3.5 -21.5q3 -34 0 -68q-7 -26 -10 -63q-1 -7 -5 -21.5t-5 -21.5l-19 -86 q-9 -26 -12 -52q-4 -13 -11 -34.5t-9 -28.5q-5 -8 -10.5 -26.5t-6.5 -22.5q-13 -34 -22 -70l-15 -35l-22 -45q-14 -32 -27 -45l-20 -35q-4 -8 -15.5 -20t-15.5 -18q0 -1 -1 -2.5t-1 -2.5q-4 -9 -29 -34q-15 -6 -18 -15q-3 -3 -31 -26q-30 -22 -31 -23l-47 -31l-18 -6 q-2 -2 -21 -8l-22 -8q-42 -6 -43 -6h-12q-16 -3 -39 4q-7 4 -35 8q-13 0 -25 6q-37 19 -49 27q-13 8 -35 27t-28 24l-6 8l-23 45q-3 3 -8 13q-12 38 -33 75q2 1 -2 19q-6 17 -10 51q-8 27 -8 80q-3 27 -3 55q-3 23 3 35v25q-2 30 8 73q6 17 10 64q4 10 8 29t6 26 q16 22 19 41q3 6 6 18t6 17q3 7 6 19.5t6 19.5z" />
<glyph unicode="P" horiz-adv-x="833" d="M401 1278q-21 3 -59 -4q-46 -12 -63 -27q-22 -13 -29 -16l-4 -4q-19 -24 -31 -29q-7 -7 -17.5 -19.5t-17.5 -19.5q-3 -5 -10 -15.5t-10 -15.5q-19 -33 -21 -38q-1 -3 -5 -9.5t-5 -9.5q-14 -26 -8 -63q1 -5 4 -12t4 -9q10 -16 29 -10q23 8 41 33q0 2 2 4q2 7 10 4 q5 -3 2 -12l-6 -13q-9 -15 -17 -18q-14 -17 -36 -23q-48 -9 -84 27q-6 6 -9.5 12.5t-7 16t-4.5 12.5q-1 11 -6 33v12q4 41 12 65q12 28 37 60q3 4 10.5 10t10.5 10q21 21 73 50q36 18 88 28q2 2 7 2q21 8 53 8h20q8 0 26 1t26 1q56 0 92 -8q17 -3 22 -6q8 -3 24 -6t23 -6 q33 -6 54 -21q7 -4 20.5 -9t20.5 -9q29 -13 51 -35l10 -10q26 -16 35 -37l2 -2q19 -16 31 -53q3 -7 6 -17.5t6 -17.5v-2q11 -24 14 -64q0 -7 1 -21.5t1 -21.5v-8q-2 -14 -2 -45q0 -4 -1 -10.5t-1 -9.5q-3 -18 -6 -35q-9 -54 -29 -98q-19 -33 -22 -37q-8 -19 -41 -52 q-23 -18 -60 -34q-3 -2 -15.5 -9.5t-20.5 -11.5q-23 -10 -46 -10q-5 0 -14.5 -2.5t-15.5 -3.5q-67 -16 -123 -6q-8 3 -23 6t-22 6q-12 3 -21 12l-6 8t-4 4q-6 13 0 29q1 1 3.5 4.5t4.5 5.5q9 0 11 -2q5 -2 2 -10h-2q-11 -19 6 -31t37 -16q37 -6 57 -4q45 0 63 18 q18 15 23 17q8 7 15 16.5t15 21t13 17.5q16 18 27 41q3 5 4 14.5t4 14.5q13 31 16 39q7 17 10 36q0 5 1 14t1 13v4q0 12 4.5 29t4.5 29v8q4 15 4 67q0 5 1 14t1 13q4 30 2 45q0 43 -4 55q-5 35 -29 74q-8 13 -27 29q-20 12 -28 20q-8 6 -43 19q-35 12 -62 14q-4 2 -16 2 q-1 2 -32 1t-32 -1zM-6 4h-17q-26 0 -36 2q-9 3 -26 5t-26 5q-21 8 -49 39q-22 34 -12 76q3 13 6 16q5 14 21 25.5t32 7.5h2q1 0 2.5 -1t2.5 -1q6 0 6 -6t-6 -6h-5q-25 3 -39 -21q-12 -14 -8 -39q0 -14 2 -18l4 -12q11 -27 31 -35q9 -9 29 -12q48 -12 65 -11q5 0 16 1t19 1 q3 3 4 3q29 17 35 30q28 51 33 70q8 20 12 41q16 57 27 104q5 15 10 45q3 14 7 40.5t7 39.5q3 27 13 53q2 2 2 13q4 18 6 35q3 10 6 28.5t6 28.5v16q1 5 2 14t2 13q3 11 9.5 30t9.5 31t18 101q22 107 23 114l24 129q3 8 4 26t4 26q0 4 1 11t1 11q3 13 8.5 37t8.5 37 q4 16 4 20q4 4 8 4h8q22 -5 70 -22q12 -4 20 -6q9 -3 9 -10q-4 -20 -4 -21q-3 -6 -3 -18q0 -5 -2 -7q0 -3 -6 -51q-3 -11 -7 -32t-7 -33t-5 -33.5t-5 -32.5q0 -3 -1 -9.5t-1 -10.5q-3 -13 -6.5 -39t-6.5 -39q-3 -9 -6 -25.5t-6 -25.5q-1 -7 -3 -20.5t-3 -20.5q-2 -18 -6 -35 q0 -1 -1 -3t-1 -3q-3 -13 -7.5 -38.5t-7.5 -37.5q-1 -7 -3 -19.5t-3 -19.5q0 -8 -2 -10q-3 -12 -5 -36.5t-5 -35.5q-1 -7 -3 -16.5t-3 -16.5q-3 -26 -12 -49q-1 -6 -7 -30v-11v-6q-6 -12 -30 -86q-7 -25 -17 -53q-3 -17 -12 -31q-3 -4 -6 -16q-3 -8 -10.5 -18t-10.5 -15 q-13 -22 -32 -47q-18 -25 -35 -35q-29 -26 -72 -39q-6 -2 -24 -2q-6 -2 -29 -2z" />
<glyph unicode="Q" horiz-adv-x="1003" d="M729 1268q-7 -1 -19.5 -2t-19.5 -2q-18 0 -24 -2q-23 -8 -62 -25q-29 -14 -49 -27q-3 -3 -9 -6t-9 -6q-5 -4 -19.5 -15.5t-23.5 -17.5q-7 -7 -18.5 -19.5t-18.5 -19.5q-15 -21 -35 -41q-5 -10 -19 -24l-36 -49q-7 -8 -16.5 -25.5t-16.5 -25.5q-2 -2 -4.5 -6t-3.5 -5 q-11 -15 -13 -20q-9 -13 -28 -56q-25 -44 -35 -79q-7 -21 -19 -66q-1 -2 -1.5 -8.5t-2 -11.5t-4.5 -9q-2 -2 -2 -8q-5 -13 -9.5 -38t-6.5 -33q-6 -28 -10 -76q-1 -9 -2.5 -28t-2.5 -28q-2 -19 3 -71q0 -5 1 -13.5t1 -13.5q1 -11 6 -33q5 -54 8 -67q3 -8 8 -26t8 -27t8.5 -27 t8.5 -27q4 -12 8 -20q12 -22 33 -51q27 -41 69 -64q42 -20 84 -14q2 0 4 2q-1 2 -2 4.5t-1.5 3.5t-0.5 2q-4 5 -8 23q-4 15 -11 42.5t-11 43.5q-3 19 8 30q1 -1 6 -16q2 -8 6.5 -27.5t7.5 -29.5q16 -56 23 -76q32 4 49 10q14 6 29 15t24.5 15t28 19.5t24.5 18.5q26 21 47 47 q4 6 12.5 13t10.5 9q30 30 35 37q3 3 5 6t5 6q13 17 25 37q11 13 20 35q3 4 7 11.5t7 11.5t8.5 10t8.5 10q8 18 25 48t22 40q5 12 14.5 34.5t14.5 33.5q6 15 11 32t10.5 39t8.5 33q19 65 23 82q3 7 4 15t1 17.5t1 14.5q9 69 6 129q0 47 -8 88q-9 63 -37 121q-24 49 -53 86 q-31 38 -82 56q-3 1 -8 2t-8 2q-42 0 -74 -13q-37 -9 -37 -51v-24q3 -29 31 -29q7 0 10 6q0 8 10 8q8 0 8 -12q0 -18 -20 -21q-40 -10 -53 27q-16 49 10 88q17 21 29 23q52 21 98 12q31 -3 59 -27q31 -23 72 -82q27 -44 35 -63q3 -11 11 -37.5t11 -40.5q6 -23 10 -72 q5 -26 5 -92q0 -41 -9 -88v-12q0 -16 -14 -74q-5 -15 -13.5 -44.5t-13.5 -45.5q-4 -15 -22 -68q-20 -58 -64 -127q-3 -4 -7 -14t-7 -14q-3 -6 -18 -27.5t-21 -34.5l-2 -2q-6 -8 -22 -31t-28.5 -38t-27.5 -27q-7 -7 -19.5 -21.5t-19.5 -21.5q-19 -19 -43 -37q-7 -6 -24 -17.5 t-25 -19.5q-47 -31 -98 -39q1 -1 4 -10q31 -51 39 -59q43 -53 88 -72q24 -15 55 -12q3 1 7.5 1t7.5 1q29 3 32 35v18q-1 16 -13.5 23.5t-25.5 7.5q-4 0 -8 -4q-2 0 -6 -4q-6 0 -10 4q-1 1 2 10q3 1 6 4t6 4q19 6 37.5 -1.5t24.5 -24.5q12 -35 -2 -64q-2 -6 -7 -10t-8 -6 t-11.5 -5t-10.5 -4q-40 -6 -72 5q-2 1 -39 22q-58 38 -86 86q-5 9 -15.5 26.5t-15.5 26.5h-24q-5 0 -15.5 1t-15.5 1h-24q-27 -3 -46 2h-6q-25 -2 -59 13q-37 12 -64 33q-25 18 -30 26l-21 21q-13 8 -26 24q-26 34 -33 60q0 8 -6 14q-3 4 -5.5 12.5t-5.5 12.5q0 2 -4 6 q-15 18 -18 41t-10 34q-1 3 -3 6l-1 5q-5 34 -7 39q-3 12 -5 32.5t-5 32.5q0 3 -3.5 39.5t-2.5 54.5q0 8 -1 26t-1 30q-2 37 8 84q13 49 15 55v8q0 3 1 8t1 8q4 6 8 25q0 2 18 49q22 50 25 58q1 1 16 26q5 11 23 43q0 2 2 4q7 9 18.5 27t18.5 27q4 8 14 19.5t14 16.5 q21 21 31 35q21 27 47 53q54 57 105 82q17 13 57 31l18 12q53 24 90 31q8 1 27.5 5t32.5 5q64 10 108 -8q12 -4 21 -10q3 -1 4.5 -2.5t2 -3t1.5 -2.5z" />
<glyph unicode="R" horiz-adv-x="1128" d="M57 -8q-18 -2 -57 8q-6 1 -12 4t-14.5 8.5t-12.5 7.5l-6 7q-7 5 -18 20q-9 15 -13 27q-4 16 -4 20q-3 33 2 51q2 13 23 43q18 18 22 19q10 4 41 0q9 -3 6 -10q-4 -7 -10 -7q-6 3 -16 3q-16 3 -29 -13q-17 -29 -20 -35q-5 -5 -5 -24q0 -12 3 -33q0 -7 12 -27q9 -21 28 -26 q7 -3 11 -6q10 -6 32 -6q24 -2 64 12q29 13 55 39q7 5 51 55q1 1 3.5 4t3.5 4q17 39 26 51q4 4 4 9q5 11 31 98q19 75 23 94q0 8 4 12q6 14 12.5 38.5t9.5 33.5q10 37 17 59q3 7 5 19.5t5 17.5q1 9 4 23t4 20q7 23 20.5 71.5t20.5 72.5q4 17 11.5 49.5t11.5 48.5q1 4 24 94 q3 18 10 44t9 36q1 3 2 6.5t1.5 5t0.5 2.5q9 20 12 37q5 19 16 33q0 4 6 4q24 6 27 6q53 5 66 8q14 3 20 0q21 0 21 -20t-9 -31q-5 -8 -8 -22q0 -1 -1 -4t-1 -4q-8 -20 -24 -68q-5 -15 -21 -61q-16 -36 -16 -37q-2 -3 -4 -9q-1 -14 -21 -71q-3 -8 -7 -25.5t-7 -25.5 q-13 -39 -21 -52q-1 -3 -3 -8t-3 -8q-7 -32 -37 -117q0 -1 -22 -69q-3 -4 -5 -15.5t-5 -17.5q-3 -9 -7.5 -26t-7.5 -25q-3 -7 -7 -23.5t-7 -23.5q-3 -8 -6 -23t-6 -22q-3 -4 -4.5 -10t-4.5 -9q-3 -7 -7 -22.5t-7 -22.5q-2 0 -2 -2q-7 -34 -29 -72q-7 -16 -26 -43 q-6 -14 -41 -49q-5 -8 -17 -17.5t-14 -11.5q-5 -6 -14.5 -13.5t-12.5 -10.5q-1 -1 -4.5 -3.5t-5.5 -4.5q-15 -12 -24 -15q-3 -3 -11 -4t-12 -4q-8 -3 -24.5 -7t-24.5 -7q-6 -2 -23 -2zM694 649q-26 15 -45 23t-33 6q-21 -4 -26 -8q-10 -8 -8.5 -17t12.5 -14q3 -1 8 -2t8 -2 q22 -2 82 10q0 2 2 4zM788 657q10 -5 18.5 -10.5t19.5 -15t16 -13.5q36 -33 57 -92q6 -14 10 -43q0 -13 4 -45q4 -55 -4 -94q-2 -6 -2 -29q-3 -13 -7 -39t-7 -40q-3 -9 -5 -28t-5 -30l-6 -37q-7 -36 -7 -90q0 -27 13 -43q5 -13 16 -24q18 -18 43 -9q9 4 29.5 12.5t29.5 12.5 q13 6 13 -6q0 -4 -4 -8q-22 -8 -49 -25q-17 -10 -43 -10h-21q-24 0 -53 16q-18 12 -31 25q-16 16 -25 31q-19 43 -20 59q0 7 -3 36.5t-3 47.5v49q0 129 2 195q0 21 -4 67q-2 6 -2 21q0 36 -4 47q-3 13 -6 16q-3 7 -9.5 20.5t-9.5 20.5q-14 22 -16 25q-24 3 -45 -6h-9h-55 q-10 3 -29 6q-12 3 -12 28q3 29 31 35q8 4 22 5t15 1q10 1 19 0t18.5 -3t15.5 -3q17 0 23 -2q7 -3 16 -6t16 -6q10 -3 15 2q31 24 43 41q16 16 24 26q2 3 29 46q3 4 6 11t6 11q24 27 31 55l6 13q18 26 21 55q3 5 5 14.5t5 14.5q14 40 14 69q3 43 -6 88l-6 19q-2 6 -7 21.5 t-7 21.5q-6 22 -25 41q-25 24 -47 37q-7 3 -20.5 8t-20.5 8q-3 1 -15 4t-20 4q-13 5 -37 2q-8 -2 -33 -2q-44 -6 -51 -8q-11 -3 -34 -7t-35 -7q-3 0 -15 -4q-25 -14 -45 -17q-4 0 -8 -4q-3 -3 -9 -5t-9 -5l-56 -31q-53 -31 -76 -63q-32 -32 -38 -37q-1 -3 -4.5 -6.5 t-4.5 -6.5q-11 -19 -28 -43q-6 -6 -14.5 -18.5t-10.5 -15.5q-19 -33 -37 -88q-8 -19 -4 -50q3 -37 43 -47q12 -4 24.5 6t14.5 23q0 12 -8 20q-3 7 -12 7h-13q-6 3 -6 6q0 8 6 8q22 5 35 -8q4 -4 4 -6q16 -26 10 -50q0 -4 -1 -9.5t-1 -8.5q-10 -29 -32 -43q-15 -12 -31 -12 q-44 -4 -72 16q-50 43 -65 78q-6 48 -6 49q-3 59 26 121q10 23 37 53q7 7 21.5 23.5t21.5 23.5q18 18 39 33q9 7 26.5 17.5t26.5 17.5q46 25 56 29q58 26 104 43q9 3 78 18q24 3 39 10q27 7 61 10q55 4 76 9q20 4 31 4q57 3 92 -2q45 -5 57 -9q29 -3 51 -16q38 -19 50 -27 q7 -7 21.5 -19t21.5 -19q19 -19 34 -62q11 -21 15 -61q0 -23 2 -37q0 -16 -6 -31q-5 -12 -9 -47q-1 -3 -2 -11t-2 -12q-8 -30 -26 -59q-3 -5 -6.5 -15.5t-6.5 -15.5q-6 -10 -18 -26q-6 -7 -10 -17q-3 -4 -13 -14t-14 -18q-7 -7 -20.5 -17.5t-20.5 -17.5q-28 -20 -43 -35 q-7 -4 -17.5 -11.5t-17.5 -11.5q-25 -15 -71 -41q-1 0 -3.5 -1t-3.5 -1z" />
<glyph unicode="S" horiz-adv-x="798" d="M723 1169q0 -8 2 -10q48 18 51 19l53 18q7 0 11 -4q0 -7 -6 -10l-7 -4q-13 -3 -34.5 -12t-28.5 -11l-33 -12l-7 -4h1l-35 -76q-12 -25 -39 -25h-2h-20q-10 0 -16.5 9t-6.5 18q0 11 9.5 25t19.5 18l51 31l10 4q4 12 4 14q0 39 -24 74l-17 14q-17 14 -51 23l-51 6 q-8 0 -26.5 -3t-30.5 -3h-2q-16 -7 -34.5 -12.5t-27.5 -10.5l-12 -6q-4 -3 -9.5 -5t-8.5 -5l-37 -27l-3 -4q-4 -3 -7 -6t-8 -8.5t-9.5 -11t-9.5 -14t-9.5 -17t-8.5 -19.5t-7 -22t-4.5 -25t-1.5 -28q0 -7 2 -17.5t2 -17.5v-6q6 -31 25 -91l24 -49l27 -26q9 -9 18 -21l21 -22 q19 -22 67.5 -65.5t73.5 -72.5q6 -6 16 -16.5t13 -14.5t11.5 -18t19 -35l28.5 -57q6 -12 8.5 -22.5t4 -25.5t4.5 -28v-20q4 -17 4 -64q0 -8 -4 -36v-17q0 -40 -23 -78l-2 -2q0 -13 -8 -24l-6 -11q-24 -42 -33 -51l-29 -33l-10 -10l-27 -24q-3 -3 -10 -8.5t-10 -8.5l-25 -16 q-28 -28 -112 -43h-6q-39 -4 -54 -10h-37q-28 0 -73 10l-37 10q-21 0 -88 41l-25 23q-23 23 -33 39q0 1 -9 20.5t-18 47t-9 50.5q0 117 65 195v2l12 14q28 28 73 51t85 23h12h9q51 -7 67.5 -34t16.5 -72q0 -60 -33 -93l-10 -8q-31 -31 -70 -31q-24 0 -39.5 19.5t-15.5 42.5 v6q0 8 10 8h4q6 0 6 -6v-2q0 -16 9.5 -32.5t29.5 -16.5q9 0 26.5 5.5t26.5 14.5l6 6q10 10 20.5 33t10.5 49q0 97 -90 97q-63 -10 -115 -52l-14 -10q-31 -27 -56.5 -83.5t-25.5 -119.5q0 -54 16 -83l15 -25q4 -13 23 -33t36 -31l29 -16q87 -41 155 -41q41 0 95 14l30 15 q7 3 28.5 15.5t25.5 12.5l34 37q43 46 52 101l12 77v11q0 48 -8 75l-6 27q-4 33 -11 51l-6 17q-3 4 -8.5 15l-7.5 15l-31 48q-3 4 -10 18l-31 41l-24 24l-25 27q-5 9 -19 21t-20 14l-22 27q-15 15 -25 30l-14 19q-53 64 -66 92l-29 57q-2 2 -2 10l-10 41q-2 6 -2 29 q0 21 2 27v39q0 20 10 43l23 51q0 6 8 14l12 15q2 2 17 22l4 4l8 8q0 2 2 2l14 13l17 14q11 9 55 29l74 24q20 10 84 10h37h20q160 -29 160 -131zM635 1055q2 0 4 -2q14 0 23 6l14 16l20 49l-59 -34q-8 -8 -8 -25q0 -10 6 -10z" />
<glyph unicode="T" horiz-adv-x="888" d="M575 1165q-4 1 -11 3t-11 3q-8 0 -24 3.5t-19 3.5l-31 6q-29 6 -84 2q-68 -5 -80 -6q-44 -3 -86 -23q-7 -3 -17 -9t-17 -9q-11 -4 -21 -11q-5 -3 -15.5 -10t-15.5 -10q-1 -1 -4 -2t-4 -2q-7 -7 -20.5 -21.5t-20.5 -21.5q-21 -35 -33 -72q-12 -32 -12 -49q-3 -26 8 -51 q13 -26 39 -35q9 -4 31 -4q40 0 59 12q34 21 47 58q4 25 -12 34q-12 5 -28 2q-17 -10 -17 -16l-4 -8q-5 -5 -10 -2q-8 3 -4 10q12 41 57 35q19 -3 31 -31q6 -20 -4 -43q-6 -18 -35 -47q-14 -9 -31 -12q-21 -6 -49 -6q-32 -3 -66 18q-17 12 -36 31q-22 25 -33 57q-3 6 -8 43 q-4 9 -4 39q0 46 14 78q6 8 14 24q4 7 12.5 20.5t12.5 20.5q13 13 16 19q20 20 41 35q19 12 29 14q30 17 43 22q5 3 13.5 5.5t12.5 5.5q4 1 33 7.5t47 10.5q43 6 86 6q5 0 14.5 -1t14.5 -1q19 0 33 -2h4q63 -10 108 -20q48 -16 70 -23q8 -3 23.5 -7t23.5 -7q39 -13 55 -19 q4 -1 12 -2t11 -2q16 -6 51 -6q48 -6 53 -6q8 -1 21 -3t24 -3t21 0q3 1 6.5 1t7.5 -0.5t6 -0.5q65 0 117 27q37 19 66 45q25 20 32 32q21 44 -4 82q-11 14 -28 17q-44 3 -80 -19q-12 -8 -15.5 -22.5t3.5 -28.5q3 -8 12 -14q8 -5 18 -2q4 9 8 -2q3 -6 0 -9q0 -4 -6 -4 q-10 -3 -20 0q-28 9 -35 39q-2 35 27 58q27 18 71 18q24 0 37 -8q2 -1 9.5 -5.5t11.5 -9.5q15 -24 18 -49q0 -29 -14 -51q-4 -8 -10.5 -16t-11 -13t-14.5 -13.5t-13 -10.5t-16.5 -12t-14.5 -11q-9 -5 -26.5 -16t-26.5 -16q-77 -23 -78 -23q-69 -6 -72 -6q-11 0 -32.5 -2 t-34.5 -2q-9 1 -25.5 1t-29.5 1t-25 4q-9 3 -9 -2q-9 -16 -20 -45q0 -1 -4 -17q-16 -47 -21 -65q-1 -2 -4 -12.5t-4 -16.5q-4 -13 -21 -65.5t-26 -79.5q-5 -16 -11 -44t-7 -34q-2 -8 -11 -38t-12 -48q0 -14 -2 -18q-1 -7 -4 -23t-4 -23q-2 -17 -14 -49l-19 -86 q-3 -9 -4 -25.5t-4 -25.5q-4 -28 -10 -53q-1 -7 -15 -82q-3 -11 -7 -29.5t-7 -29.5q-3 -9 -5 -28t-5 -28q-2 -8 -6 -20l-6 -25q-1 -5 -2.5 -15.5t-2.5 -15.5q-2 -14 -2 -38q-4 -46 -4 -58q0 -8 4 -28q6 -20 27 -17q8 3 16 8q11 11 23 31q7 12 20.5 32t20.5 32q5 5 10 2 q2 -2 2 -11q0 -6 -2 -8q-5 -6 -37 -59q-18 -26 -37 -39q-6 -3 -11 -3.5t-12 0.5t-11 1q-21 0 -41 10q-20 16 -33 29q-8 8 -10 14q-7 8 -9 12q-8 14 -16 33q-2 3 -8 27q0 2 -4 30q-9 34 0 70q3 13 6 37.5t6 36.5q1 6 4 21t4 24q5 34 8 41q0 8 7 22q8 19 8 50q1 16 14 65 q4 28 4 31v8l9 39t8 33q1 4 4 13t4 17q2 2 2 9q3 25 12 49q1 6 5.5 18.5t4.5 20.5q0 6 2 8q2 7 12 33.5t13 40.5v2l9 36t9 35q1 10 13 37v8q3 13 12 38t12 38q0 3 2 7t2 7q3 7 6.5 20.5t6.5 20.5q3 10 12 36t12 40q3 8 6 23.5t6 23.5z" />
<glyph unicode="U" horiz-adv-x="942" d="M590 207q-8 -9 -33 -49q-7 -8 -19.5 -27t-19.5 -27q-7 -7 -19 -20t-21 -21.5t-19 -15.5q-7 -7 -17 -10q-5 -2 -28.5 -13t-36.5 -16q-4 -3 -7.5 -4t-8 -1t-7.5 -1q-14 -2 -39 -2q-22 -2 -59 4q-17 7 -37 10q-31 10 -51 33q-32 23 -39 33q-51 51 -66 123q-7 20 -10 57 q-4 32 -4 49v43q-3 32 6 66q4 28 4 43q0 5 3 16t4 17q2 6 18 67q3 7 7 19.5t7 19.5q1 3 3 10.5t3 10.5q0 7 13 57q3 12 11 36t11 38q3 7 6.5 20.5t6.5 20.5q3 9 8 26.5t8 26.5q4 16 4 24l4 13q0 2 2 4q8 19 15 53q3 9 7 28.5t7 28.5q15 62 18 78q3 17 6 49q5 15 5 60 q0 36 -5 49q0 14 -6 29q-3 17 -12 34q-12 35 -55 41q-65 11 -125 -37q-43 -30 -37 -83q1 -7 3 -16.5t3 -16.5q6 -18 21 -27q16 -9 30 2q9 6 15 0q3 -9 -2 -14q-6 -6 -13 -6q-35 -15 -59 20q-6 9 -10 27q-10 39 -4 63q7 45 38 64q63 51 142 45q39 -5 55 -12q19 -7 39 -23 q37 -32 47 -49q30 -47 39 -82q6 -24 6 -47v-33q4 -62 4 -86q-2 -53 -20 -125q-1 -3 -6 -37q-19 -72 -19 -73q-13 -62 -37 -142q-4 -14 -18 -57q-14 -39 -33 -113q-16 -66 -16 -100q0 -4 -2 -6q-4 -11 -4 -51q0 -16 -1 -45t-1 -44q0 -40 12 -81q4 -32 12 -52q7 -23 27 -51 q3 -2 12 -7.5t12 -8.5q20 -13 37 -13q27 -3 55 0q1 0 3.5 1t6.5 2t7 2q12 4 29 12.5t26 11.5q3 1 6 4t6 4q44 31 88 99q8 12 25 35t25 34q7 7 4 17q-6 24 -6 49q0 7 0.5 22t0.5 27.5t-1 24.5q0 17 4 49q6 27 6 57q0 15 5.5 41.5t6.5 36.5q1 7 3 17.5t3 17.5q11 43 13 63 q2 26 18 76q1 5 2 15.5t2 15.5q5 15 10 45q3 23 11 41q2 8 11 44.5t13 57.5q1 4 9.5 33.5t13.5 44.5q3 8 8 43q3 7 9 20.5t9 20.5q3 3 6 12q2 14 17 33q6 9 22 12q16 5 43 2q2 -2 11 -2q26 3 47 -6q12 -5 16 -16q7 -23 -8 -47q-7 -20 -27 -66q-9 -21 -22 -59q-4 -3 -4 -10 v-9q-3 -7 -9.5 -20.5t-9.5 -20.5l-8 -32t-8 -31q-4 -15 -6 -17q-22 -68 -25 -84q-3 -17 -10 -28q-1 -2 -25 -84q-3 -12 -7 -36t-7 -36q-3 -11 -8 -57q0 -4 -1 -5q-1 0 -1 -1q0 -22 -5 -57.5t-6 -49.5q0 -1 -3 -32.5t-3 -47.5q-1 -19 0.5 -52.5t1.5 -43.5q0 -28 11 -74 q3 -12 6 -32.5t6 -32.5q2 -17 18 -49q2 -3 6 -9.5t7 -9.5q14 -14 32 -10q16 2 41 20q4 6 11.5 17t9.5 14q1 1 3 4t3 4h8q6 0 6 -8q0 -2 -2 -4q-12 -23 -33 -43q-29 -26 -75 -20q-1 0 -2 1t-2 1q-2 0 -5 -1t-5 -0.5t-5 3.5q-33 14 -43 24q-14 21 -30 37q-7 10 -14 21.5 t-14.5 25t-12.5 21.5q-3 7 -6.5 19.5t-6.5 19.5q-1 3 -3 8t-3 8q-3 4 -5 13t-5 14q0 6 -4 10v2z" />
<glyph unicode="V" horiz-adv-x="1200" d="M719 143l6 19q6 17 17.5 44.5t15.5 37.5q6 17 17.5 44.5t15.5 37.5q13 29 24 61q3 14 6 19q4 13 25 59q2 6 22 51q20 46 27 66l18 30q29 44 50 84q8 23 32 54q8 13 24 32t23 29q4 7 12.5 19.5t12.5 19.5q24 30 27 33q12 20 41 57q5 7 15 20.5t15 20.5l4 4q5 12 22 29.5 t23 27.5q13 14 37 35.5t33 30.5q3 3 8.5 9.5t11 12t11.5 9.5q28 23 33 26q8 5 19 15.5t13 11.5q55 39 76 49q12 8 27 15t25.5 10.5t29 10t27.5 9.5q3 0 6 1t6 1q10 3 10 -6q3 -9 -6 -12l-55 -19q-71 -28 -96 -47q-5 -2 -54 -41q-2 -1 -16.5 -12t-22.5 -16q-3 -5 -12.5 -13 t-11.5 -10q-29 -29 -45 -39q-8 -8 -25 -27.5t-29 -31.5q-26 -28 -81 -107q-6 -11 -41 -55q-1 -1 -3.5 -4t-3.5 -4q-9 -18 -31.5 -47.5t-27.5 -36.5q-5 -8 -17.5 -24.5t-21 -30t-14.5 -27.5q-35 -63 -43 -74q-17 -27 -29 -63q-4 -8 -12 -27t-12 -27q-17 -30 -43 -104 q-4 -11 -11 -21q-13 -40 -26 -73q-5 -11 -15.5 -36t-15.5 -36q-7 -17 -20.5 -49t-20.5 -49q0 -3 -1 -7.5t-1 -7.5q-2 -10 -10 -30q-7 -11 -18.5 -32t-18.5 -32q-6 -15 -19 -2v2q-2 2 -7.5 9t-7.5 10t-6.5 9.5t-6.5 11t-4 10.5t-2 12q-1 8 -4 16.5t-8 19t-7 15.5 q-3 8 -8 22.5t-8 22.5q-2 13 -6 37q-1 3 -2 10.5t-2 11.5q-17 49 -19 74q-3 13 -7 38t-7 38q-2 14 -6.5 35t-7.5 38.5t-3 34.5q0 3 -1 9.5t-1 9.5q-4 66 0 90v16v174q0 46 6 93v8q-2 36 9 94q3 15 6 43.5t6 42.5q6 41 6 76q0 3 1 7t1 7q1 9 4 25t4 22q3 13 6.5 37t6.5 37 q-5 0 -7 -2q-26 -9 -59 -23q-27 -12 -51 -24q-4 -3 -12.5 -5t-12.5 -5q-16 -7 -44.5 -23t-43.5 -23q-39 -16 -112 -59q-40 -18 -78 -39q-30 -16 -56 -37q-1 -1 -4 -3t-4 -3q-46 -34 -80 -80q-20 -29 -34 -76q-4 -36 -4 -53q-3 -51 4 -88q13 -58 45 -96q19 -19 43 -31 q12 -9 26 -12q12 -4 15 -4q81 -10 131 2q42 6 69 33q34 38 43 59q15 26 21 66q4 16 4 26q6 25 -4 62q-14 53 -19 65q-19 27 -39 37q-2 0 -4 2q-6 3 -4 10q0 7 8 4q16 -3 21 -8q28 -22 39 -47q9 -21 12 -43q10 -27 10 -53q0 -63 -14 -94q-12 -31 -35 -68q-11 -18 -51 -49 q-48 -25 -84 -27q-45 -6 -104 4q-11 0 -29 11q-40 15 -49 24q-4 2 -19 17q-27 35 -34 65q-11 21 -23 84v14v66q0 18 8 31q3 5 6.5 15.5t6.5 14.5q3 14 8.5 25t15.5 25t14 20q39 43 70 61q26 23 49 33q5 3 72 41q15 8 43 23.5t43 23.5q13 6 44.5 21.5t49.5 23.5l111 56 q13 3 32 11t27 11q12 7 35 17q2 1 7 2.5t9 3t8 2.5q24 7 27 -19q4 -17 8 -59q0 -7 2 -19t2 -16v-43v-4q7 -32 7 -57q0 -3 1 -7.5t1 -7.5q0 -7 1 -19.5t1 -19.5v-16q0 -3 -1 -8t-1 -8q2 -27 2 -80q1 -24 1 -69t1 -68q0 -14 3 -39.5t3 -30.5v-43q0 -7 1 -20.5t1 -20.5 q2 -23 2 -64q0 -52 4 -67q6 -30 6 -62q1 -7 1 -22t1 -23q0 -19 4 -55v-27q0 -5 1 -13.5t1 -12.5q8 -30 11 -66q1 -8 1 -23t1 -22q0 -11 4 -39h4z" />
<glyph unicode="W" horiz-adv-x="1740" d="M1145 1059q-7 -5 -39 -37l-3 -4q-3 -4 -7 -8q-25 -25 -35 -39q-6 -9 -16 -22.5t-18 -24.5t-15 -21q-14 -23 -19 -35q-3 -3 -7 -11t-7 -11q-25 -41 -35 -64q-4 -7 -22 -41t-27 -53q-7 -16 -20.5 -44.5t-20.5 -43.5q-3 -7 -9 -18.5t-9 -18.5q-11 -21 -21 -49l-43 -111 q-3 -7 -7 -19t-7 -19q-3 -9 -8.5 -26t-8.5 -26q-23 -58 -28 -73q-24 -65 -56 -119q-4 -7 -13 -20.5t-13 -20.5q-8 -18 -39 -49q-11 -10 -53 -33h-4q-35 -3 -54 2q-23 7 -39 29q-16 37 -24 73q-6 30 -6 64v29v26v74q4 46 4 72q4 51 8 65q1 8 4 24.5t4 24.5q4 41 10 66 q3 11 6.5 31t6.5 32q5 22 6 33q3 9 5 29.5t5 29.5q3 11 7 33.5t7 34.5q4 26 23 109q3 13 6 38t6 37q8 38 8 41q1 7 4.5 19.5t4.5 19.5q1 9 4 28t4 28q4 36 4 59q2 4 2 22q1 12 2 35t2 35q0 33 -8 57q-6 29 -35 29q-32 -4 -57 -20q-5 -4 -15 -9t-14 -8q-22 -11 -70 -45 q-17 -10 -37 -24q-4 -3 -20 -19q-25 -20 -27 -22q-19 -19 -34 -39q-1 -1 -5 -3.5t-6 -4.5q-32 -28 -61 -68l-14 -14q-7 -6 -14.5 -15.5t-15.5 -22t-13 -18.5q-3 -3 -6.5 -9t-6.5 -9q-32 -40 -55 -94q-13 -29 -25 -90q-10 -58 -8 -99l6 -30q4 -21 11 -37q25 -42 49 -56 q7 -4 19.5 -12t19.5 -12q23 -13 47 -10q41 0 59 2q34 3 55 30q30 38 41 76q8 35 -6 74q-6 18 -33 24q-16 3 -34 -6q-13 -10 -15 -16q-1 -3 -3 -7t-3 -7q-3 -8 -12 -5q-5 5 -2 13q7 20 8 22l6 6q35 24 68 13q36 -9 45 -54q9 -57 -23 -112q-8 -18 -41 -51q-15 -11 -47 -15 q-17 -4 -80 -4q-15 0 -45 17q-2 1 -39 22q-4 3 -20 19q-22 24 -33 51q-3 8 -7 24.5t-7 24.5q0 1 -1 4t-1 4q0 72 8 111q3 13 9 38.5t9 38.5q3 4 6.5 11.5t6.5 11.5q6 10 16 33t18 33q29 41 48 63q6 9 17.5 24t14.5 19q5 5 14.5 15.5t14.5 15.5q5 7 37 39l14 14q21 28 49 49 q7 5 35 33q2 1 41 29q19 18 84 47q5 3 15.5 10t15.5 10q55 24 67 27q45 9 84 -6q29 -15 41 -31q0 -1 10.5 -18t14.5 -31q7 -27 8 -29q5 -20 19 -98q1 -7 2 -21.5t2 -21.5v-66v-57q0 -20 -4 -66v-2q-4 -12 -5 -31.5t-4 -29.5q0 -6 -2 -8q-1 -4 -3.5 -16.5t-2.5 -20.5 q-3 -9 -7 -25t-7 -24q-3 -7 -6 -19.5t-6 -19.5v-2q0 -14 -11 -56q-3 -9 -6 -27t-6 -28q-2 -8 -7.5 -26.5t-8.5 -30.5t-7.5 -31.5t-7.5 -30.5q-23 -79 -35 -133q-9 -31 -12 -63q0 -7 -4 -23q-9 -39 -12 -69q-3 -14 -3.5 -29.5t0.5 -36.5t1 -29q2 -16 2 -45q0 -2 4 -14 q8 -13 22 -4q25 19 41 45q41 70 52 92q8 15 14.5 30.5t14 35t12.5 30.5q3 8 19 51.5t24 67.5q8 31 32 84q1 3 6.5 20.5t10.5 26.5q15 34 30 72q8 16 39 84l19 37q4 8 13 25.5t13 25.5q3 4 33 59q5 14 10 21q7 9 17.5 27.5t17.5 27.5q27 40 47 70q10 14 35 39q0 1 1 3t1 3 q5 5 13.5 12.5t15 14t10.5 12.5q4 5 25 26q40 47 69 68h2q8 8 15 4q6 -3 6 -14q-1 -2 -8 -25q-7 -19 -18.5 -57t-18.5 -58q-1 -5 -4 -11.5t-4 -8.5q-1 -4 -3.5 -13.5t-3.5 -13.5q0 -6 -4 -34q-5 -14 -10 -52q-3 -16 -8 -50t-8 -50l-6 -55q-1 -9 -2.5 -27t-2.5 -27 q-4 -32 -4 -53q-4 -15 -8 -67q-1 -14 -2 -41.5t-2 -42.5v-37q0 -14 -1 -29t-2.5 -34t-2.5 -29q-2 -16 -2 -50q10 -57 2 -102q0 -3 1 -7t1 -7q3 -14 8 -72q3 -8 6 -25.5t6 -25.5v-2q5 -21 25 -22t27 12q11 14 37 57q13 22 16 29t8 18t8 18q8 18 33 95q3 5 5 17t5 17 q11 24 33 97q21 82 25 94q3 11 8.5 31t10.5 36t11 31q23 77 31 94q6 19 10 25q4 11 16 34.5t17 37.5q8 18 23 61q3 3 5 11t5 12q2 3 13.5 23.5t19.5 31.5l6 18q3 5 7.5 13.5t6.5 11.5q23 44 62 104q16 27 47 66q7 12 21.5 33t21.5 32q5 5 20 17q0 4 6 -2q8 -8 41 -27l2 -2 q7 -7 20.5 -17.5t20.5 -17.5q15 -13 16 -16.5t-8 -18.5q-2 -4 -14 -16l-18 -31q-9 -20 -25 -43q-12 -24 -24 -45q-6 -9 -27 -45q-5 -8 -15 -27.5t-18 -29.5q-1 0 -4 -4l-6 -8q-3 -8 -9.5 -22.5t-9.5 -22.5q-3 -7 -9 -19.5t-9 -19.5t-16 -39l-19 -31q-3 -5 -6 -22 q-3 -3 -5 -12t-5 -13q-15 -35 -17 -41q-7 -13 -16 -38.5t-16 -37.5q-4 -8 -10.5 -24.5t-10.5 -24.5q-16 -38 -33 -65q-6 -13 -14 -35.5t-12 -32.5q-5 -5 -12 -19q-3 -7 -7.5 -18t-7.5 -18q-26 -57 -45 -86q-4 -7 -10 -19.5t-10 -19.5q-2 -2 -7 -10t-8 -11q-8 -18 -22 -43 q-31 -45 -47 -59q-18 -18 -45 -35q-11 -4 -11 -6q-26 -15 -53 -17q-22 -3 -45 7q-25 9 -57 41q-1 3 -4 7t-4 7q-3 7 -8.5 21.5t-8.5 21.5q-1 4 -2 13.5t-2 13.5q0 16 -2 20q-6 35 -6 70q-4 28 -4 41v24q-1 12 -1 36t-1 36q-3 49 2 78q0 1 1 23.5t5 33.5q3 17 6 50.5t6 51.5 l6 48q3 53 11 92q5 64 28 143q3 7 5.5 20.5t5.5 20.5l9 33l9 33q8 31 33 79q3 9 6 15z" />
<glyph unicode="X" horiz-adv-x="974" d="M436 485q-6 -14 -30 -57q-8 -15 -24 -47t-24 -47q-35 -68 -53 -92q-9 -13 -26.5 -38.5t-26.5 -37.5q-32 -46 -55 -60q-21 -18 -31 -30q-49 -33 -84 -53q-19 -13 -41 -19q-34 -9 -64 0q-35 13 -43 19q-1 1 -4.5 3.5t-5.5 4.5q-6 9 0 12q4 4 13 -2q31 -24 67 -27 q25 -2 59 17q13 7 36 21.5t36 21.5q17 12 37 32q1 0 2 1.5t2 1.5q23 16 55 57q4 4 13 16q42 56 59 86q18 28 31 56l37 73q4 9 13 26t13 26q21 32 29 61q2 2 2 12q-13 71 -14 90q-3 19 -6.5 54t-6.5 53q0 26 -4 35q0 1 -1 2t-1 2q2 23 -8 61q-2 7 -8 51q0 5 -4 33 q-1 7 -2 17.5t-2 17.5q0 3 -1 8t-1 8l-19 93q-3 12 -6 31.5t-6 31.5q0 1 -6 43q-6 24 -6 25q-10 31 -21 55q-6 13 -20 17.5t-27 -3.5q-18 -6 -45 -33q-3 -3 -10 -9t-10 -9q-36 -36 -58 -76q-2 -3 -16 -26q-6 -8 -10 -4q-8 3 -5 12q0 1 1 2t1 2q4 6 16 25t18.5 28.5 t17.5 23.5t22 25q5 4 27 24t37 28q40 21 84 18q13 0 30 -10q4 -3 14.5 -9t17.5 -11.5t11 -12.5q1 -1 2.5 -4t2.5 -4q23 -29 34 -70q3 -10 12 -30.5t13 -34.5q34 -104 41 -152q0 -24 8 -43q12 -47 21 -96v-4q9 -25 12 -62q0 -12 2 -16q2 2 4.5 5.5t3.5 4.5q43 65 49 76 q4 8 13 18.5t12 14.5q24 27 37 51q28 36 45 53q11 11 39 43q3 4 13.5 14.5t16.5 18.5q23 23 33 37q4 5 29 30q8 9 23 22.5t20 18.5q21 21 45 33q6 4 16 13t17 12q6 6 14 10q1 2 4.5 1t3.5 -5q3 -6 -4 -10q-7 -7 -27 -23q-8 -8 -14 -10q-11 -6 -27 -19t-18 -14 q-33 -28 -47 -45q-12 -11 -30 -33.5t-29 -34.5q-15 -18 -43.5 -47t-32.5 -34q-7 -8 -19.5 -25t-19.5 -25q-8 -12 -24.5 -33t-24.5 -32q-2 -3 -9 -13t-12 -16q-2 -3 -8.5 -12.5t-11.5 -15.5q-3 -3 -5.5 -7.5t-5.5 -7.5q-2 -4 -7 -15.5t-11 -17.5q-7 -7 -4 -20q3 -11 6 -32.5 t6 -33.5q3 -9 5 -27.5t5 -29.5q1 -7 3.5 -18.5t3.5 -18.5q3 -8 5 -27t5 -28q3 -11 7 -36t7 -36q2 -5 8 -45q3 -12 5.5 -29.5t5.5 -29.5q3 -7 6 -21.5t6 -21.5q5 -17 11 -51.5t11 -51.5q7 -26 15 -41q1 -5 14 -22q11 -32 33 -60q3 -9 12 -18q15 -11 23 -27q4 -6 10 -9.5 t15.5 -6t13.5 -4.5h8q6 1 15.5 4t12.5 4q3 0 8 2.5l7 3.5q6 5 14.5 15.5t11.5 13.5q15 25 19 29q6 8 14 0q0 -2 2 -4q-12 -28 -30 -46q-9 -15 -17 -18q-19 -19 -45 -29h-18q-27 0 -45 9q-44 19 -56 26q-7 6 -19 16t-19.5 16t-17 15.5t-17.5 18.5q-5 7 -23 31.5t-27 37.5 q-13 16 -30 56q-3 2 -13 20q-2 3 -8 17.5t-10 23.5q-37 91 -39 102q-8 40 -14 54q0 1 -21 94q0 3 -1 8.5t-1 9.5z" />
<glyph unicode="Y" horiz-adv-x="1107" d="M727 43q-3 -1 -8 -4t-8 -4q-36 -20 -88 -64q-17 -17 -29 -26q-8 -8 -19.5 -18.5t-15.5 -14.5q-23 -19 -80 -80q-7 -7 -19.5 -20.5t-19.5 -20.5q-27 -39 -28 -39q-8 -13 -27.5 -42t-28.5 -46q-8 -10 -17 -31.5t-15 -31.5q-1 -3 -4.5 -9.5t-4.5 -9.5q-7 -17 -10 -35 q-1 -5 -9 -33t-9 -44q0 -14 -4 -60q-2 -4 -2 -22q-1 -1 -0.5 -33t0.5 -33v-14q12 -38 24 -72q0 -4 2 -6q35 -35 53 -41q23 -8 72 -8h2q11 4 34 13t34 13q9 4 22.5 15.5t16.5 13.5q3 3 7 6t5 4q5 13 19.5 35t19.5 33q6 18 18 48.5t15 37.5q0 1 3.5 13t4.5 18q14 41 20 63 q3 15 8.5 45.5t8.5 46.5q1 6 4 20t4 23q3 10 6 29q1 7 4 25t4 28q0 4 17 113q9 28 12 53q0 47 2 74q1 16 2 46t2 46zM889 203v-47q12 6 16 10q8 4 25.5 13.5t25.5 13.5q12 7 37 17t37 17q11 3 14 -6q3 -10 -4 -12q-3 -1 -5 -2t-5 -2q-38 -17 -84 -41q-17 -12 -39 -21 q-1 -1 -3 -2t-3 -2q-18 -9 -18 -28q-1 -12 -3 -32t-3 -32v-2q0 -16 -5 -84q-1 -7 -3 -23.5t-3 -23.5q-3 -15 -5 -47t-5 -47q0 -5 -3 -27t-3 -35q-3 -12 -5 -35.5t-5 -35.5l-6 -33q-6 -18 -11.5 -38.5t-11 -45t-8.5 -37.5q-3 -15 -11.5 -44t-11.5 -44q0 -3 -1 -8.5t-1 -9.5 q-6 -15 -17 -51.5t-20 -55.5q-3 -5 -16.5 -28t-22.5 -37l-18 -19q-33 -33 -70 -47q-11 -8 -18 -8q-18 -11 -64 -27q-20 -4 -32 -4q-88 0 -121 8q-59 24 -86 60q-1 1 -3 4t-3 4q-3 9 -11.5 35.5t-13.5 44.5q0 1 -1 3t-1 3q1 17 1 49.5t1 48.5q0 11 1 22.5t2.5 24.5t2.5 21 q5 31 19 76q3 7 5 17t5 17q6 9 10 27q4 8 12.5 23.5t12.5 23.5q4 7 22 37q9 17 28.5 44t25.5 38q14 18 39 46t28 32q11 13 74 71q12 12 31.5 30t27.5 26q27 27 105 73q1 1 4.5 4t5.5 5q9 3 12 16q0 9 4 29q4 28 4 37q0 1 0.5 45t-0.5 45q0 36 5 49q2 4 2 16q4 62 4 94 q8 39 8 152v12q-2 -2 -4 -2q-11 -21 -41 -69q-9 -15 -26.5 -44t-26.5 -45q-7 -11 -19.5 -34t-19.5 -35q-6 -15 -25 -41q-1 -3 -4 -7t-4 -7q-11 -16 -31.5 -47t-32.5 -46q-5 -9 -28 -41q-1 0 -5.5 -5t-7.5 -9q-11 -9 -32.5 -27.5t-32.5 -27.5q-17 -17 -25 -23l-43 -24 q-3 -1 -8 -3t-8 -3q-35 -15 -64 -13h-14q-21 -4 -31 4q-2 0 -4 2q-12 0 -32 4q-8 0 -11 3q-35 20 -45 30q-5 7 -33 35l-4 4q-32 35 -41 84q-2 2 -6 17l-4 12q-4 33 -2 51q0 19 -2 23q-6 30 0 57q1 10 2 27.5t2 27.5v8q6 10 8 32t4 30q3 7 7.5 22.5t7.5 22.5q6 15 6 31 q4 27 8 34q10 29 23 58q5 23 26 71q1 4 3 10.5t3 10.5q10 20 13 27q9 18 22 57q2 2 2 4q15 15 29 53q1 4 18 31q3 3 5.5 9t5.5 9q5 8 15 20t13 17q5 10 16.5 28.5t14.5 24.5q7 13 18.5 38t18.5 38q3 4 7 13.5t7 13.5q4 4 6 10q13 39 13 57q9 48 -7 103q-6 19 -18 35 q-24 30 -61 24q-72 -9 -140 -53q-15 -9 -42.5 -28.5t-43.5 -28.5q-4 -3 -10 -9.5t-10 -9.5q-56 -51 -70 -76q-3 -7 -9 -17t-9 -17q-9 -16 -19 -39q-21 -37 -24 -78q-3 -40 0 -74q4 -29 17.5 -41.5t43.5 -17.5q23 -8 47 16q14 13 17 31q0 13 -6 14q-12 4 -15 -10v-8 q-4 -4 -10 -4t-10 4v6q-3 20 24 31q20 9 33 -11q9 -14 0 -34q-11 -33 -41 -48.5t-69 0.5q-50 21 -50 70q-9 58 7 119q17 38 26 57q2 4 6.5 17t7.5 18q31 57 72 90q4 3 12 11t13 12q44 35 84 61l61 37q36 15 37 16q5 3 16 6.5t15 6.5q8 3 23.5 6t23.5 6q13 5 47 0 q37 -3 57 -12q42 -16 62 -54q18 -32 18 -75q2 -31 -8 -84q0 -18 -8 -37q-3 -5 -4 -14t-4 -13l-19 -55q-7 -16 -29 -51q-7 -16 -21.5 -43.5t-21.5 -42.5q-2 0 -4 -2q-11 -18 -43 -90q-24 -48 -53 -152q-3 -11 -7 -33.5t-7 -34.5q-1 -5 -2 -16.5t-2 -17.5q-3 -39 -11 -72 q-3 -13 -8 -66q-4 -29 0 -116q0 -5 6 -47q8 -18 15 -54q11 -26 22 -45q1 -3 3.5 -6t2.5 -6q16 -23 66 -43q6 -2 29 -2q19 0 34 6q1 0 3.5 1t3.5 1q8 7 23 20.5t26.5 24t21.5 21.5q8 10 33 49q7 10 23.5 30.5t25.5 34.5q3 10 10 19q20 25 23 32q6 8 14.5 24.5t9.5 18.5 q8 15 25 45t25 46q3 7 11 17t11 17q9 15 27.5 45t27.5 46q3 5 8.5 13t8.5 13q8 13 8 31q0 7 -1 20t-0.5 23t3.5 20q0 8 3 22t3 17v11v86q4 32 4 49q4 28 4 49v6q4 6 6 14.5t2 20.5t1 16q2 11 5 31t5 32.5t7 29t11 30.5q9 21 29 27q12 0 16 2q17 6 47 10q22 3 37 -6 q3 -1 7.5 -2t7.5 -2q14 -3 10 -15q-5 -7 -6.5 -14t-2.5 -18.5t-1 -14.5t-2 -8.5t-2 -9.5q-3 -8 -4.5 -24t-4.5 -25l-12 -74v-6q4 -3 1 -30t-3 -30q0 -13 -2.5 -34t-3.5 -27v-8q-4 -28 -4 -41v-41q0 -47 -2 -72q-4 -71 -10 -108l-5 -25q0 -9 -1 -25.5t-1 -25.5 q-1 -15 -4 -45.5t-4 -46.5q-1 -7 -2 -18.5t-2 -18.5q-4 -36 -4 -53q-2 -14 -2 -45q0 -7 -4 -35z" />
<glyph unicode="Z" horiz-adv-x="1146" d="M1063 1188v-8l7 4h-1q23 20 47 35q29 29 35 47q4 6 8 24q0 10 -6 13q-6 4 -15 3t-14 -6q-23 -23 -26 -30q-5 -9 -11 -26t-8 -21q-3 -7 -8 -17.5t-8 -17.5zM197 123q-9 5 -30 21t-36 24q-44 22 -53 29q-27 13 -47 16q-36 8 -90 -2q-46 -10 -60 -53q-5 -22 -6 -27 q-3 -48 31 -82q9 -13 30.5 -27.5t26.5 -19.5q26 -20 55 -14q33 6 68 24q26 16 55 45q23 33 56 66zM313 61q3 -3 9 -5t6 -3q16 -7 45.5 -19.5t44.5 -19.5q58 -19 80 -30q9 -3 24 -10t19 -9q14 -4 57 -18q12 0 47 -13q13 -3 39.5 -6t40.5 -6q6 -2 37 -2q46 -7 106 2 q28 4 39 10q7 3 21.5 8.5t21.5 8.5q42 30 45 33q21 16 47 59q13 30 13 76q-4 32 -25 54t-51 28q-43 0 -57 -9q-2 -2 -13 -2q-4 1 -5 6l-1 5q0 4 4 8q13 8 33 8q41 3 72 -10q39 -14 55 -58l1 -7q1 -8 5 -13q9 -72 -41 -135q-12 -12 -18 -21l-4 -8q-7 -4 -22.5 -14t-27.5 -16 t-24 -9q-4 -3 -13 -5t-14 -5q-17 -13 -39 -10q-38 -5 -45 -8h-28q-20 3 -59.5 6t-59.5 6q-10 1 -19.5 3.5t-21 6.5t-19.5 6q-3 1 -15 3t-17 3q-4 1 -14.5 4.5t-14.5 4.5q-22 8 -61.5 24t-57.5 23q-35 13 -114 49q-4 3 -11 5t-10 5q-6 6 -16 0q-2 0 -2 -2q-13 -15 -54 -29 q-47 -22 -112 -45q-23 -8 -66 -8q-48 0 -71 10q-16 10 -29 13q-36 25 -62 51q-34 34 -34 90q0 35 24 74q16 25 47 28q40 12 86 6q42 -4 72 -22q19 -8 45 -23q36 -18 68 -41q1 -1 2 -3t3 -4t5 -3q8 12 22 27q10 20 36 54t34 46q3 5 14 22t19 27q14 18 38 52t31 43q3 8 12 15 t11 9q7 12 20.5 29t20.5 28q12 12 43 52q5 7 16.5 22.5t16.5 22.5q3 9 11 21t11 18q9 11 31 41l18 24q22 37 35 53q52 66 56 72q7 11 20 31t20 31q11 12 28.5 36t29.5 37q11 13 31 39.5t32 40.5q7 9 21.5 26.5t21.5 26.5q7 11 19.5 27.5t19.5 28.5q-3 0 -10 1t-10 1 q-15 0 -56 8q-15 3 -79 22q-8 2 -44.5 17.5t-41.5 17.5q-7 0 -25 11q-7 4 -78 32q-11 4 -16 11q-33 12 -121 32q-28 10 -57 13q-7 4 -72 4q-14 4 -28.5 3.5t-23 -2t-26 -6t-24.5 -6.5t-25 -6t-27 -8q-8 -4 -24 -11t-27.5 -13.5t-21.5 -16.5q-39 -39 -39 -80q-4 -30 -2 -43 q0 -18 4 -30q3 -7 6 -13.5t6 -13.5q10 -16 19 -22t30 -13q16 -8 47 -4q23 0 35 20q17 17 4 39l-4 2q-3 12 4 15t12 -2q9 -6 9 -19q5 -31 -11.5 -51.5t-48.5 -21.5q-31 -3 -57 4q-23 8 -33 15.5t-22 27.5q-15 26 -20 43t-1 41q2 6 2 26q0 30 26.5 67.5t59.5 55.5q6 2 38 12.5 t50 18.5q63 15 78 14q13 0 41 -4q4 0 33 -1t33 -1q18 -1 40.5 -6t55 -14t39.5 -11q7 -3 39.5 -12.5t42.5 -15.5q13 -3 46 -18.5t42 -18.5q7 -5 20 -8q31 -17 64 -25q8 -3 32.5 -11.5t30.5 -10.5q45 -7 70 -7h29q9 -3 20 15q4 5 15 18.5t20 22.5q3 15 18 24q6 7 15.5 23 t17.5 24q26 26 43 33q27 9 51 -6q20 -13 17 -33q0 -29 -23 -55q-12 -22 -37 -37q-18 -14 -20 -14q-27 -19 -37 -25q-3 -3 -6 -7t-4 -5q-7 -26 -25 -68q-8 -19 -24.5 -54t-20.5 -44q-10 -15 -18.5 -32t-17 -38t-13.5 -32q-27 -66 -53 -101q-8 -16 -24 -43.5t-24 -42.5 q-4 -8 -21.5 -34t-25.5 -44q-39 -64 -41 -67v-2q-12 -12 -28 -37t-27 -37q-13 -19 -43.5 -54t-36.5 -42l-16 -17q-2 -2 -19.5 -21t-25.5 -30q-13 -13 -34 -35.5t-32 -33.5q-25 -32 -57 -64l-31 -31q-23 -25 -63 -65q-1 -3 -8 -8t-9 -7z" />
<glyph unicode="[" horiz-adv-x="512" d="M381 1348l47 4l53 -4l25 2l84 -7q5 -5 3.5 -11.5t-11.5 -6.5h-39l-72 2l-16 2l-52 -2l-57 -2q-3 -7 -3 -22.5t-3 -24.5q-2 -14 -2 -39q-2 -24 -12 -70q1 -8 -2 -24t-2 -25q-1 -4 -4.5 -19t-2.5 -24q-6 -18 -6 -41q-3 -6 -3.5 -14.5t0.5 -20.5t1 -16q-5 -15 -10 -45 q1 -9 0 -26.5t0 -26.5q0 -5 -1 -16t-1 -19q-5 -56 -4 -64q-3 -11 -4 -33.5t-4 -33.5q-1 -7 -2 -18.5t-2 -18.5q0 -13 -3 -22q1 -13 -1.5 -30t-2.5 -24q-1 -7 -1 -21.5t-1 -19.5q0 -35 -6 -51q10 -36 0 -65q1 -17 -3 -40.5t-3 -31.5q0 -8 -1 -24t-1 -23l-1 -10q-1 -10 -5 -15 q3 -34 0 -63q0 -19 -2 -29q0 -8 -1 -25t-1 -26q0 -12 -3 -30t-3 -30q3 -14 -4 -38q-3 -14 -1.5 -40t-1.5 -40l-2 -6q1 -13 -1.5 -38.5t-2.5 -35.5q-3 -7 -3 -31t-3 -33q0 -23 -6 -47q0 -16 2 -20q-3 -12 -4 -35.5t-4 -34.5q-1 -2 -6 -43l71 4l23 4l88 -6h31q5 -1 8 -6.5 t2 -10.5t-8 -5l-62 2l-16 2h-53l-74 2l-53 2h-54h-16h-8q-5 -4 -11 -1t-7.5 10t2.5 15q1 6 2 18t2 17q4 38 8 53q-2 12 8 43q0 8 -0.5 47.5t4.5 41.5l1 14q1 14 -1 14q4 10 5 32t1 23q0 39 4 50q0 11 3 29t3 30q3 25 0 53q0 1 4 18t3 27q1 3 2 10.5t2 10.5q5 19 0 63 q9 58 10 72q0 25 -2 31q8 24 8 59l2 19q5 60 6 63q0 13 4 49q2 14 2 39q0 27 7 62q-2 0 -1 20l1 20q1 13 4 38.5t4 39.5q4 13 -4 21q4 15 7 42t5 40q5 37 4 47q0 11 4 31q5 54 6 59q0 23 2 37q1 7 2 21.5t2 21.5q0 13 5.5 38t5.5 36q4 64 6 71q3 8 5 25t5 26q0 16 6 39 q3 20 35 17h72z" />
<glyph unicode="\" horiz-adv-x="512" d="M20 1335q1 1 0 2.5t-2.5 3t-1.5 2.5q1 2 1 7.5t1 8t5 3.5h6q7 0 10 -10q6 -8 10 -23q7 -20 16.5 -60.5t16.5 -60.5q19 -61 27 -96l26 -96l37 -125q10 -52 82 -277q2 -11 22 -88l54 -166q10 -30 31.5 -105t35.5 -116l58 -184q4 -15 13 -42.5t13 -43.5q1 -2 4 -12.5 t4 -16.5q3 -13 -6 -16q0 -4 -4 0q-4 -8 -8 4q-3 5 -6.5 15.5t-7.5 17.5l-95 301q-12 39 -32.5 113t-30.5 108q-30 75 -37 104q-6 17 -11 36t-11 44.5t-9 36.5q-12 29 -48 150t-40 151q-11 32 -29 98t-30 99q-8 32 -26.5 93t-26.5 93q-10 40 -11 47z" />
<glyph unicode="]" horiz-adv-x="512" d="M162 -352l-47 -4l-54 4l-24 -2l-82 6q-5 4 -3.5 11t11.5 7h39l70 -2l16 -2l51 2l58 2q3 7 3 22.5t3 24.5q2 14 2 39q2 24 12 70q-1 8 2 24t2 25q0 3 3.5 18.5t2.5 24.5q6 18 6 41q3 7 3 51q5 15 10 45q-1 9 0 27t0 27q0 5 1 16t1 18q5 56 4 64q3 12 4 34t4 33q1 7 2 18.5 t2 18.5q0 17 2 23q-1 13 1.5 29.5t2.5 23.5q1 7 1 21.5t1 19.5q0 32 7 51q-10 37 0 66q-1 17 3 40t3 31q0 8 1 24.5t1 23.5q1 3 1 7.5t1 8.5t4 8q-3 30 0 64q0 18 2 28q0 8 1 25t1 26q0 12 3 30.5t3 29.5q-3 15 4 39q3 14 1 40t1 40l2 6q-1 13 1.5 38.5t2.5 35.5 q3 7 3.5 30.5t3.5 32.5q0 23 6 47q0 17 -2 21q3 11 4 34t4 35q1 2 6 43l-72 -4l-22 -4l-88 6h-31q-5 1 -8 6.5t-2 11t8 5.5l61 -2l17 -2h53l74 -2l53 -2h53h17q4 0 9 -1l-1 1q5 4 11 0.5t7.5 -10.5t-2.5 -15q-1 -6 -2 -18t-2 -17q-4 -38 -8 -53q2 -12 -8 -43q0 -8 0.5 -47 t-4.5 -41v-29q-3 -7 -4 -16.5t-1.5 -21.5t-1.5 -17q0 -38 -4 -49q0 -11 -3 -29.5t-3 -30.5q-3 -25 0 -53q-1 -4 -3 -13.5t-3 -17t0 -14.5q-1 -3 -2 -10t-2 -10q-5 -19 0 -64q-9 -58 -10 -72q0 -24 2 -30q-8 -24 -8 -60l-2 -18q-5 -56 -7 -64q0 -13 -4 -49q-2 -14 -2 -39 q0 -31 -6 -61q1 0 1 -20l-1 -21q-1 -13 -4 -38.5t-4 -39.5q-4 -12 4 -20q-4 -15 -7 -42t-5 -40q-5 -37 -4 -47q0 -11 -4 -31q-4 -50 -7 -60q0 -22 -2 -36q-1 -7 -2 -21.5t-2 -21.5q0 -13 -5 -38t-5 -36q-4 -65 -6 -72q-3 -8 -5 -25t-5 -26q0 -12 -7 -39q-3 -19 -34 -16h-72z " />
<glyph unicode="^" horiz-adv-x="819" d="M418 623q-4 -3 -7 -6l-3 -3q-15 -21 -48 -62.5t-49 -62.5q-20 -25 -54.5 -75t-39.5 -56q-7 -9 -21.5 -28.5t-21.5 -28.5q-9 -12 -16 -8q-6 2 -8 7.5t2 10.5q10 21 18 31l12 16q6 9 25.5 34.5t28.5 39.5q8 11 23.5 31.5t27.5 37.5t22 34q9 15 82 106q2 2 5.5 4.5t4.5 3.5 q24 21 39 -6q11 -16 32 -48.5t32 -49.5q10 -15 44 -67.5t54 -80.5q6 -10 21 -26.5t20 -22.5q5 -13 23 -39q5 -7 -7 -16q-11 -7 -14 2q-4 4 -4 6q-6 13 -21 30.5t-18 22.5q-19 27 -56.5 80t-56.5 80l-36 61q-24 38 -35 48z" />
<glyph unicode="_" horiz-adv-x="1024" d="M63 29l41 -4l37 2l43 -2l84 4l123 -4l39 4l240 -4h106q45 0 68 2q16 0 16 -19q0 -11 -11.5 -22.5t-27.5 -12.5l-43 -2l-207 4l-39 -4l-43 4h-124h-84l-78 -4l-168 2q-15 0 -15 11q0 13 13.5 29t29.5 16z" />
<glyph unicode="`" horiz-adv-x="204" d="M629 840q1 -7 1 -19.5t1 -19.5q0 -25 2 -31q0 -5 -1 -15.5t-1 -15.5q0 -7 1 -17t1 -17q0 -18 -4 -46v-49q2 -5 -4 -5q-5 0 -9 5q-7 29 -22 76q-6 30 -10 35q-15 46 -17 49q-8 13 -24 59q-9 18 -5.5 34t15.5 24q3 1 8 3t9 3t8 0q17 4 34 -6q17 -14 17 -47z" />
<glyph unicode="a" horiz-adv-x="702" d="M371 246q2 6 6.5 18.5t7.5 20.5q1 3 3 13t3 13q4 12 10.5 29.5t10.5 28.5q4 9 9 26t9 25q4 7 8.5 21t7.5 18q14 32 19 37q4 4 16 4q44 -13 70 -17q27 -9 27 -12q8 -14 -3 -25q-7 -17 -22 -59l-18 -43q-10 -16 -15 -35q-1 -5 -4.5 -12.5t-3.5 -9.5q-10 -23 -18 -47 q-18 -55 -19 -58q-10 -40 -10 -59v-6v-31q0 -19 6 -25q3 -8 14 -12q15 -9 31 -6q9 3 21 6q10 4 19 9.5t20 15.5t16 14q4 6 17.5 20.5t17.5 22.5q31 38 32 41q20 25 39 57q3 4 10.5 15.5t10.5 15.5q24 43 29 49q9 15 36 62q4 7 9.5 5t5.5 -9q-3 -3 -11.5 -19.5t-11.5 -19.5 q-53 -90 -104 -170q-4 -8 -15.5 -21t-15.5 -18q-6 -6 -24 -28.5t-31 -35.5q-11 -10 -22 -16.5t-23.5 -12t-20.5 -10.5q-28 -22 -90 -18q-37 6 -67 39.5t-23 95.5q-4 -4 -19.5 -24t-23.5 -29q-30 -35 -98 -68q-30 -12 -56 -12q-81 0 -127 109q-16 62 -16 114q0 55 4 72 q11 71 16 92q0 5 11 31q3 7 9.5 24t10 24.5t10 20.5t13.5 23t16 20q3 4 16 22t19 25.5t18.5 21t26.5 24.5q60 45 107 66t118 22q112 3 162 -60q23 -38 23 -84q0 -1 -1.5 -16t-5.5 -23q-2 -2 -12 -2q-15 5 -12 13q0 4 5.5 21t4.5 30q-3 65 -76 94q-49 9 -90 -4 q-80 -45 -121 -98q-70 -83 -96 -164l-12 -49q-21 -61 -21 -160q0 -53 13 -90q25 -49 69 -49q24 0 39.5 9t36.5 34q8 8 16 19t13 19t12 20.5t10 18.5q18 53 19 56z" />
<glyph unicode="b" horiz-adv-x="645" d="M68 1051q0 15 -11 30q-9 15 -32 25q-33 10 -62 4l-18 -6q-46 -26 -64 -66q-12 -36 -12 -63q0 -36 18 -92q7 -16 19 -31q8 -17 26 -31q26 -26 78 -41l19 -4q8 -3 41 -8q16 63 18 70q12 34 25 67q7 17 30 78q4 13 18 39t17 43q6 11 20.5 36t20.5 38l25 45l14 22 q13 21 18 35q9 9 37 45l13 12q6 3 14.5 13.5t13.5 15.5q10 6 31.5 23t34.5 24q4 4 10.5 7t16.5 6.5t14 5.5q21 12 67 12h15q13 -1 47 -16q24 -13 28 -64q1 -6 2 -14.5t2 -15.5t1 -15q0 -34 -13 -78q-3 -6 -5.5 -20t-6.5 -23q-10 -31 -55 -119q-16 -31 -43 -61 q-6 -10 -14 -20.5t-18.5 -23t-14.5 -17.5q-5 -7 -27.5 -27t-30.5 -33q-3 -3 -8 -6t-8 -6q-11 -15 -33 -33q-12 -6 -20 -14q-25 -18 -45 -23q-7 -3 -20.5 -8.5t-24.5 -9t-21 -4.5l-4 -4q0 -3 -10.5 -43t-10.5 -43q-14 -74 -32 -215q-3 -28 -7.5 -84t-7.5 -84q-4 -83 -2 -123 q2 -62 20 -105t56 -43h19q57 8 88 37q4 3 10.5 7.5t9.5 6.5t8 6t8.5 8t8 10.5t8.5 14.5q4 6 16.5 29.5t14.5 28.5q3 7 8 18.5t8 18.5q-22 13 -23 14q-21 13 -32 31q-12 20 -25 45q-10 45 -10 73q0 38 2 56q0 25 12 75q5 28 27 80.5t41 75.5q2 2 15 19t24 22q30 11 57 0 q19 -11 34.5 -38.5t20.5 -53.5q6 -67 -6 -119q0 -1 -1 -11t-5 -18q-7 -25 -16.5 -67t-18.5 -68q-18 -47 -51 -110q7 -3 13.5 -3.5t12.5 0.5t7 1q29 0 59 10q20 7 51 29q22 17 50 45q25 28 32 41q9 9 33 49q5 5 9.5 3t4.5 -7q0 -6 -20 -33l-29 -37q-8 -14 -51 -57 q-1 -1 -12 -10.5t-19 -14.5q-52 -37 -114 -37q-21 0 -35 2q-16 -30 -37 -57q-9 -10 -17.5 -21t-14.5 -18t-13 -14q-6 -8 -14 -16t-12 -11t-21 -14.5t-21 -14.5q-4 -2 -14 -7.5t-13.5 -7t-12 -5t-14 -5t-14 -2.5t-18.5 -1q-29 0 -53 8q-15 3 -32 10t-27 10q-41 39 -58 68 t-30 88q-9 32 -13 109q-4 8 0 74t4 75q5 71 7 82q3 34 7.5 61t14 68.5t12.5 56.5q0 12 11 45v9q-24 2 -70 14q-42 11 -78 39q-23 20 -37 45q-7 7 -10 16q-23 45 -23 107q0 39 9 63q11 24 37 51q25 25 55 35l12 4q18 8 43 4q23 -3 41 -16q21 -12 33 -33q6 -14 6 -30 q0 -48 -39 -84q-27 -27 -41 -13q-6 9 -2 17q33 14 37 18q27 27 27 62zM254 874l-29 -69q-3 -14 -10 -31q17 0 25 4q33 6 69 31q28 18 49 41q10 6 31 27q7 10 27 29t28 32q23 23 41 47q7 13 24.5 38t25.5 38q16 29 28 63q16 45 25 66q8 24 12 94q-2 21 -8 33q-1 1 -3 5 t-2.5 4.5t-3 4t-4 3t-5.5 1.5t-7 0q-16 0 -24 -2q-4 -2 -14 -5t-18 -7t-15 -10q-18 -15 -44.5 -45t-37.5 -41q-3 -9 -14 -24.5t-17 -26.5q-6 -4 -11 -13t-9 -20.5t-7 -16.5q-21 -38 -26 -57q-3 -7 -21 -43q-2 -4 -3.5 -8.5l-2.5 -7.5t-2.5 -6.5t-3.5 -6.5q-4 -11 -14 -49 q-3 -8 -8 -23t-10 -27t-11 -22zM367 281q18 -53 61 -68l10 31q6 16 9.5 33t5.5 42t4 37q4 19 8 84q0 34 -2 52q-2 19 -10 47.5t-15 38.5q-7 11 -18 8q-10 -4 -23 -28.5t-18 -43.5l-14 -57q-13 -59 -13 -97q0 -42 15 -79z" />
<glyph unicode="c" horiz-adv-x="532" d="M621 373q4 4 8 0.5t2 -8.5q-3 -3 -5 -10t-5 -11l-5 -2q-2 -2 -13.5 -20.5t-30 -50t-35.5 -56.5q-4 -8 -9.5 -15.5t-11.5 -14.5t-8 -9l-19 -24q-7 -7 -17.5 -22.5t-18.5 -20.5q-5 -5 -12.5 -13t-11.5 -12.5t-7 -5.5q-2 -2 -5 -6t-6.5 -6.5t-9.5 -6.5q-6 -6 -14 -12 q-5 -3 -18.5 -10.5t-16.5 -9.5l-16 -9q-2 -2 -6 -2q-54 -14 -84 -14h-15q-8 0 -28 4q-3 0 -8.5 1t-8.5 1q-7 0 -16 6l-27 9l-32 18q-4 1 -6 2t-4.5 2.5t-3.5 2t-4 3t-5 4.5t-7 6.5t-9 8.5q-18 16 -43 61q-13 30 -13 37q0 15 -6 33q-8 24 -4 39q-8 29 -4 73l4 23l8 47 q3 53 39 115l8 14q25 38 56 72l24 22q13 13 56 39q25 16 71 29q8 6 23 8q28 4 45 4q19 0 31.5 -2.5t19 -6t23.5 -13.5q21 -17 34 -38t11 -28q9 -31 8.5 -53.5t-6.5 -32.5q-3 -17 -8 -31q0 -1 -3.5 -7t-3.5 -9q-11 -26 -20 -35q-12 -15 -33 -24q-7 -5 -33 -5q-5 0 -20 5 q-11 5 -20.5 16.5t-8.5 21.5v2q-3 9 2 25q4 16 15 27q3 3 9 10t9 10q8 -3 8 -8q-1 -3 -6 -6t-6 -6q-2 -2 -2 -13q0 -10 6 -16q8 -6 31 -6q3 0 8 1t8 1q20 11 37 49q3 8 8 41q3 30 -2 49q-12 28 -33 37q-28 12 -49 12q-12 0 -45 -14q-18 -8 -43 -33q-16 -12 -22 -22 q-13 -13 -29 -33q-22 -35 -29 -51l-8 -21q-10 -23 -12 -39q0 -6 -4 -10q-3 -7 -4 -21.5t-4 -25.5l-5 -23l-2 -36l-4 -35v-25q0 -38 4 -53q1 -10 2.5 -17t5 -16.5t5.5 -17.5q1 -4 4 -10.5t4 -8.5l6 -12q4 -6 8.5 -15t7 -13.5t8 -10.5t13.5 -12q25 -19 31 -21l15 -5t21 -5 q36 -5 48 0q21 3 51 16q16 6 33 23q4 6 10 12t12.5 12t7.5 7l19 20q7 7 43 53q8 13 22.5 32t18.5 26l16 24q13 27 33 52q20 36 33 49z" />
<glyph unicode="d" horiz-adv-x="770" d="M510 739q3 11 6.5 20.5t5.5 15t2 7.5q7 36 21 92l12 41q6 33 16 64q3 8 6.5 23.5t6.5 23.5l12 51l16 60q3 9 10.5 33.5t10.5 33.5q-68 32 -91 73.5t-12 108.5q2 16 10 29t23 12q13 -3 13 -14q-2 -5 -14 -17.5t-17 -27.5q-10 -50 18 -91.5t78 -53.5q35 57 41 65 q33 42 59 51q9 5 18.5 11.5t15 9.5t11.5 4q10 3 28 9.5t20.5 6t21.5 -1.5q45 -6 43 -43q-5 -37 -48 -80.5t-99 -66.5l-15 -47q-4 -18 -12.5 -52t-13.5 -55q-3 -18 -12 -54l-11 -44l-6 -43l-16 -72l-17 -80q-3 -8 -7 -25.5t-7 -25.5l-16 -72q0 -3 -7 -24q-3 -8 -5 -19t-5 -20 l-8 -39q-12 -32 -12 -55l-9 -37q-8 -31 -18 -109q-3 -18 -6 -28q-2 -6 -2 -17l-6 -55q-4 -28 -4 -39q0 -38 2 -63q1 -6 0.5 -11t0 -10t3.5 -8q4 -17 7.5 -21.5t14.5 -9.5q15 -3 39 6q12 5 37 23l43 41l49 65q22 36 43 60l19 28l20 37l17 23q7 14 22 39q7 9 9 -4q1 -3 1 -4 q-10 -23 -16 -31l-25 -43q-32 -54 -71 -111q-45 -70 -78 -94q-38 -35 -53 -47q-6 -5 -29 -18q-34 -20 -68 -23q-1 0 -7.5 -1t-13 -0.5t-13.5 3.5q-22 8 -37 23q-19 17 -23 36q-8 18 -16 66q-2 8 -2 33q-18 -44 -54 -80q-30 -35 -94 -66q-32 -14 -73 -14q-58 0 -111 31 q-4 3 -12.5 8t-12.5 8q-35 40 -41 66q-1 6 -6 25t-7.5 38t-2.5 49q0 53 6 78q6 54 14 84q0 5 11 31q3 7 9.5 24t10 24.5t10 20.5t13.5 23t16 20q3 4 16 22t19 25.5t18.5 21t26.5 24.5q80 59 205 63q80 0 121 -24l2 14q9 33 12 63zM428 332q0 1 1 10t2.5 23t2.5 24q4 10 6 29 l2 18l19 90l10 49l10 37q0 2 8 33q-10 7 -28 12q-27 6 -38.5 6.5t-49.5 -8.5q-27 -12 -38 -18t-29 -20.5t-34 -34.5q-31 -37 -57 -81.5t-37 -76.5l-14 -55q-21 -65 -21 -160q0 -55 15 -96q22 -62 86 -62q29 0 49.5 10t48.5 35q38 34 57 88q14 43 29 148zM756 1204l59 33 q29 27 42 47t17 49q0 20 -14 23q-15 1 -29 -12.5t-16 -22.5q-17 -20 -29 -43q-20 -45 -30 -74z" />
<glyph unicode="e" d="M264 4l-41 -4q-5 1 -16 1t-20 1t-15 4q-9 3 -26.5 6t-26.5 6q-23 10 -60 43q-10 9 -32 39q-10 14 -13 25q-9 15 -12 31q-14 79 -6 123l6 49q-48 18 -70 46t-22 77v4.5v5.5t0.5 6t1 6.5t2 6t3.5 5t5.5 3t7.5 1.5q13 -4 13 -10q-13 -30 -13 -39q0 -37 20.5 -64t55.5 -34v2 q3 5 5 15t5 14q12 47 15 53q22 55 59 100q27 36 68 74q12 14 57 41l33 16q37 16 88 19q36 0 59 -10q3 -2 10.5 -5.5t11.5 -6t9 -6.5t8 -9q29 -26 29 -61q3 -25 0 -46q0 -12 -12 -40q-30 -49 -43 -62q-12 -16 -25 -24q-8 -8 -28 -21t-27 -18q-61 -40 -115 -50l-49 -6l-16 -1 q-16 -1 -19 -1v-33q-2 -14 -2 -19t2.5 -15.5t3.5 -16.5q3 -37 12 -78q4 -10 9 -19t13 -20.5t13 -19.5q7 -9 21.5 -19t25.5 -10q5 -1 16 -4.5t21 -3.5q41 0 55 6q28 4 58 17q10 3 20 10t23 19t20 18q36 33 64 69q18 29 43 58l14 24q2 3 14.5 22t18.5 30q6 8 12.5 16.5 t13 18.5t9.5 14q4 4 9 0.5t3 -8.5q-4 -3 -7 -10.5t-5 -10.5l-4 -2q-4 -12 -80 -127q-4 -8 -10.5 -15.5t-12.5 -14.5t-8 -9l-20 -24q-9 -9 -20 -24t-15 -19l-31 -29l-39 -33l-63 -29q-6 -2 -19.5 -6t-23 -6t-19.5 -2zM147 416q-4 -12 -6.5 -25.5t-5 -30.5t-4.5 -28 q4 -4 14 -4q19 0 50 8q21 4 27.5 5.5t18.5 8t29 19.5q1 0 8.5 6.5t10.5 7.5l22 25q18 24 27 51q4 9 7.5 22t6.5 17q2 5 8 45q7 16 7 45q0 35 -2 41q-1 6 -15 20q-20 12 -51 -10q-8 -7 -26.5 -25.5t-26.5 -25.5q-2 -4 -5.5 -10.5t-6 -11t-5.5 -7.5q-23 -25 -36 -59 q-8 -10 -29 -58q-14 -18 -17 -26z" />
<glyph unicode="f" horiz-adv-x="477" d="M113 1044q0 20 -11 31q-10 17 -32 23q-30 9 -64 0q-52 -22 -78 -86q-9 -21 -6 -60q3 -40 29 -90q3 -5 9 -14t9 -14q9 -12 31 -29q41 -28 88 -37l16 -2q14 -2 35 -2q12 32 19 61l14 62q20 59 21 61q4 14 16.5 42t15.5 44q5 19 20.5 50t16.5 32q7 22 14 37t13 25t8 14 l45 78q3 8 12.5 21t12.5 18q32 40 59 57q3 3 15.5 9t15.5 9q12 8 73 21h15q21 0 49 -12q28 -16 37 -50q4 -10 8 -49q2 -32 -10 -88q-1 -2 -6 -45q-12 -49 -33 -94q-6 -15 -37 -66q-22 -35 -43 -63q-8 -14 -29 -38t-22 -26q-16 -26 -45 -47q-5 -6 -12 -11t-9 -7 q-12 -14 -43 -27q-15 -8 -57 -24q-1 0 -3 -7l-4 -14t-3 -8v-2l-9 -37l-8 -65q0 -6 -13 -68t-13 -82q-1 -6 -4.5 -17.5t-4.5 -21.5l-8 -43l-4 -28q-12 -46 -22 -76l-11 -49l-18 -72l-10 -51l-15 -58l-6 -53q-3 -16 -12 -66.5t-12 -66.5q-5 -21 -5.5 -29t-5.5 -28 q-5 -18 -10 -66q-6 -35 -6 -106q0 -46 4 -71.5t11 -39.5t8 -20q2 -6 12.5 -16.5t21.5 -14.5q28 -12 52 -2q4 2 14.5 6.5t13.5 7.5q2 2 12 9t11 10q23 30 41 69q20 40 39 137q20 115 20 191q0 108 -24 182q-14 -6 -35 -6q-75 0 -68 72q5 54 41 61q13 1 27.5 -3.5t19.5 -12.5 q26 -33 31 -58l6 -24q44 23 68 47q1 1 14.5 17t17.5 22q29 33 37 51q6 9 27 37.5t29 42.5l26 43l10 -12q-61 -108 -114 -172q-42 -53 -103 -91l-6 -4q17 -74 17 -170q0 -128 -21 -211q-18 -83 -22 -94q-1 -2 -11.5 -34t-15.5 -42l-12 -26l-23 -45q-12 -25 -24 -41 q-17 -22 -43 -37q-23 -22 -63.5 -26t-74.5 8q-44 25 -53 34q-19 25 -30 42.5t-23 58.5t-12 90q0 39 10 121q2 40 14 100q11 56 29.5 160t30.5 164q4 24 10.5 51t7.5 33q6 14 6 45l8 26q3 12 6.5 30.5t6.5 29.5q1 11 6 38.5t6 38.5q12 72 20 91q0 20 13 59q5 60 10 80 q0 3 5.5 29t6.5 34v9q-34 0 -65 8q-40 8 -80 30q-14 13 -41 43l-12 17q-27 47 -33 102q-3 40 6 64q18 42 31 57q3 2 22 17.5t27 19.5q35 15 57 12q22 0 43 -12q18 -8 33 -29q10 -13 10 -30q6 -43 -31 -86q-22 -30 -41 -15q-7 7 -4 15q26 11 35 20q24 34 21 63zM303 809 q0 -1 -6 -31q16 0 22 6q23 5 58 33l43 35q6 6 17 19.5t16 17.5q8 15 27 36.5t20 22.5q21 29 26 41q9 14 11 19q0 1 15.5 28.5t25.5 50.5l12 37l12 54q12 46 12 98q0 29 -6 39q-9 19 -24 16q-14 0 -23 -6q-7 -3 -13.5 -8t-15.5 -14t-14 -13q-14 -14 -23.5 -28.5t-21.5 -28.5 q-8 -10 -35 -59q-3 -5 -41 -80q-17 -37 -22 -58q0 -20 -33 -92q-11 -47 -20 -67q-14 -41 -19 -68zM291 106q15 0 24 3v4q-15 41 -30 53q-8 8 -23 8q-22 -3 -22 -33q0 -35 51 -35z" />
<glyph unicode="g" horiz-adv-x="718" d="M377 154q-8 -17 -32.5 -48t-37.5 -43q-22 -21 -40.5 -31t-57.5 -20q-25 -8 -80 -8q-45 0 -80 29.5t-53 75.5q-12 47 -12 114q0 45 2 68q3 16 5 35t3 30t2 13q2 13 18 49q5 11 12.5 30t11 28t9 19t10.5 15q5 6 18.5 23t18 22.5t14.5 17t16 17.5t15 13.5t19 14.5 q46 31 73.5 47.5t72.5 31t91 14.5q65 0 101 -14.5t61 -45.5q23 -38 23 -84q0 -30 -9 -39q-2 -2 -12 -2q-15 5 -12 13q1 4 6.5 18.5t5.5 32.5q0 67 -76 94q-52 10 -100 -10q-28 -15 -45.5 -26t-46 -36t-55.5 -59q-36 -36 -60 -92q-11 -26 -17.5 -45t-10 -31t-5.5 -16 q-20 -61 -20 -160q0 -72 18 -113q15 -49 66 -49q33 -6 98 45q33 29 57 84q4 11 15 37t12 31q10 28 12 39l9 26q3 12 6 30t6 30q4 16 8 59q2 10 2 33q7 27 14 37q4 4 19 4q12 -3 43.5 -9.5t42.5 -9.5q27 -9 27 -12q2 -6 2.5 -8t-2.5 -8.5t-3 -8.5q-2 -18 -10 -53 q-4 -20 -4 -41q0 -11 -6 -35q0 -3 -3.5 -10t-4.5 -12l-10 -55q-13 -40 -17 -58l-12 -65q-1 0 -5 -29t-5 -29q-2 -2 -2 -8l28 23q60 43 64 47q4 7 20.5 19.5t20.5 19.5q31 31 45 47q11 11 26 31q24 28 35 45q7 11 24 33t25 36q3 8 13.5 21.5t13.5 19.5l4 -20 q-41 -72 -104 -152q-61 -77 -125 -131q-7 -5 -21 -16t-26.5 -19.5t-26.5 -15.5l-20 -14l-7 -25q-6 -18 -13 -52.5t-9 -41.5q-1 -6 -4 -16t-4 -13q-22 -68 -37 -110q-5 -10 -12 -33t-9 -29q-8 -20 -27.5 -58t-27.5 -57q-5 -20 -27 -55q-8 -19 -34 -57q-27 -41 -78 -76 q-34 -26 -60 -35q-40 -14 -55 -14q-33 0 -57 18q-12 7 -25 28t-18 38q-10 43 -8 71t14 72q11 44 43 92q1 2 43 62q8 11 27 31.5t22 23.5t15 14t20 19q12 12 32 26t31 25q15 12 36.5 26.5t35.5 26.5q8 8 23 17l6 16l12 55q29 113 37 140zM285 -186l30 104q-12 -12 -26.5 -21 t-26.5 -20q-13 -9 -28.5 -22.5t-24.5 -20.5l-51 -47q-10 -12 -26.5 -29t-27.5 -30q-38 -38 -55 -66q-31 -60 -39 -92q-13 -51 -10 -80q0 -29 14 -45t33 -16q43 0 68 22q10 8 18.5 18t20.5 29t14 21q4 8 15.5 28t18.5 34.5t11 29.5q4 14 16.5 40.5t16.5 43.5q8 21 20.5 61.5 t18.5 57.5z" />
<glyph unicode="h" horiz-adv-x="724" d="M350 973l-43 -148q-3 -27 -12 -53h2l14 14q14 14 36 39.5t30 34.5q18 23 53 58q8 13 23.5 32.5t21.5 28.5q22 26 51 82q31 50 37 65q33 67 47 109q13 52 11 86q0 10 -3 16q-9 33 -40 21q-40 -17 -60 -35q-28 -22 -51 -55q-14 -29 -27 -49q-3 -6 -18 -45 q-6 -17 -17.5 -44.5t-15.5 -37.5q-6 -17 -18.5 -57.5t-20.5 -61.5zM557 18q-47 -26 -119 -18q-44 5 -71 31.5t-27 72.5q4 66 12 99q6 15 15.5 50t19.5 56q11 28 30.5 85t31.5 87q13 28 16 82q5 2 2.5 20t-2.5 19q-4 30 -39.5 40.5t-65.5 -1.5q-44 -15 -88 -70 q-34 -44 -45 -69q-10 -17 -12 -29q-3 -30 -12 -57q-3 -7 -5 -22t-5 -23q-7 -29 -12 -60t-9 -49q-3 -16 -10 -46.5t-10 -45.5q-3 -14 -6.5 -41t-6.5 -41q-3 -12 -7 -36.5t-7 -37.5q-3 -20 -25 -20h-110q-8 3 -8 12q1 7 2 18.5t2 18.5q3 13 7 36t7 36q3 7 4 21.5t4 21.5 q3 14 9 41.5t8 36.5q3 16 10 49.5t10 50.5t6 35q3 9 5 26.5t5 26.5q3 17 11 45t10 39q1 7 4 20.5t4 20.5q4 21 13.5 60t13.5 59q25 98 28 112q3 12 8.5 31.5t8.5 30.5q3 7 6 19.5t6 19.5q4 10 6 28q5 30 33 109q14 40 23 61q7 20 24.5 59t24.5 58q2 5 10.5 25.5t13.5 29.5 q7 11 19.5 34t19.5 34q6 12 14 20q14 24 48 52q45 25 59 32q9 3 32 4.5t31 4.5q1 2 7.5 1t7.5 -1q27 6 53 -17q25 -16 31 -51q8 -32 4 -78q-2 -26 -12 -63q-5 -18 -11.5 -34.5t-18 -39t-15.5 -31.5q-19 -30 -39 -67q-28 -50 -33 -56q-4 -7 -13.5 -18.5t-13.5 -18.5 q-4 -6 -69 -86l-74 -86q-18 -18 -43 -36q-10 -7 -10 -17q-14 -73 -33 -123q-3 -8 -9.5 -33.5t-9.5 -33.5q28 40 58 73q21 24 53 43q43 19 59 23q59 14 119 -8q35 -14 54.5 -31t29.5 -51l2.5 -27.5t1.5 -25t-1.5 -20t-6.5 -23.5q-3 -14 -12.5 -45.5t-12.5 -44.5 q-7 -21 -24 -60q-5 -9 -25 -72q-21 -53 -30 -98q-12 -41 -15 -82q-3 -28 6 -37q6 -10 16 -13t36 -3q11 1 23.5 7t18.5 10t23 18.5t21 17.5q14 11 31 37.5t20 30.5q7 9 21.5 29.5t21.5 29.5q5 12 16 27q27 43 33 57q35 51 45 68l4 10l4 -16l-2 -9q-2 -4 -20 -36q-1 1 -15 -22 t-41.5 -67t-52.5 -81q-47 -64 -65 -80q-7 -7 -16.5 -13.5t-16.5 -13.5q-2 -1 -13 -9t-22 -18z" />
<glyph unicode="i" horiz-adv-x="354" d="M266 938q16 0 30.5 -7t14.5 -24q0 -48 -47 -86q-14 -14 -43 -4q-12 3 -24 12q-7 16 -7 33q0 32 21 47q15 15 20 19q13 10 35 10zM4 209q-4 16 -4 18q1 7 2 23.5t2 23.5q1 8 2 23t2 22q3 8 4 25t4 25q4 30 11 47q12 56 26 104q17 47 31 109l12 37q0 7 6 10q6 6 15 6 q7 -3 20 -2t17 -2q10 -1 28.5 -2t28.5 -2q4 -3 12.5 -2t12.5 -2q8 0 4 -11v-14q-6 -18 -16.5 -49t-14.5 -43q-2 -9 -19 -57q-14 -53 -14 -54q-9 -22 -12 -41q-1 -5 -2 -15t-2 -15q-1 -4 -6.5 -27t-10.5 -39q0 -21 -2 -35q-8 -25 -4 -63q0 -7 -2 -17.5t-2 -17.5q0 -8 1 -20 t1 -15q1 -9 4 -23t4 -20q7 -19 15 -27t24 -8q24 0 37 13q17 10 41 37q5 5 15.5 18t15.5 18q7 7 17.5 22.5t17.5 22.5q9 12 12 21q29 37 35 51q35 55 45 74q17 30 20 33q14 14 14 1q0 -3 -1 -5q-90 -148 -97 -158q-3 -5 -20 -31t-24.5 -37.5t-22.5 -30t-29 -30.5 q-15 -16 -21.5 -23t-17.5 -15t-26 -17q-22 -12 -46 -17q-10 -1 -15.5 -2.5t-8.5 -1.5h-19q-14 2 -43 18q-17 17 -30 43q-5 9 -7 17.5t-6 15.5q-3 5 -4 17.5t-4 19.5q0 22 -6 37q-4 5 -1.5 19.5t1.5 19.5z" />
<glyph unicode="j" horiz-adv-x="391" d="M184 29l-28 -19l-9 -45q-8 -38 -8 -41l-8 -28q-9 -59 -29 -109q-3 -8 -8.5 -29t-11.5 -34q-7 -19 -21.5 -59t-21.5 -60q-6 -10 -14 -30t-11 -26q-10 -24 -37 -69q-5 -14 -12 -21q-18 -30 -45 -51q-4 -3 -10.5 -8.5t-10.5 -8.5t-9.5 -7t-11.5 -6.5t-13 -4.5q-12 -6 -66 -6 q-12 0 -24 4q-6 1 -12 2.5t-9 2t-7 2t-8 4t-9 6.5q-31 22 -37 45q-2 7 -5.5 15t-5 13t-3 16.5t-1.5 28.5q0 21 17 86q5 23 25 57t24 42q10 16 45 61q42 48 47 53q4 6 16.5 16.5t18.5 16.5q12 12 32 26t31 25q14 14 34.5 27t23.5 16l10 45q1 8 5 26t5 26l4 16q0 4 3.5 13 t3.5 12q17 90 28 123q1 8 5 23t5 24l11 47q4 41 10 57q3 8 8 47l27 154q8 43 10 49q3 13 6 38t6 38q1 19 5.5 23.5t17.5 6.5q13 0 54.5 -4.5t59.5 -3.5q9 -3 9 -10q0 -16 -9 -37q-3 -40 -20 -104q0 -5 -7 -52.5t-7 -52.5q-6 -42 -9 -51q-5 -41 -18 -84q-6 -42 -6 -43 q-12 -80 -25 -119l-20 -100l33 24q7 7 31.5 25t31.5 25q5 5 21.5 18.5t21.5 18.5q36 36 43 47q3 4 13.5 15t13.5 15q29 33 35 45q8 13 25 35t24 35q4 7 13 20.5t13 20.5l4 -18q-51 -83 -104 -154q-61 -77 -125 -131q-70 -49 -74 -51zM-297 -522q0 -7 6 -25q7 -16 31 -16 q35 0 70 35q4 5 21.5 25.5t25.5 33.5l26 49q7 16 17 43q7 23 30 84l35 121l19 78l-6 -4q-6 -4 -9 -8q-36 -22 -51 -39l-53 -52q-7 -7 -53 -57q-5 -5 -13.5 -13t-13 -12.5t-10.5 -11.5t-10 -13t-7 -13q-5 -10 -16 -29t-18 -33.5t-13 -32.5q-12 -47 -8 -110zM289 995l5 -1 q6 -1 12 -4t9 -9q0 -1 1 -3t1 -3q0 -2 2 -4q6 -24 7 -43q6 -12 -10.5 -43t-41.5 -35q-20 -5 -32.5 4.5t-16.5 21.5t-8 33q-8 31 11.5 55t60.5 31z" />
<glyph unicode="k" horiz-adv-x="675" d="M63 1133q-11 14 -24 20q-15 9 -41 6q-30 -7 -55 -26l-13 -17q-25 -44 -22 -88q0 -1 7 -24t13 -37q10 -18 62 -70q14 -10 33 -18q17 -10 36 -13q28 -9 64 -6l2 2q0 3 1 6t1 6q11 33 18 91q13 50 23 73q3 8 6 22t6 21q5 20 4 25q4 17 35 72l21 41q10 26 30 49q5 10 23 28 q8 3 8 11q3 6 17.5 21t17.5 18q31 27 45 34l20 15q1 1 6 1t9 3q14 3 28 12q13 8 27 8q5 0 19 3t22 3h16q30 0 54 -8q20 -11 34 -43q4 -9 9 -49v-31q0 -33 -7 -49q-3 -8 -5 -24t-5 -21q-4 -11 -9 -26.5t-8 -24.5t-9 -22t-15 -25q-13 -23 -39 -53q-8 -9 -22.5 -29t-18.5 -25 q-3 -3 -21 -22t-32 -27l-2 -2l-12 -14q-12 -15 -33 -27l-20 -16q-11 -8 -41 -25q-12 -3 -32.5 -8t-31.5 -8q-2 0 -6 -4v-17q-3 -7 -4 -19.5t-4 -19.5q-4 -14 -5 -22.5t-5 -22.5q-3 -9 -6.5 -26t-6.5 -25l-16 -72q0 -10 -4 -18q-12 -28 -19 -55l-8 -39q-1 -5 -5.5 -21 t-4.5 -24l-6 -37q-3 -11 -5 -29.5t-5 -27.5q0 -3 -0.5 -23t-4.5 -29q-1 -4 -1 -22t-3 -27q0 -13 -4 -41q-2 -2 -2 -10l-6 -53l-6 -58q-1 -7 0 -29t-1 -38.5t-9 -24.5q-2 -4 -7 -7t-13 -4.5t-15 -2t-15.5 -1.5t-11.5 -1q-20 0 -31 3.5t-15 16t-4.5 17.5t-0.5 28q0 4 4 33 t4 33q0 28 6 49v55q0 27 2 41l7 41q4 36 4 52q0 4 2 12t2 12q2 6 8 47l12 90q11 26 15 54q1 7 4 18t4 18q3 13 7 32.5t7 31.5q6 23 10 59q3 10 6.5 30t6.5 30q3 6 4 13.5t1 16t1 13.5q-32 -3 -62 4q-33 6 -53 20q-4 3 -9.5 5.5t-8.5 5.5q-40 21 -72 79q-19 31 -25 60 q-4 29 7 63q17 45 30 58l8 8q8 15 35 26q24 7 43 7q22 0 45 -13q18 -16 21 -24q25 -45 8 -92l-1 -3l-1.5 -6l-1.5 -6t-2.5 -5.5t-4 -5t-5 -4t-6 -2t-7.5 0.5q-10 3 -10 14q2 2 8.5 9t10 12.5t4.5 11.5q9 40 -7 68zM428 737q-48 0 -78 -30q-5 -5 -18 -35q-8 -4 -17 2 q-9 10 -1 25t18 22q17 16 36 22t56 11q37 9 82 -6q79 -39 82 -99q4 -50 -23 -96t-71 -72q-22 -14 -48 -23t-41.5 -12t-43 -6t-31.5 -4h2q23 -14 39 -43q17 -28 24 -53q0 -1 3 -17t3 -24l5 -37q1 -13 5 -33t5 -28q0 -22 8 -43q11 -47 29 -76q15 -27 43 -27q7 0 12.5 0.5t12 3 t9.5 3.5t10.5 6.5t9.5 6.5t11.5 9t11.5 10q10 8 19 19t19 26.5t16 22.5l43 59l16 27q27 43 33 57q7 11 21.5 31.5t21.5 32.5q4 7 7 6.5t3 -8.5l-2 -9l-20 -36q-1 1 -15 -22t-42 -67t-54 -81q-28 -42 -66 -80q-15 -15 -32 -27l-21 -12q-17 -12 -28 -17q-8 -4 -24 -8t-22 -6 t-24 -2h-14q-7 0 -25 6q-7 3 -14.5 8.5t-14.5 8.5q-18 14 -37 59l-10 24q-5 12 -10.5 42t-5.5 42l-2 23q-6 33 -6 63q0 33 -11 66q0 12 -2 14q-1 10 -20 41l-8 11q-2 7 -13 14q-9 3 -16 10l4 4q28 4 35 8q10 3 21 6.5t23.5 8.5t20.5 8q45 21 68 41q32 20 43 31q32 36 35 39 q3 4 9.5 17t8.5 15q6 8 8.5 18.5t4.5 14.5q8 18 -2 47q-15 47 -64 47zM268 895q0 -9 -4 -29q9 -3 27 4q44 10 67 33q20 11 50 41q8 5 28 25q3 4 14 14t17 18q16 13 25 25q5 8 17 23.5t17 23.5q1 1 9.5 15t13.5 18q4 7 8.5 17.5t7.5 15.5q11 19 13 28q3 5 5 13.5t5 13.5 q8 25 12 55q4 34 2 54q-3 28 -12 43q-17 17 -37 14q-1 0 -21 -4q-6 -3 -17 -8t-19 -10t-15 -11q-42 -38 -61 -63q-6 -6 -10 -17l-17 -28q-12 -12 -12 -19q-17 -17 -23 -47q-9 -16 -22 -51q-1 -7 -5 -18.5t-5 -18.5l-15 -29q0 -15 -10 -45q-3 -8 -6 -14.5t-6 -20.5 q-13 -29 -21 -61z" />
<glyph unicode="l" horiz-adv-x="446" d="M166 473q-1 -7 -1 -22t-1 -23q5 7 13 19t11 16q9 13 35.5 45.5t40.5 54.5q6 11 23 34.5t24 37.5q13 19 33.5 58.5t32.5 58.5q24 40 31 59q49 91 63 139q7 18 31 75t39.5 101t19.5 78q14 81 8 103q-3 24 -24 24q-10 0 -45 -20q-29 -21 -45 -39q-25 -26 -60 -90 q-9 -17 -32.5 -71t-38.5 -77q-13 -21 -25 -55q-3 -7 -9.5 -20t-10.5 -23t-7 -21q-2 -4 -8.5 -22t-11.5 -27q-8 -20 -12 -45q-11 -36 -25 -88q-3 -7 -5 -17.5t-5 -17.5q-7 -13 -21 -71q-7 -25 -10 -64q0 -3 -4 -30.5t-4 -59.5zM242 0q-9 -4 -43 -4q-15 0 -35 4q-29 11 -49 27 q-43 29 -62 75q-14 32 -26 107q-9 47 -9 123q-2 16 -2 51v4q0 17 2.5 35t6.5 41.5t6 40.5q4 30 10 43q0 19 10 49q0 18 15 76q2 8 8.5 37.5t13 53.5t12.5 38q8 23 19 65q7 29 22 58q3 26 13 43q4 10 18 34q13 22 16 41q6 9 14 33.5t11 30.5q7 11 13.5 25t15 34t12.5 29 q4 4 33 57q2 3 9 17.5t13.5 25.5t12.5 15q5 7 10.5 15.5t8 11.5t8 8t13.5 10q12 7 23.5 15t20 13t18.5 9q3 2 31 8q14 5 36.5 5t36.5 -5q30 -13 35 -21q17 -17 25 -41q6 -30 6 -67q-2 -25 -21 -105q-11 -49 -51 -141.5t-47 -110.5q-1 -4 -55 -120q-29 -56 -43 -80 q-70 -122 -76 -131q-12 -21 -23 -36.5t-27.5 -36.5t-25.5 -32q-17 -24 -35 -45q-4 -4 -15 -23t-15 -22l-2 -22q-1 -13 -1 -34t-1 -30q-7 -50 -4 -123q4 -43 12 -67q1 -1 8 -23q15 -35 45 -47q12 -4 29 -4t37 10q3 2 10.5 7.5t15 11.5t13.5 12q9 8 38 41q36 46 52 69 q26 43 41 62q2 3 8.5 13t9.5 13q10 23 21 37l14 23q0 1 22 37q6 5 7.5 3.5t3.5 -11.5q-6 -13 -19 -31q-4 -7 -10 -20.5t-10 -20.5q-19 -32 -70 -111q-54 -85 -78 -102q-49 -49 -78 -64q-13 -8 -32 -16z" />
<glyph unicode="m" horiz-adv-x="1124" d="M954 18q-44 -27 -116 -18q-45 5 -72 31.5t-27 72.5q3 58 11 99q7 17 16.5 51.5t17.5 54.5q11 28 30.5 85t31.5 87q6 14 9 25.5t5 29t4 27.5q2 11 2.5 14t-2 12.5t-2.5 12.5q-4 30 -39 40.5t-65 -1.5q-46 -16 -86 -70q-33 -37 -47 -69q-7 -9 -11 -29q-4 -32 -16 -57 q-4 -8 -7 -23t-5 -22q-8 -24 -15.5 -54t-15.5 -55q-4 -16 -14.5 -46.5t-14.5 -45.5q-7 -24 -20 -82l-19 -74q-6 -20 -28 -20h-109q-10 3 -10 12q3 7 5 18.5t5 18.5l19 72q3 7 6 21.5t6 21.5l25 78q3 10 13 45.5t13 54.5l12 35l15 47q0 16 6 31q18 60 22 79q7 42 5 62 q0 54 -62 57q-30 0 -59 -16q-44 -22 -84 -84l-23 -37q-4 -12 -31 -55v-9l-8 -30q-2 -6 -2 -31q-1 -9 -4 -24t-4 -21q0 -3 -4 -23q-4 -29 -8 -38q-1 -7 -15 -62q-2 -7 -8 -25.5t-10 -31.5q-4 -14 -16.5 -41t-16.5 -39q-3 -3 -4 -10.5t-4 -10.5l-18 -36q-1 -2 -9 -19 q-10 3 -19 3.5t-20 -0.5t-16 -1q-7 0 -27.5 -3t-27.5 1h-23l-4 12q5 32 12 39l11 23q3 3 6 12t6 12q8 14 15 38t10 32q4 9 11.5 27.5t10.5 25.5q9 28 10 29q0 12 4 20q3 11 6.5 24.5t6.5 25.5q0 14 4 26q0 3 1 5.5t2.5 6t2.5 5.5l4 18l10 53q4 15 4 68q0 19 4 55l5 55v41 q38 6 65 -12q13 -8 21 -27q3 -9 11 -26.5t11 -26.5q14 -32 8 -47q0 -4 1 -8.5t2.5 -11t2.5 -9.5q6 14 21 39l18 33q25 37 74 82l16 12q58 38 140 35q37 -5 55 -15t41 -40q10 -10 20 -37q6 -43 7 -45v-12q1 0 2 1t2 1q31 45 57 73q28 31 55 43q43 19 58 23q62 13 119 -8 q35 -14 55 -31t31 -51q0 -12 0.5 -28t0.5 -24.5t-1 -20t-5 -23.5q-3 -13 -13 -44.5t-13 -45.5q-9 -24 -25 -60q-4 -10 -10 -32t-14 -40q-19 -44 -31 -98q-11 -37 -14 -82q-3 -24 6 -33q10 -16 45 -16q12 1 21.5 3t20.5 9t15 9t18.5 14.5t16.5 13.5q10 8 18.5 19t18.5 27 t14 22q9 10 23.5 31.5t19.5 27.5l17 27q22 28 32 57q35 51 45 68l4 10l7 -16l-2 -9l-23 -36l-6 -8q-5 -9 -15 -26.5t-23 -38t-30.5 -47t-34.5 -50.5q-25 -43 -65 -80q-7 -7 -16.5 -13.5t-16.5 -13.5q-1 -1 -12.5 -9t-22.5 -18z" />
<glyph unicode="n" horiz-adv-x="747" d="M842 383l2 -16l-4 -13q-14 -22 -31 -53q-30 -56 -76 -119q-73 -96 -129 -135l-8 -6q-8 -6 -39 -25l-31 -10q-15 -6 -34 -6q-24 0 -37 8q-25 11 -35 37q0 5 -8 18q-4 7 -7 17t-5.5 26.5t-4.5 24.5q-7 34 4 88q3 13 8.5 37t8.5 37q3 7 7 21.5t7 21.5q15 36 35 113 q18 60 22 79q7 42 5 62q0 54 -62 57q-30 0 -59 -16q-44 -22 -84 -84l-23 -37q-4 -12 -31 -55v-9l-8 -30q-2 -6 -2 -31q-1 -9 -4 -24t-4 -21q0 -3 -4 -23q-4 -29 -8 -38q-1 -7 -15 -62q-2 -7 -8 -25.5t-10 -31.5q-4 -14 -16.5 -41t-16.5 -39q-3 -3 -4 -10.5t-4 -10.5l-18 -36 q-1 -2 -9 -19q-10 3 -19 3.5t-20 -0.5t-16 -1q-7 0 -27.5 -3t-27.5 1h-23l-4 12q5 32 12 39l11 23q3 3 6 12t6 12q8 14 15 38t10 32q4 9 11.5 27.5t10.5 25.5q9 28 10 29q0 12 4 20q3 11 6.5 24.5t6.5 25.5q0 14 4 26q0 3 1 5.5t2.5 6t2.5 5.5l4 18l10 53q4 15 4 68 q0 19 4 55l5 55v41q38 6 65 -12q13 -8 21 -27q3 -9 11 -26.5t11 -26.5q14 -32 8 -47q0 -4 1 -8.5t2.5 -11t2.5 -9.5q6 14 21 39l18 33q25 37 74 82l16 12q58 38 140 35q37 -5 55 -15t41 -40q10 -10 20 -37q4 -14 9 -45q5 -39 -4 -100l-15 -56q-3 -8 -6 -24.5t-6 -24.5 q-1 -4 -27 -69q-5 -8 -10.5 -26.5t-7.5 -23.5q-3 -11 -5 -27.5t-5 -27.5q-1 -4 -3 -15.5t-3 -15.5q-1 -7 -1.5 -12t-1.5 -12q-2 -14 -2 -31q0 -39 29 -39q11 0 28 8.5t27 18.5l52 47q21 21 53 67q19 31 43 62l16 24l33 58z" />
<glyph unicode="o" horiz-adv-x="649" d="M496 207v-2q-45 -88 -109 -146q-48 -42 -115 -51q-66 -11 -135 10q-46 16 -96 86q-46 57 -49 142q-3 26 0 53q0 13 3 35.5t3 27.5q9 21 12 54q17 68 62 131l28 31q26 26 62 51q98 69 233 53q36 -6 70 -30.5t53 -57.5q20 -38 31 -100q2 -23 2 -66q-6 -65 -8 -74 q-18 -71 -19 -73q-3 -10 -6.5 -20t-8 -22l-7.5 -20q5 0 18.5 -1t18.5 -1q26 0 47 8q24 9 45 21q7 2 24 16q18 18 23 25l8 10l23 37l24 37l12 -6q-5 -5 -8 -13q0 1 -1 -0.5t-3 -6t-5 -9t-7.5 -14t-9.5 -17.5q-13 -23 -25 -35q-4 -4 -29 -24q-52 -43 -129 -43q-4 0 -32 4z M420 141q3 3 8 14.5t12 29t13 28.5q-33 9 -74 33q-56 38 -75.5 116t7.5 185q11 32 24 52t23 27.5t27 16.5q-24 3 -39 -4q-45 -18 -82 -55q-8 -6 -17 -17.5t-11 -13.5q-1 -3 -4.5 -7t-4.5 -7q-28 -48 -47 -93q-31 -80 -39 -151v-23q-4 -11 -4 -51q3 -22 13 -45q2 -7 4 -19 t5 -21t9 -19q2 -3 9.5 -15.5t10.5 -17t10 -13t15 -14.5q32 -25 74 -22q5 2 20.5 5.5t24.5 8.5q23 13 35 25q17 17 53 67zM408 256q13 -13 51 -27q3 7 5 15t4.5 19.5t4.5 19.5q39 169 -18 286q-17 31 -39 39q-13 3 -23 0q-6 -2 -18 -14q-11 -11 -23 -57q-16 -45 -16 -121 q0 -21 4 -49q6 -24 6 -35q16 -49 62 -76z" />
<glyph unicode="p" horiz-adv-x="675" d="M758 375q11 14 14 -6q-5 -12 -41 -72q-2 -3 -9 -13t-11 -16q-26 -33 -72 -82q-33 -33 -70 -47q-44 -18 -65 -12q-17 -31 -43 -64q-53 -65 -121 -65q-29 0 -45 8q-29 12 -40.5 42t-0.5 65q6 15 13.5 26t17.5 18t18.5 12.5t21.5 7t20.5 3t21.5 0t18.5 -2t17.5 -3.5l13 -2 q14 -3 30.5 -9t20.5 -7q21 54 33 180q4 20 4 57.5v44.5q1 8 -1.5 27t-2.5 24q-12 63 -35 86q-27 24 -51 27q-19 2 -31 0q-8 0 -31 -10q-22 -10 -46.5 -32.5t-37.5 -41.5q-9 -12 -18.5 -23.5t-15 -18.5t-9.5 -15q-3 -8 -6 -31l-10 -74q-3 -8 -8 -51q0 -13 -4 -41 q-3 -12 -7.5 -37t-7.5 -37q-9 -62 -14 -92q-3 -12 -6 -37t-6 -38q-3 -14 -5.5 -33t-5.5 -33q-3 -20 -10 -54.5t-10 -54.5q-3 -11 -10 -41.5t-11 -46.5q-3 -13 -8 -35t-9.5 -40t-10.5 -35l-31 -99q-5 -14 -13.5 -37.5t-11.5 -31.5q-19 -41 -49 -80q-16 -22 -49 -31 q-4 -2 -12 -4q-29 -4 -39 0q-5 1 -13 5l-10 5q-46 30 -55 97q-11 71 -4 125q7 64 39 178q1 2 45 121q12 23 29 61t28 61q5 9 19.5 37t23.5 41q3 6 11.5 22.5t17.5 29.5q3 3 7.5 12t8.5 14q1 3 5.5 7t5.5 7q1 15 4 44t4 45q3 15 5 45t5 45q0 13 4 41q0 17 5 54t10 52 q0 12 8 62.5t8 58.5q4 43 20 80q1 3 9 7.5t10 6.5q7 3 19.5 10.5t19.5 10.5q0 -4 2 -2l2 2q19 8 36 16t31 14q1 0 4.5 2.5t9 3.5t15.5 0q8 0 8 -28q0 -39 -8 -72q-1 -8 -3 -22.5t-3 -22.5q0 -2 -6 -35.5t-6 -34.5q-4 -10 -13 -77q17 29 44.5 62.5t45.5 47.5q4 3 19.5 18 t28 25.5t22.5 16.5q40 22 62 28q16 5 57 0q21 0 45 -24q73 -66 49 -256q-5 -45 -22 -101t-27.5 -81.5t-38.5 -88.5q21 -3 55 15q37 18 58 39q47 47 67 77q19 24 23 33q6 9 20.5 34t20.5 34zM27 158l-15 -23q-10 -14 -17.5 -27t-17 -33t-14.5 -30q-5 -11 -17.5 -32t-17.5 -33 q-4 -8 -11 -26.5t-11 -27.5q-18 -41 -41 -100q-5 -20 -18.5 -54t-18.5 -53q-4 -17 -9.5 -40.5t-9 -42t-6.5 -39.5q-6 -68 13 -148q16 -48 49 -57q17 -2 31 2q13 8 24 33q12 32 21 79q3 20 9 54t9 53q3 14 7 50.5t7 51.5q3 22 8.5 66t8.5 65q3 13 8 66q1 7 3 19.5t3 19.5 q3 15 5 41.5t5 40.5q3 21 6.5 63t6.5 62zM451 113q2 7 5.5 14.5t4.5 11.5q-36 13 -47 15q-16 6 -58 6q-25 0 -51 -13q-22 -11 -29 -28q-10 -23 -10 -39q0 -25 6 -35q6 -15 15 -18q17 -13 39 -13q28 0 63 21q40 30 62 78z" />
<glyph unicode="q" horiz-adv-x="737" d="M629 4q4 21 -2 109q-26 -11 -33 -11q-21 0 -34 16.5t-9 49.5q4 43 35 51q20 6 35 -12q20 -33 24 -55v-7q24 21 49 50l29 34l39 52q6 9 21.5 30t23.5 35l16 29q7 0 11 -4q2 -2 2 -6q-15 -27 -80 -117q-75 -94 -107 -119q6 -23 6 -72q0 -46 -9 -105t-24 -125t-16 -73 q-11 -51 -35 -110q-2 -5 -8 -23t-10 -27l-12 -28l-13 -25q-5 -16 -16 -30q-3 -8 -12 -20.5t-13 -20.5q-20 -40 -51 -60q-53 -35 -117 -16q-26 16 -40 33q-39 51 -31 114q1 12 3.5 39t4.5 41.5t5.5 35.5t8.5 38q2 10 23 92q6 28 22.5 110t30 140.5t29.5 109.5 q-7 -18 -33.5 -49.5t-34.5 -34.5q-35 -32 -96 -53q-31 -10 -70 -10q-52 0 -89 30t-48 76q-2 7 -6.5 21.5t-7 24t-4.5 29t-2 42.5q0 27 3 46.5t3 31.5q14 88 24 117q10 32 33 76q23 41 41 62t55 52q14 14 52 39q30 27 99.5 49.5t137.5 22.5q65 0 101 -14.5t61 -45.5 q20 -33 20 -69q0 -58 -16 -74q-4 -4 -14 -4q-16 10 -11 18q1 3 8 12.5t11 22t4 29.5q0 32 -22.5 58.5t-57.5 37.5q-77 6 -121 -14q-80 -41 -108 -68q-6 -6 -23 -21.5t-26.5 -26.5t-14.5 -21q-36 -51 -47 -78q-11 -26 -33 -92q-1 -6 -6.5 -27.5t-5.5 -34.5q0 -15 -5 -48 t-5 -50t4 -49q6 -41 16 -64q15 -48 66 -51q37 0 57 12q21 13 43 35q26 23 58 80q3 10 12 31t12 35q8 20 12 45l7 26q3 12 5 28t5 28q1 6 3.5 27t2.5 34l4 29q3 8 3 20t3 17q2 10 15 10q11 -1 47 -6.5t49 -6.5q2 -1 9 -1t12 -1t5 -4q3 -4 3 -9t-1.5 -11.5t-1.5 -11.5 q0 -16 -8 -52l-6 -47l-14 -57l-8 -41l-15 -72l-12 -65q-1 0 -5 -29t-5 -29l-13 -53l-34 -143q-13 -51 -27 -119q-3 -11 -6 -32.5t-6 -30.5q-15 -66 -15 -115q0 -19 11 -45q3 -3 9 -7.5t9 -7.5q15 -9 37 0q12 9 20 17l15 18q31 57 39 80q20 40 43 117q23 80 32 130.5 t17 135.5zM594 123q16 0 29 8q-7 16 -17 33q-10 10 -20 10q-19 -3 -19 -24q0 -27 27 -27z" />
<glyph unicode="r" horiz-adv-x="555" d="M154 573q4 20 4 25l-13 8q-21 9 -45 33q-16 15 -22 35q-12 46 -12 63q0 34 14 56q6 15 16 18q4 2 8 5.5t6 5t6.5 2.5t10.5 1q32 0 47 -41l4 -14q6 -23 6 -84h6q8 -3 26.5 -5t29.5 -5q14 -2 43 -2q8 1 31.5 -0.5t31.5 2.5q13 3 34 4t34 4q23 10 37 10q8 0 18 -10 q14 -14 0 -33l-20 -41l-23 -39q-23 -42 -29 -55q-15 -26 -24 -53q-22 -68 -31 -88q-6 -19 -8 -31l-8 -27q-3 -13 -8.5 -36t-8.5 -35q0 -3 -1 -7.5t-1 -7.5q-6 -38 -6 -67q0 -33 8 -49q9 -15 23 -29t45 -14q18 0 41 10q27 17 39 29l24 26q14 17 37 51q7 12 20.5 31.5 t20.5 30.5l17 24l32 60q6 9 10.5 16t7 11t5.5 10q7 12 12 1q3 -6 0 -10l-6 -12q-5 -9 -15.5 -26.5t-15.5 -26.5q-26 -48 -73 -119q-65 -95 -119 -133q-57 -45 -123 -45q-41 0 -61 20q-22 22 -25 27q-15 18 -21 49q-6 21 -6 47q0 41 11 113q2 18 12 47q12 53 33 105l6 24 q18 42 28 70q6 18 18 43t15 33h-45q-42 0 -51 4l-23 6q-3 0 -6 1t-6 1q0 -5 -4 -25q-4 -26 -12 -51l-15 -49q-7 -22 -28 -80l-21 -47q-5 -11 -17.5 -35.5t-17.5 -38.5q-4 -11 -38 -67q-3 -5 -11.5 -17t-11.5 -20q-4 -10 -10 -18.5t-13 -16.5t-10 -12l-24 -33l-54 -53 q-35 -27 -57 -27q-31 0 -31 27q0 12 5.5 19t11.5 7q2 0 11 -1t17 -1q5 0 21 4l20 11q3 2 14 12t19 16q5 4 16 17.5t17 19.5t11.5 13.5t11 16t8.5 13.5l12 19q27 44 43 73l10 21q24 43 37 78q28 70 29 73q4 12 24 78q3 9 7.5 28.5t7.5 28.5zM145 705l21 -11v31q-1 5 -1 13 t-1 14t-4 10q-10 29 -29 29q-17 0 -20 -27q-2 -11 8 -33q17 -23 26 -26z" />
<glyph unicode="s" horiz-adv-x="520" d="M360 123q-7 -8 -16 -23t-14 -20l-15 -19q-3 -2 -16.5 -16.5t-26.5 -19.5l-18 -15q-1 0 -12.5 -7t-27 -13.5t-30.5 -7.5l-16 -9q-8 -4 -19.5 -5.5t-17.5 -4.5q-4 0 -6 -2q-11 -4 -16 -2l-9 1q-8 0 -8 -1q-44 0 -72 14q-19 8 -36 25q-27 30 -21 72q3 46 31 77q18 23 59 37 q42 11 58 11q44 0 59 -5q4 -1 11.5 -3t11.5 -3l38 -8l27 -8q0 4 -1 6q-1 1 -1 2v19v45l-8 20q0 4 -3 13.5t-5 9.5l-11 24l-4 12l-10 25q-3 7 -5 20t-5 21q-16 16 -25 51l-12 25q0 3 -5 22.5t-5 32.5v27q0 27 8 51q-56 14 -81.5 43t-25.5 82q0 37 21 37q12 -4 12 -8 q-12 -28 -12 -39q0 -41 24.5 -69t65.5 -32l6 29q29 51 55 74q18 13 41 26q8 3 24 12t26 9q41 0 43 -27q-5 -35 -30.5 -77.5t-53.5 -59.5l-9 -8v-35l9 -29q0 -16 20 -43l16 -41l23 -41q29 -66 29 -67q10 -42 10 -64q0 -4 -1 -13l-1 -9q0 -3 2 -8t2 -31q0 -43 -12 -64 q85 13 155 115l21 25q10 15 29 47.5t34 54.5l8 -14q-14 -30 -57 -97l-22 -26q-45 -60 -82 -89t-95 -34zM229 74l21 49q4 12 4 22v5q-2 1 -19.5 7.5t-33.5 10.5q-1 0 -4 1t-4 1q-23 6 -70 6q-24 0 -57 -10l-13 -6q-11 -4 -33 -27q-2 -2 -6 -14q-18 -25 -18 -53q-3 -23 8 -48 q3 -5 5 -8t2.5 -4t1.5 -2.5t3 -3.5q7 -7 13 -10q2 0 9 -4t18 -6.5t26 -2.5q37 0 68 17l18 12q39 26 61 68zM272 623v-9l7 4q38 38 49.5 59t9.5 48q-3 14 -12 14q-21 0 -35 -43q0 -4 -4 -8q0 -30 -15 -65z" />
<glyph unicode="t" horiz-adv-x="407" d="M219 41q23 0 38 10t42 37q10 10 20 22.5t22 28.5t17 23q7 9 21.5 29.5t21.5 29.5q4 9 17 27q27 43 33 57q6 10 21.5 32t23.5 36l2 6q0 2 2 0q4 -4 4 -12l-2 -9q-4 -8 -11.5 -20.5t-9.5 -15.5q-1 1 -14.5 -22t-41.5 -67t-54 -81q-27 -47 -66 -80q-8 -8 -16.5 -15.5 t-12.5 -11.5l-24 -18q-14 -12 -57 -27q-30 -10 -62 -10q-27 3 -47 20q-26 22 -33 39q-12 27 -14 57q-1 9 -3 26t-3 26q-4 46 -4 57q1 8 2 24.5t2 24.5q1 7 2 21.5t2 21.5q1 2 8 60q5 80 10 112q5 41 8 49q13 73 29 134q7 29 8 30h-6q-3 0 -8.5 1t-9.5 1q-8 0 -21.5 1 t-15.5 1q-8 0 -20 -1t-15 -1q-6 -2 -14 -2t-8 15q0 12 8 12q4 -2 12 -2h18q39 0 54 -4h22q6 0 8 2q4 13 10.5 33.5t10.5 33.5q2 9 8.5 30.5t9.5 35.5q7 27 25 72q12 54 25 79q3 5 7 15.5t7 15.5q7 31 18 45q6 6 17 6q48 -9 84 -12q33 -8 34 -14q6 -15 -2 -29q-3 -9 -7.5 -22 t-8 -24t-6.5 -22q-1 -2 -17 -45q-6 -14 -13 -40t-9 -31q-3 -13 -12.5 -33t-12.5 -29q0 -5 -4.5 -16.5t-5.5 -13.5q-4 -26 -12 -45q7 -5 29 -5h40q4 0 19.5 -1t19.5 -1h43q11 0 11 -8q0 -18 -11 -18q-2 1 -6.5 2t-7.5 2q-4 1 -16 2t-17 2h-51q-7 0 -24.5 2t-32.5 2 q-6 -15 -18 -55.5t-15 -50.5q-23 -119 -29 -158q-7 -39 -10 -78q-6 -22 -8 -51q-1 -10 -4 -30t-3.5 -30.5t1.5 -33.5q0 -7 1 -18.5t1 -18.5q0 -8 1 -19t1 -16q4 -30 10 -43q5 -20 14.5 -30.5t30.5 -10.5z" />
<glyph unicode="u" horiz-adv-x="751" d="M838 375q5 5 9 -3q3 -6 -1 -10q0 -2 -2 -4q-54 -92 -80 -131q-27 -47 -74 -108l-45 -45q-42 -42 -84 -60q-5 -5 -20 -10q-26 -9 -52 -12q-42 0 -75 26q-10 7 -23 33q-11 22 -18 68q-6 6 -11 -6q-35 -49 -57 -72q-49 -40 -106 -49q-9 -4 -43 -4q-22 0 -43 6q-29 7 -66 35 q-35 26 -49 84q-3 15 -8 71v13q0 27 4 55q3 48 10 84q3 9 5 24.5t5 22.5q4 11 10.5 34t10.5 34q2 5 8.5 33t11.5 36q4 12 8.5 24t11 25.5t9.5 22.5q4 14 15.5 35.5t15.5 31.5l16 43q2 7 16 7q9 0 68 -9q46 -7 68 -16q-11 -33 -23 -56t-12 -24q-20 -45 -23 -51 q-4 -13 -16 -38.5t-16 -35.5q-10 -27 -13 -53q-31 -99 -35 -121q-1 -8 -6 -25.5t-6 -29.5q-1 -6 -3 -21.5t-3.5 -34t-1.5 -42.5q0 -54 16 -86q11 -33 62 -33h12h2q20 -3 41 10q33 19 53 41q30 36 44 59.5t18 55.5q1 3 4 14.5t4 19.5q17 72 20 86q3 10 6.5 31.5t6.5 30.5 q6 21 16 51q13 60 27 100q18 69 20 74t7 19.5t10.5 25.5t11.5 17q8 8 45 8q8 0 20 -1t19 -1q10 -1 31.5 -8.5t29.5 -10.5q-15 -34 -20 -53q-14 -43 -19 -61q-5 -9 -18 -58q-2 -6 -5.5 -18t-6.5 -22t-7 -17q-1 -7 -7.5 -27t-12.5 -51q-10 -46 -23 -76q-7 -28 -12 -43 q-12 -54 -12 -108q2 -7 4 -21t5 -21.5t9 -12.5q15 -15 33 -15q15 -2 51 19q24 21 37 34q26 25 43 48q13 14 33 44.5t27 39.5q4 11 11.5 22.5t18 27.5t15.5 23l22 31l14 27q1 1 3.5 4t3.5 4z" />
<glyph unicode="v" horiz-adv-x="598" d="M520 422q-22 -75 -57 -143q-1 -1 -2 -4.5t-2 -4.5q13 -8 61 -8q40 0 68 12q3 2 11.5 6t12.5 9q18 13 27 24l31 41l14 23q4 4 7 -0.5t3 -7.5l-12 -21l-10 -14q-12 -20 -27 -35l-20 -18q-5 -5 -10 -8.5t-10.5 -6.5t-8.5 -5t-9.5 -4t-9 -2.5t-10.5 -2.5t-10 -2 q-16 -4 -49 -4q-28 0 -55 10q-3 -4 -9 -14.5t-10 -16.5q-5 -8 -14 -25.5t-17 -27.5q-8 -15 -19.5 -30t-30 -36.5t-25.5 -29.5q-5 -7 -10.5 -12.5t-13 -11t-11.5 -9t-13.5 -10t-13.5 -8.5q-48 -36 -100 -21q-39 13 -49 27q-2 2 -10 11.5t-13 12.5l-4 4q-4 5 -9.5 16t-8.5 15 q-13 23 -17 53q-3 28 -12 62v26q-4 36 -4 56q0 19 -4 65q-2 8 -2 37v41q-1 8 4 43v37v43q0 33 2 51q6 50 8 55q3 7 12 7q11 3 29 8t33 8q10 3 18.5 3.5t15 0t19.5 0.5q1 0 4 1t4 1q7 2 23 -4l-4 -16q-4 -7 -1.5 -17t1.5 -14q-1 -3 -2 -6.5t-1.5 -5t-0.5 -2.5q5 -24 -7 -84 q-5 -66 -8 -80q0 -11 1 -31t1 -31q0 -48 -2 -73q0 -55 -2 -80v-99q0 -3 1 -10.5t1 -11.5l3 -9t2.5 -8t2 -6.5t2.5 -6.5t3 -5.5t3.5 -5.5t3.5 -4t5 -4q10 -12 31 -16.5t34 1.5q11 7 29 21q4 4 17 16t21.5 21.5t14.5 19.5q7 9 39 62q14 24 21 43l12 26q-8 2 -20 15 q-8 5 -20 24t-17 25q-15 40 -15 43q0 1 -1 4t-1 4q-8 55 2 117q0 4 2 15.5t2 14.5l9 33l6 21q7 22 26 55q13 22 39 41q23 13 49 10q22 0 33 -14q16 -18 29 -68q4 -33 2 -53q-2 -21 -10 -63q-6 -25 -21 -70zM399 311q19 -25 33 -28q12 36 12 45q3 10 5.5 24.5t5.5 24.5 q4 21 14 84q7 82 6 96q-9 64 -31 70q-14 3 -34 -21q-17 -24 -23 -41q-8 -19 -11 -37.5t-5 -23.5l-4 -33q-2 -2 -2 -8v-10q1 -4 0 -14.5t0 -14.5q7 -65 10 -70q4 -15 24 -43z" />
<glyph unicode="w" horiz-adv-x="903" d="M836 422q-14 -67 -48 -139q-7 -20 -12 -27q-1 -3 -4 -8t-4 -8l-18 -35q6 -2 30 -2q23 0 42 5t28 10t22 14.5t17 11.5q14 11 37 41q5 7 13 16t11 14l29 41q6 15 12 21q4 4 8.5 -0.5t4.5 -7.5q-3 -3 -6.5 -9.5t-6.5 -9.5l-8 -14q-12 -20 -29 -37q-5 -5 -22.5 -28.5 t-18.5 -24.5q-17 -17 -45 -34.5t-47 -21.5q-1 0 -5.5 -2.5t-14.5 -4t-29 -1.5q-25 0 -33 2q-4 -4 -4 -6q-9 -19 -69 -98q-19 -27 -56 -53q-45 -39 -100 -23q-4 1 -13.5 4t-15 4.5t-12.5 5.5t-12 9q-19 19 -23 22q-4 4 -8.5 12t-9 17t-6.5 12q-19 42 -27 84q-2 16 -2 37l-2 2 q-2 -3 -11 -21t-22 -34q-6 -8 -20 -30.5t-21 -31.5q-30 -35 -74 -67q-18 -13 -45 -23q-26 -9 -65 0l-15 4q-30 13 -36 19l-33 28q-3 3 -6 9.5t-6 9.5q0 2 -2 4q-20 33 -23 70q0 7 1 18t1 18q0 10 1 20.5t2.5 23t2.5 20.5t1 21.5t1 23t4 16.5q3 15 6.5 30t6.5 30l10 30 q24 75 31 88q12 27 14 43q12 32 18 46l17 47q5 12 13.5 25.5t12.5 21.5q6 16 23 16h20q3 0 7.5 1t7.5 1h6q18 -1 45.5 0.5t40.5 1.5h35q9 0 6 -8q-3 -5 -6 -14t-6 -13l-27 -47q-19 -33 -23 -49l-18 -35q-3 -8 -10.5 -22.5t-10.5 -22.5l-26 -63q-27 -72 -31 -82l-4 -25 q-18 -55 -20 -90l-7 -57q-3 -34 7 -62q3 -16 10 -26q16 -29 43 -23q24 2 55 29q5 5 13 12t14 13t10 12q15 19 30 42.5t25 37.5q6 6 9.5 12.5t6 15t5.5 13.5q4 4 8 51q0 7 2.5 21.5t3.5 25.5q1 19 16 96q2 5 6 18t7 17q18 29 35 25q11 -4 22 -5.5t12 -1.5q19 0 23 2l43 -6 q4 0 7 -2t8 -6.5t7 -5.5l-6 -20q-11 -25 -14 -48q-3 -7 -6 -20.5t-6 -20.5q0 -4 -4 -24q-3 -4 -5 -12q-3 -9 -5 -28t-5 -30q-4 -8 -4 -20.5v-16.5q-11 -60 0 -102q13 -39 29 -55q10 -12 31 -15.5t34 2.5q15 9 27 21q23 23 45 59q26 43 31 54q-3 3 -9.5 6t-9.5 6 q-6 4 -11 9.5t-11.5 14.5t-11.5 15q-19 44 -19 53q0 1 -1 4t-1 4q-8 33 -4 105q0 4 2 21t2 20q2 9 4.5 22.5t4.5 23t5 15.5q10 51 21 76l22 51q16 26 37 41q23 13 49 10q22 0 33 -14q21 -21 33 -68q6 -18 6 -53q0 -33 -6 -63q-3 -37 -14 -70zM702 223q6 -9 19 -12l14 33 l13 39q10 30 10 49l8 49q3 20 6 46t6 46q0 5 1 23.5t0.5 32.5t-3.5 24q-12 63 -35 70q-15 3 -28 -17q-14 -19 -31 -71q-16 -37 -25 -121l-4 -33v-19q1 -4 1 -14t1 -14q8 -55 17 -70q3 -8 7 -14.5t5.5 -9t8.5 -9t9 -8.5z" />
<glyph unicode="x" horiz-adv-x="684" d="M303 109q-11 33 -14 63q-1 13 -3 34t-3 34q0 7 -1 20.5t-1 20.5v2q-54 -73 -76 -95l-55 -77q-13 -15 -24.5 -33.5t-16.5 -24.5l-15 -22q-10 -14 -18 -30l-12 -24t-7 -8q-16 0 -16 15q0 6 25 39l6 10q42 64 82 114l43 62q24 36 86 106q2 6 2 25l2 29q3 18 3.5 35.5 t-0.5 40.5t-1 32q0 76 -8 109q-4 15 -13 24q-18 10 -35 -2l-14 -14l-16 -23q-15 -21 -29 -53q-58 -119 -63 -127l-23 -39q-1 -1 -14 -23.5t-19 -27.5q-7 -2 -10 6q3 13 14 27l39 69q40 77 41 80q17 45 47 92q19 34 35 50q17 16 41 34q26 23 74 23q23 0 37 -6q16 -6 23.5 -14 t19.5 -29q14 -33 14 -74q0 -10 -1 -21t-2.5 -24.5t-2.5 -21.5l-6 -39l22 22q46 46 86 80l84 68q12 8 29 23t25 20l12 8q3 3 6.5 2t6.5 -5.5t3 -11.5q0 -6 -10.5 -14t-30.5 -20.5t-33 -22.5l-26 -20q-6 -4 -9.5 -6.5t-12.5 -10.5t-21 -18q-20 -14 -68 -62l-39 -39l-28 -28 q-2 -6 -2 -25q0 -12 -4.5 -41.5t-4.5 -50.5q0 -67 7 -117q3 -11 8 -33.5t8 -33.5l10 -25q17 -31 39 -39q24 -10 47 -2q11 4 25 12q14 10 39 35l24 29q18 23 43 59q32 52 41 64l19 29q16 29 20 34l15 23q3 7 6.5 13t7.5 11.5t6 8.5q6 6 9 4t3 -8q-1 -3 -7.5 -14.5 t-10.5 -16.5q-4 -7 -10.5 -20.5t-10.5 -20.5l-69 -111q-54 -85 -78 -102q-49 -49 -78 -64q-14 -9 -41 -20q-23 -6 -43 -6q-5 0 -29 6q-16 6 -36 22q-40 27 -64 91z" />
<glyph unicode="y" horiz-adv-x="731" d="M522 29l-22 -13l-4 -26q-5 -16 -12.5 -47t-12.5 -47q-3 -10 -6 -29q-28 -85 -37 -109q-22 -62 -22 -63q-8 -21 -27.5 -59.5t-26.5 -55.5q-21 -46 -26 -55q-7 -11 -17.5 -27t-17.5 -28q-29 -49 -70 -78q-17 -15 -57 -35q-8 -3 -25.5 -7t-25.5 -7h-15q-33 -3 -57 18 q-32 25 -43 66q-12 49 -10 73q2 28 14 72q5 18 11 31.5t17.5 31.5t16.5 27q6 11 43 64q7 8 24.5 26.5t24.5 26.5q3 6 16.5 17t18.5 16q12 12 32 26t32 25q13 10 34 25t35 28q3 2 25 16l4 19l14 53q4 16 8 35.5t7 30.5l18 67q-39 -57 -57 -76q-20 -23 -54 -43 q-30 -14 -59 -20q-62 -13 -119 8q-30 11 -57 37.5t-31 52.5q-9 50 -6 94q0 62 14 111l23 92q2 6 6 22.5t8 24.5q8 45 41 119q8 22 41 100l14 35q0 8 7 11q6 6 14 6q14 0 29.5 -2.5t35.5 -7.5t29 -7q1 0 11 -0.5t15.5 -3t2.5 -8.5q3 -6 -4 -16l-35 -93q-5 -14 -27 -63 q-5 -10 -10.5 -27t-9.5 -24q-21 -43 -31 -86l-24 -84q-11 -30 -15 -64l-5 -41q-2 -31 1 -59q-3 -34 12 -55q16 -29 51 -36.5t60 5.5q46 16 86 70q23 26 41 67q11 27 12 31q3 18 14 51t15 49q4 23 9.5 53.5t10.5 57.5l21 92q3 13 6 35t6 35t9.5 40t9.5 39q3 24 24 21 q13 -1 50.5 -6.5t54.5 -5.5q8 -3 8 -11q-1 -4 -1 -10t-0.5 -9.5t-1.5 -8.5t-3 -8q-3 -56 -19 -111q-3 -12 -13 -38t-13 -40q-3 -16 -5.5 -44t-5.5 -44l-8 -37l-8 -51q-4 -18 -23 -84l-6 -41l-18 -82q-2 -2 -2 -6l28 18q37 23 70 52q5 5 18.5 16t18.5 16q8 8 25.5 29t19.5 23 q3 4 13.5 15t13.5 15q5 8 17 22.5t17 22.5q7 14 24.5 36t23.5 34q4 7 11.5 17.5t8.5 13.5q7 6 10 -8q-48 -79 -102 -154q-57 -72 -127 -131q-44 -34 -72 -51zM295 -197l31 105q-28 -17 -54 -41q-10 -6 -18 -12.5t-18.5 -15.5t-18.5 -15q-6 -6 -21 -20t-28 -27 q-10 -8 -18 -16t-19 -21t-18 -21q-4 -6 -25 -28t-27 -35q-6 -12 -17 -29.5t-18.5 -32.5t-11.5 -32q-8 -31 -4 -92q0 -5 8 -29q8 -23 50 -23q31 0 57 23q26 26 51 67q34 53 47 93q6 18 18 46.5t15 37.5q7 21 19.5 59.5t19.5 58.5z" />
<glyph unicode="z" horiz-adv-x="579" d="M518 532q0 -41 -10 -79q-31 -76 -45 -107l-8 -14q-8 -15 -21.5 -34.5t-27.5 -33.5q-2 -3 -15 -15t-16 -18l-31 -30q-34 -34 -74 -56q25 -36 43 -88q0 -2 3 -8.5t8.5 -19t9.5 -25.5q85 64 182 170q15 15 23 25q36 42 61 80q6 8 20 25t23.5 31.5t20.5 35.5q4 5 8 3t4 -9 l-10 -19q-2 -2 -15 -20.5t-32.5 -46.5t-34.5 -48q-3 -5 -10 -15t-9.5 -12.5t-6.5 -8.5t-11.5 -13.5l-15 -15l-25.5 -25.5l-64 -63q-4 -2 -33 -31.5t-69 -58.5q12 -46 12 -76q0 -3 -1 -7t-1 -7q0 -9 2 -24.5t2 -18.5q0 -1 -4 -17q0 -3 1 -7t1 -7q0 -14 -3 -32t-6 -31l-3 -13 q0 -20 -8 -51q-33 -111 -49 -146l-11 -20l-39 -72q-6 -6 -19 -22t-24 -26.5t-30 -22.5q-6 -6 -34 -14q-6 -2 -13 -3q-31 -6 -47 -6h-15q-34 0 -57 10q-43 19 -68 56q-22 35 -22 61q0 4 -1 14t-0.5 18.5t3.5 18.5q3 19 7.5 31.5t13 26.5t12.5 24q28 41 79 105l7 8 q21 23 98 96q10 8 40 35t52 45v6q0 3 2 8.5t2 8.5q0 4 -2 14t-2 14v31q-1 4 -1 13t-1 14q0 3 -1 8t-1 8q0 9 -14 72h-2q-57 -17 -93 -17q-19 0 -43 16t-24 44q0 17 8 28l6 8q8 11 12.5 15.5t21.5 11t42 6.5q41 0 82 -20q9 -3 14 -8l12 -11l31 43q4 7 14 18t15 19q0 2 2 4 q3 2 6 13q3 4 7 15.5t7 16.5q26 59 29 72l12 45q13 58 13 76q0 4 -1 8t-1 8v19q0 44 -13 65q-23 29 -57 29q-32 0 -61 -33l-17 -16q-2 -2 -37 -60q-28 -43 -57 -106q-44 -90 -49 -92q-5 -12 -14 -3q-5 5 -1 9q8 9 18.5 29t12.5 24q4 9 17.5 35t27.5 57q2 4 21.5 41.5 t34.5 57.5q7 14 15 24.5t20.5 24t13.5 14.5q34 31 63 43q36 12 74 12q46 0 70 -12q11 -3 16 -8q14 -10 23 -22.5t13.5 -21.5t6.5 -11q0 -2 2.5 -11t5 -29t2.5 -49zM207 -164q0 1 1 9.5t2.5 23.5t2.5 29q-52 -44 -139 -131q-1 0 -13.5 -13.5t-31.5 -35.5t-33 -42 q-5 -7 -16.5 -20t-23.5 -31t-22 -43q-12 -27 -12 -67q5 -36 21 -52q12 -12 45 -12q54 0 104 45q34 34 47 76q20 38 39 123l6 22l21 99q0 3 1 10t1 10zM158 123q4 2 28 16l-14 27q-12 20 -22 22q-17 17 -44 17q-21 0 -38 -15q-17 -17 -17 -34q0 -19 12 -29l7 -4 q17 -10 36 -10q29 0 52 10z" />
<glyph unicode="{" horiz-adv-x="512" d="M43 524q-12 3 -12 15q-9 26 16 26q5 0 12 -3t15 -3q25 0 55 20t45 62l2 33q3 47 -8 121l-8 36v29q-1 22 -5.5 73t-6 80.5t-1 70t6.5 71.5l18 68q31 86 104 147q12 7 38 14t40 13l21 4h20q9 0 29.5 -2t28.5 -2q40 -5 69 -21t31 -26l-1 -6q-1 -5 -5 -5l-11 5 q-10 6 -26.5 12.5t-30.5 9.5h-16q-28 0 -57 -10q-57 -39 -82.5 -94.5t-38.5 -153.5l-11 -125q0 -43 9 -84v-10q6 -27 6 -47l4 -17q0 -13 4 -41l4 -16q0 -63 -5.5 -92t-23.5 -64l-16 -20q-22 -25 -57 -45.5t-64 -28.5q0 -4 22.5 -20.5t54 -43.5t48.5 -51l12 -18q3 -7 6.5 -22 t6.5 -23l2 -16q3 -9 -1 -27.5t-1 -30.5l-21 -155l-22 -91l-9 -59q-10 -102 0 -151q10 -57 42 -104.5t87 -47.5q19 0 31 4q1 0 4 -1t4 -1q12 0 29 10q3 3 8.5 7.5t10 7.5t4.5 2q4 0 8 -11q0 -4 -4 -8l-2 -6q-53 -31 -109 -31l-47 7q-174 44 -207 206q-12 88 6 193l17 49l6 33 q15 39 16 55l17 62q0 5 2 13.5t2 12.5l8 53q0 8 2.5 27t1.5 27l-2 14v10q-15 55 -45 82l-49 35q-29 12 -31 14z" />
<glyph unicode="|" horiz-adv-x="409" d="M221 1432q4 -28 4 -48q1 -31 0 -96t0 -98q-1 -33 -1 -101t-1 -104q3 -39 2.5 -91.5t-2.5 -132.5t-2 -89q0 -14 1.5 -56t0.5 -65q1 -16 0 -34t-3 -40.5t-3 -36.5v-231l-8 -315q-3 -8 -3 -19.5t-1 -15.5q-3 -9 -6 -6q-4 -4 -4 -3q-10 3 -13 15v31q0 16 1 45t1 45l6 192 q3 120 3 232l6 174q0 59 -2 90q0 18 1 145.5t1 143.5l2 131l-2 100v98q0 13 -1.5 56.5t-0.5 68.5q0 9 4 25q0 11 6 14h6q3 1 4.5 -1t2.5 -6.5t3 -6.5q1 -1 -1 -5t-1 -5z" />
<glyph unicode="}" horiz-adv-x="512" d="M467 487q12 -3 12 -14q9 -27 -16 -27q-5 0 -12 3.5t-15 3.5q-25 0 -55 -20t-45 -62l-2 -33q-3 -47 8 -121l8 -37v-28q1 -22 5.5 -73t6 -80.5t1 -70t-6.5 -71.5l-18 -68q-31 -84 -105 -147q-12 -7 -37.5 -14t-39.5 -13l-21 -4h-20q-9 0 -29.5 2t-28.5 2q-38 5 -67 21 t-31 26l1 5q1 5 5 5l11 -5q11 -5 27 -11.5t28 -9.5h16q27 0 57 10q57 39 82.5 94.5t38.5 153.5l11 125q0 43 -9 84v10q-6 27 -6 47l-4 16q0 13 -4 41l-4 17q0 63 5.5 91.5t23.5 63.5l16 21q22 25 57 45.5t64 28.5q0 2 -22.5 18t-54 43t-48.5 53l-12 19q-3 7 -6.5 22t-6.5 23 l-2 16q-3 9 1 27t1 30l21 156l22 90l8 60q10 102 0 151q-10 57 -42 104.5t-87 47.5q-18 0 -30 -4q-1 0 -4 1t-4 1q-11 0 -29 -11q-3 -3 -8.5 -7t-10 -7t-4.5 -2q-5 0 -8 10q0 4 4 8l2 7q51 30 109 30l47 -6q82 -21 136 -73t71 -134q12 -88 -6 -192l-17 -49l-6 -33 q-15 -39 -16 -55l-17 -62q0 -5 -2 -13.5t-2 -12.5l-8 -54q0 -8 -2.5 -26.5t-1.5 -26.5l2 -14v-11q14 -54 45 -81l49 -35q24 -10 31 -15z" />
<glyph unicode="~" horiz-adv-x="819" d="M545 434q-28 -4 -41 -4q-53 0 -78 14q-3 0 -82.5 34t-101.5 34q-27 0 -48 -20t-32 -40t-15 -20q-10 0 -10 6q0 4 2 6q22 45 49 71t70 30q50 0 121 -31q57 -24 91 -34.5t73 -10.5q14 0 20 2q24 4 45.5 26.5t34 43t16.5 20.5q7 0 7 -8q-17 -50 -48.5 -81t-72.5 -38z" />
<glyph unicode="&#xa1;" horiz-adv-x="491" d="M313 670q-3 -19 -11.5 -94t-14.5 -109q-9 -104 -50.5 -303t-50.5 -254q-2 -13 -7 -39t-8 -46t-3 -34v-8q0 -4 -1 -9t-2.5 -11t-2.5 -9q0 -25 -12.5 -85t-32.5 -60q-1 0 -3 1t-3 1q-3 0 -10.5 -3t-10.5 -3q-15 0 -37 13.5t-22 35.5q0 13 7 36.5t15 35.5q2 10 8 43t11.5 54 t13.5 40q19 54 76 272q7 28 74 307q58 248 69 248q3 0 3.5 -3.5t1.5 -9t3 -7.5zM311 766q-24 5 -31.5 12.5t-13.5 36.5q0 30 19 49t34.5 24t24.5 5q20 0 37.5 -13.5t17.5 -31.5q0 -28 -25 -55t-63 -27z" />
<glyph unicode="&#xa2;" horiz-adv-x="593" d="M500 702l14 11l4 -4q-1 -6 -5 -13.5t-10.5 -14t-12 -11.5t-10.5 -9l-5 -4l-41 -18q-32 -16 -84 -16h-16l-8 -35l-9 -33l-8 -35q-4 -28 -4 -35v-14q0 -9 -16 -6q-10 3 -10 10l4 12q1 3 2 9.5t2 9.5q1 9 12 51q1 5 2 15t2 14q0 10 2 12l6 31q-5 0 -11 1l-5 1l-55 28 q-14 0 -38 24t-36 52q-11 15 -18 57t-3 87q2 43 17 90q14 61 33.5 97t66.5 85q10 10 22 19t28.5 19.5t27.5 18.5l70 29q8 0 26.5 4t30.5 4h6l16 70q9 36 9 39q8 32 8 41q0 11 10 8q16 0 16 -12q-3 -6 -6 -15q-8 -20 -10 -30l-20 -89q0 -2 -4 -14q46 -10 68 -45t20 -72 q-1 -28 -10.5 -52.5t-16.5 -31.5l-14 -32q-5 -4 -13.5 -10t-15 -10t-6.5 -3q-6 -6 -29 -6l-16 6q-10 1 -16.5 11.5t-6.5 21.5v27q15 34 27 34q1 0 3 -1t3 -1q0 -4 -2 -6l-4 -12q-5 -27 12 -27q18 0 23 4l8 4q25 22 35 37.5t13.5 30t6.5 20.5q2 39 -16.5 65t-57.5 26 q-20 0 -61 -20.5t-64 -57.5l-22 -31l-25 -45l-12 -16l-12 -19q-16 -37 -21 -63l-4 -29l-8 -78q0 -4 -2 -12t-2 -16q-3 -32 20 -89q17 -44 48 -55l20 -16q24 -12 70 -12q28 0 46.5 9.5t41.5 30.5z" />
<glyph unicode="&#xa3;" horiz-adv-x="645" d="M209 850q-8 8 0 16q103 4 137 0l4 11q1 7 4 16t4 16l7 29q0 1 2 4t2 4l-7 -2q-20 0 -30 -6h-37q-19 0 -41 9t-29 22l-16 20q-5 5 -6.5 16.5t-5.5 18.5q0 54 33.5 94.5t80.5 40.5q7 0 19 -4q20 -9 20 -25q0 -29 -37 -32q-4 4 -4 6q0 6 6 6l15 12q2 2 2 6q0 5 -7.5 9 t-13.5 4q-25 0 -59 -21l-19 -22q-14 -20 -18 -72q0 -4 2 -8v-10l10 -13q24 -41 74 -41h33q8 0 20.5 5t18.5 6q10 53 24 84q11 35 27 75l20 47l23 37q20 39 70 52h36q29 0 45.5 -20t16.5 -46q0 -33 -12 -57l-17 -35q-5 -7 -15.5 -24.5t-22.5 -32t-29 -25.5l-33 -23 q-16 -12 -35 -20v2q-5 -5 -9 -7t-7 -5l-9 -29q0 -5 -6 -20t-6 -19l-12 -37q96 -4 133 0q11 -11 2 -18q-67 -3 -141 0l-23 -53q-3 -5 -7.5 -13.5t-6.5 -11.5l-10 -16q-3 -7 -12 -16.5t-9 -18.5l-2 -2l35 -31q3 -6 6 -6l45 -37l31 -21q18 -14 43 -14q8 0 12 1t6 1 q12 0 27.5 7.5t15.5 17.5q0 1 -0.5 2.5l-1.5 4.5t-2 5q-3 3 0 6q0 6 8 6q5 -2 11 -6l4 -24q-16 -35 -64 -35h-22q-42 11 -60 24l-28 21l-68 59l-10 6l-23 -24q-14 -15 -31 -27.5t-22 -17.5l-16 -13q-26 -26 -84 -26q-12 0 -30 3.5t-37 16t-19 31.5q0 38 12.5 59.5t54.5 40.5 l31 7q24 8 68 8q3 0 25 -5.5t28 -9.5v2q0 4 14 23q0 5 11.5 29t17.5 30l8 23q-68 3 -133 0zM473 1026l-12 -37l35 19l18 14q5 5 21 17t24 22l14 18q1 2 10.5 17.5t14.5 23.5l14 39q4 12 4 31v8q0 1 0.5 5.5t0 7t-3 7t-9.5 7t-18 4.5q-37 -21 -56 -47l2 2q-11 -15 -20 -43 l-4 -13q-6 -8 -8.5 -15t-3 -12.5t-0.5 -6.5q-6 -20 -10.5 -33t-5.5 -15.5t-1 -3.5l-6 -18v2zM281 733l-21 6q-4 0 -15 1t-18 1q-16 0 -20 -2h2q-24 -6 -35 -6l-37 -10q-3 0 -5.5 -1.5t-8.5 -5.5t-12 -7q-7 -9 -10 -14l-6 -10t-4 -7t-2 -5t-1 -4v-4.5v-5.5q0 -14 4 -26l8 -12 l9 -5q8 -8 24 -8q9 0 16.5 2t16.5 2l22 15q4 3 8 5t5 3l32 33q3 1 5 3.5t5 7.5t5 7l12 14q21 24 21 33z" />
<glyph unicode="&#xa4;" horiz-adv-x="768" d="M281 971q0 -62 8 -80l12 -53q3 -7 5 -19.5t5 -15.5l17 -21l55 -55q6 -6 31.5 -15.5t42.5 -9.5q18 1 45 17.5t41 34.5l30 30q6 4 13.5 13.5t11.5 13.5l14 23q0 3 7 11t10 17l18 35l8 47q2 14 2 39l2 27l1 3q2 3 2 7q0 20 -3 41l-32 80q-13 24 -52.5 42.5t-76.5 18.5 q-26 0 -51 -7t-31 -13l-43 -21q-24 -19 -43 -41l-15 -20q-1 -2 -2 -4.5t-1.5 -3.5t-0.5 -2l-12 -31q-1 0 -5 -14.5t-8 -36t-5 -37.5zM256 688l4 6q-3 6 -6.5 10.5t-9 9t-6.5 5.5l-25 22q-5 5 -14 27l-23 33q-7 11 -14 37l-10 30q0 7 -1 22.5t-1 22.5q0 13 4 41l8 35 q6 18 6 19l6 20q8 27 29 55l39 66l-25 41l-51 74q-33 54 -33 65q0 5 9.5 14t13.5 9q1 -3 3 -8.5t3 -8.5q2 -4 4.5 -8.5t3.5 -6.5t2 -3l35 -62q15 -29 67 -77l60 39q2 2 8 4q43 20 100 20q23 0 33 -2l33 -6l22 -8q6 -3 21.5 -8.5t21.5 -10.5l15 -8q3 -3 9 -5t9 -5q8 -4 10 -6 l48 47l69 80q11 13 25 24l6 6q3 3 7.5 7t7 6t5.5 2q17 -10 17 -21q0 -1 -2 -3t-6.5 -7.5t-8.5 -11.5l-41 -39l-55 -60l-45 -55l10 -12l15 -25q2 -5 6.5 -17t7.5 -18l10 -30q-1 -5 1.5 -22t2.5 -23q0 -21 -4 -49l-8 -39l-8 -21q0 -3 -2 -7t-2 -5l-19 -33q-1 -2 -2 -4.5 t-1.5 -3.5t-0.5 -2l-37 -64q-2 -7 -16 -24l-55 -60l4 -16l14 -23l55 -108q11 -26 11 -27q-2 -12 -18 -12h-3q-7 0 -24 37l-27 55l-49 88q-30 -30 -92 -30q-21 0 -35 2h-17h2q-18 0 -28 2q-32 4 -43 12l-55 -57l-48 -54q-1 -3 -4 -4t-4 -4l-4 -6q-10 -10 -18 -10q-3 0 -5.5 3 t-6 8t-5.5 7q0 3 1.5 4.5t4.5 4t5 5.5l20 27l16 16l41 39z" />
<glyph unicode="&#xa5;" horiz-adv-x="620" d="M137 741q-2 -7 -8 -10q-15 -24 -18 -49q-3 -32 26 -51q10 -8 39 -4q40 10 66 39q6 6 10.5 12.5t9.5 14t8 12.5q16 27 17 28q3 5 10 16.5t10 16.5q1 3 3.5 6t2.5 6q3 3 5.5 8.5t5.5 8.5h-11h-53h-10q-6 0 -6 8q-3 10 10 10h70q9 0 12 8q5 7 11.5 19.5t8.5 15.5 q-7 8 -17 26.5t-17 26.5q-27 0 -41 -2q-25 0 -31 -2q-7 0 -11 6.5t1 10.5q1 0 3 1t3 1q2 2 14 2q37 0 53 2q-5 26 -8 33q-18 58 -12 116q0 26 12 76q4 18 4 80q0 3 -2.5 9t-3.5 7q-6 9 -18 6q-24 -7 -35 -26q-10 -10 -12 -17q-10 -10 -17 -10q-8 8 -2 21q8 11 12 22 q31 38 72 29q13 0 19 -14q5 -21 4 -27q0 -7 1 -20.5t1 -20.5q0 -35 -9 -62q-10 -55 -10 -94q0 -26 15 -61q3 -8 7 -23.5t7 -23.5q7 -19 27 -47q1 3 3 5t3 5t2 8t2 8q4 8 18 60q4 19 13 34q0 3 4 19q3 7 8 22.5t8 22.5q1 3 4.5 12t3.5 17q0 4 2 4q3 7 9.5 22.5t9.5 22.5 q23 50 47 84q28 36 53 47q14 10 41 14q1 0 8 2q6 0 12 -6q3 -9 -2 -14q-6 -6 -14 -6q-12 0 -16 -2l-9 -9q-8 -6 -15 -15.5t-10.5 -16t-10 -20t-9.5 -19.5l-2 -2q-11 -41 -18 -62q-3 -8 -7 -24.5t-7 -24.5q-3 -7 -6.5 -23.5t-6.5 -23.5l-6 -18q-9 -28 -20 -74h32q14 2 46 2 q8 0 11 -5t-1 -9q-5 -5 -6 -5q-6 -2 -19 -2h-63h-8q0 -7 -3 -10q-3 -7 -7 -22.5t-7 -22.5q-1 -3 -4 -8t-4 -8q-4 -4 -8 -25h8h90h6q0 -2 2 -2h2q3 -8 0 -14q-2 0 -4 -2h-65h-45q-4 0 -7 -6q-8 -14 -16 -33q-10 -29 -31 -53q-5 -5 -20 -23t-26 -28.5t-25 -18.5 q-7 -4 -19.5 -11.5t-19.5 -11.5q-1 0 -7 -3t-10 -3q-6 -3 -13 -4t-15 -1t-13 -1q-29 -6 -51 2q-10 4 -33 27q-12 15 -12 43q2 6 2 26q0 25 19 47q6 9 14 3q4 -2 10 -7z" />
<glyph unicode="&#xa6;" horiz-adv-x="409" d="M205 -145q-9 -6 -14.5 1t-6.5 27v35v121q0 29 3 178.5t3 181.5q1 24 2.5 76t2.5 76q0 45 12 45t12 -45q0 -46 -4 -225.5t-4 -225.5q-1 -19 -1 -40.5t0.5 -47t0.5 -39.5q-4 -70 -4 -104q0 -3 -1 -7t-1 -7zM219 764q-15 -10 -17 17q-1 5 -1 12v34v121q0 30 3 154t3 158 q0 24 1 75t1 76q0 45 12 45t12 -45t-3 -200t-3 -201q-1 -21 -1 -64t-1 -63q0 -17 -1 -52t-1 -53q0 -3 -2 -7t-2 -7z" />
<glyph unicode="&#xa7;" horiz-adv-x="614" d="M520 1128q53 21 53 72q0 1 -4 21q-3 18 -18 30l-29 15q-3 -1 -11 0t-15 0q-2 -2 -11 -2q-46 -17 -61 -58q-1 -3 0.5 -5.5t-2.5 -2.5q0 -36 -10 -59q3 -3 3.5 -7.5t0 -10.5t0.5 -15l2 -31l10 -26q0 -12 25 -37l18 -35l23 -35q6 -10 16 -28.5t16 -28.5q3 -10 9.5 -29 t7.5 -27q0 -3 -1 -11t-1 -9v-4t0.5 -1.5t1 -2t1.5 -4t2.5 -8.5t2.5 -15q3 -39 -8 -59l-6 -17q-8 -8 -14 -23t-9 -18l-12 -18q-3 -2 -15.5 -16t-25.5 -19l-17 -16q-1 0 -11.5 -7t-25.5 -14t-30 -10l-17 -10q-9 -5 -34 -10q-1 -1 -3.5 -2.5t-3.5 -2.5q-11 -4 -16 -2 q-10 0 -16 -2q-3 0 -9.5 -0.5t-12 -0.5t-9.5 1l4 -8l12 -22q7 -7 20.5 -34.5t18.5 -43.5l8 -23q0 -1 8 -19.5t9 -29.5l2 -22q0 -65 -10 -90q-28 -54 -47 -68q-11 -11 -39 -27q-5 -2 -17 -10.5t-20 -9.5l-8 -4q-4 -4 -13 -4q-21 -9 -39 -9q-12 -3 -24 0q-17 0 -35 7 q-16 3 -31 12q-30 30 -35 45q-10 22 -4 45q13 30 31 33q15 5 32 -3t23 -26l2 -4q2 -14 -5 -26.5t-19 -12.5q-10 0 -12 2q-5 5 -5 10q0 7 11 7q4 -2 5 -2t4 2.5t5 3.5q3 10 0 16q0 9 -8 14q-3 1 -5 2t-5 2q-20 3 -29 -6q-15 -15 -12 -37q7 -23 17 -34t30 -23q19 -12 59 -12 q27 0 41 6q34 17 45 51q2 2 2 8q11 43 2 92l-2 31l-10 27q0 6 -7.5 18.5t-13.5 18.5l-18 35l-22 34q-5 9 -15.5 27t-17.5 31q-3 10 -9.5 29t-7.5 26q0 13 -2.5 29t-3.5 26q-3 40 8 60l7 16q8 8 13.5 23t8.5 18l12 18q3 2 19 19.5t39 32.5q1 0 11.5 6.5t25.5 13.5t30 10 l17 11q9 5 34 10q1 1 3.5 2t3.5 2q2 2 16 2q10 0 16 2h29q-2 2 -2 8l-12 23q-4 4 -6 9t-4.5 13t-4.5 13q-12 7 -24 43l-12 22q0 1 -8 19.5t-9 29.5l-2 23q0 7 4 27t4 32l4 29q27 53 50 69q12 12 38 27q6 3 17.5 11.5t19.5 9.5l9 4q4 4 14 4q40 10 61 8q24 -5 27 -6 q26 -12 37 -53q0 -2 1.5 -9t0.5 -12q-3 -58 -66 -82q-7 -2 -28 2q-2 2 -4 2l-9 6q-11 6 -12.5 19t8.5 24q0 1 4 4t6 3q11 4 11 -5q3 -5 -4 -12q-7 -2 -4 -12q0 -9 12 -12q13 -5 16 -7zM401 831l-4 7h-26q-37 -2 -66 -19l-18 -12q-35 -27 -56 -68l-12 -45q-4 -16 -2 -24v-25 l4 -55q14 -39 21 -39l4 -6q9 -3 26 0q39 3 66 18l18 12q35 27 56 68l12 45q6 12 2 23v2l4 18q-4 4 -4 6l-4 56l-10 18q0 4 -4.5 12t-6.5 8z" />
<glyph unicode="&#xa8;" horiz-adv-x="204" d="M453 862q20 0 32 -12q11 -4 18 -16.5t7 -20.5q0 -28 -29 -57q-16 -13 -24 -13q-22 -8 -47 2q-15 5 -23.5 16t-8.5 27t9 33q10 19 24 26.5t42 14.5zM610 715q-6 0 -11.5 2t-13.5 6l-12 6q-9 4 -14.5 15.5t-5.5 19.5q0 28 29 57q16 13 24 13q20 7 47 -3q15 -5 23.5 -16 t8.5 -26.5t-9 -32.5q-10 -19 -24 -26.5t-42 -14.5z" />
<glyph unicode="&#xa9;" horiz-adv-x="894" d="M612 721q8 8 11 8q4 0 4 -6q0 -8 -15 -23q-6 -4 -14 -8l-12 -6l-21 -10q-23 -10 -59 -10q-9 0 -21 4q-6 0 -10.5 0.5t-6.5 1t-3 0.5l-37 20q-11 0 -27 15.5t-26 37.5q-21 29 -21 119l11 41q0 66 63 129q26 21 55 37l47 21q4 0 18 3t21 3q43 0 63.5 -26.5t20.5 -57.5 q0 -44 -14 -58l-12 -24l-23 -17q-4 -4 -22 -4l-13 4q-7 1 -12.5 9.5t-5.5 15.5v21l12 24q7 7 17 -2q0 -2 -2 -4q-5 -5 -5 -10q0 -15 9 -15q3 0 24 7q14 12 19.5 22.5t7 21t2.5 13.5q0 57 -49 57q-11 0 -37 -14t-41 -37l-12 -12l-19 -39q-4 -4 -14 -19q-12 -28 -12 -49v-16 l-7 -58q0 -1 -1.5 -9t-1.5 -14.5t5.5 -22t16.5 -33.5q3 -6 6.5 -12t5 -9t3.5 -6t5.5 -4.5t8.5 -3.5l12 -10q15 -9 43 -9q42 0 65 23zM795 887q15 102 -4 182q-31 60 -46 80q-27 53 -92 68q-24 6 -41 6q-29 6 -51 0q-40 0 -63 -6q-76 -27 -109 -54q-40 -30 -67 -67 q-28 -28 -58 -80q-3 -4 -10 -13.5t-11 -17.5t-7 -18q-13 -63 -23 -138q-7 -60 16 -137q1 -3 4.5 -9t4.5 -9q24 -31 86 -86q33 -23 65 -35q8 -2 27.5 -11t34 -12t32.5 0q66 0 103 17q5 3 19.5 10t22 11t18.5 11.5t20 16.5q30 30 55 66q8 12 24 47q1 3 8.5 22.5t12.5 28.5 q20 69 29 127zM823 989q0 -11 0.5 -34t0.5 -35.5t-2 -31.5t-7 -36q-5 -16 -12.5 -50.5t-16 -61.5t-22.5 -48q-21 -51 -78 -112q-54 -42 -63 -48q-44 -31 -115 -34q-12 0 -35 -2t-35 -2q-38 6 -78 18q-18 8 -44 23t-35 20q-41 18 -70 59q-38 55 -47 72q-8 19 -10 31 q-1 6 -9.5 40t-9.5 52q-2 21 -2.5 26t1.5 25.5t3 28.5q0 16 9 44.5t10 33.5q6 22 14 30q9 16 30.5 56.5t35.5 62.5q45 56 96 90q36 22 74 39q22 8 47 11.5t58 5.5t48 4q27 6 64 -6q5 -2 45 -19q4 -2 19 -9t27.5 -14.5t22.5 -17.5q45 -47 62 -90q24 -33 24 -121z" />
<glyph unicode="&#xaa;" horiz-adv-x="552" d="M371 918q6 18 12 30q4 12 4 21q13 39 16 45q3 7 7.5 20.5t7.5 20.5q3 5 6 15.5t6 14.5t6.5 14t7.5 15q2 2 13 2q21 -8 53 -12q22 -7 22 -10q9 -12 -2 -19q-4 -8 -9 -23.5t-9 -23.5q-4 -20 -12 -33q-3 -4 -6.5 -13t-6.5 -13q-5 -13 -6 -21q-5 -9 -8.5 -19.5t-5.5 -15.5 q-14 -42 -14 -45q-9 -27 -9 -45v-6v-22q0 -14 7 -21t10 -8q12 -9 22 -6q4 1 19 6q18 8 41 31q14 14 26 30q5 11 13 4q6 -5 0 -12q-11 -19 -43 -51q-9 -7 -52 -31q-27 -15 -69 -12q-29 2 -53 28.5t-19 75.5q-2 -2 -13.5 -17.5t-19.5 -23.5q-31 -31 -75 -51q-23 -10 -45 -10 q-33 0 -59.5 24.5t-37.5 59.5q-14 38 -14 90q0 43 4 55q1 17 5 39.5t5 32.5q0 8 10 25l9 22.5t10.5 24.5t11 19t17.5 22q34 49 61 69q31 24 50.5 36t52.5 22.5t73 11.5q86 3 125 -45q19 -29 19 -66q-1 -4 -2.5 -15t-2.5 -15q-2 -2 -10 -2q-12 4 -10 10q0 6 4.5 19t3.5 20 q-2 45 -59 74q-33 9 -70 -3q-5 -4 -19.5 -13.5t-21.5 -14.5t-18 -13.5t-19.5 -17.5t-15.5 -18q-53 -62 -76 -127q-4 -13 -8 -39q-18 -59 -18 -125q0 -40 10 -70q17 -39 55 -39q18 0 29 7t30 28q7 9 39 59q3 8 15 44z" />
<glyph unicode="&#xab;" horiz-adv-x="593" d="M338 481q0 -2 2 -4l12 -6q14 -4 39.5 -15.5t36.5 -15.5q15 -5 68 -37q17 -7 14 -22q-2 -5 -6.5 -21t-9.5 -24q-6 -11 -11 -12.5t-16 2.5q-49 21 -68 32q-16 7 -45 22.5t-45 22.5q-1 1 -4.5 4t-5.5 5q-12 11 -12 34.5t12 34.5q57 40 63 43q28 13 119 64q15 9 21 0 q3 -10 -8 -19q-26 -12 -52 -26q-16 -9 -48.5 -29t-49.5 -29q-1 -1 -3 -2t-3 -2zM133 461q0 -2 2 -4l12 -6q14 -4 39.5 -15.5t36.5 -15.5q15 -5 68 -37q17 -7 14 -23q-2 -5 -6.5 -21t-9.5 -24q-6 -11 -11 -12.5t-16 2.5q-36 16 -67 33q-16 7 -46 22.5t-45 22.5q-1 1 -4.5 3.5 t-5.5 4.5q-12 11 -12 35t12 35q53 37 64 43q32 15 118 63q15 9 21 0q3 -10 -8 -18q-12 -5 -51 -27q-17 -9 -50 -28.5t-49 -28.5q-1 -1 -3 -2t-3 -2z" />
<glyph unicode="&#xad;" horiz-adv-x="460" d="M115 514h41l39 -4h81h80l54 -8q0 -9 -21 -39q-5 -8 -10.5 -17t-8 -12.5t-6.5 -7.5t-8.5 -5t-11.5 -1l-82 4h-82h-82l-47 6q0 12 23.5 48t40.5 36z" />
<glyph unicode="&#xae;" horiz-adv-x="673" d="M379 979q0 -9 2.5 -27.5t14 -41.5t28.5 -23q4 0 12.5 1t12.5 1q-15 -27 -48 -27q-44 0 -53 49q1 24 -2.5 41.5t-7.5 26t-4 10.5q0 3 6 6q22 15 39.5 38t17.5 42q0 14 -6.5 25.5t-17.5 11.5q-8 0 -21 -3.5t-20 -4.5v-8q0 -19 -6 -37q-4 -20 -6.5 -55t-6.5 -58 q0 -90 -30 -90q-6 0 -18.5 8t-12.5 17q0 34 2 57q0 42 11.5 112t37.5 76q28 0 42 2t17 2q38 0 65.5 -15.5t27.5 -49.5q-6 -46 -76 -86zM555 1020q0 100 -51 139q-23 23 -57.5 42.5t-61.5 19.5q-44 0 -125 -29q-51 -18 -80.5 -83t-29.5 -118q0 -9 4 -37v-6q1 -6 3 -17t5 -24 t8 -28t11 -28t15 -24.5t19 -17.5q6 -8 37.5 -20.5t62.5 -12.5q77 0 152 53q30 22 59 81t29 110zM571 1024q-1 -83 -26 -131t-68 -86q-60 -57 -153 -57q-48 0 -86 16q-100 34 -117 129q-8 19 -10 31q-9 24 -9 55q0 62 20.5 111.5t54.5 80t72.5 48.5t80.5 24q48 0 71 -10 q170 -34 170 -211z" />
<glyph unicode="&#xaf;" horiz-adv-x="399" d="M952 750l-47 -54q-5 -6 -16.5 -7t-59.5 3q-271 21 -288 23q-24 2 -24 5q0 2 5 9l51 53q10 10 13.5 11.5t29.5 -0.5q150 -20 316 -31q26 -4 20 -12z" />
<glyph unicode="&#xb0;" horiz-adv-x="409" d="M336 1128q1 2 4 25q0 63 -57 78q-53 0 -81 -36.5t-28 -88.5q0 -19 3.5 -37.5t22.5 -40.5t52 -22t58.5 30.5t25.5 91.5zM360 1143v-19q-5 -60 -36.5 -101.5t-85.5 -41.5q-56 0 -70 23l-5 4q-5 3 -14 12t-17 21t-14 32t-5 43q0 70 41 108t96 38q58 0 84 -34.5t26 -84.5z " />
<glyph unicode="&#xb1;" horiz-adv-x="819" d="M649 526h-8h-82q-4 0 -10.5 1t-9.5 1h-125v-215v-18l-3.5 -7t-4 -6.5t-5 -3.5t-8.5 -2q-14 3 -14 21l4 84v129v18h-213h-18q-19 3 -19 21q0 16 21 16l114 -2l94 -2h21v88q0 88 2 135v9q1 11 8 15.5t14.5 0t8.5 -15.5v-9v-36q0 -6 -1 -69t-1 -65v-53h90q90 0 137 -2h8 q11 -1 15.5 -9t0 -15.5t-15.5 -8.5zM653 104h-8h-82q-4 0 -10.5 1t-9.5 1h-369h-18q-19 3 -19 21q0 16 21 16l114 -2l95 -2h141q90 0 137 -2h8q11 -1 15.5 -9t0 -15.5t-15.5 -8.5z" />
<glyph unicode="&#xb2;" horiz-adv-x="440" d="M166 1094q2 38 51 104l4 4l21 18q21 17 46 27t60 10q3 0 7 -1t7 -1h9q22 0 35 -8l6 -2q17 -9 28.5 -21t16.5 -25.5t7.5 -25t4.5 -28.5t4 -27v-2q-7 -86 -76 -160l-6 -4q-19 -24 -33 -30q-27 -27 -75 -55.5t-78 -51.5l-8 -4q-3 -3 -7.5 -5t-5.5 -5q-2 -2 -16 -8 t-24.5 -13.5t-10.5 -13.5h2l6 4q26 4 35 2q26 0 82 -29.5t74 -29.5q13 0 24 3.5t17 8t10 9t6 8.5l2 3q5 0 8 -6q-13 -34 -53 -63h-2q-10 -12 -29 -20.5t-30 -6.5q-9 0 -11 2v-2q-26 1 -75 21.5t-70 25.5h-10q-12 4 -25 4q-21 0 -39 -18q-4 4 -4 10q2 3 6 15.5t15.5 27.5 t36.5 37q11 4 14 10l6 2q31 31 78 62l4 4q2 2 17.5 15t38.5 32.5t40 34.5l6 6q4 4 13 16q16 12 41.5 62t29.5 108l2 9q0 6 -2 8v2q3 21 -6 35v8q-1 2 -7 12t-10 14.5t-14 10t-22 6.5q-4 0 -7 -1l-3 -1q-14 0 -29.5 -3.5t-46.5 -26.5t-53 -64l-2 -7q0 -2 -7 -10t-8 -26 q-4 -35 9.5 -52.5t33.5 -17.5q46 0 68 31l16 26q15 19 19 64q0 13 -9 22q10 4 15 -4t9 -25q1 -4 1 -6q0 -50 -33 -88l-2 -2l-7.5 -7.5l-9.5 -9.5t-10 -8.5t-13 -8t-15 -4t-18 -1.5q-28 0 -52 17t-20 55z" />
<glyph unicode="&#xb3;" horiz-adv-x="440" d="M172 1092q0 16 2 22v8q22 51 51 78l6 6q54 54 119 54q22 0 56 -15q-1 0 1 -1t8 -4.5t13 -8.5t14 -13.5t12.5 -19t8.5 -26t2 -33.5q0 -71 -62 -133l-12 -13l-3 -3q-4 -3 -6.5 -5.5t-2.5 -3.5l-31 -25q40 -24 52.5 -50.5t7.5 -69.5v-11q-4 -27 -15 -43l-22 -30 q-3 -3 -12 -15t-22 -23t-34 -22l-53 -18q-3 0 -17.5 -3t-27.5 -3q-89 0 -123 45l-2 2q-10 10 -10 47q0 18 13.5 32.5t35.5 14.5l16 -2q22 -13 19 -35q-2 -20 -16 -31t-27 -12.5t-13 0.5q11 -24 35 -35h-2q2 0 9.5 -3t15.5 -3q3 0 12 -1t12 -1h15q4 0 15 4t28.5 14.5 t29.5 24.5l23 27q21 18 24 37q0 1 1.5 2t3 4.5t2.5 9.5q0 7 8 30t8 35q0 4 0.5 14t0.5 17t-1 15.5t-4 13.5l-4 4l-4 2q-52 -27 -86 -27q-47 0 -47 33q9 35 69 35q13 0 28 -3t21 -3h2l4 4q14 7 41 48.5t31 82.5l4 33q0 39 -10 55l-6 10q-9 12 -27 21l-16 6q-17 0 -33 -4 l-8 -4h2q-3 -2 -15 -7t-18 -10l-22 -16q-19 -16 -34.5 -48.5t-15.5 -47.5q0 -3 -1.5 -9t-1.5 -10t3 -8l3 -8q13 -22 34 -25q78 0 84 121v15q32 0 25 -54l-1 -2q-1 -2 -1 -6l-2 -10q-9 -15 -25 -35l-8 -12q-29 -31 -63 -31q-64 0 -64 68zM213 944q0 -12 14 -12q18 0 27 4l6 2 q9 3 29 23q-28 4 -31 4q-40 0 -45 -21z" />
<glyph unicode="&#xb4;" horiz-adv-x="204" d="M676 768q-7 -4 -18.5 -11.5t-18.5 -11.5q-5 -3 -14.5 -9t-14.5 -9q-4 -3 -14 -8t-14 -8q-7 -3 -16.5 -10.5t-16.5 -10.5t-23.5 -11t-23.5 -11q-9 -5 -23.5 -13.5t-23.5 -13.5q-3 -3 -6.5 -2t-4.5 4.5t2 7.5q10 8 20.5 18.5t23 24t20.5 21.5l29 28q27 27 36 43 q7 13 21.5 29t21.5 27q11 17 31 22t31 -2q18 -11 20 -16q11 -18 11 -35q0 -22 -35 -43z" />
<glyph unicode="&#xb6;" horiz-adv-x="634" d="M328 14l2 17q0 33 13 96.5t15 85.5q13 45 32.5 171t39.5 208q1 18 11.5 66.5t11.5 52.5q14 74 20 96q7 58 21 131q-33 -10 -66 -10q-2 -14 -12.5 -84t-19 -117t-19.5 -92q-1 -18 -8.5 -49t-8.5 -39q-11 -58 -20 -92q-6 -41 -35 -189l-51 -248q-2 -3 -4.5 -12.5t-6 -15.5 t-7.5 -6h-3q-2 0 -4 -2q-10 0 -10 14q0 15 8.5 50t10.5 50l34 150q28 125 35 178l31 141q6 26 10 74q3 31 33 164q-2 0 -4 -2l-15 -13q-14 -12 -33 -19t-37 -10t-22 -5q-6 2 -26 2q-73 0 -116.5 48.5t-43.5 110.5q4 41 9 70t9 40t12 29t11 27l8 15q35 60 100 106 q113 80 224 80q23 0 53 -6q31 -8 53 -19l4 17q1 1 7 16t12 19q2 0 4 2h2q10 0 10 -15q0 -24 -8 -55q14 -9 23.5 -20t14 -25.5t6.5 -23t4 -27.5t3 -25q-11 -83 -63 -135l-9 -8q-17 -17 -49 -29q-13 -52 -22 -108l-27 -144q-14 -63 -16 -86q-8 -34 -23.5 -118.5t-15.5 -102.5 l-31 -182q-1 -4 -8.5 -61t-17.5 -101.5t-21 -44.5h-6q-8 0 -8 14zM303 793h2q64 0 84 61l4 18l8 56q-90 20 -90 65q0 28 11 43q2 -3 11.5 -31t18.5 -36l15 -15q21 -12 36 -12l21 113q0 18 13 93.5t24 102.5h-33q-38 -10 -83 -34.5t-90 -73t-56 -105.5q-1 -6 -5 -19.5t-6 -23 t-4 -27t-2 -36.5q0 -59 33.5 -99t87.5 -40zM485 1247l-2 -16q-4 -35 -18.5 -96.5t-18.5 -85.5q-3 -18 -8.5 -57.5t-7.5 -49.5q38 0 70 19q1 8 4 19.5t4 14.5l49 228q-22 20 -72 26v-2zM584 1180q-2 2 -2 6l-41 -170l-9 -33q22 9 37 37l11 16q18 32 18 58q0 9 -1 23.5 t-1 17.5l-2 16q-4 19 -10 29z" />
<glyph unicode="&#xb7;" horiz-adv-x="307" d="M190 537q24 -5 32 -13t14 -37q0 -30 -19 -49t-34.5 -23.5t-24.5 -4.5q-20 0 -38 13.5t-18 31.5q0 28 25 55t63 27z" />
<glyph unicode="&#xb8;" horiz-adv-x="124" d="M70 2l-27 -12q-17 -8 -27 -17q-12 -9 -12 -18q0 -3 10 -10q5 -2 23 -17q16 -12 22 -18q3 -3 15 -19q16 -22 16 -57q0 -30 -16 -67q-3 -3 -5.5 -9.5t-5.5 -9.5q-13 -18 -30 -35q-53 -47 -119 -47q-28 0 -41 8q-15 6 -25 19q-6 4 -10 16q-6 12 -6 27q0 25 14 45t37 20 q14 0 31 -10q10 -10 10 -24q0 -13 -10.5 -24t-26.5 -11q-5 0 -6 4t4 4q27 0 27 27q0 8 -8 16q-4 4 -17 4q-14 0 -24 -10q-5 -5 -8 -13q-7 -18 -7 -30q0 -27 19 -43q6 -6 18 -10q9 -3 27 -3q28 0 55 19q13 8 23 24q16 24 20 58q2 4 2 20q0 22 -6 37q-4 15 -12 23q-2 6 -6 10 l-11 10q-20 20 -24 23q-7 6 -16 12t-13 8.5t-4 3.5q0 12 35 33q25 15 41 23l41 20q13 8 29 8q8 0 8 -4z" />
<glyph unicode="&#xb9;" horiz-adv-x="378" d="M387 1260l8 4h5.5t3.5 -3t2 -10l-11 -22l2 2q-2 -2 -2 -4t-2 -2l-4 -8q-2 -2 -24 -58l-15 -31q0 -11 -19.5 -50.5t-25.5 -78.5l-22 -73q-13 -39 -13 -43v-2q0 -3 -4 -19l-12 -33q0 -3 -1 -8t-1 -6v-8q-1 -21 -11 -56.5t-10 -37.5v-11q0 -20 -16 -20h-70q-12 0 -12 10 q0 61 51 197l6 20q6 12 21 52v-3q0 1 1 3.5t1 3.5l6 14q2 5 6.5 12t7.5 13.5t3 13.5l18 39q5 16 10 22l15 31q2 5 17.5 31t18.5 39q-23 -23 -34 -25l-19 -10h2q-2 -1 -12 -8t-15.5 -10t-14.5 -6t-17 -3q-4 0 -4 6q0 4 8 10.5t14 8.5l10 4h-2q34 15 72 45l64 49z" />
<glyph unicode="&#xba;" horiz-adv-x="552" d="M479 895v-2q-28 -64 -90 -119q-41 -33 -94 -41q-51 -8 -107 8q-32 14 -73 70q-33 50 -33 115q0 34 4 43q0 24 6 51q9 15 12 43q20 55 56 106l22 25q8 7 25.5 20.5t25.5 20.5q77 57 187 43q29 -4 55.5 -24.5t38.5 -47.5q17 -28 21 -80q0 -26 -3 -53q-6 -54 -8 -59 q-3 -9 -9 -30t-9 -30q-3 -8 -10.5 -25.5t-10.5 -25.5h29q21 0 39 6q9 4 9 -1q-1 -12 -56 -17q-2 0 -5.5 0.5t-10 1.5t-11.5 2zM416 842q3 1 8 9.5t12.5 23.5t12.5 24q-14 4 -26 9t-23 10.5l-15 7.5q-41 31 -53.5 93t14.5 150q16 38 29 52t37 26q-26 0 -35 -4 q-30 -13 -70 -45q-3 -3 -10 -12t-12 -12q0 -3 -1 -4.5t-4.5 -4t-5.5 -4.5q-6 -10 -12 -22l-13.5 -27l-12.5 -25q-36 -88 -41 -122v-19q-7 -21 -7 -41q1 -3 4.5 -16t4.5 -21q2 -5 5 -21.5t9 -25.5q16 -32 35 -47q21 -21 57 -18q19 3 37 10q26 15 31 20q20 20 45 56zM414 934 q14 -14 39 -23q9 31 14 43q36 139 -4 234q-9 24 -29 31q-9 3 -18 0q-12 -4 -15 -13q-9 -7 -22 -45q-15 -62 -17 -98q0 -24 3 -39q4 -16 4 -29q13 -42 45 -61z" />
<glyph unicode="&#xbb;" horiz-adv-x="593" d="M256 481q-1 1 -3 2t-3 2q-17 9 -49 29t-49 29q-26 14 -52 26q-11 9 -8 19q4 10 21 0q96 -54 118 -64q11 -6 64 -43q12 -11 12 -35t-12 -34q-2 -2 -5.5 -5t-4.5 -4q-16 -7 -45.5 -22.5t-44.5 -22.5q-19 -11 -68 -32q-11 -4 -16 -2.5t-11 12.5q-5 8 -9.5 24t-6.5 21 q-3 15 14 22q53 32 68 37q11 4 36.5 15.5t39.5 15.5l12 6q0 2 2 4zM461 461q-1 1 -3 2t-3 2q-16 9 -49 28.5t-50 28.5q-39 22 -51 27q-11 8 -8 18t20 0q81 -46 119 -63q11 -6 64 -43q12 -11 12 -35t-12 -35q-2 -2 -6 -4.5t-5 -3.5q-16 -7 -45.5 -22.5t-44.5 -22.5 q-31 -17 -67 -33q-11 -4 -16 -2.5t-11 12.5q-5 8 -9.5 24t-6.5 21q-3 16 14 23q53 32 68 37q12 4 36.5 15.5t38.5 15.5l13 6q0 2 2 4z" />
<glyph unicode="&#xbc;" horiz-adv-x="942" d="M799 592q8 0 8 -10q0 -19 -14 -66l-5 -6q-3 -12 -10 -41.5t-13.5 -55t-12.5 -44.5v-4q0 -6 -4.5 -16.5t-4.5 -12.5l-2 -8q-3 -8 -7.5 -33t-8.5 -39v-8q-3 -8 -8 -36.5t-8 -35.5l43 2l34 -2q7 0 7 -4q0 -11 -7 -18l-49 2l-20 -2l-15 2q0 -50 -16 -90q0 -19 -3 -34.5 t-6.5 -22.5t-4.5 -7q-42 0 -56 2q-2 -1 -7.5 -0.5t-12.5 1.5l-8 1q-6 0 -6 12l8 33l6 15l4 24l14 64h-18h-72h-57q-23 2 -45 2h-31q-12 0 -12 4l-2 10l4 4q11 15 53 57.5t68 73.5q10 13 20.5 22.5t41.5 40.5t81 85q3 3 65.5 58t88.5 81zM733 502l-18 -19l-8 -6 q-3 -4 -10.5 -12t-17 -16.5t-11.5 -10.5q-2 -1 -5 -3q-9 -7 -21 -19l-50 -51l-2 -3q-2 -3 -10.5 -14t-19.5 -21.5t-30 -25.5l-4 -4q-5 -7 -17 -19.5t-15 -17.5q-18 -14 -47 -47t-33 -37h41l39 -2l28 2l39 -2l53 2q9 0 9 6l2 6q2 9 10 35.5t14 48.5l2 9q7 21 8 26l5 6 q0 5 12 32.5t12 45.5l4 6q3 5 7 17t8 20q0 -3 1 2q1 1 2 6q12 49 23 60zM412 1260l8 4h5.5t3 -3t1.5 -10l-10 -22l2 2q-2 -2 -2 -4t-2 -2l-4 -8q-4 -5 -25 -58l-14 -31q0 -11 -19.5 -50.5t-25.5 -78.5l-23 -73q-12 -36 -12 -43v-2q0 -3 -4 -19l-12 -33q0 -3 -1.5 -8t-1.5 -6 v-8q-1 -21 -10.5 -56.5t-9.5 -37.5v-11q0 -20 -16 -20h-70q-12 0 -12 10q0 61 51 197l6 20q6 12 21 52v-3q0 1 1 3.5t1 3.5l6 14q2 5 6.5 12t7 13.5t2.5 13.5l19 39q5 16 10 22l14 31q2 5 18 31t19 39q-22 -22 -35 -25l-18 -10h2q-43 -27 -60 -27q-4 0 -4 6q0 4 8.5 10.5 t14.5 8.5l10 4h-2q34 15 72 45l63 49zM879 852q-4 -3 -13.5 -11.5t-13.5 -11.5q-18 -10 -127 -73q-19 -11 -62.5 -37.5t-68.5 -40.5q-16 -8 -43.5 -24t-40.5 -23q-6 -3 -35.5 -20.5t-44.5 -26.5q-15 -6 -41.5 -22.5t-30.5 -18.5q-74 -49 -147 -90q-21 -12 -62.5 -33 t-60.5 -31q-24 -6 -27 -8q-5 -2 -6 -1t0 5q-5 3 4 12q4 1 10.5 4.5t8.5 4.5q48 29 59 34q4 2 18.5 12t22.5 13q126 70 150 84q16 10 54.5 31.5t57.5 35.5q22 9 60 35q16 12 63 41q47 25 84 49q11 7 30.5 20.5t31.5 20.5t32 19.5t31 19.5q14 7 42 22.5t42 22.5q5 5 16 8 q13 3 15 -4q3 -1 -2 -8l-2 -4l-2 -1q-2 -1 -2 -5z" />
<glyph unicode="&#xbd;" horiz-adv-x="942" d="M412 1260l8 4h5.5t3 -3t1.5 -10l-10 -22l2 2q-2 -2 -2 -4t-2 -2l-4 -8q-4 -5 -25 -58l-14 -31q0 -11 -19.5 -50.5t-25.5 -78.5l-23 -73q-12 -36 -12 -43v-2q0 -3 -4 -19l-12 -33q0 -3 -1.5 -8t-1.5 -6v-8q-1 -21 -10.5 -56.5t-9.5 -37.5v-11q0 -20 -16 -20h-70 q-12 0 -12 10q0 61 51 197l6 20q6 12 21 52v-3q0 1 1 3.5t1 3.5l6 14q2 5 6.5 12t7 13.5t2.5 13.5l19 39q5 16 10 22l14 31q2 5 18 31t19 39q-22 -22 -35 -25l-18 -10h2q-43 -27 -60 -27q-4 0 -4 6q0 4 8.5 10.5t14.5 8.5l10 4h-2q34 15 72 45l63 49zM537 395l2 23 q2 38 51 104l4 4q1 0 21.5 18t45.5 28t60 10q3 0 7 -1t7 -1h8q20 0 35 -9l6 -2q17 -9 28.5 -21t17 -26t8 -25t4.5 -28t4 -27v-2q-7 -85 -76 -159l-6 -5q-19 -24 -33 -30q-27 -27 -75 -55.5t-78 -51.5l-9 -4q-3 -3 -7 -5t-5 -5q-2 -2 -16 -8t-24.5 -13.5t-10.5 -13.5h2l6 4 q26 4 35 2q26 0 82 -29.5t74 -29.5q13 0 24 3.5t17 8.5t10 9.5t6 7.5l2 4q4 0 8 -7q-13 -34 -53 -63h-2q-10 -12 -29.5 -20.5t-30.5 -6.5q-8 0 -10 2v-2q-26 1 -75 21.5t-70 25.5h-10q-15 5 -25 5q-20 0 -39 -19q-4 4 -4 10q2 3 6 15t15 27.5t36 37.5q12 4 15 10l6 3 q28 28 78 61l4 4q2 2 17.5 15t38.5 32.5t40 34.5l6 6q1 1 2.5 3.5t4.5 6.5t5 7q16 12 42 62.5t30 107.5l2 8q0 6 -2 8v2q3 21 -6 35v8q-1 2 -7 12t-10 14.5t-14 10t-22 6.5q-3 0 -7 -1l-4 -1q-14 0 -29.5 -3.5t-46.5 -26.5t-53 -64l-2 -6q0 -1 -6.5 -10t-7.5 -27 q-4 -35 9.5 -52.5t33.5 -17.5q46 0 68 31l16 26q14 18 18 64q0 14 -8 22q14 5 21 -17l3 -12l1 -5q0 -50 -33 -88l-2 -3l-5.5 -5.5l-6.5 -6.5t-7 -6.5t-8.5 -6.5t-9.5 -5.5t-11 -4.5t-12 -2t-14 -1q-28 0 -51.5 16.5t-19.5 54.5zM879 872q-4 -3 -13.5 -11t-13.5 -11 q-19 -10 -40 -22.5t-46.5 -27.5t-40.5 -24q-19 -11 -62.5 -37.5t-68.5 -40.5q-16 -8 -43.5 -24t-40.5 -23q-6 -3 -35.5 -20.5t-44.5 -26.5q-15 -6 -41.5 -22.5t-30.5 -18.5q-74 -49 -147 -90q-21 -12 -62.5 -32t-60.5 -31q-22 -6 -27 -9q-9 -3 -6 5q-5 3 4 12q5 1 11 4l8 4 q54 33 59 35q3 2 18 11t23 13q126 70 150 84q15 10 53.5 32t58.5 36q22 9 60 35q16 12 63 41q47 25 84 49q11 7 30.5 20.5t31.5 20.5t32 19.5t31 19.5q14 7 42 22.5t42 22.5q5 5 16 8q13 3 15 -4q3 -1 -2 -8l-2 -4q0 -1 -2 -2t-2 -5z" />
<glyph unicode="&#xbe;" horiz-adv-x="942" d="M799 592q8 0 8 -10q0 -19 -14 -66l-5 -6q-3 -12 -10 -41.5t-13.5 -55t-12.5 -44.5v-4q0 -6 -4.5 -16.5t-4.5 -12.5l-2 -8q-3 -8 -7.5 -33t-8.5 -39v-8q-3 -8 -8 -36.5t-8 -35.5l43 2l34 -2q7 0 7 -4q0 -11 -7 -18l-49 2l-20 -2l-15 2q0 -50 -16 -90q0 -19 -3 -34.5 t-6.5 -22.5t-4.5 -7q-42 0 -56 2q-2 -1 -7.5 -0.5t-12.5 1.5l-8 1q-6 0 -6 12l8 33l6 15l4 24l14 64h-18h-72h-57q-23 2 -45 2h-31q-12 0 -12 4l-2 10l4 4q11 15 53 57.5t68 73.5q10 13 20.5 22.5t41.5 40.5t81 85q3 3 65.5 58t88.5 81zM733 502l-18 -19l-8 -6 q-3 -4 -10.5 -12t-17 -16.5t-11.5 -10.5q-2 -1 -5 -3q-9 -7 -21 -19l-50 -51l-2 -3q-2 -3 -10.5 -14t-19.5 -21.5t-30 -25.5l-4 -4q-5 -7 -17 -19.5t-15 -17.5q-18 -14 -47 -47t-33 -37h41l39 -2l28 2l39 -2l53 2q9 0 9 6l2 6q2 9 10 35.5t14 48.5l2 9q7 21 8 26l5 6 q0 5 12 32.5t12 45.5l4 6q3 5 7 17t8 20q0 -3 1 2q1 1 2 6q12 49 23 60zM879 831q-4 -3 -13.5 -11t-13.5 -11q-19 -10 -40 -22.5t-46.5 -27.5t-40.5 -24q-19 -11 -62.5 -37.5t-68.5 -40.5q-16 -8 -43.5 -24t-40.5 -23q-6 -3 -35.5 -20.5t-44.5 -26.5q-15 -6 -41.5 -22.5 t-30.5 -18.5q-74 -49 -147 -90q-21 -12 -62.5 -32t-60.5 -31q-22 -6 -27 -9q-9 -3 -6 5q-5 3 4 12q5 1 11 4l8 4q54 33 59 35q3 2 18 11t23 13q126 70 150 84q15 10 53.5 32t58.5 36q22 9 60 35q16 12 63 41q47 24 84 49q11 7 30.5 20.5t31.5 20.5t32 19.5t31 19.5 q14 7 42 22.5t42 22.5q5 5 16 8q13 3 15 -4q3 -1 -2 -8l-2 -4q0 -1 -1 -1.5t-2 -1.5t-1 -4zM172 1092q0 16 2 22v8q22 51 51 78l6 6q54 54 119 54q22 0 56 -15q-1 0 1 -1t8 -4.5t13 -8.5t14 -13.5t12.5 -19t8.5 -26t2 -33.5q0 -71 -62 -133l-12 -13l-3 -3q-4 -3 -6.5 -5.5 t-2.5 -3.5l-31 -25q40 -24 52.5 -50.5t7.5 -69.5v-11q-4 -27 -15 -43l-22 -30q-3 -3 -12 -15t-22 -23t-34 -22l-53 -18q-3 0 -17.5 -3t-27.5 -3q-89 0 -123 45l-2 2q-10 10 -10 47q0 18 13.5 32.5t35.5 14.5l16 -2q22 -13 19 -35q-2 -20 -16 -31t-27 -12.5t-13 0.5 q11 -24 35 -35h-2q2 0 9.5 -3t15.5 -3q3 0 12 -1t12 -1h15q4 0 15 4t28.5 14.5t29.5 24.5l23 27q21 18 24 37q0 1 1.5 2t3 4.5t2.5 9.5q0 7 8 30t8 35q0 4 0.5 14t0.5 17t-1 15.5t-4 13.5l-4 4l-4 2q-52 -27 -86 -27q-47 0 -47 33q9 35 69 35q13 0 28 -3t21 -3h2l4 4 q14 7 41 48.5t31 82.5l4 33q0 39 -10 55l-6 10q-9 12 -27 21l-16 6q-17 0 -33 -4l-8 -4h2q-3 -2 -15 -7t-18 -10l-22 -16q-19 -16 -34.5 -48.5t-15.5 -47.5q0 -3 -1.5 -9t-1.5 -10t3 -8l3 -8q13 -22 34 -25q78 0 84 121v15q32 0 25 -54l-1 -2q-1 -2 -1 -6l-2 -10 q-9 -15 -25 -35l-8 -12q-29 -31 -63 -31q-64 0 -64 68zM213 944q0 -12 14 -12q18 0 27 4l6 2q9 3 29 23q-28 4 -31 4q-40 0 -45 -21z" />
<glyph unicode="&#xbf;" horiz-adv-x="768" d="M266 -373l2 2h-16q-91 0 -162 47q-42 27 -84 88q-1 1 -10.5 15t-14 23.5t-12 28t-11 41.5t-3.5 50q0 5 1 14.5t1 14.5q0 14 -2 18q19 126 59 178q5 20 44 59.5t100 78.5q1 0 28.5 17t61.5 28q10 7 55 34t96 68q14 10 38 46.5t50 58.5q42 86 53 100q14 15 19 2 q-7 -35 -15.5 -58.5t-23 -53.5t-22.5 -50q-35 -54 -56 -80.5t-49 -48.5q-22 -17 -47 -43t-43 -41q-6 -11 -25 -28.5t-32 -24.5q-12 -10 -24.5 -24t-35.5 -42t-43 -51q0 -1 -5 -8t-8.5 -13t-10 -17.5t-12 -22t-11.5 -25t-11 -29t-9 -31t-6 -34t-2 -35.5q0 -43 12 -82.5 t36 -73.5t67 -54.5t100 -20.5q16 0 88 14q6 4 45 21q4 4 4 8q3 3 13 14t16 16q32 36 38 60q2 5 5 13t5 13t5 9q0 8 2 10q7 27 8 37q0 2 3 12.5t3 15.5q4 15 4 66q0 8 -2.5 18t-3.5 15q-11 20 -43 20q-1 0 -4.5 -2.5t-4.5 -3t-4 -2.5t-4 -3.5t-2 -4t-0.5 -5t1.5 -5.5 q3 -15 18 -15q8 4 10 2q6 3 6 -2l-2 -6q-17 -6 -26 -4q-18 15 -25 35q0 2 1 4t0.5 3.5t-3.5 4.5q0 22 15 37q12 12 18 12q20 17 47 8q48 -12 66 -36q3 -4 6.5 -14t7.5 -17q17 -46 10 -86q0 -11 -12 -39q-11 -33 -17 -47q-15 -25 -16 -29l-20 -24l-29 -41q-12 -12 -39.5 -32 t-86 -45.5t-110.5 -25.5h-8zM610 907l-2 2q29 -6 35 -13q7 -9 12 -38q0 -19 -7.5 -34t-18.5 -22.5t-22.5 -13t-19 -7.5t-7.5 -3q-41 14 -51 28q-7 8 -9 19q0 38 29 59t61 23z" />
</font>
</defs>
</svg>
